<?xml version="1.0" encoding="utf-8"?>
<!-- Generator: Adobe Illustrator 16.0.0, SVG Export Plug-In . SVG Version: 6.00 Build 0)  -->
<!DOCTYPE svg PUBLIC "-//W3C//DTD SVG 1.1//EN" "http://www.w3.org/Graphics/SVG/1.1/DTD/svg11.dtd">
<svg version="1.1" id="圖層_1" xmlns="http://www.w3.org/2000/svg" xmlns:xlink="http://www.w3.org/1999/xlink" x="0px" y="0px"
	 width="16px" height="24px" viewBox="0 0 16 24" enable-background="new 0 0 16 24" xml:space="preserve">
<g>
	<path fill="#E5E5E5" d="M12.429,13.072c0.002,0.004,0.004,0.008,0.006,0.014c0.004,0.002,0.01,0.004,0.012,0.006L12.429,13.072z"/>
	<path fill="#E5E5E5" d="M13.118,12.421c-0.002-0.005-0.002-0.01-0.002-0.014c-0.006-0.001-0.012-0.003-0.018-0.004L13.118,12.421z"
		/>
	<path fill="#E5E5E5" d="M14.351,7.128c0.006,0.001,0.012,0.004,0.018,0.005c0.086,0,0.172,0,0.258,0
		c-0.014-0.257-0.045-0.51-0.088-0.759c-0.025,0.004-0.053,0.009-0.082,0.014c-0.037,0.241-0.074,0.483-0.109,0.724
		C14.347,7.118,14.349,7.124,14.351,7.128z"/>
	<path fill="#E5E5E5" d="M14.64,7.513c-0.01-0.008-0.018-0.016-0.025-0.025c-0.08-0.122-0.053-0.317-0.246-0.354
		c-0.008,0-0.016,0-0.025,0c0.002-0.007,0.002-0.014,0.004-0.021c-0.064-0.244-0.246-0.161-0.406-0.132l0,0
		c-0.059,0.026-0.113,0.053-0.172,0.078c-0.031,0.232-0.063,0.463-0.094,0.694c0.004,0.009,0.008,0.02,0.014,0.027
		c0.004,0.003,0.006,0.004,0.006,0.006c0.104-0.003,0.205-0.013,0.307-0.006c0.262,0.018,0.355,0.091,0.32,0.264
		c-0.014,0.065-0.084,0.151-0.145,0.168c-0.16,0.047-0.242-0.042-0.291-0.201c-0.027-0.087-0.123-0.151-0.191-0.225
		c-0.008,0-0.016,0.001-0.025,0.001c0.002-0.012,0.004-0.023,0.006-0.034c-0.008-0.019-0.014-0.037-0.023-0.038
		c-0.373-0.057-0.416-0.382-0.529-0.65L13.118,7.06c-0.008-0.007-0.02-0.019-0.02-0.019l0,0C13.03,7.008,12.96,6.949,12.89,6.945
		c-0.223-0.009-0.316-0.12-0.342-0.333c-0.006-0.047-0.096-0.085-0.156-0.125c-0.002,0-0.004,0-0.006,0
		c-0.002-0.002-0.002-0.005-0.002-0.006c0,0,0,0,0-0.002c-0.063-0.072-0.115-0.185-0.193-0.208c-0.18-0.057-0.314-0.139-0.209-0.326
		c0.045-0.078,0.213-0.087,0.373-0.143c0.012,0.267,0.021,0.473,0.029,0.679c0.004,0.001,0.006,0.003,0.008,0.006
		c0.252-0.035,0.502-0.073,0.752-0.112c0.043-0.018,0.086-0.04,0.129-0.065c-0.084-0.162-0.006-0.391-0.201-0.508
		c-0.006,0.001-0.012,0.002-0.02,0.003c0-0.006,0-0.012,0-0.019c-0.078-0.061-0.15-0.145-0.24-0.17
		c-0.156-0.044-0.24-0.129-0.213-0.285c0.041-0.227,0.209-0.201,0.424-0.149c0.008,0.196,0.02,0.4,0.029,0.604
		c0.004,0.001,0.006,0.004,0.008,0.006c0.006,0.003,0.008,0.007,0.012,0.009c0.244-0.028,0.492-0.062,0.738-0.096l0,0
		c0.045-0.02,0.088-0.042,0.131-0.065c-0.008-0.078-0.045-0.168-0.018-0.232c0.037-0.083,0.115-0.193,0.184-0.201
		c0.039-0.004,0.088,0.011,0.133,0.038c-0.654-1.799-2.068-3.236-3.85-3.925c-0.098,0.098-0.152,0.171-0.221,0.201
		c-0.104,0.043-0.207,0.007-0.244-0.12C9.901,1.316,9.927,1.228,9.979,1.176C9.355,0.98,8.689,0.874,7.999,0.874
		c-1.392,0-2.685,0.432-3.753,1.167c-0.002,0.01-0.003,0.019-0.005,0.028c-0.015,0.057-0.1,0.093-0.207,0.184
		C4.027,2.237,4.02,2.224,4.013,2.208C3.851,2.33,3.695,2.459,3.545,2.595c0.018,0.02,0.03,0.04,0.031,0.06
		c0.002,0.062-0.054,0.153-0.11,0.183C3.419,2.861,3.362,2.845,3.321,2.808C3.165,2.963,3.017,3.126,2.876,3.296
		c0.021,0.027,0.043,0.056,0.069,0.085C2.864,3.44,2.815,3.5,2.754,3.514C2.739,3.517,2.723,3.515,2.707,3.511
		c-0.546,0.72-0.948,1.556-1.164,2.463c0.006,0.011,0.012,0.023,0.013,0.034c0.001,0.036-0.02,0.081-0.048,0.118
		C1.43,6.488,1.383,6.861,1.368,7.242c0.027-0.009,0.054-0.016,0.076-0.013C1.5,7.235,1.545,7.322,1.619,7.399
		c-0.088,0.06-0.143,0.123-0.207,0.136C1.395,7.54,1.378,7.538,1.361,7.533v1.034c0.026-0.009,0.053-0.015,0.073-0.013
		c0.129,0.008,0.169,0.123,0.135,0.226C1.552,8.83,1.464,8.858,1.361,8.921v0.985C1.38,9.899,1.398,9.893,1.415,9.891
		c0.132-0.005,0.178,0.101,0.151,0.21c-0.015,0.055-0.098,0.093-0.205,0.186v0.965c0.029-0.013,0.059-0.021,0.084-0.018
		c0.052,0.005,0.096,0.094,0.165,0.168c-0.082,0.061-0.133,0.125-0.195,0.14c-0.019,0.005-0.037,0.001-0.055-0.004v1.037
		c0.03-0.01,0.062-0.01,0.088,0.006c0.052,0.033,0.1,0.124,0.093,0.182c-0.007,0.053-0.09,0.096-0.163,0.165
		c-0.007-0.01-0.013-0.017-0.019-0.024v1.028c0.026-0.016,0.055-0.035,0.081-0.055c0.052,0.082,0.112,0.139,0.121,0.201
		c0.014,0.096-0.122,0.191-0.202,0.152v1.021c0.013-0.016,0.026-0.029,0.039-0.045c0.07,0.076,0.154,0.127,0.156,0.182
		c0.003,0.059-0.054,0.15-0.11,0.18c-0.027,0.014-0.057,0.016-0.084,0.008l0,0.912c0,0.029,0.001,0.063,0.003,0.092
		c0.032-0.004,0.068-0.002,0.103,0.012c0.053,0.018,0.08,0.113,0.15,0.223c-0.098,0.031-0.172,0.072-0.243,0.082
		c0.023,0.377,0.078,0.744,0.162,1.1c0.016,0.016,0.027,0.031,0.033,0.051c0.011,0.035,0.011,0.072,0.003,0.105
		c0.228,0.877,0.63,1.682,1.167,2.379c0.081,0.018,0.164,0.035,0.259,0.057c-0.005,0.08-0.011,0.158-0.017,0.238
		c0.104,0.121,0.211,0.238,0.323,0.352c0.095,0,0.191,0,0.289,0c0.019,0.129,0.051,0.211,0.034,0.281
		c0,0.006-0.002,0.01-0.004,0.016c0.663,0.582,1.442,1.035,2.298,1.316c-0.014-0.094,0.022-0.193,0.207-0.225
		c0.043,0.051,0.133,0.111,0.156,0.189c0.016,0.061,0.001,0.105-0.028,0.139c0.556,0.15,1.141,0.232,1.743,0.232
		c0.672,0,1.32-0.102,1.932-0.287c-0.002-0.016-0.004-0.033-0.004-0.055c0.004-0.117,0.049-0.229,0.188-0.207
		c0.068,0.012,0.135,0.055,0.242,0.115c1.732-0.66,3.119-2.025,3.807-3.748c-0.027,0.002-0.059,0-0.086-0.006
		c-0.055-0.016-0.123-0.117-0.125-0.18c-0.004-0.113,0.063-0.229,0.199-0.189c0.047,0.016,0.086,0.055,0.119,0.094
		c0.199-0.572,0.322-1.178,0.355-1.809c0-0.002-0.002-0.004-0.004-0.004c-0.084-0.119-0.057-0.313-0.238-0.365
		c-0.012,0-0.027,0-0.041,0c0-0.01,0-0.016,0-0.023c-0.078-0.055-0.148-0.127-0.232-0.154c-0.172-0.053-0.225-0.182-0.16-0.307
		c0.047-0.09,0.199-0.121,0.291-0.17c0.236,0.217,0.107,0.432,0.102,0.631c0.006,0.006,0.012,0.01,0.02,0.014
		c0.01,0.004,0.014,0.008,0.021,0.01c0.086,0,0.17,0,0.254,0.008c0-0.004,0-0.004,0-0.006v-0.98
		c-0.01-0.023-0.012-0.049-0.012-0.082c0-0.014,0.006-0.029,0.014-0.049v-1.209c-0.023-0.014-0.041-0.029-0.057-0.047
		c-0.08-0.092-0.121-0.215-0.178-0.326c-0.014-0.002-0.025-0.002-0.039-0.006c0-0.014,0-0.029,0-0.047
		c-0.184-0.176-0.385-0.027-0.578-0.006c0,0.008,0,0.018,0,0.027c-0.008,0-0.016,0-0.023,0c-0.031,0.232-0.061,0.461-0.092,0.695
		c0.002,0.01,0.004,0.02,0.008,0.027c0.002,0,0.006,0,0.008,0.002c0.205,0,0.41,0,0.623,0c0.008,0.131,0.037,0.223,0.01,0.291
		c-0.066,0.18-0.285,0.219-0.375,0.064c-0.074-0.129-0.043-0.33-0.258-0.355c-0.006,0-0.014,0-0.02,0c0-0.01,0.002-0.02,0.004-0.029
		c-0.004-0.02-0.006-0.041-0.018-0.047c-0.389-0.271-0.4-0.279-0.535-0.648c-0.008,0-0.016,0-0.025,0c0-0.01,0-0.023,0-0.033
		c-0.07-0.029-0.141-0.07-0.215-0.076c-0.229-0.016-0.332-0.135-0.354-0.359c-0.008-0.07-0.059-0.139-0.092-0.209
		c-0.066-0.033-0.133-0.08-0.205-0.09c-0.201-0.03-0.35-0.091-0.361-0.334c-0.002-0.061-0.066-0.118-0.109-0.177
		c-0.008,0-0.016,0.002-0.025,0.002c-0.002-0.008-0.002-0.018-0.004-0.027c-0.133-0.073-0.273-0.137-0.393-0.23
		c-0.047-0.036-0.07-0.154-0.051-0.216c0.021-0.056,0.113-0.12,0.172-0.122c0.064,0,0.166,0.06,0.184,0.116
		c0.047,0.146,0.063,0.301,0.088,0.452c0.006,0.003,0.012,0.006,0.016,0.009c0.004,0.004,0.008,0.01,0.014,0.017
		c0.229-0.035,0.459-0.071,0.691-0.11c0.016-0.044,0.037-0.086,0.064-0.126c0.025-0.079,0.029-0.177,0.082-0.231
		c0.064-0.068,0.166-0.125,0.258-0.137c0.053-0.006,0.15,0.076,0.174,0.137c0.047,0.123,0.061,0.258,0.088,0.39
		c0.18,0.037,0.363,0.073,0.586,0.118c0.02,0.185,0.039,0.365,0.057,0.544c0.01,0,0.02,0,0.029,0c0,0.012,0,0.02,0,0.029
		c0.174,0.02,0.348,0.039,0.578,0.066c0,0.197,0,0.391,0,0.578c0.01,0.012,0.02,0.02,0.029,0.033c0.004,0.004,0.006,0.012,0.01,0.02
		c0.078,0.008,0.156,0.012,0.234,0.023v-1.009c-0.016-0.033-0.027-0.071-0.025-0.099c0.002-0.032,0.012-0.057,0.025-0.079v-1.196
		c-0.004-0.014-0.004-0.03,0-0.046v-1.301c-0.016-0.034-0.018-0.069,0-0.095V7.513z M13.495,4.542
		c0.059,0.017,0.096,0.105,0.188,0.216c-0.125,0.055-0.205,0.113-0.289,0.115c-0.035,0.001-0.105-0.111-0.109-0.175
		C13.278,4.565,13.38,4.509,13.495,4.542z M12.72,3.814c0.111,0.073,0.207,0.1,0.227,0.155c0.037,0.104-0.002,0.217-0.133,0.227
		C12.751,4.2,12.63,4.139,12.628,4.104C12.626,4.02,12.679,3.934,12.72,3.814z M14.122,17.18c0.088,0.006,0.17,0.074,0.219,0.098
		c0.031,0.232-0.064,0.35-0.221,0.33c-0.064-0.012-0.15-0.074-0.172-0.133C13.888,17.334,13.987,17.172,14.122,17.18z M13.44,16.545
		c0.148-0.027,0.293,0.078,0.256,0.213c-0.021,0.082-0.109,0.145-0.207,0.268c-0.102-0.117-0.188-0.178-0.211-0.256
		C13.245,16.654,13.313,16.568,13.44,16.545z M13.462,19.734c-0.092-0.164-0.16-0.242-0.172-0.326
		c-0.006-0.049,0.084-0.135,0.145-0.154c0.119-0.033,0.23,0.033,0.223,0.16C13.653,19.494,13.565,19.572,13.462,19.734z
		 M13.421,18.252c-0.049-0.004-0.119-0.096-0.133-0.158c-0.031-0.131,0.066-0.211,0.182-0.193c0.08,0.012,0.146,0.105,0.299,0.223
		C13.589,18.193,13.503,18.254,13.421,18.252z M13.524,15.178c0.08,0.029,0.133,0.131,0.25,0.25
		c-0.143,0.082-0.221,0.156-0.307,0.168c-0.125,0.02-0.201-0.059-0.201-0.193C13.267,15.236,13.376,15.125,13.524,15.178z
		 M12.788,20.279c-0.061-0.002-0.16-0.072-0.174-0.127c-0.025-0.102,0.004-0.217,0.205-0.252c0.045,0.049,0.139,0.109,0.162,0.189
		C13.021,20.229,12.899,20.285,12.788,20.279z M12.626,18.691c0.002-0.037,0.123-0.096,0.186-0.094
		c0.129,0.01,0.17,0.123,0.133,0.225c-0.018,0.055-0.115,0.082-0.229,0.152C12.677,18.859,12.622,18.773,12.626,18.691z
		 M12.612,14.709c0.02-0.08,0.107-0.184,0.188-0.211c0.102-0.033,0.215,0.014,0.223,0.162c0.018,0.16-0.076,0.266-0.23,0.264
		C12.651,14.92,12.585,14.82,12.612,14.709z M12.802,16.242c-0.063-0.002-0.17-0.072-0.17-0.111c0.002-0.08,0.061-0.162,0.113-0.281
		c0.107,0.09,0.193,0.127,0.209,0.184C12.983,16.143,12.935,16.248,12.802,16.242z M12.866,17.227
		c0.027,0.055,0.117,0.156,0.096,0.217c-0.025,0.068-0.145,0.125-0.23,0.145c-0.031,0.008-0.127-0.105-0.129-0.17
		C12.599,17.307,12.657,17.211,12.866,17.227z M12.157,16.559c0.035,0.043,0.127,0.105,0.15,0.184
		c0.039,0.139-0.08,0.197-0.189,0.193c-0.063-0.002-0.16-0.076-0.172-0.131C11.925,16.705,11.94,16.584,12.157,16.559z
		 M11.962,15.402c-0.006-0.135,0.1-0.176,0.205-0.148c0.055,0.014,0.092,0.096,0.184,0.203c-0.123,0.051-0.201,0.107-0.277,0.107
		C12.032,15.564,11.966,15.461,11.962,15.402z M12.142,17.785c0.078,0.158,0.162,0.252,0.146,0.318
		c-0.016,0.07-0.127,0.154-0.203,0.162c-0.123,0.016-0.188-0.094-0.152-0.207C11.958,17.98,12.038,17.918,12.142,17.785z
		 M12.083,20.939c-0.049,0-0.123-0.094-0.137-0.154c-0.029-0.131,0.064-0.219,0.182-0.203c0.08,0.014,0.148,0.105,0.305,0.225
		C12.253,20.879,12.167,20.939,12.083,20.939z M12.101,19.598c-0.047,0.004-0.135-0.078-0.154-0.137
		c-0.035-0.115,0.02-0.23,0.148-0.225c0.082,0.006,0.16,0.088,0.322,0.186C12.259,19.516,12.183,19.584,12.101,19.598z
		 M12.149,13.813c0.111,0.002,0.219,0.023,0.221,0.252c-0.049,0.041-0.127,0.15-0.229,0.182s-0.205-0.031-0.219-0.172
		C11.911,13.91,11.985,13.811,12.149,13.813z M12.134,3.164c0.08,0.024,0.135,0.124,0.172,0.162
		c-0.031,0.217-0.152,0.231-0.252,0.205c-0.055-0.014-0.117-0.118-0.117-0.183C11.937,3.237,11.997,3.119,12.134,3.164z
		 M12.12,4.499c0.088,0.013,0.168,0.083,0.334,0.17c-0.154,0.109-0.221,0.193-0.305,0.212c-0.111,0.024-0.219-0.025-0.213-0.172
		C11.942,4.595,11.979,4.479,12.12,4.499z M11.438,9.173c0.07,0.078,0.154,0.13,0.156,0.185c0.004,0.061-0.055,0.152-0.111,0.181
		c-0.098,0.053-0.23-0.064-0.197-0.174C11.306,9.303,11.372,9.255,11.438,9.173z M11.308,7.999c0.008-0.054,0.104-0.092,0.186-0.158
		c0.055,0.086,0.115,0.144,0.123,0.208c0.016,0.103-0.141,0.21-0.219,0.151C11.345,8.159,11.294,8.061,11.308,7.999z M11.519,4.184
		c-0.104,0.035-0.223-0.002-0.23-0.134c-0.004-0.063,0.059-0.187,0.096-0.188c0.084-0.003,0.17,0.051,0.291,0.094
		C11.601,4.067,11.573,4.165,11.519,4.184z M11.663,5.395c-0.09,0.053-0.148,0.112-0.213,0.12c-0.102,0.014-0.213-0.149-0.152-0.219
		c0.043-0.052,0.141-0.095,0.205-0.084C11.558,5.22,11.595,5.313,11.663,5.395z M10.772,1.799c0.121-0.002,0.219,0.034,0.236,0.25
		c-0.043,0.033-0.107,0.123-0.189,0.145c-0.111,0.03-0.223-0.016-0.221-0.166C10.601,1.912,10.628,1.802,10.772,1.799z
		 M10.937,10.114c-0.016,0.053-0.111,0.081-0.219,0.154c-0.041-0.119-0.092-0.203-0.09-0.285c0.004-0.036,0.121-0.098,0.182-0.094
		C10.935,9.899,10.972,10.014,10.937,10.114z M10.792,11.55c-0.057-0.003-0.164-0.072-0.164-0.111c0-0.08,0.059-0.159,0.109-0.28
		c0.107,0.092,0.189,0.129,0.203,0.184C10.968,11.449,10.927,11.556,10.792,11.55z M10.786,8.879
		c-0.105,0.022-0.219-0.125-0.16-0.208c0.035-0.056,0.131-0.105,0.191-0.099c0.057,0.007,0.1,0.095,0.174,0.172
		C10.903,8.804,10.851,8.866,10.786,8.879z M10.79,4.529c0.133-0.006,0.174,0.103,0.146,0.208c-0.014,0.055-0.098,0.094-0.201,0.188
		c-0.053-0.125-0.109-0.205-0.109-0.284C10.626,4.601,10.729,4.532,10.79,4.529z M10.628,3.295c0.004-0.037,0.123-0.098,0.186-0.094
		c0.129,0.007,0.17,0.123,0.135,0.224c-0.018,0.054-0.115,0.081-0.23,0.152C10.679,3.461,10.626,3.376,10.628,3.295z M10.778,5.883
		c0.061,0.015,0.137,0.084,0.146,0.14c0.008,0.057-0.055,0.125-0.1,0.213c-0.086-0.059-0.168-0.087-0.199-0.145
		C10.571,6.002,10.681,5.857,10.778,5.883z M10.935,7.346c0.002,0.059-0.053,0.148-0.107,0.176c-0.092,0.048-0.225-0.069-0.193-0.17
		c0.02-0.061,0.084-0.105,0.152-0.183C10.853,7.244,10.933,7.293,10.935,7.346z M10.845,15.568
		c-0.102,0.033-0.213-0.004-0.223-0.131c-0.004-0.063,0.059-0.18,0.092-0.184c0.082,0,0.166,0.053,0.281,0.092
		C10.925,15.455,10.899,15.551,10.845,15.568z M11.013,16.707c-0.09,0.105-0.127,0.189-0.184,0.203
		c-0.107,0.027-0.215-0.018-0.207-0.15c0.006-0.063,0.074-0.168,0.113-0.168C10.813,16.594,10.894,16.652,11.013,16.707z
		 M10.751,17.883c0.145-0.023,0.287,0.086,0.254,0.215c-0.021,0.082-0.109,0.146-0.207,0.27c-0.096-0.119-0.18-0.18-0.201-0.26
		C10.565,17.996,10.628,17.908,10.751,17.883z M10.833,19.578c-0.107,0.025-0.211-0.021-0.205-0.152
		c0.006-0.061,0.076-0.166,0.113-0.166c0.078,0.002,0.156,0.063,0.275,0.113C10.927,19.479,10.888,19.563,10.833,19.578z
		 M10.995,20.84c-0.117,0.041-0.203,0.094-0.285,0.09c-0.037-0.004-0.098-0.123-0.094-0.186c0.012-0.127,0.125-0.166,0.229-0.129
		C10.899,20.633,10.925,20.73,10.995,20.84z M10.729,14.248c-0.143-0.008-0.16-0.123-0.139-0.24
		c0.023-0.133,0.119-0.191,0.232-0.131c0.082,0.039,0.133,0.137,0.258,0.275C10.909,14.199,10.819,14.25,10.729,14.248z
		 M10.169,4.184c-0.08-0.024-0.156-0.086-0.209-0.152c-0.014-0.015,0.07-0.156,0.111-0.155c0.08,0,0.158,0.058,0.283,0.111
		C10.261,4.091,10.198,4.192,10.169,4.184z M10.31,5.312c-0.059,0.089-0.086,0.174-0.145,0.21c-0.086,0.055-0.236-0.06-0.209-0.163
		c0.016-0.062,0.086-0.142,0.141-0.151C10.153,5.199,10.222,5.266,10.31,5.312z M9.956,2.634c0.037-0.056,0.131-0.106,0.191-0.1
		c0.055,0.005,0.102,0.094,0.174,0.17c-0.086,0.063-0.141,0.125-0.203,0.139C10.015,2.866,9.899,2.719,9.956,2.634z M9.466,1.851
		c0.127,0.008,0.166,0.124,0.131,0.225C9.579,2.13,9.483,2.158,9.372,2.23c-0.04-0.118-0.093-0.204-0.089-0.286
		C9.285,1.908,9.403,1.846,9.466,1.851z M9.448,3.202c0.059,0.015,0.137,0.084,0.146,0.139c0.01,0.056-0.055,0.124-0.1,0.211
		C9.409,3.494,9.326,3.467,9.291,3.411C9.236,3.324,9.346,3.178,9.448,3.202z M9.462,4.542c0.063,0.019,0.111,0.084,0.191,0.152
		C9.577,4.765,9.524,4.846,9.47,4.849C9.409,4.852,9.318,4.794,9.289,4.738C9.236,4.64,9.355,4.509,9.462,4.542z M8.706,1.194
		C8.79,1.19,8.877,1.244,8.999,1.287C8.924,1.398,8.895,1.493,8.84,1.512C8.736,1.547,8.62,1.51,8.61,1.379
		C8.606,1.317,8.669,1.196,8.706,1.194z M8.623,2.614c0.042-0.053,0.14-0.099,0.2-0.088c0.051,0.01,0.088,0.106,0.148,0.188
		C8.888,2.767,8.831,2.827,8.768,2.836C8.67,2.849,8.565,2.688,8.623,2.614z M8.924,4.034C8.918,4.087,8.85,4.16,8.793,4.179
		C8.695,4.211,8.582,4.08,8.628,3.988c0.029-0.057,0.106-0.089,0.187-0.151C8.864,3.918,8.93,3.98,8.924,4.034z M7.962,1.956
		c0.036-0.053,0.128-0.104,0.19-0.097C8.206,1.864,8.25,1.952,8.32,2.026C8.236,2.087,8.185,2.15,8.123,2.164
		C8.021,2.188,7.908,2.041,7.962,1.956z M7.956,4.69c0.021-0.06,0.084-0.104,0.151-0.18c0.064,0.072,0.144,0.12,0.146,0.17
		C8.254,4.739,8.2,4.826,8.146,4.853C8.055,4.9,7.924,4.787,7.956,4.69z M8.107,3.208c0.054,0.007,0.132,0.078,0.14,0.129
		c0.008,0.055-0.053,0.12-0.096,0.203C8.069,3.486,7.977,3.457,7.96,3.405C7.928,3.298,7.973,3.194,8.107,3.208z M7.292,1.332
		c0.015-0.059,0.085-0.133,0.14-0.143C7.486,1.18,7.554,1.244,7.638,1.288C7.582,1.373,7.554,1.454,7.498,1.489
		C7.414,1.541,7.266,1.43,7.292,1.332z M7.422,2.554c0.05-0.012,0.119,0.056,0.325,0.168C7.598,2.783,7.525,2.839,7.458,2.833
		C7.397,2.828,7.343,2.754,7.287,2.71C7.331,2.655,7.367,2.567,7.422,2.554z M7.451,3.887c0.052,0.011,0.125,0.109,0.117,0.158
		C7.559,4.096,7.469,4.165,7.41,4.169C7.341,4.176,7.266,4.121,7.114,4.063C7.329,3.945,7.398,3.876,7.451,3.887z M6.746,1.883
		c0.046-0.008,0.143,0.063,0.153,0.113C6.91,2.049,6.844,2.117,6.736,2.324c-0.06-0.148-0.114-0.218-0.11-0.286
		C6.631,1.98,6.696,1.891,6.746,1.883z M6.792,3.158c0.052,0.1,0.123,0.171,0.109,0.221c-0.015,0.055-0.113,0.127-0.162,0.12
		C6.687,3.49,6.614,3.392,6.617,3.337C6.621,3.284,6.71,3.237,6.792,3.158z M6.598,4.656C6.633,4.602,6.728,4.55,6.788,4.558
		c0.054,0.007,0.099,0.096,0.17,0.173C6.872,4.789,6.819,4.852,6.756,4.866C6.651,4.889,6.542,4.745,6.598,4.656z M6.116,1.207
		c0.05,0.001,0.099,0.086,0.18,0.164c-0.1,0.056-0.17,0.126-0.219,0.114c-0.055-0.014-0.09-0.104-0.133-0.161
		C6.002,1.282,6.06,1.207,6.116,1.207z M5.938,2.646c0.034-0.051,0.123-0.099,0.181-0.093c0.052,0.006,0.094,0.089,0.16,0.161
		C6.198,2.771,6.148,2.83,6.087,2.844C5.99,2.866,5.884,2.728,5.938,2.646z M6.234,4.01c0.003,0.06-0.052,0.15-0.108,0.18
		C6.029,4.241,5.899,4.126,5.931,4.018c0.019-0.063,0.084-0.11,0.15-0.193C6.15,3.903,6.232,3.955,6.234,4.01z M6.103,5.178
		c0.082,0.013,0.151,0.107,0.306,0.227c-0.183,0.072-0.27,0.131-0.356,0.129c-0.048,0-0.122-0.095-0.135-0.158
		C5.888,5.242,5.986,5.16,6.103,5.178z M5.473,6.195C5.364,6.222,5.255,6.176,5.264,6.042c0.003-0.063,0.075-0.17,0.113-0.169
		c0.082,0.002,0.163,0.062,0.288,0.117C5.569,6.096,5.53,6.18,5.473,6.195z M5.583,7.444c-0.019,0.055-0.117,0.082-0.23,0.154
		C5.312,7.479,5.259,7.393,5.264,7.31c0.002-0.037,0.122-0.098,0.185-0.094C5.578,7.225,5.618,7.341,5.583,7.444z M5.266,1.965
		C5.306,1.914,5.399,1.87,5.458,1.88c0.051,0.009,0.087,0.1,0.148,0.178c-0.083,0.051-0.137,0.108-0.2,0.118
		C5.312,2.191,5.209,2.038,5.266,1.965z M5.575,3.406C5.561,3.462,5.476,3.499,5.37,3.59c-0.051-0.121-0.108-0.2-0.107-0.279
		c0-0.039,0.105-0.107,0.165-0.109C5.559,3.194,5.604,3.3,5.575,3.406z M4.817,2.533c0.054,0.02,0.081,0.117,0.15,0.229
		C4.851,2.802,4.766,2.854,4.683,2.849C4.648,2.847,4.587,2.728,4.592,2.665C4.602,2.536,4.716,2.497,4.817,2.533z M4.916,4.024
		C4.93,4.13,4.771,4.24,4.696,4.178c-0.054-0.044-0.1-0.142-0.089-0.205C4.616,3.918,4.71,3.877,4.792,3.81
		C4.847,3.9,4.906,3.958,4.916,4.024z M4.603,5.307c0.044-0.053,0.143-0.101,0.206-0.089c0.055,0.01,0.093,0.106,0.16,0.19
		C4.879,5.46,4.82,5.52,4.755,5.528C4.651,5.542,4.542,5.381,4.603,5.307z M4.917,6.77C4.898,6.825,4.8,6.853,4.688,6.926
		c-0.042-0.119-0.095-0.205-0.09-0.289c0.002-0.038,0.123-0.1,0.185-0.096C4.913,6.552,4.951,6.667,4.917,6.77z M4.727,7.869
		c0.06-0.024,0.162,0.063,0.216,0.088c0.021,0.206-0.071,0.269-0.184,0.266c-0.063-0.001-0.18-0.092-0.173-0.122
		C4.605,8.015,4.656,7.894,4.727,7.869z M4.789,10.529c0.052,0.084,0.111,0.14,0.12,0.202c0.015,0.102-0.14,0.206-0.215,0.148
		c-0.053-0.04-0.1-0.136-0.089-0.197C4.614,10.63,4.708,10.593,4.789,10.529z M4.61,9.33C4.62,9.277,4.713,9.238,4.793,9.173
		c0.052,0.086,0.109,0.144,0.119,0.207c0.014,0.104-0.139,0.21-0.213,0.15C4.645,9.487,4.6,9.391,4.61,9.33z M4.762,11.908
		c0.134-0.007,0.177,0.104,0.15,0.21c-0.014,0.056-0.1,0.094-0.207,0.187c-0.052-0.125-0.11-0.205-0.109-0.284
		C4.596,11.98,4.701,11.909,4.762,11.908z M4.723,13.207c0.083,0,0.166,0.084,0.332,0.18c-0.156,0.1-0.23,0.172-0.314,0.188
		c-0.046,0.01-0.14-0.074-0.159-0.133C4.543,13.328,4.589,13.205,4.723,13.207z M4.145,8.864c-0.089,0.052-0.238-0.06-0.211-0.162
		C3.948,8.642,4.02,8.563,4.076,8.554C4.133,8.544,4.202,8.61,4.292,8.657C4.232,8.745,4.203,8.829,4.145,8.864z M4.281,10.053
		c-0.071,0.065-0.114,0.142-0.169,0.152c-0.126,0.02-0.194-0.069-0.167-0.184c0.012-0.05,0.106-0.11,0.163-0.109
		C4.158,9.913,4.208,9.99,4.281,10.053z M4.147,11.24c0.054,0.019,0.08,0.114,0.15,0.225c-0.117,0.041-0.202,0.092-0.284,0.087
		c-0.036-0.002-0.096-0.122-0.091-0.183C3.934,11.242,4.047,11.204,4.147,11.24z M4.023,7.527C3.986,7.525,3.925,7.405,3.93,7.344
		c0.011-0.128,0.126-0.163,0.227-0.128C4.211,7.235,4.239,7.33,4.31,7.442C4.191,7.481,4.105,7.533,4.023,7.527z M4.153,6.195
		c-0.101,0.033-0.215-0.002-0.225-0.13c-0.004-0.06,0.057-0.176,0.095-0.179c0.081-0.004,0.165,0.047,0.285,0.09
		C4.235,6.084,4.206,6.176,4.153,6.195z M3.941,4.66C3.952,4.611,4.05,4.549,4.108,4.55c0.052,0,0.103,0.079,0.179,0.144
		C4.214,4.762,4.168,4.839,4.112,4.848C3.982,4.871,3.914,4.778,3.941,4.66z M3.936,3.284C3.98,3.231,4.079,3.187,4.143,3.198
		c0.055,0.01,0.094,0.105,0.16,0.189C4.213,3.44,4.154,3.499,4.088,3.507C3.986,3.521,3.875,3.357,3.936,3.284z M3.908,12.717
		c0.019-0.076,0.139-0.183,0.206-0.176c0.072,0.007,0.179,0.127,0.184,0.204C4.3,12.813,4.186,12.887,4.07,13.02
		C3.986,12.875,3.892,12.782,3.908,12.717z M3.398,16.238c-0.039,0.008-0.137-0.086-0.148-0.146
		c-0.023-0.117,0.031-0.229,0.175-0.207c0.063,0.01,0.116,0.084,0.232,0.176C3.545,16.141,3.478,16.217,3.398,16.238z M3.572,17.395
		c0.002,0.061-0.056,0.15-0.111,0.178c-0.099,0.049-0.232-0.068-0.2-0.17c0.02-0.063,0.087-0.107,0.155-0.184
		C3.485,17.293,3.57,17.34,3.572,17.395z M3.654,13.441c-0.122,0.053-0.2,0.111-0.279,0.111c-0.039,0-0.107-0.105-0.111-0.164
		c-0.007-0.135,0.1-0.178,0.206-0.152C3.525,13.252,3.563,13.336,3.654,13.441z M3.489,12.222c-0.102,0.033-0.216-0.007-0.224-0.135
		c-0.003-0.061,0.058-0.181,0.093-0.182C3.44,11.9,3.523,11.954,3.64,11.997C3.57,12.107,3.542,12.203,3.489,12.222z M3.262,4.019
		C3.277,3.96,3.346,3.886,3.401,3.877c0.054-0.009,0.121,0.054,0.206,0.096C3.55,4.06,3.522,4.14,3.465,4.175
		C3.382,4.227,3.237,4.117,3.262,4.019z M3.263,5.371c0.017-0.06,0.085-0.134,0.141-0.144c0.055-0.01,0.122,0.055,0.208,0.1
		c-0.059,0.086-0.088,0.167-0.144,0.2C3.381,5.578,3.235,5.468,3.263,5.371z M3.601,9.325C3.545,9.41,3.519,9.491,3.464,9.526
		C3.383,9.577,3.24,9.468,3.264,9.37c0.014-0.057,0.082-0.132,0.135-0.141C3.453,9.22,3.519,9.282,3.601,9.325z M3.442,6.86
		c-0.062,0.005-0.18-0.057-0.181-0.091C3.257,6.688,3.31,6.604,3.351,6.488c0.11,0.07,0.206,0.098,0.223,0.151
		C3.608,6.74,3.569,6.852,3.442,6.86z M3.471,7.889C3.526,7.923,3.58,8.019,3.572,8.08C3.566,8.136,3.476,8.181,3.399,8.252
		C3.337,8.167,3.272,8.114,3.257,8.049C3.233,7.947,3.382,7.832,3.471,7.889z M3.257,10.731c0.017-0.059,0.086-0.136,0.142-0.145
		c0.056-0.009,0.124,0.057,0.213,0.104c-0.061,0.085-0.09,0.167-0.147,0.198C3.374,10.94,3.229,10.831,3.257,10.731z M2.689,11.543
		c-0.053-0.042-0.102-0.14-0.09-0.202c0.008-0.054,0.105-0.093,0.188-0.158C2.84,11.27,2.9,11.327,2.91,11.392
		C2.925,11.495,2.767,11.603,2.689,11.543z M2.908,12.736c-0.006,0.055-0.078,0.126-0.135,0.146
		c-0.103,0.031-0.219-0.103-0.17-0.192c0.031-0.059,0.109-0.089,0.191-0.151C2.844,12.621,2.914,12.682,2.908,12.736z M2.739,10.212
		c-0.099,0.024-0.208-0.119-0.153-0.208C2.62,9.951,2.712,9.899,2.771,9.907C2.823,9.913,2.867,10,2.935,10.075
		C2.853,10.136,2.802,10.198,2.739,10.212z M2.591,14.076c0.052-0.068,0.129-0.127,0.209-0.15c0.025-0.01,0.086,0.096,0.177,0.199
		c-0.121,0.051-0.201,0.107-0.279,0.107C2.66,14.232,2.578,14.092,2.591,14.076z M2.957,6.059C2.87,6.12,2.816,6.184,2.752,6.197
		C2.647,6.22,2.534,6.073,2.59,5.986C2.626,5.931,2.722,5.88,2.784,5.887C2.838,5.894,2.884,5.982,2.957,6.059z M2.958,7.307
		c-0.07,0.11-0.097,0.207-0.149,0.226C2.707,7.567,2.595,7.528,2.586,7.399C2.583,7.337,2.643,7.218,2.678,7.216
		C2.758,7.212,2.843,7.265,2.958,7.307z M2.589,4.644C2.623,4.59,2.715,4.539,2.775,4.546c0.052,0.005,0.096,0.092,0.165,0.166
		C2.857,4.772,2.806,4.835,2.744,4.85C2.646,4.874,2.535,4.729,2.589,4.644z M2.586,8.645c0.042-0.052,0.141-0.1,0.204-0.087
		c0.054,0.01,0.094,0.104,0.159,0.188C2.859,8.799,2.802,8.859,2.736,8.869C2.636,8.884,2.526,8.72,2.586,8.645z M2.294,7.979
		c-0.071,0.11-0.099,0.206-0.152,0.224C2.04,8.239,1.926,8.199,1.917,8.071C1.914,8.009,1.975,7.889,2.011,7.886
		C2.092,7.883,2.176,7.936,2.294,7.979z M2.088,6.865c-0.105,0.022-0.218-0.124-0.161-0.21C1.964,6.601,2.058,6.55,2.12,6.557
		c0.055,0.006,0.1,0.094,0.171,0.171C2.206,6.789,2.152,6.852,2.088,6.865z M2.051,5.215c0.06-0.002,0.15,0.053,0.18,0.108
		c0.051,0.096-0.065,0.232-0.168,0.2C2,5.503,1.952,5.438,1.871,5.371C1.947,5.301,1.997,5.218,2.051,5.215z M2.053,11.911
		c0.058-0.003,0.145,0.049,0.173,0.102c0.048,0.089-0.066,0.224-0.162,0.192c-0.061-0.019-0.106-0.082-0.185-0.147
		C1.953,11.992,2,11.915,2.053,11.911z M1.919,10.747c-0.004-0.061,0.056-0.178,0.092-0.179c0.081-0.004,0.165,0.047,0.282,0.088
		c-0.072,0.108-0.099,0.202-0.153,0.221C2.041,10.911,1.928,10.874,1.919,10.747z M2.272,13.443c-0.083,0.051-0.138,0.107-0.2,0.115
		c-0.098,0.012-0.201-0.141-0.144-0.211c0.042-0.051,0.135-0.096,0.195-0.086C2.174,13.271,2.21,13.363,2.272,13.443z M2.078,15.924
		c0.061,0.016,0.139,0.086,0.149,0.141c0.009,0.057-0.056,0.127-0.102,0.215c-0.087-0.059-0.17-0.086-0.206-0.146
		C1.865,16.047,1.975,15.9,2.078,15.924z M1.915,17.406c0.019-0.064,0.086-0.111,0.154-0.193c0.071,0.078,0.155,0.127,0.158,0.184
		c0.002,0.063-0.056,0.156-0.112,0.184C2.016,17.631,1.882,17.514,1.915,17.406z M2.241,18.811
		c-0.016,0.057-0.104,0.096-0.217,0.191c-0.054-0.127-0.114-0.209-0.113-0.293c0.001-0.041,0.11-0.113,0.172-0.117
		C2.221,18.586,2.27,18.697,2.241,18.811z M2.109,14.889c-0.062,0.002-0.152-0.055-0.183-0.109c-0.052-0.1,0.066-0.23,0.176-0.197
		c0.063,0.018,0.112,0.086,0.195,0.152C2.217,14.807,2.166,14.885,2.109,14.889z M2.025,9.537c-0.037,0-0.105-0.105-0.109-0.165
		c-0.007-0.131,0.097-0.178,0.205-0.15C2.176,9.237,2.212,9.32,2.303,9.424C2.183,9.478,2.104,9.535,2.025,9.537z M2.802,19.592
		c-0.105,0.039-0.221-0.002-0.229-0.131c-0.004-0.066,0.057-0.191,0.092-0.193c0.084-0.006,0.17,0.049,0.29,0.094
		C2.884,19.475,2.857,19.572,2.802,19.592z M2.805,18.248c-0.101,0.037-0.213-0.002-0.222-0.129
		c-0.004-0.061,0.057-0.182,0.092-0.182c0.08-0.004,0.165,0.049,0.282,0.09C2.885,18.135,2.858,18.23,2.805,18.248z M2.595,16.705
		c0.009-0.055,0.103-0.092,0.184-0.154c0.052,0.084,0.11,0.139,0.12,0.205c0.015,0.1-0.14,0.207-0.215,0.146
		C2.63,16.859,2.584,16.766,2.595,16.705z M2.751,15.584c-0.126,0.018-0.21-0.084-0.177-0.195c0.023-0.076,0.131-0.172,0.207-0.178
		c0.07-0.004,0.147,0.098,0.29,0.209C2.915,15.506,2.837,15.576,2.751,15.584z M3.372,14.467c0.124,0.121,0.238,0.182,0.244,0.248
		c0.006,0.068-0.086,0.176-0.16,0.207c-0.107,0.045-0.219-0.018-0.219-0.145C3.238,14.697,3.306,14.613,3.372,14.467z M3.254,18.691
		c0.042-0.051,0.14-0.096,0.203-0.088c0.053,0.01,0.092,0.104,0.157,0.186c-0.088,0.055-0.146,0.111-0.21,0.123
		C3.304,18.926,3.194,18.764,3.254,18.691z M4.009,21.014c-0.107-0.195-0.189-0.346-0.271-0.496
		c-0.009-0.002-0.018-0.002-0.027-0.002c-0.003-0.01-0.004-0.021-0.006-0.033c-0.135-0.068-0.275-0.125-0.397-0.209
		c-0.049-0.035-0.079-0.146-0.063-0.207c0.015-0.057,0.104-0.125,0.162-0.127c0.063-0.006,0.167,0.049,0.188,0.104
		c0.053,0.141,0.077,0.291,0.11,0.439c0.006,0.004,0.014,0.008,0.021,0.012c0.004,0.006,0.01,0.016,0.013,0.023
		c0.126,0.014,0.259,0.006,0.371,0.053c0.073,0.031,0.149,0.16,0.142,0.238C4.244,20.875,4.119,20.926,4.009,21.014z M3.931,19.418
		c0.02-0.063,0.088-0.111,0.155-0.191c0.071,0.076,0.155,0.129,0.157,0.184c0.003,0.061-0.054,0.152-0.111,0.182
		C4.034,19.643,3.898,19.523,3.931,19.418z M4.146,18.242c-0.091,0.053-0.24-0.063-0.213-0.162c0.015-0.063,0.087-0.143,0.144-0.15
		c0.057-0.012,0.127,0.057,0.217,0.105C4.233,18.123,4.205,18.207,4.146,18.242z M3.931,16.752c0.015-0.059,0.081-0.133,0.134-0.143
		c0.054-0.012,0.119,0.055,0.202,0.098c-0.056,0.084-0.083,0.166-0.137,0.201C4.046,16.961,3.905,16.852,3.931,16.752z
		 M4.113,15.572c-0.107,0.035-0.22-0.008-0.223-0.154c-0.003-0.113,0.01-0.24,0.155-0.236c0.087,0.004,0.173,0.068,0.335,0.139
		C4.25,15.447,4.194,15.547,4.113,15.572z M4.048,14.252c-0.049,0-0.123-0.098-0.137-0.16c-0.029-0.135,0.067-0.223,0.185-0.205
		c0.083,0.014,0.151,0.111,0.306,0.234C4.22,14.193,4.133,14.254,4.048,14.252z M4.796,17.283c0.054,0.01,0.093,0.104,0.158,0.182
		c-0.086,0.053-0.145,0.109-0.208,0.119c-0.104,0.014-0.211-0.141-0.15-0.215C4.639,17.318,4.735,17.273,4.796,17.283z
		 M4.757,15.914c0.057,0.014,0.132,0.082,0.141,0.137c0.008,0.055-0.053,0.121-0.095,0.207c-0.083-0.057-0.161-0.084-0.193-0.141
		C4.557,16.029,4.656,15.893,4.757,15.914z M4.917,18.816c-0.018,0.055-0.113,0.082-0.223,0.154
		c-0.041-0.119-0.094-0.203-0.091-0.283c0.002-0.037,0.121-0.098,0.183-0.092C4.913,18.602,4.952,18.715,4.917,18.816z
		 M4.815,21.588c-0.102,0.035-0.215-0.004-0.223-0.131c-0.004-0.061,0.057-0.18,0.092-0.182c0.082-0.002,0.167,0.047,0.284,0.088
		C4.896,21.475,4.869,21.566,4.815,21.588z M4.703,20.256c-0.04,0-0.109-0.107-0.113-0.17c-0.006-0.131,0.102-0.178,0.21-0.15
		c0.057,0.016,0.095,0.1,0.189,0.205C4.864,20.193,4.783,20.252,4.703,20.256z M4.778,14.926c-0.115,0.031-0.211-0.023-0.233-0.16
		c-0.025-0.152,0.081-0.273,0.239-0.242c0.084,0.018,0.155,0.104,0.299,0.205C4.936,14.828,4.864,14.906,4.778,14.926z M5.364,4.54
		c0.101-0.036,0.215,0,0.227,0.129C5.596,4.731,5.536,4.851,5.5,4.853C5.417,4.857,5.332,4.806,5.214,4.767
		C5.284,4.655,5.31,4.559,5.364,4.54z M5.236,8.681c0.005-0.134,0.098-0.2,0.211-0.162c0.084,0.028,0.146,0.121,0.191,0.162
		C5.623,8.889,5.509,8.896,5.403,8.896C5.257,8.901,5.232,8.796,5.236,8.681z M5.45,15.084c0.081,0.182,0.164,0.283,0.142,0.344
		c-0.024,0.068-0.143,0.119-0.229,0.141c-0.025,0.004-0.123-0.121-0.114-0.172C5.264,15.314,5.341,15.246,5.45,15.084z
		 M5.247,14.141c0.023-0.09,0.074-0.209,0.146-0.238c0.061-0.023,0.165,0.064,0.223,0.092c0.023,0.211-0.075,0.27-0.189,0.266
		C5.362,14.26,5.241,14.164,5.247,14.141z M5.287,16.689c0.016-0.045,0.131-0.092,0.19-0.082c0.05,0.008,0.085,0.1,0.145,0.18
		c-0.081,0.051-0.138,0.111-0.195,0.111C5.29,16.902,5.253,16.789,5.287,16.689z M5.475,12.889
		c-0.101,0.037-0.213-0.002-0.222-0.129c-0.004-0.063,0.056-0.182,0.089-0.183c0.083-0.004,0.167,0.048,0.282,0.09
		C5.554,12.776,5.528,12.871,5.475,12.889z M5.417,11.55c-0.1,0.013-0.209-0.149-0.15-0.222c0.043-0.052,0.14-0.099,0.203-0.088
		c0.054,0.01,0.092,0.104,0.157,0.188C5.54,11.479,5.482,11.54,5.417,11.55z M5.272,9.987C5.314,9.936,5.41,9.891,5.472,9.901
		c0.052,0.01,0.088,0.104,0.15,0.186c-0.084,0.051-0.14,0.11-0.203,0.119C5.322,10.219,5.214,10.06,5.272,9.987z M5.26,18.027
		c0.042-0.055,0.141-0.1,0.203-0.09c0.053,0.008,0.092,0.105,0.158,0.188C5.533,18.18,5.475,18.24,5.41,18.252
		C5.309,18.266,5.201,18.104,5.26,18.027z M5.435,19.125c0.093,0.166,0.174,0.244,0.176,0.328c0.004,0.129-0.112,0.18-0.225,0.143
		c-0.058-0.02-0.138-0.109-0.131-0.156C5.268,19.357,5.339,19.283,5.435,19.125z M5.358,20.607c0.082-0.002,0.167,0.051,0.284,0.092
		c-0.071,0.109-0.099,0.205-0.153,0.223c-0.102,0.037-0.215-0.002-0.223-0.131C5.261,20.729,5.322,20.609,5.358,20.607z
		 M5.497,22.262c-0.1,0.029-0.214-0.006-0.224-0.133c-0.004-0.061,0.058-0.178,0.095-0.18c0.08-0.004,0.165,0.049,0.284,0.092
		C5.578,22.15,5.55,22.24,5.497,22.262z M6.093,21.617c-0.061-0.002-0.158-0.074-0.17-0.129c-0.022-0.102-0.005-0.221,0.211-0.24
		c0.035,0.039,0.127,0.1,0.149,0.18C6.323,21.566,6.202,21.621,6.093,21.617z M5.928,20.135c-0.002-0.082,0.055-0.168,0.124-0.35
		c0.118,0.154,0.209,0.221,0.222,0.301c0.018,0.111-0.06,0.213-0.192,0.184C6.021,20.256,5.929,20.184,5.928,20.135z M6.024,18.92
		c-0.035-0.002-0.096-0.119-0.091-0.182c0.011-0.127,0.125-0.164,0.225-0.129c0.054,0.018,0.081,0.115,0.15,0.225
		C6.191,18.873,6.106,18.924,6.024,18.92z M6.775,22.303c-0.148,0.021-0.27-0.133-0.198-0.262c0.039-0.076,0.162-0.148,0.243-0.143
		c0.073,0.006,0.141,0.115,0.268,0.229C6.939,22.211,6.862,22.287,6.775,22.303z M6.788,19.586
		c-0.063,0.004-0.185-0.057-0.186-0.092c-0.003-0.082,0.05-0.168,0.092-0.287c0.112,0.074,0.208,0.1,0.228,0.154
		C6.958,19.467,6.916,19.58,6.788,19.586z M7.007,20.729c-0.096,0.105-0.136,0.188-0.192,0.203c-0.11,0.027-0.218-0.018-0.21-0.15
		c0.003-0.064,0.074-0.172,0.113-0.172C6.8,20.613,6.88,20.672,7.007,20.729z M7.369,22.949c-0.054-0.014-0.12-0.117-0.122-0.182
		c-0.004-0.115,0.055-0.209,0.257-0.199c0.029,0.066,0.094,0.15,0.099,0.236C7.609,22.957,7.47,22.975,7.369,22.949z M7.459,21.617
		c-0.11,0.045-0.215-0.027-0.208-0.154c0.004-0.084,0.07-0.162,0.14-0.313c0.12,0.127,0.229,0.193,0.23,0.262
		C7.624,21.482,7.533,21.59,7.459,21.617z M7.5,20.258c-0.103,0.035-0.218-0.002-0.226-0.133c-0.004-0.061,0.058-0.184,0.093-0.186
		c0.083-0.004,0.168,0.049,0.287,0.092C7.582,20.143,7.554,20.238,7.5,20.258z M8.078,22.27c-0.045,0.008-0.136-0.072-0.155-0.129
		c-0.038-0.113,0.007-0.232,0.139-0.23c0.082,0.002,0.163,0.082,0.327,0.178C8.233,22.184,8.161,22.256,8.078,22.27z M8.064,19.598
		c-0.058-0.018-0.139-0.109-0.131-0.152c0.013-0.084,0.085-0.156,0.179-0.309c0.092,0.16,0.174,0.236,0.177,0.318
		C8.292,19.584,8.176,19.633,8.064,19.598z M8.321,20.84c-0.12,0.041-0.207,0.094-0.292,0.09c-0.035,0-0.096-0.125-0.091-0.189
		c0.008-0.131,0.123-0.174,0.229-0.135C8.222,20.627,8.249,20.725,8.321,20.84z M8.817,22.936c-0.101,0.051-0.235-0.068-0.201-0.174
		c0.02-0.061,0.088-0.109,0.156-0.189c0.07,0.076,0.154,0.129,0.158,0.184C8.932,22.814,8.874,22.908,8.817,22.936z M8.833,21.588
		c-0.102,0.035-0.217,0-0.225-0.131c-0.006-0.061,0.057-0.18,0.094-0.182c0.082-0.002,0.167,0.049,0.287,0.088
		C8.915,21.475,8.886,21.568,8.833,21.588z M8.596,20.098c0.012-0.08,0.086-0.152,0.189-0.316c0.086,0.18,0.174,0.275,0.154,0.338
		c-0.021,0.068-0.139,0.123-0.223,0.145C8.691,20.271,8.588,20.15,8.596,20.098z M9.517,22.258c-0.08,0.006-0.167-0.047-0.282-0.088
		c0.068-0.109,0.094-0.205,0.147-0.225c0.102-0.037,0.215,0.002,0.225,0.129C9.612,22.137,9.552,22.256,9.517,22.258z M9.454,20.924
		c-0.061-0.002-0.167-0.07-0.167-0.109c0-0.078,0.059-0.158,0.11-0.281c0.107,0.092,0.193,0.129,0.209,0.186
		C9.636,20.826,9.587,20.934,9.454,20.924z M9.478,19.586c-0.105,0.029-0.212-0.02-0.202-0.15c0.004-0.063,0.072-0.166,0.11-0.166
		c0.078,0.002,0.158,0.059,0.279,0.111C9.573,19.488,9.534,19.57,9.478,19.586z M9.634,18.158c-0.016,0.049-0.057,0.08-0.107,0.096
		c-0.183,0.158-0.392,0.291-0.62,0.389c0.041,0.045,0.047,0.117,0.027,0.18c-0.019,0.055-0.115,0.082-0.227,0.158
		c-0.033-0.098-0.071-0.172-0.084-0.242c-0.198,0.057-0.409,0.09-0.625,0.09c-0.142,0-0.28-0.018-0.416-0.041
		c0,0.004,0.002,0.008,0.001,0.01c-0.006,0.055-0.096,0.102-0.172,0.172c-0.062-0.086-0.125-0.139-0.14-0.203
		c-0.004-0.018,0-0.037,0.004-0.055c-0.937-0.305-1.615-1.186-1.615-2.223l0.001-8.976c0-1.041,0.684-1.923,1.625-2.226
		c0.042-0.063,0.13-0.105,0.191-0.066c0.005,0.003,0.009,0.008,0.013,0.012c0.164-0.037,0.333-0.057,0.507-0.057
		c0.229,0,0.449,0.035,0.658,0.095C8.7,5.235,8.762,5.211,8.808,5.215c0.053,0.005,0.099,0.091,0.17,0.165
		C8.974,5.381,8.971,5.384,8.967,5.388c0.516,0.236,0.932,0.653,1.165,1.171c0.055,0.016,0.113,0.057,0.135,0.099
		c0.027,0.051,0.006,0.113-0.037,0.155c0.07,0.222,0.107,0.457,0.107,0.701v4.508c0.004,0.001,0.006,0.002,0.008,0.003
		c-0.002,0.003-0.004,0.007-0.008,0.01v1.341c0.01,0.033,0.01,0.068,0,0.098v3.016c0,0.277-0.051,0.543-0.139,0.789
		c0.043,0.031,0.074,0.113,0.139,0.215c-0.111,0.037-0.193,0.082-0.271,0.086C9.952,17.793,9.806,17.988,9.634,18.158z
		 M10.077,21.621c-0.035-0.041-0.117-0.105-0.137-0.182c-0.012-0.053,0.08-0.18,0.104-0.176c0.094,0.016,0.221,0.057,0.254,0.123
		C10.341,21.484,10.288,21.602,10.077,21.621z M10.108,19.945c0.063,0.016,0.143,0.084,0.152,0.141s-0.059,0.129-0.104,0.217
		c-0.088-0.059-0.174-0.086-0.209-0.146C9.896,20.068,10.009,19.918,10.108,19.945z M10.104,18.92
		c-0.047,0.006-0.139-0.07-0.16-0.127c-0.037-0.113,0.012-0.229,0.143-0.225c0.084,0.002,0.164,0.082,0.334,0.17
		C10.261,18.834,10.188,18.906,10.104,18.92z M10.847,22.301c-0.102,0.035-0.219,0.018-0.254-0.129
		c-0.041-0.154,0.053-0.301,0.193-0.281c0.09,0.014,0.17,0.084,0.324,0.164C10.985,22.174,10.929,22.268,10.847,22.301z
		 M10.845,12.924c-0.107,0.033-0.217,0.002-0.25-0.131c-0.037-0.144,0.063-0.276,0.221-0.255c0.086,0.012,0.162,0.084,0.324,0.173
		C10.991,12.821,10.927,12.899,10.845,12.924z M11.429,2.477c0.131-0.05,0.275,0.081,0.234,0.215
		c-0.023,0.076-0.125,0.167-0.201,0.179c-0.066,0.011-0.15-0.079-0.285-0.156C11.294,2.598,11.351,2.505,11.429,2.477z
		 M11.767,21.48c-0.184,0.072-0.27,0.135-0.357,0.135c-0.049,0-0.125-0.094-0.139-0.156c-0.031-0.131,0.066-0.219,0.184-0.201
		C11.534,21.268,11.608,21.361,11.767,21.48z M11.491,15.035c-0.117-0.158-0.219-0.234-0.211-0.297
		c0.01-0.074,0.111-0.145,0.189-0.189c0.02-0.01,0.141,0.088,0.145,0.141C11.618,14.768,11.56,14.852,11.491,15.035z M11.669,16.016
		c-0.074,0.111-0.102,0.205-0.152,0.223c-0.102,0.033-0.217-0.004-0.225-0.133c-0.006-0.061,0.057-0.182,0.092-0.182
		C11.466,15.92,11.552,15.973,11.669,16.016z M11.491,17.23c0.037,0.043,0.131,0.105,0.156,0.186
		c0.039,0.143-0.086,0.197-0.197,0.193c-0.064-0.002-0.164-0.076-0.178-0.131C11.251,17.377,11.267,17.252,11.491,17.23z
		 M11.417,18.531c0.137-0.064,0.279,0.061,0.252,0.217c-0.016,0.082-0.098,0.156-0.195,0.301c-0.105-0.135-0.209-0.207-0.209-0.281
		C11.267,18.686,11.341,18.564,11.417,18.531z M11.614,20.156c-0.02,0.053-0.113,0.082-0.223,0.15
		c-0.043-0.115-0.096-0.199-0.092-0.281c0.002-0.035,0.121-0.096,0.182-0.094C11.61,19.941,11.647,20.055,11.614,20.156z
		 M11.558,13.053c0.072,0.148,0.137,0.229,0.146,0.311c0.018,0.16-0.084,0.234-0.24,0.236c-0.15,0.002-0.26-0.115-0.201-0.256
		C11.304,13.248,11.417,13.184,11.558,13.053z M11.44,10.882c-0.102,0.014-0.209-0.147-0.15-0.224
		c0.043-0.052,0.141-0.1,0.203-0.089c0.055,0.011,0.094,0.106,0.158,0.189C11.563,10.813,11.505,10.874,11.44,10.882z M11.458,6.88
		c-0.055,0.008-0.18-0.088-0.172-0.107c0.025-0.084,0.072-0.199,0.139-0.222c0.064-0.022,0.162,0.058,0.35,0.135
		C11.608,6.793,11.538,6.867,11.458,6.88z M12.05,11.557c-0.035-0.001-0.094-0.122-0.09-0.185c0.01-0.128,0.123-0.168,0.225-0.133
		c0.055,0.019,0.08,0.118,0.148,0.229C12.218,11.51,12.132,11.563,12.05,11.557z M11.915,10.061
		c0.074-0.069,0.123-0.151,0.178-0.154c0.059-0.003,0.148,0.051,0.178,0.106c0.051,0.096-0.064,0.228-0.166,0.197
		C12.042,10.192,11.995,10.126,11.915,10.061z M12.173,8.865c-0.107,0.026-0.215-0.019-0.207-0.151
		c0.004-0.06,0.074-0.164,0.113-0.164c0.08,0.002,0.158,0.059,0.283,0.113C12.269,8.768,12.228,8.85,12.173,8.865z M12.198,7.551
		c-0.102,0.046-0.209,0.013-0.256-0.109c-0.049-0.134,0.043-0.291,0.184-0.283c0.086,0.006,0.168,0.068,0.324,0.137
		C12.329,7.423,12.276,7.515,12.198,7.551z M12.79,10.879c-0.102,0.022-0.211-0.122-0.158-0.207
		c0.035-0.053,0.129-0.104,0.188-0.097c0.055,0.006,0.098,0.093,0.166,0.167C12.903,10.803,12.851,10.865,12.79,10.879z
		 M12.802,9.533c-0.104,0.024-0.217-0.124-0.162-0.212c0.033-0.055,0.129-0.109,0.191-0.103c0.053,0.006,0.1,0.096,0.17,0.173
		C12.917,9.453,12.864,9.519,12.802,9.533z M12.819,8.233c-0.078-0.008-0.189-0.098-0.209-0.172
		c-0.039-0.151,0.049-0.249,0.283-0.263c0.031,0.041,0.119,0.104,0.141,0.184C13.075,8.144,12.976,8.249,12.819,8.233z
		 M13.526,11.57c-0.102,0.034-0.217-0.003-0.225-0.132c-0.004-0.063,0.057-0.185,0.092-0.186c0.082-0.004,0.166,0.051,0.285,0.093
		C13.606,11.457,13.579,11.553,13.526,11.57z M13.312,10c0.01-0.052,0.104-0.092,0.186-0.158c0.051,0.088,0.109,0.145,0.117,0.209
		c0.014,0.103-0.139,0.21-0.215,0.15C13.347,10.158,13.302,10.063,13.312,10z M13.47,8.894c-0.105,0.027-0.197-0.034-0.209-0.17
		c-0.012-0.165,0.074-0.289,0.207-0.25c0.082,0.023,0.143,0.11,0.26,0.208C13.612,8.781,13.55,8.873,13.47,8.894z M14.282,12.146
		c-0.018,0.057-0.123,0.084-0.242,0.159c-0.041-0.124-0.094-0.215-0.09-0.301c0.004-0.04,0.129-0.104,0.191-0.099
		C14.276,11.918,14.319,12.039,14.282,12.146z M13.981,10.68c0.01-0.053,0.102-0.091,0.18-0.157
		c0.053,0.086,0.109,0.143,0.117,0.207c0.014,0.103-0.137,0.207-0.211,0.148C14.017,10.836,13.97,10.742,13.981,10.68z M14.179,9.54
		c-0.09,0.054-0.236-0.058-0.211-0.161c0.016-0.061,0.086-0.14,0.141-0.148c0.059-0.009,0.129,0.057,0.217,0.104
		C14.265,9.422,14.237,9.504,14.179,9.54z"/>
	<path fill="#E5E5E5" d="M14.456,6.389c0.002-0.005,0.002-0.009,0.002-0.014l-0.025,0.018C14.44,6.391,14.448,6.391,14.456,6.389z"
		/>
	<path fill="#E5E5E5" d="M13.272,6.311c-0.043,0.025-0.086,0.047-0.129,0.065c-0.117,0.216-0.109,0.439-0.045,0.666l0,0
		c0,0,0.012,0.011,0.02,0.019l0.004,0.004c0.217-0.002,0.432-0.003,0.646-0.006c0.059-0.025,0.113-0.052,0.172-0.078l0,0
		c-0.059-0.199-0.113-0.397-0.172-0.597C13.618,6.266,13.454,6.24,13.272,6.311z"/>
	<path fill="#E5E5E5" d="M13.786,6.397l-0.02-0.02c0.002,0.002,0.002,0.005,0.002,0.007C13.776,6.389,13.78,6.392,13.786,6.397z"/>
	<path fill="#E5E5E5" d="M12.446,13.092c0-0.006,0-0.012,0-0.02c-0.006,0-0.012,0-0.018,0L12.446,13.092z"/>
	<path fill="#E5E5E5" d="M13.099,12.403c0.004,0.006,0.006,0.011,0.008,0.015c0.004,0.002,0.008,0.003,0.012,0.003L13.099,12.403z"
		/>
	<path fill="#E5E5E5" d="M13.097,13.09c0-0.006,0-0.014,0-0.021c0.01,0,0.02,0,0.029,0c0.055-0.217,0.123-0.437-0.02-0.65
		c-0.197-0.057-0.396-0.113-0.592-0.17c-0.027,0.041-0.049,0.083-0.064,0.126c0,0.233-0.002,0.466-0.004,0.698
		C12.663,13.08,12.88,13.084,13.097,13.09z"/>
	<path fill="#E5E5E5" d="M13.786,6.397c0.002-0.006,0.002-0.013,0.002-0.02c-0.008,0-0.014,0-0.021,0L13.786,6.397z"/>
	<path fill="#E5E5E5" d="M14.458,6.375c-0.004,0-0.01,0-0.018,0c-0.002,0.006-0.006,0.012-0.008,0.018L14.458,6.375z"/>
	<path fill="#E5E5E5" d="M13.81,5.707c-0.006,0.224-0.014,0.447-0.021,0.67c0.217,0,0.436-0.001,0.652-0.002
		c0.027-0.054,0.051-0.108,0.07-0.162c-0.035-0.168-0.076-0.334-0.121-0.497c-0.15-0.025-0.299-0.049-0.449-0.075
		C13.897,5.665,13.854,5.687,13.81,5.707L13.81,5.707z"/>
	<path fill="#E5E5E5" d="M13.788,13.068c-0.01,0-0.02,0-0.029,0c-0.211,0-0.422,0-0.633,0c-0.01,0-0.02,0-0.029,0
		c0,0.008,0,0.016,0,0.021c0,0.213-0.002,0.426-0.002,0.641c0,0.01,0,0.023,0,0.033c0.01,0,0.018,0,0.025,0c0.217,0,0.43,0,0.645,0
		c0.008,0,0.016,0,0.023,0c0-0.01,0-0.02,0-0.027c0-0.213,0-0.426,0-0.639C13.788,13.088,13.788,13.08,13.788,13.068z"/>
</g>
</svg>
