<?xml version="1.0" encoding="utf-8"?>
<!-- Generator: Adobe Illustrator 16.0.0, SVG Export Plug-In . SVG Version: 6.00 Build 0)  -->
<!DOCTYPE svg PUBLIC "-//W3C//DTD SVG 1.1//EN" "http://www.w3.org/Graphics/SVG/1.1/DTD/svg11.dtd">
<svg version="1.1" id="圖層_2" xmlns="http://www.w3.org/2000/svg" xmlns:xlink="http://www.w3.org/1999/xlink" x="0px" y="0px"
	 width="16px" height="24px" viewBox="0 0 16 24" enable-background="new 0 0 16 24" xml:space="preserve">
<g>
	<path fill="#E5E5E5" d="M5.189,6.223c0.005-0.001,0.01-0.002,0.017-0.004c0.001-0.005,0.002-0.011,0.003-0.017L5.189,6.223z"/>
	<path fill="#E5E5E5" d="M7.186,10.883c0.005-0.001,0.01-0.003,0.015-0.004c0.001-0.005,0.004-0.012,0.004-0.017L7.186,10.883z"/>
	<path fill="#E5E5E5" d="M6.52,11.549c0.005-0.001,0.012-0.003,0.016-0.004c0.002-0.005,0.002-0.01,0.004-0.015L6.52,11.549z"/>
	<path fill="#E5E5E5" d="M7.871,6.202C7.865,6.208,7.859,6.211,7.853,6.214c0,0.002-0.001,0.005-0.002,0.009L7.871,6.202z"/>
	<polygon fill="#E5E5E5" points="7.204,20.182 7.192,20.189 7.186,20.199 	"/>
	<path fill="#E5E5E5" d="M9.201,6.203c-0.002,0.001-0.006,0.001-0.01,0.002C9.189,6.211,9.186,6.216,9.184,6.222L9.201,6.203z"/>
	<polygon fill="#E5E5E5" points="6.54,6.203 6.525,6.209 6.52,6.223 	"/>
	<path fill="#E5E5E5" d="M6.537,7.537C6.532,7.542,6.525,7.546,6.521,7.551c0,0-0.001,0.001-0.001,0.002L6.537,7.537z"/>
	<path fill="#E5E5E5" d="M8.518,6.888c0.005,0,0.01,0,0.015,0c0.002-0.006,0.004-0.013,0.005-0.02L8.518,6.888z"/>
	<path fill="#E5E5E5" d="M9.865,6.888c0-0.006,0.002-0.014,0.004-0.02l-0.02,0.02C9.855,6.889,9.859,6.888,9.865,6.888z"/>
	<polygon fill="#E5E5E5" points="9.863,21.52 9.855,21.527 9.854,21.531 	"/>
	<path fill="#E5E5E5" d="M9.813,0.876L5.204,5.485c0.005,0.023,0.01,0.047,0.016,0.07c0.049,0.019,0.096,0.041,0.141,0.067
		c0.158,0.039,0.323,0.096,0.411-0.104c0-0.006,0-0.014-0.001-0.021c0.007,0,0.014,0,0.021,0c0.247-0.046,0.137-0.332,0.286-0.441
		c0.321,0.028,0.321,0.028,0.322,0.354C6.355,5.436,6.31,5.479,6.263,5.482C6.107,5.495,5.949,5.493,5.792,5.498
		c-0.003,0-0.006,0.001-0.01,0.002C5.779,5.507,5.775,5.512,5.772,5.518C5.779,5.689,5.79,5.863,5.804,6.065
		C5.588,6.121,5.396,6.17,5.206,6.219C5.18,6.341,5.168,6.471,5.115,6.581C5.078,6.66,4.984,6.746,4.903,6.76
		c-0.157,0.027-0.23-0.087-0.231-0.237C4.67,6.444,4.686,6.366,4.694,6.289C4.639,6.263,4.585,6.238,4.531,6.213
		C4.515,6.21,4.499,6.208,4.484,6.204L3.256,7.433L3.53,7.707c0.007-0.001,0.014-0.002,0.022-0.001
		c0.073,0.009,0.185,0.116,0.184,0.176c0,0.008-0.002,0.017-0.005,0.025l0.456,0.456c0.023,0,0.049,0.004,0.075,0.012
		c0.08,0.026,0.143,0.109,0.269,0.213c-0.026,0.017-0.048,0.033-0.07,0.049l0.401,0.401c0.011-0.003,0.021-0.005,0.029-0.002
		c0.097,0.026,0.172,0.128,0.323,0.253C5.19,9.303,5.17,9.314,5.15,9.327l0.35,0.35c0.036-0.014,0.077-0.024,0.125-0.028
		c0.052-0.003,0.098-0.09,0.146-0.145C5.771,9.501,5.77,9.498,5.77,9.495c0.004,0,0.008,0,0.013,0
		c0.165-0.026,0.198-0.151,0.215-0.289c0.023-0.184,0.161-0.219,0.291-0.17c0.07,0.026,0.111,0.154,0.146,0.244
		c0.014,0.038-0.026,0.097-0.057,0.189C6.189,9.477,5.986,9.485,5.783,9.494c-0.001,0-0.002,0-0.003,0
		C5.777,9.498,5.775,9.501,5.772,9.504C5.824,9.741,5.883,9.98,5.941,10.22c0.029,0.019,0.058,0.039,0.085,0.062
		c0.18,0.062,0.346,0.03,0.499-0.075c0.04-0.094,0.094-0.186,0.116-0.285c0.035-0.153,0.107-0.24,0.27-0.224
		C7.08,9.713,7.114,9.838,7.135,9.979c0.013,0.079,0.043,0.154,0.065,0.231c0.053,0.024,0.105,0.048,0.157,0.072
		c0.387,0.132,0.387,0.132,0.37,0.47c-0.171,0.042-0.349,0.084-0.527,0.127c-0.041,0.176-0.082,0.352-0.125,0.539
		c-0.188,0.044-0.364,0.085-0.54,0.127c-0.041,0.178-0.082,0.357-0.127,0.549c-0.123,0-0.227,0-0.348,0
		c-0.042-0.135-0.082-0.264-0.122-0.393c-0.026-0.039-0.047-0.08-0.063-0.124c-0.06-0.036-0.122-0.06-0.184-0.075v0.915
		c0.044,0.028,0.093,0.061,0.157,0.096c-0.067,0.064-0.114,0.118-0.157,0.161v1.143c0.021,0.039,0.043,0.086,0.075,0.139
		c-0.026,0.008-0.051,0.018-0.075,0.027v1.123c0.044,0.041,0.097,0.092,0.171,0.152c-0.071,0.035-0.124,0.068-0.171,0.096v1.037
		c0.128,0.072,0.089,0.207,0.045,0.363c-0.015,0-0.03,0.004-0.045,0.006v0.975c0.049,0.027,0.109,0.063,0.186,0.1
		c-0.076,0.053-0.135,0.1-0.186,0.137V19.1c0.044,0.039,0.097,0.094,0.171,0.154c-0.07,0.033-0.124,0.064-0.171,0.09v1.045
		c0.122,0.072,0.081,0.209,0.043,0.367c-0.014,0-0.029,0.002-0.043,0.004v0.807c0.053-0.01,0.107-0.021,0.16-0.031
		c0.001-0.008,0.002-0.014,0.002-0.021c0.012,0,0.023,0,0.035,0.002c0.031-0.07,0.079-0.141,0.082-0.211
		c0.012-0.238,0.144-0.322,0.362-0.338c0.062-0.008,0.122-0.049,0.18-0.084c0.002-0.012,0.004-0.021,0.007-0.035
		c0.012,0.002,0.023,0.002,0.035,0.002c0.033-0.068,0.083-0.139,0.087-0.209c0.01-0.229,0.123-0.332,0.345-0.357
		c0.071-0.008,0.137-0.059,0.206-0.094c0.034-0.066,0.084-0.131,0.093-0.201c0.027-0.203,0.098-0.342,0.332-0.359
		c0.054-0.004,0.104-0.08,0.154-0.133c-0.001-0.006-0.002-0.01-0.003-0.018c0.009,0,0.019,0,0.027,0
		C7.946,19.436,7.973,19.303,8,19.172c0.03-0.145,0.154-0.178,0.246-0.135c0.075,0.035,0.161,0.164,0.149,0.234
		c-0.013,0.074-0.129,0.164-0.216,0.186c-0.12,0.033-0.252,0.021-0.383,0.021c-0.004,0.004-0.007,0.004-0.011,0.006
		c-0.005,0.002-0.009,0.008-0.013,0.012c0.027,0.232,0.056,0.465,0.085,0.695c0.055,0.033,0.108,0.068,0.164,0.1
		c0.155,0.004,0.334,0.074,0.414-0.133c-0.001-0.006-0.004-0.014-0.004-0.02c0.005,0,0.01,0,0.015,0
		c0.066-0.074,0.14-0.145,0.196-0.225c0.043-0.064,0.063-0.145,0.092-0.215c0.336,0.035,0.336,0.035,0.336,0.42
		c-0.207,0.006-0.415,0.014-0.624,0.02c0,0.002-0.002,0.002-0.003,0.002c-0.002,0.006-0.005,0.012-0.008,0.018
		c0.052,0.238,0.105,0.477,0.16,0.713c0.034,0.018,0.066,0.037,0.095,0.063c0.158,0.033,0.316,0.072,0.421-0.094
		c0-0.006-0.002-0.016-0.002-0.025c0.006,0,0.014-0.002,0.023-0.002c0.092-0.148,0.188-0.301,0.281-0.451
		c0.324,0.027,0.324,0.027,0.324,0.402c-0.197,0.018-0.4,0.031-0.605,0.049c-0.002,0.004-0.006,0.006-0.006,0.01
		c-0.006,0.008-0.01,0.014-0.016,0.018c0.029,0.23,0.061,0.459,0.092,0.688c0.051,0.023,0.104,0.049,0.154,0.072
		c0.18,0.07,0.348,0.053,0.5-0.072c0.037-0.086,0.088-0.166,0.113-0.254v-6.83c-0.025-0.074-0.053-0.145-0.078-0.217
		c-0.016-0.004-0.029-0.008-0.043-0.014c0-0.01,0-0.02,0-0.029c-0.043-0.014-0.088-0.031-0.129-0.029
		c-0.328,0.02-0.414-0.193-0.451-0.455c-0.023-0.029-0.045-0.061-0.061-0.092c-0.235-0.057-0.469-0.113-0.703-0.172
		c-0.01,0.004-0.019,0.006-0.027,0.01c0,0.01-0.004,0.018-0.005,0.023c-0.016,0.205-0.032,0.406-0.047,0.594
		c-0.169,0.061-0.313,0.105-0.385-0.064c-0.057-0.139-0.038-0.277,0.141-0.32c0.129-0.031,0.257-0.057,0.291-0.209
		c0-0.014,0.002-0.025,0.003-0.041c0.01,0.002,0.02,0.004,0.03,0.008c0.019-0.006,0.037-0.008,0.044-0.02
		c0.233-0.371,0.235-0.375,0.644-0.551c0.037-0.067,0.094-0.134,0.1-0.204c0.02-0.231,0.137-0.333,0.361-0.352
		c0.066-0.006,0.131-0.051,0.195-0.086c0-0.01,0-0.02,0-0.03c0.01,0,0.02,0,0.031,0c0.029-0.122,0.059-0.246,0.09-0.368V11.59
		c-0.041-0.019-0.082-0.038-0.123-0.056c-0.102-0.025-0.215-0.031-0.303-0.081c-0.08-0.044-0.176-0.133-0.182-0.208
		c-0.006-0.073,0.078-0.178,0.15-0.226c0.102-0.068,0.227-0.104,0.344-0.151c0.037-0.086,0.074-0.173,0.113-0.26V6.886
		c-0.035,0-0.068,0.001-0.104,0.002C9.84,7.013,9.828,7.145,9.777,7.257C9.74,7.338,9.645,7.429,9.564,7.442
		C9.398,7.47,9.334,7.344,9.332,7.195C9.33,7.114,9.346,7.034,9.354,6.953C9.297,6.928,9.24,6.902,9.184,6.875
		C8.966,6.88,8.75,6.884,8.532,6.888c-0.043,0.169-0.085,0.339-0.13,0.516C8.219,7.444,8.047,7.48,7.876,7.518
		C7.874,7.529,7.872,7.542,7.87,7.554C7.859,7.56,7.85,7.565,7.839,7.57C7.819,7.632,7.8,7.693,7.784,7.755
		C7.692,8.099,7.693,8.102,7.27,8.052c-0.061,0.106-0.122,0.21-0.182,0.316c-0.003,0.081,0.016,0.17-0.015,0.24
		c-0.027,0.063-0.116,0.157-0.16,0.148C6.827,8.738,6.735,8.673,6.676,8.603c-0.047-0.057-0.05-0.152-0.072-0.229
		C6.583,8.34,6.563,8.305,6.543,8.271C6.406,8.088,5.986,8.237,6.026,7.862C6.057,7.589,6.37,7.684,6.521,7.551
		c0.057-0.199,0.114-0.398,0.171-0.598C6.646,6.928,6.599,6.905,6.549,6.886C6.313,6.848,6.075,6.811,5.839,6.775
		C5.829,6.777,5.818,6.78,5.81,6.785c0,0.002-0.001,0.003-0.001,0.004c0,0.202,0,0.403,0,0.614C5.684,7.424,5.604,7.459,5.535,7.442
		C5.47,7.426,5.371,7.358,5.369,7.31C5.365,7.217,5.393,7.077,5.457,7.037C5.581,6.962,5.783,7.008,5.809,6.79
		c0-0.006,0-0.013,0-0.021c0.01,0.001,0.02,0.003,0.031,0.006c0.017-0.006,0.035-0.009,0.042-0.02
		C6.12,6.384,6.123,6.379,6.525,6.209c0.042-0.094,0.096-0.185,0.118-0.282c0.036-0.156,0.113-0.237,0.275-0.223
		c0.171,0.016,0.206,0.141,0.227,0.281c0.012,0.08,0.042,0.157,0.065,0.234c0.05,0.019,0.1,0.042,0.148,0.07
		c0.18,0.065,0.345,0.039,0.495-0.074C7.903,6.09,7.931,5.949,8.011,5.85C8.081,5.764,8.213,5.73,8.362,5.648
		C8.447,5.88,8.51,6.053,8.572,6.226c0.041,0.017,0.08,0.037,0.116,0.063C8.856,6.26,9.023,6.233,9.191,6.206
		c0.033-0.067,0.082-0.133,0.088-0.202c0.021-0.219,0.117-0.337,0.352-0.344c0.072-0.002,0.145-0.061,0.217-0.095l0.027-0.028
		C9.9,5.49,9.93,5.445,9.949,5.396c0.008-0.02,0.014-0.04,0.02-0.062V0.939C9.928,0.921,9.887,0.902,9.844,0.883
		C9.834,0.88,9.822,0.878,9.813,0.876z M4.234,7.411c-0.07,0.002-0.177-0.089-0.206-0.164c-0.043-0.11,0.03-0.216,0.157-0.21
		C4.269,7.042,4.35,7.108,4.501,7.18C4.371,7.299,4.304,7.409,4.234,7.411z M5.087,7.966C5.077,8.04,4.962,8.099,4.838,8.217
		c-0.074-0.153-0.14-0.236-0.151-0.325C4.668,7.749,4.832,7.637,4.962,7.714C5.034,7.756,5.097,7.886,5.087,7.966z M6.035,13.203
		c0.022-0.078,0.107-0.139,0.144-0.18c0.214,0.029,0.26,0.148,0.214,0.242c-0.033,0.068-0.165,0.104-0.258,0.115
		C6.108,13.387,6.021,13.252,6.035,13.203z M6.156,14.379c0.101-0.023,0.218-0.006,0.242,0.207c-0.04,0.035-0.097,0.129-0.175,0.152
		c-0.135,0.041-0.192-0.078-0.189-0.188C6.035,14.49,6.103,14.393,6.156,14.379z M6.157,15.693c0.146-0.033,0.279,0.064,0.256,0.213
		c-0.014,0.084-0.087,0.16-0.176,0.311C6.13,16.08,6.05,16.016,6.024,15.934C5.99,15.828,6.026,15.725,6.157,15.693z M6.269,17.014
		c0.081,0.023,0.142,0.111,0.18,0.145c-0.013,0.23-0.114,0.307-0.273,0.277c-0.126-0.025-0.173-0.107-0.172-0.227
		C6.006,17.049,6.108,16.961,6.269,17.014z M6.22,18.766c-0.138-0.002-0.209-0.084-0.197-0.203c0.009-0.084,0.078-0.162,0.151-0.305
		c0.128,0.117,0.229,0.168,0.262,0.248C6.495,18.646,6.378,18.766,6.22,18.766z M6.245,20.104c-0.16,0.012-0.255-0.098-0.214-0.25
		c0.019-0.072,0.149-0.176,0.205-0.162c0.098,0.023,0.176,0.127,0.337,0.254C6.407,20.029,6.329,20.1,6.245,20.104z M6.848,12.258
		c0.114,0.121,0.206,0.178,0.232,0.256c0.043,0.134-0.088,0.277-0.219,0.236c-0.075-0.023-0.163-0.127-0.172-0.205
		C6.68,12.476,6.769,12.394,6.848,12.258z M6.851,14.055c-0.149,0.01-0.167-0.125-0.144-0.225c0.012-0.055,0.109-0.125,0.171-0.127
		c0.108-0.006,0.209,0.045,0.193,0.252C7.016,13.98,6.935,14.049,6.851,14.055z M7.032,15.289c-0.019,0.055-0.115,0.08-0.227,0.152
		c-0.04-0.119-0.091-0.205-0.086-0.289c0.001-0.035,0.122-0.096,0.184-0.092C7.031,15.072,7.068,15.186,7.032,15.289z M6.907,19.461
		c-0.174,0-0.229-0.107-0.223-0.268c0.006-0.143,0.111-0.207,0.212-0.176c0.101,0.031,0.177,0.141,0.226,0.184
		C7.121,19.424,7.02,19.461,6.907,19.461z M6.869,18.098c-0.129,0.023-0.215-0.123-0.183-0.273c0.028-0.133,0.129-0.172,0.231-0.133
		c0.078,0.033,0.132,0.123,0.241,0.234C7.027,18.006,6.953,18.084,6.869,18.098z M6.885,16.764c-0.139,0.037-0.228-0.088-0.21-0.246
		c0.015-0.141,0.118-0.18,0.219-0.154c0.082,0.02,0.146,0.105,0.271,0.203C7.034,16.66,6.968,16.744,6.885,16.764z M9.531,19.432
		c-0.139-0.016-0.201-0.109-0.176-0.225c0.018-0.086,0.094-0.158,0.184-0.299c0.113,0.135,0.205,0.199,0.23,0.283
		C9.814,19.338,9.691,19.447,9.531,19.432z M9.863,17.932c-0.15,0.082-0.229,0.158-0.316,0.168c-0.145,0.02-0.234-0.125-0.197-0.281
		c0.033-0.135,0.143-0.174,0.25-0.129C9.68,17.721,9.738,17.813,9.863,17.932z M9.525,14.926c0.1,0.141,0.195,0.219,0.188,0.285
		c-0.01,0.072-0.111,0.135-0.174,0.203c-0.064-0.063-0.17-0.119-0.182-0.189C9.346,15.156,9.434,15.076,9.525,14.926z M9.346,16.533
		c0.014-0.08,0.098-0.145,0.127-0.186c0.238,0,0.293,0.1,0.285,0.252c-0.004,0.131-0.084,0.18-0.201,0.186
		C9.375,16.795,9.322,16.674,9.346,16.533z M8.951,18.844c-0.128-0.133-0.226-0.188-0.25-0.268
		c-0.035-0.107,0.002-0.225,0.152-0.227c0.112-0.002,0.241,0.01,0.239,0.154C9.088,18.592,9.021,18.678,8.951,18.844z M8.888,17.428
		c-0.144,0.018-0.234-0.123-0.196-0.275c0.034-0.133,0.142-0.166,0.246-0.123c0.08,0.033,0.138,0.119,0.263,0.236
		C9.053,17.346,8.974,17.418,8.888,17.428z M8.89,16.092c-0.131,0.035-0.228-0.102-0.204-0.256c0.021-0.135,0.116-0.182,0.224-0.148
		c0.08,0.025,0.143,0.107,0.266,0.203C9.043,15.986,8.974,16.066,8.89,16.092z M8.847,14.348c0.088,0.01,0.202,0.072,0.245,0.146
		c0.07,0.125-0.031,0.271-0.174,0.293c-0.156,0.021-0.252-0.066-0.254-0.232C8.663,14.428,8.728,14.334,8.847,14.348z M8.184,18.055
		c-0.059-0.014-0.147-0.102-0.143-0.146c0.008-0.086,0.076-0.164,0.164-0.328c0.104,0.158,0.191,0.232,0.197,0.313
		C8.412,18.021,8.304,18.088,8.184,18.055z M8.164,16.73c-0.069-0.031-0.091-0.16-0.135-0.248c0.087-0.039,0.182-0.119,0.258-0.105
		c0.069,0.014,0.118,0.131,0.228,0.266C8.342,16.691,8.229,16.762,8.164,16.73z M8.219,15.014c0.085,0.01,0.164,0.076,0.306,0.145
		c-0.116,0.119-0.168,0.215-0.247,0.244c-0.138,0.055-0.251-0.049-0.252-0.201C8.025,15.07,8.105,15.002,8.219,15.014z M9.576,8.365
		C9.66,8.382,9.732,8.461,9.869,8.552C9.738,8.659,9.674,8.747,9.592,8.77C9.447,8.81,9.346,8.691,9.357,8.533
		C9.365,8.388,9.469,8.344,9.576,8.365z M9.531,9.692c0.16-0.006,0.268,0.05,0.266,0.223c0,0.115-0.041,0.212-0.264,0.211
		c-0.041-0.048-0.15-0.126-0.182-0.226C9.32,9.798,9.391,9.697,9.531,9.692z M9.098,11.952c-0.021,0.081-0.11,0.142-0.144,0.183
		c-0.231-0.012-0.306-0.12-0.266-0.263c0.02-0.072,0.128-0.165,0.202-0.17C9.043,11.689,9.139,11.795,9.098,11.952z M8.882,7.7
		c0.08,0.01,0.153,0.087,0.299,0.176c-0.145,0.1-0.215,0.183-0.296,0.196c-0.11,0.018-0.19-0.057-0.192-0.185
		C8.691,7.758,8.771,7.686,8.882,7.7z M8.687,9.173c0.033-0.13,0.137-0.164,0.24-0.122c0.079,0.031,0.135,0.117,0.256,0.231
		c-0.145,0.079-0.221,0.148-0.305,0.16C8.74,9.46,8.65,9.32,8.687,9.173z M8.835,10.354c0.145-0.015,0.266,0.014,0.288,0.259
		c-0.039,0.034-0.096,0.127-0.174,0.15c-0.143,0.042-0.263-0.01-0.275-0.187C8.665,10.458,8.703,10.368,8.835,10.354z M8.558,12.62
		c-0.161,0.084-0.239,0.157-0.323,0.163c-0.163,0.01-0.248-0.104-0.208-0.253c0.02-0.072,0.149-0.179,0.201-0.165
		C8.325,12.391,8.402,12.493,8.558,12.62z M8.157,8.384C8.258,8.36,8.375,8.38,8.399,8.595c-0.041,0.036-0.1,0.128-0.18,0.152
		c-0.138,0.039-0.194-0.082-0.189-0.19C8.032,8.495,8.102,8.396,8.157,8.384z M8.199,9.604C8.309,9.733,8.4,9.796,8.424,9.879
		c0.041,0.144-0.092,0.275-0.236,0.227c-0.076-0.026-0.164-0.138-0.17-0.217C8.012,9.817,8.109,9.737,8.199,9.604z M8.164,10.912
		c0.125,0.15,0.229,0.228,0.252,0.325c0.013,0.054-0.093,0.177-0.169,0.207c-0.137,0.053-0.262-0.056-0.246-0.212
		C8.011,11.146,8.081,11.069,8.164,10.912z M7.524,11.681c0.087,0.018,0.2,0.076,0.237,0.148c0.066,0.128-0.041,0.265-0.182,0.278
		c-0.161,0.014-0.256-0.072-0.245-0.23C7.343,11.761,7.394,11.656,7.524,11.681z M7.73,18.619c-0.028,0.078-0.122,0.133-0.242,0.258
		c-0.07-0.15-0.134-0.232-0.143-0.318c-0.012-0.113,0.048-0.201,0.184-0.199C7.68,18.359,7.782,18.473,7.73,18.619z M7.469,16.994
		c0.116,0.072,0.217,0.098,0.235,0.152c0.037,0.102-0.003,0.219-0.134,0.229c-0.063,0.004-0.187-0.055-0.189-0.092
		C7.375,17.199,7.428,17.113,7.469,16.994z M7.387,15.816c0.001-0.035,0.123-0.096,0.187-0.092c0.129,0.01,0.168,0.125,0.132,0.229
		c-0.02,0.053-0.117,0.08-0.229,0.15C7.436,15.986,7.383,15.898,7.387,15.816z M7.75,14.566c-0.025,0.078-0.126,0.131-0.166,0.172
		C7.365,14.703,7.354,14.58,7.38,14.48c0.014-0.053,0.121-0.113,0.186-0.113C7.679,14.365,7.796,14.43,7.75,14.566z M7.884,13.229
		c-0.143,0.102-0.212,0.189-0.296,0.203c-0.159,0.031-0.264-0.09-0.241-0.244c0.02-0.135,0.119-0.189,0.234-0.16
		C7.666,13.049,7.738,13.129,7.884,13.229z M7.548,9.038c0.087,0.013,0.164,0.088,0.307,0.171C7.734,9.33,7.677,9.427,7.596,9.456
		C7.448,9.51,7.343,9.401,7.343,9.228C7.343,9.086,7.429,9.019,7.548,9.038z M5.6,8.273c0.084,0.145,0.162,0.224,0.173,0.311
		c0.019,0.148-0.131,0.244-0.28,0.198c-0.131-0.04-0.171-0.15-0.133-0.256C5.388,8.447,5.482,8.392,5.6,8.273z M7.053,4.573
		c-0.01,0.08-0.1,0.148-0.215,0.304c-0.072-0.18-0.13-0.264-0.13-0.347c0-0.047,0.09-0.122,0.151-0.136
		C6.99,4.364,7.068,4.46,7.053,4.573z M7.557,3.711c0.111-0.002,0.211,0.053,0.188,0.264C7.688,4,7.585,4.084,7.522,4.062
		c-0.07-0.025-0.121-0.146-0.144-0.234C7.372,3.805,7.493,3.713,7.557,3.711z M7.74,5.448C7.548,5.485,7.38,5.539,7.35,5.295
		C7.328,5.133,7.413,5.033,7.562,5.046C7.794,5.066,7.777,5.226,7.74,5.448z M8.422,4.56C8.401,4.643,8.3,4.749,8.22,4.762
		C8.155,4.774,8.068,4.666,7.923,4.562c0.144-0.096,0.216-0.18,0.299-0.192C8.342,4.351,8.452,4.435,8.422,4.56z M8.242,3.462
		c-0.118,0-0.226-0.043-0.219-0.18c0.005-0.086,0.061-0.171,0.13-0.35C8.296,3.091,8.41,3.165,8.438,3.264
		C8.47,3.376,8.371,3.462,8.242,3.462z M9.531,1.712c0.146-0.039,0.266,0.043,0.25,0.21c-0.006,0.083-0.08,0.16-0.166,0.319
		c-0.127-0.155-0.23-0.233-0.258-0.332C9.344,1.86,9.455,1.731,9.531,1.712z M8.894,2.379C8.98,2.394,9.059,2.47,9.201,2.558
		C9.078,2.673,9.018,2.767,8.937,2.793c-0.146,0.046-0.254-0.066-0.25-0.228C8.69,2.427,8.777,2.359,8.894,2.379z M8.899,5.487
		c-0.174,0-0.225-0.111-0.219-0.267c0.006-0.142,0.108-0.21,0.21-0.178c0.1,0.031,0.174,0.143,0.223,0.186
		C9.113,5.452,9.012,5.487,8.899,5.487z M9.148,3.507C9.141,3.51,9.133,3.513,9.125,3.516C9.119,3.52,9.113,3.521,9.109,3.524
		c0,0.127,0.025,0.26-0.006,0.38c-0.02,0.082-0.115,0.188-0.19,0.201c-0.068,0.01-0.201-0.079-0.222-0.147
		C8.673,3.887,8.736,3.765,8.8,3.706c0.086-0.079,0.204-0.124,0.309-0.182c0-0.004-0.002-0.009-0.002-0.012
		C9.121,3.51,9.135,3.508,9.148,3.507c0.133-0.055,0.156-0.179,0.184-0.306C9.369,3.025,9.5,2.999,9.641,3.051
		c0.172,0.063,0.135,0.205,0.082,0.377C9.541,3.453,9.346,3.479,9.148,3.507z M9.557,4.794C9.391,4.807,9.314,4.686,9.354,4.542
		C9.373,4.47,9.5,4.361,9.549,4.374c0.098,0.027,0.174,0.128,0.322,0.252C9.717,4.712,9.639,4.788,9.557,4.794z"/>
	<polygon fill="#E5E5E5" points="6.54,10.197 6.525,10.206 6.52,10.217 	"/>
	<polygon fill="#E5E5E5" points="9.201,12.86 9.191,12.865 9.184,12.878 	"/>
	<polygon fill="#E5E5E5" points="9.867,10.862 9.855,10.868 9.848,10.882 	"/>
	<polygon fill="#E5E5E5" points="9.848,10.882 9.85,10.882 9.848,10.882 	"/>
	<path fill="#E5E5E5" d="M6.539,7.554C6.54,7.792,6.542,8.032,6.543,8.27c0.02,0.035,0.041,0.07,0.061,0.103
		c0.162-0.002,0.322-0.004,0.484-0.005c0.06-0.105,0.121-0.21,0.182-0.316c0.001-0.159,0.001-0.316,0.002-0.475
		C7.028,7.569,6.783,7.562,6.539,7.554z"/>
	<path fill="#E5E5E5" d="M7.272,7.554c0,0.008,0,0.015,0,0.023c0.006,0,0.013,0.001,0.021,0.001c-0.001,0-0.002-0.001-0.003-0.004
		C7.284,7.567,7.272,7.554,7.272,7.554z"/>
	<path fill="#E5E5E5" d="M6.539,7.535L6.537,7.537L6.52,7.553c0.006,0,0.012,0,0.019,0C6.539,7.547,6.539,7.542,6.539,7.535
		L6.539,7.535z"/>
	<path fill="#E5E5E5" d="M6.54,11.53c-0.005,0.001-0.011,0.003-0.015,0.004c-0.002,0.005-0.003,0.01-0.005,0.015L6.54,11.53z"/>
	<path fill="#E5E5E5" d="M5.854,10.882c0.007,0,0.013,0,0.021,0c0-0.006,0-0.012,0-0.02L5.854,10.882z"/>
	<path fill="#E5E5E5" d="M6.525,11.534c0.055-0.196,0.111-0.391,0.167-0.586c-0.026-0.021-0.053-0.042-0.08-0.063l0,0
		c-0.246,0-0.492-0.001-0.737-0.002c0,0.232,0,0.463,0.001,0.695l0,0c0.017,0.044,0.038,0.085,0.063,0.124
		C6.134,11.646,6.33,11.59,6.525,11.534z"/>
	<path fill="#E5E5E5" d="M7.205,10.862c-0.006,0.004-0.011,0.008-0.017,0.012c-0.001,0.003-0.002,0.006-0.002,0.009L7.205,10.862z"
		/>
	<path fill="#E5E5E5" d="M6.52,10.217c0.005,0,0.009,0,0.015,0c0.001-0.007,0.003-0.013,0.005-0.02L6.52,10.217z"/>
	<path fill="#E5E5E5" d="M6.611,10.884L6.611,10.884c0.027,0.021,0.054,0.042,0.08,0.063c0.179,0.055,0.345,0.032,0.497-0.073
		c0.057-0.197,0.113-0.395,0.17-0.592c-0.052-0.024-0.104-0.048-0.157-0.072c-0.222,0.003-0.443,0.005-0.666,0.007
		C6.482,10.448,6.442,10.677,6.611,10.884z"/>
	<path fill="#E5E5E5" d="M5.857,10.871c-0.001,0.004-0.002,0.008-0.003,0.011l0.021-0.02C5.868,10.865,5.863,10.868,5.857,10.871z"
		/>
	<path fill="#E5E5E5" d="M5.941,10.22c-0.083,0-0.166,0-0.249-0.001v0.72c0.056-0.017,0.11-0.04,0.166-0.068
		c0.056-0.197,0.112-0.394,0.168-0.59C5.999,10.259,5.97,10.239,5.941,10.22z"/>
	<path fill="#E5E5E5" d="M7.871,20.848c-0.005,0.002-0.01,0.002-0.016,0.004c-0.001,0.004-0.003,0.012-0.004,0.018L7.871,20.848z"/>
	<path fill="#E5E5E5" d="M7.186,20.199c0.006,0,0.01,0,0.015,0c0.001-0.004,0.001-0.01,0.003-0.018L7.186,20.199z"/>
	<path fill="#E5E5E5" d="M7.257,20.887c0.034,0.014,0.067,0.029,0.099,0.047c0.167-0.027,0.333-0.055,0.5-0.082
		c0.056-0.188,0.109-0.375,0.165-0.561c-0.056-0.031-0.109-0.066-0.164-0.1c-0.219,0.004-0.437,0.006-0.656,0.008
		C7.163,20.434,7.131,20.666,7.257,20.887z"/>
	<path fill="#E5E5E5" d="M9.848,12.856c-0.217,0.007-0.432,0.014-0.646,0.022c0.002,0.243,0.002,0.487,0.006,0.729
		c0.016,0.031,0.037,0.063,0.061,0.092c0.193-0.049,0.387-0.098,0.58-0.145c0-0.01,0-0.021,0-0.031c0.008,0,0.018,0,0.027,0
		c0.098-0.211,0.068-0.424,0.002-0.635c-0.01-0.002-0.02-0.004-0.029-0.006C9.848,12.874,9.848,12.865,9.848,12.856z"/>
	<path fill="#E5E5E5" d="M9.184,12.878c0.006,0,0.012,0,0.018,0c0-0.006,0-0.013,0-0.019L9.184,12.878z"/>
	<polygon fill="#E5E5E5" points="8.518,21.533 8.518,21.533 8.518,21.533 	"/>
	<path fill="#E5E5E5" d="M8.025,21.598c0.166-0.027,0.332-0.055,0.498-0.08c0.055-0.195,0.11-0.393,0.166-0.584
		c-0.028-0.025-0.061-0.045-0.095-0.063c-0.242,0-0.482,0-0.724-0.002C7.842,21.127,7.74,21.402,8.025,21.598z"/>
	<polygon fill="#E5E5E5" points="8.025,21.598 8.025,21.598 8.022,21.598 	"/>
	<path fill="#E5E5E5" d="M8.536,21.514c-0.005,0.002-0.009,0.002-0.014,0.004c-0.002,0.006-0.003,0.01-0.005,0.016L8.536,21.514z"/>
	<path fill="#E5E5E5" d="M7.87,20.869c0-0.006,0.001-0.016,0.001-0.021l-0.02,0.021C7.856,20.869,7.863,20.869,7.87,20.869z"/>
	<path fill="#E5E5E5" d="M9.201,6.222C9.195,6.44,9.189,6.658,9.184,6.875c0.057,0.026,0.113,0.052,0.17,0.078
		c0.18,0.056,0.346,0.037,0.498-0.072c0.039-0.137,0.078-0.273,0.117-0.41V6.264c-0.033-0.015-0.066-0.03-0.1-0.047
		C9.646,6.219,9.424,6.221,9.201,6.222z"/>
	<path fill="#E5E5E5" d="M9.201,6.222c0-0.006,0-0.012,0-0.019L9.184,6.222C9.189,6.222,9.195,6.222,9.201,6.222z"/>
	<path fill="#E5E5E5" d="M9.869,6.869C9.863,6.873,9.855,6.876,9.852,6.881C9.85,6.883,9.85,6.886,9.85,6.889L9.869,6.869z"/>
	<path fill="#E5E5E5" d="M8.538,6.869C8.531,6.873,8.526,6.875,8.52,6.88C8.519,6.883,8.518,6.885,8.518,6.888L8.538,6.869z"/>
	<path fill="#E5E5E5" d="M7.851,6.223c0.006,0,0.014,0,0.02,0c0-0.007,0-0.014,0-0.021L7.851,6.223z"/>
	<path fill="#E5E5E5" d="M7.884,6.891c0.028,0.006,0.057,0.015,0.084,0.022C8.162,7.027,8.344,6.994,8.52,6.88
		c0.056-0.197,0.112-0.395,0.168-0.592C8.652,6.263,8.613,6.242,8.572,6.226c-0.234,0-0.468-0.002-0.701-0.002
		C7.876,6.445,7.88,6.667,7.884,6.891z"/>
	<path fill="#E5E5E5" d="M7.185,6.869c0.011,0,0.022,0,0.032,0c0.047-0.193,0.094-0.387,0.141-0.581
		C7.31,6.261,7.26,6.238,7.21,6.219C6.987,6.22,6.763,6.221,6.54,6.223c0.002,0.221,0.007,0.442,0.009,0.664
		c0.05,0.019,0.097,0.042,0.144,0.067c0.163-0.021,0.326-0.043,0.489-0.064C7.184,6.882,7.184,6.875,7.185,6.869z"/>
	<path fill="#E5E5E5" d="M6.52,6.223c0.006,0,0.014,0,0.02,0c0-0.007,0-0.013,0-0.02L6.52,6.223z"/>
	<path fill="#E5E5E5" d="M9.969,6.264V5.538c-0.031,0-0.063,0-0.094-0.001L9.848,5.564C9.855,5.783,9.861,6,9.869,6.217
		C9.902,6.233,9.936,6.249,9.969,6.264z"/>
	<path fill="#E5E5E5" d="M5.208,6.203C5.203,6.208,5.196,6.211,5.191,6.215C5.19,6.217,5.189,6.221,5.189,6.223L5.208,6.203z"/>
	<path fill="#E5E5E5" d="M5.191,6.215c0.057-0.197,0.114-0.395,0.17-0.593C5.315,5.596,5.269,5.574,5.22,5.555
		c-0.029,0-0.058,0-0.087,0L4.532,6.157C4.531,6.175,4.531,6.194,4.531,6.213c0.054,0.025,0.108,0.05,0.163,0.076
		C4.873,6.34,5.039,6.32,5.191,6.215z"/>
	<path fill="#E5E5E5" d="M8.549,22.201c0.049,0.016,0.095,0.037,0.14,0.063l0,0c0.164-0.021,0.329-0.041,0.495-0.063
		c-0.002-0.01-0.002-0.016-0.002-0.021c0.012,0,0.021,0,0.033,0c0.047-0.193,0.092-0.387,0.141-0.58
		c-0.051-0.023-0.104-0.049-0.154-0.072c-0.222,0.002-0.444,0.004-0.665,0.006C8.541,21.756,8.545,21.979,8.549,22.201z"/>
	<path fill="#E5E5E5" d="M8.518,21.533L8.518,21.533c0.007,0,0.012,0,0.019,0c0-0.006,0-0.012,0-0.02L8.518,21.533L8.518,21.533z"/>
	<path fill="#E5E5E5" d="M9.859,21.531c0.002-0.004,0.002-0.006,0.004-0.012l-0.01,0.012C9.855,21.531,9.857,21.531,9.859,21.531z"
		/>
	<path fill="#E5E5E5" d="M9.885,22.203c0.029,0.01,0.055,0.025,0.084,0.037v-0.711c-0.035,0-0.072,0.002-0.109,0.002
		C9.787,21.758,9.789,21.98,9.885,22.203z"/>
	<path fill="#E5E5E5" d="M9.846,0.842c0,0.014,0,0.028-0.002,0.041c0.043,0.019,0.084,0.038,0.125,0.057V0.72L9.846,0.842z"/>
	<path fill="#E5E5E5" d="M9.969,11.59v-0.712C9.934,10.879,9.9,10.88,9.867,10.881c-0.008,0.218-0.014,0.436-0.021,0.654
		C9.887,11.553,9.928,11.572,9.969,11.59z"/>
	<path fill="#E5E5E5" d="M9.848,10.882H9.85c0.006,0,0.012,0,0.018-0.001c0-0.005,0-0.012,0-0.019L9.848,10.882L9.848,10.882z"/>
	<path fill="#E5E5E5" d="M7.289,7.574c0.001,0.003,0.002,0.004,0.003,0.004C7.286,7.57,7.281,7.563,7.276,7.556
		c-0.001,0-0.002-0.001-0.003-0.002C7.272,7.554,7.284,7.567,7.289,7.574z"/>
	<path fill="#E5E5E5" d="M7.884,6.891C7.662,6.883,7.44,6.876,7.217,6.869c-0.01,0-0.021,0-0.032,0
		C7.184,6.875,7.184,6.882,7.182,6.889C7.153,7.121,7.108,7.354,7.276,7.556C7.463,7.686,7.65,7.674,7.839,7.57
		C7.85,7.565,7.859,7.56,7.87,7.554c0.002-0.012,0.003-0.024,0.006-0.036c0.031-0.201,0.061-0.403,0.093-0.604
		C7.941,6.905,7.912,6.897,7.884,6.891z"/>
	<path fill="#E5E5E5" d="M6.571,21.545c0.042,0.016,0.082,0.033,0.121,0.055c0.18,0.064,0.345,0.029,0.5-0.076
		c0.054-0.197,0.109-0.395,0.164-0.59c-0.032-0.018-0.065-0.033-0.099-0.047H7.256c-0.234-0.012-0.468-0.023-0.701-0.037
		c-0.012,0-0.023,0-0.035-0.002c-0.003,0.014-0.005,0.023-0.007,0.035C6.465,21.109,6.463,21.33,6.571,21.545z"/>
	<path fill="#E5E5E5" d="M7.205,21.514c-0.005,0.004-0.009,0.006-0.013,0.01c-0.001,0.002-0.003,0.006-0.003,0.01L7.205,21.514z"/>
	<path fill="#E5E5E5" d="M7.394,22.277c0.001,0.002-0.038-0.014-0.038-0.014l0.039,0.016c-0.01-0.008-0.018-0.014-0.026-0.018
		c-0.003,0-0.005,0-0.008,0C7.372,22.268,7.383,22.271,7.394,22.277z"/>
	<path fill="#E5E5E5" d="M7.859,22.184c-0.001,0.004-0.002,0.01-0.004,0.016l0.015-0.018C7.867,22.182,7.863,22.184,7.859,22.184z"
		/>
	<path fill="#E5E5E5" d="M8.024,21.598c-0.264-0.148-0.543-0.113-0.822-0.068c-0.033,0.266-0.108,0.543,0.167,0.732
		c0.164-0.027,0.327-0.053,0.49-0.078c0.055-0.197,0.109-0.391,0.164-0.586C8.022,21.598,8.025,21.598,8.024,21.598z"/>
	<path fill="#E5E5E5" d="M7.189,21.533c0.004-0.002,0.009-0.002,0.013-0.004c0-0.004,0.002-0.01,0.003-0.016L7.189,21.533z"/>
	<path fill="#E5E5E5" d="M7.855,22.199c0.004,0,0.011,0,0.015,0c0-0.008,0-0.012,0-0.018L7.855,22.199z"/>
	<path fill="#E5E5E5" d="M8.689,22.264c-0.045-0.025-0.091-0.047-0.14-0.063l0,0c-0.226,0-0.453-0.002-0.679-0.002
		c0.001,0.221,0.003,0.441,0.005,0.662c0.034,0.012,0.065,0.025,0.096,0.043h0.475c0.027-0.016,0.054-0.031,0.08-0.051
		C8.58,22.656,8.634,22.461,8.689,22.264L8.689,22.264z"/>
	<polygon fill="#E5E5E5" points="8.526,22.854 8.523,22.863 8.538,22.844 	"/>
	<polygon fill="#E5E5E5" points="9.867,22.846 9.855,22.848 9.854,22.863 	"/>
	<path fill="#E5E5E5" d="M9.885,22.203c-0.223-0.008-0.445-0.016-0.67-0.023c-0.012,0-0.021,0-0.033,0c0,0.006,0,0.012,0.002,0.021
		c0.002,0.217,0.006,0.438,0.01,0.654c0.033,0.018,0.068,0.031,0.102,0.049h0.227c0.111-0.021,0.223-0.037,0.334-0.057
		c0.039-0.131,0.076-0.264,0.113-0.398V22.24C9.939,22.229,9.914,22.213,9.885,22.203L9.885,22.203z"/>
	<path fill="#E5E5E5" d="M9.969,22.904v-0.039c-0.035,0-0.07-0.002-0.105-0.002c-0.002,0.014-0.006,0.025-0.008,0.041H9.969z"/>
	<path fill="#E5E5E5" d="M9.863,22.863c0.002-0.006,0.002-0.012,0.004-0.018l-0.014,0.018C9.855,22.863,9.859,22.863,9.863,22.863z"
		/>
	<path fill="#E5E5E5" d="M9.848,13.555c0,0.209,0,0.418,0,0.629c0,0.01,0,0.02,0,0.029c0.014,0.006,0.027,0.01,0.043,0.014
		c0.025,0.01,0.053,0.018,0.078,0.021v-0.725c-0.031,0-0.063,0-0.094,0c-0.01,0-0.02,0-0.027,0
		C9.848,13.533,9.848,13.545,9.848,13.555z"/>
	<path fill="#E5E5E5" d="M9.848,12.223c0,0.211,0,0.422,0,0.634c0,0.008,0,0.017,0,0.026c0.01,0.002,0.02,0.004,0.029,0.006
		c0.029,0.007,0.061,0.014,0.092,0.02v-0.711c-0.031-0.001-0.061-0.001-0.09-0.003c-0.012,0-0.021,0-0.031,0
		C9.848,12.203,9.848,12.213,9.848,12.223z"/>
	<path fill="#E5E5E5" d="M6.525,22.184c-0.001,0.004-0.003,0.008-0.004,0.016l0.019-0.02C6.535,22.182,6.529,22.182,6.525,22.184z"
		/>
	<path fill="#E5E5E5" d="M6.032,22.264c-0.001,0-0.002,0-0.003,0c0.005,0.002,0.009,0.002,0.014,0.006
		C6.038,22.268,6.036,22.264,6.032,22.264z"/>
	<path fill="#E5E5E5" d="M6.692,21.6c-0.039-0.021-0.079-0.039-0.121-0.055c-0.228-0.01-0.456-0.02-0.683-0.029
		c-0.012-0.002-0.023-0.002-0.035-0.002c0,0.008-0.001,0.014-0.002,0.021c-0.017,0.262-0.103,0.539,0.181,0.729
		c0.164-0.029,0.328-0.055,0.493-0.08C6.581,21.986,6.637,21.793,6.692,21.6z"/>
	<polygon fill="#E5E5E5" points="6.043,22.27 6.026,22.264 6.026,22.264 	"/>
	<path fill="#E5E5E5" d="M5.886,22.848c0.046-0.195,0.093-0.389,0.14-0.584l0,0l0.017,0.006c-0.005-0.004-0.009-0.004-0.014-0.006
		c-0.109-0.063-0.222-0.09-0.337-0.102v0.725c0.053-0.006,0.107-0.014,0.16-0.02c0.001-0.008,0.002-0.016,0.002-0.023
		C5.865,22.846,5.875,22.846,5.886,22.848z"/>
	<path fill="#E5E5E5" d="M8.523,22.863c0.003,0,0.006,0,0.01-0.002c0.001-0.004,0.003-0.01,0.004-0.018L8.523,22.863z"/>
	<path fill="#E5E5E5" d="M8.533,22.861c-0.003,0.016-0.006,0.027-0.009,0.043h0.771c-0.033-0.018-0.068-0.031-0.102-0.049
		C8.972,22.859,8.752,22.859,8.533,22.861z"/>
	<path fill="#E5E5E5" d="M7.394,22.277c-0.011-0.006-0.022-0.01-0.033-0.016c-0.266-0.135-0.544-0.1-0.824-0.064
		c-0.033,0.236-0.077,0.477,0.071,0.695c0.009,0.004,0.016,0.008,0.024,0.012h0.22c0.114-0.021,0.228-0.037,0.342-0.057
		c0.054-0.195,0.108-0.389,0.163-0.584C7.356,22.264,7.395,22.279,7.394,22.277z"/>
	<path fill="#E5E5E5" d="M7.193,22.848c-0.001,0.006-0.004,0.012-0.005,0.018l0.017-0.02C7.201,22.846,7.197,22.848,7.193,22.848z"
		/>
	<path fill="#E5E5E5" d="M6.521,22.199c0.004-0.002,0.011-0.002,0.016-0.002c0.001-0.008,0.001-0.012,0.002-0.018L6.521,22.199z"/>
	<path fill="#E5E5E5" d="M7.188,22.865c0.006,0,0.011,0,0.018,0c-0.001-0.006-0.001-0.014-0.001-0.02L7.188,22.865z"/>
	<path fill="#E5E5E5" d="M7.206,22.865c0,0.014,0,0.025,0.001,0.039h0.764c-0.031-0.018-0.063-0.031-0.096-0.043
		C7.652,22.863,7.429,22.865,7.206,22.865z"/>
	<path fill="#E5E5E5" d="M6.607,22.893c-0.241-0.016-0.48-0.031-0.721-0.045c-0.011-0.002-0.021-0.002-0.033-0.004
		c0,0.008-0.001,0.016-0.002,0.023c0,0.012-0.001,0.023-0.003,0.037h0.783C6.624,22.9,6.617,22.896,6.607,22.893
		C6.607,22.893,6.607,22.893,6.607,22.893z"/>
</g>
</svg>
