<?xml version="1.0" encoding="utf-8"?>
<!-- Generator: Adobe Illustrator 16.0.0, SVG Export Plug-In . SVG Version: 6.00 Build 0)  -->
<!DOCTYPE svg PUBLIC "-//W3C//DTD SVG 1.1//EN" "http://www.w3.org/Graphics/SVG/1.1/DTD/svg11.dtd">
<svg version="1.1" id="圖層_3" xmlns="http://www.w3.org/2000/svg" xmlns:xlink="http://www.w3.org/1999/xlink" x="0px" y="0px"
	 width="16px" height="24px" viewBox="0 0 16 24" enable-background="new 0 0 16 24" xml:space="preserve">
<g>
	<path fill="#E5E5E5" d="M14.197,9.077c0.076-0.027,0.152,0,0.201,0.055c0.115-0.536,0.183-1.121,0.183-1.767
		c0-0.262-0.019-0.52-0.049-0.774c-0.115,0.117-0.174,0.206-0.25,0.238c-0.106,0.045-0.216,0.005-0.252-0.126
		c-0.04-0.15,0.055-0.301,0.194-0.283c0.085,0.011,0.165,0.079,0.305,0.156c-0.04-0.35-0.109-0.691-0.204-1.022
		c-0.161-0.038-0.319-0.063-0.295-0.287c0.012-0.106,0.066-0.155,0.143-0.184c-0.542-1.455-1.583-2.668-2.914-3.429
		c-0.003,0.001-0.006,0.004-0.01,0.005c-0.006,0.012-0.009,0.023-0.015,0.035c-0.009-0.001-0.021-0.001-0.03-0.001
		c0,0.207-0.003,0.415-0.003,0.623l0.055,0.052c0.049,0.016,0.101,0.036,0.152,0.046c0.148,0.031,0.344,0.011,0.365,0.225
		c0.033,0.293-0.25,0.207-0.387,0.295c-0.058,0.026-0.116,0.051-0.171,0.076c-0.006,0.026-0.021,0.051-0.021,0.077
		c-0.009,0.306-0.167,0.477-0.472,0.509c-0.04,0.026-0.082,0.047-0.128,0.064c-0.043,0.129-0.061,0.278-0.14,0.381
		c-0.067,0.086-0.201,0.119-0.348,0.195c-0.085-0.225-0.152-0.395-0.216-0.565c-0.214-0.123-0.43-0.06-0.646-0.014
		c0,0.008,0,0.016,0,0.023c-0.01,0-0.016,0-0.021,0C9.203,3.835,9.182,3.986,9.163,4.119C8.923,4.22,8.767,4.215,8.701,3.955
		c-0.022-0.094-0.074-0.18-0.117-0.269c-0.009,0-0.019,0-0.027,0c0-0.012,0-0.023,0-0.036C8.352,3.51,8.145,3.519,7.936,3.634
		C7.93,3.65,7.925,3.667,7.919,3.684c-0.01,0-0.019,0-0.027,0C7.854,3.833,7.815,3.98,7.778,4.129
		C7.606,4.188,7.438,4.247,7.271,4.305c-0.005,0.014-0.01,0.028-0.014,0.042c-0.011,0-0.019,0-0.028,0
		C7.204,4.444,7.176,4.539,7.165,4.636C7.138,4.879,6.967,4.845,6.79,4.856C6.722,4.678,6.658,4.512,6.596,4.348
		c-0.01,0-0.017,0-0.026,0c0-0.012,0-0.023,0.002-0.035c-0.07-0.03-0.139-0.075-0.21-0.079C6.125,4.221,6.043,4.087,6.02,3.875
		C6.014,3.808,5.971,3.747,5.936,3.683c-0.009,0.001-0.02,0.001-0.029,0.001c0-0.011,0-0.023,0-0.036
		C5.839,3.616,5.77,3.568,5.7,3.565C5.467,3.553,5.38,3.427,5.354,3.212C5.347,3.144,5.292,3.081,5.252,3.015
		C5.096,2.941,4.938,2.867,4.787,2.796C4.724,2.618,4.729,2.472,4.928,2.413c0.126-0.037,0.257-0.054,0.385-0.081
		c0.037-0.016,0.07-0.036,0.102-0.06C5.367,2.079,5.316,1.887,5.268,1.693c-0.007,0-0.015,0-0.024,0c0-0.013,0-0.026-0.002-0.038
		C5.116,1.583,4.989,1.571,4.864,1.59C4.762,1.645,4.665,1.702,4.567,1.763C4.546,1.884,4.526,2.004,4.506,2.117
		C4.304,2.194,4.121,2.264,3.94,2.332c0,0.009,0,0.018,0,0.026c-0.012,0-0.023,0-0.033,0c-0.061,0.205-0.092,0.41-0.016,0.614
		c0.016,0.01,0.031,0.018,0.046,0.03C3.938,3.01,3.94,3.017,3.941,3.024C4.109,3.067,4.278,3.11,4.467,3.159
		c0.042,0.163,0.087,0.336,0.132,0.509C4.774,3.714,4.951,3.76,5.155,3.813c0,0.188,0,0.362,0,0.535
		c0.006,0.011,0.014,0.021,0.02,0.034c0.001,0.003,0.006,0.007,0.009,0.01C5.39,4.408,5.597,4.424,5.787,4.439
		c0.061,0.172,0.106,0.32-0.064,0.387c-0.18,0.071-0.311,0.015-0.362-0.2C5.339,4.538,5.25,4.467,5.184,4.392
		c-0.011,0-0.02-0.001-0.029-0.002c0-0.014,0-0.028,0-0.042C5.061,4.181,4.901,4.239,4.753,4.262
		C4.715,4.286,4.675,4.308,4.634,4.324C4.519,4.542,4.543,4.767,4.598,4.993C4.753,5.022,4.908,5.051,5.064,5.08
		c0.119,0.359,0.119,0.359-0.309,0.509C4.713,5.614,4.669,5.635,4.622,5.653C4.58,5.884,4.535,6.115,4.493,6.346
		C4.498,6.355,4.5,6.362,4.505,6.373C4.514,6.374,4.521,6.377,4.529,6.38C4.721,6.4,4.917,6.422,5.172,6.45
		C5.109,6.607,5.096,6.759,5.018,6.81C4.895,6.89,4.761,6.833,4.726,6.664C4.7,6.538,4.672,6.418,4.529,6.38
		C4.516,6.378,4.502,6.377,4.487,6.375c0.003-0.01,0.004-0.02,0.006-0.03C4.411,6.138,4.245,6.217,4.091,6.251
		C4.048,6.276,4.002,6.298,3.955,6.317C3.94,6.532,3.923,6.748,3.908,6.963c0.011,0.005,0.02,0.011,0.03,0.017
		c0.004,0.009,0.009,0.019,0.015,0.029C4.12,7.038,4.286,7.067,4.455,7.097c0.024,0.094,0.049,0.182,0.07,0.268h0.924
		C5.434,7.338,5.425,7.311,5.425,7.288c-0.002-0.069,0.1-0.138,0.207-0.268C5.656,7.067,5.679,7.106,5.7,7.142
		C5.796,6.143,6.53,5.329,7.488,5.11c0.028-0.017,0.063-0.024,0.104-0.021C7.726,5.064,7.864,5.05,8.006,5.05
		c0.266,0,0.521,0.047,0.76,0.13c0.049-0.065,0.133-0.096,0.217-0.058C9.059,5.156,9.11,5.247,9.23,5.372
		C9.219,5.376,9.209,5.38,9.2,5.385c0.17,0.105,0.329,0.23,0.469,0.375c0.079,0.015,0.137,0.084,0.144,0.163
		c0.131,0.162,0.24,0.341,0.322,0.535c0.043-0.039,0.104-0.056,0.174-0.037c0.079,0.021,0.14,0.112,0.268,0.221
		c-0.143,0.088-0.216,0.166-0.301,0.18c-0.007,0.001-0.016,0.002-0.021,0.002c0.042,0.174,0.066,0.354,0.066,0.542
		c0,0.156-0.009,0.299-0.024,0.439c0.064,0.031,0.135,0.11,0.259,0.204c-0.151,0.061-0.234,0.113-0.307,0.128
		c-0.187,0.914-0.74,1.492-1.727,2.171c0.002,0.015,0.003,0.03,0.005,0.046c0.003,0.009,0.005,0.015,0.008,0.021
		c0.003,0.006,0.006,0.009,0.009,0.015c0.153,0.003,0.313-0.012,0.467,0.009c0.052,0.006,0.137,0.116,0.131,0.167
		c-0.019,0.085-0.079,0.186-0.149,0.238c-0.049,0.03-0.184,0.012-0.222-0.034c-0.091-0.113-0.153-0.25-0.227-0.381
		c-0.005,0-0.009,0-0.012,0c-0.002-0.012-0.004-0.024-0.005-0.036c-0.005-0.016-0.009-0.028-0.017-0.04
		c-0.198,0.137-0.413,0.277-0.645,0.423c0.01,0.076,0.019,0.149,0.027,0.219c0.01,0,0.019,0,0.027,0
		c-0.001,0.009-0.001,0.021-0.001,0.034c0.172,0.021,0.344,0.046,0.539,0.07c0.031,0.204,0.06,0.378,0.087,0.545
		c0.012,0.006,0.024,0.009,0.038,0.015c0.004,0.009,0.006,0.018,0.01,0.03c0.163,0.031,0.33,0.064,0.508,0.098
		c0.037,0.186,0.069,0.35,0.1,0.512c0.015,0.009,0.027,0.015,0.042,0.024c0.004,0.009,0.007,0.015,0.013,0.024
		c0.21-0.003,0.42-0.003,0.63-0.003c0-0.006,0-0.015,0-0.021c0.019-0.006,0.034-0.012,0.049-0.016
		c0.095-0.213,0.149-0.423-0.027-0.633L9.892,11.62l0,0c-0.067-0.037-0.135-0.088-0.207-0.104c-0.159-0.034-0.32-0.052-0.299-0.271
		s0.21-0.192,0.351-0.231c0.052-0.012,0.101-0.03,0.152-0.042c0.058-0.028,0.112-0.052,0.17-0.08
		c-0.055-0.195-0.112-0.39-0.167-0.584c-0.092-0.046-0.177-0.101-0.274-0.122c-0.146-0.033-0.25-0.088-0.234-0.259
		c0.015-0.17,0.149-0.195,0.283-0.219c0.079-0.012,0.155-0.042,0.231-0.067c0.024-0.055,0.049-0.106,0.073-0.161
		c0.042-0.128,0.088-0.253,0.134-0.39c0.112,0,0.216,0,0.338,0c0.043,0.192,0.085,0.369,0.125,0.545
		c0.177,0.042,0.354,0.082,0.545,0.128c0,0.122,0,0.225,0,0.344c-0.134,0.043-0.262,0.083-0.39,0.125
		c-0.052,0.021-0.104,0.046-0.155,0.07c-0.085,0.22-0.085,0.439-0.003,0.661c0.17,0.045,0.341,0.091,0.545,0.146
		c0.027,0.165,0.058,0.332,0.088,0.497c0.013,0.006,0.024,0.009,0.037,0.015c0.006,0.009,0.006,0.018,0.012,0.027
		c0.171,0.034,0.345,0.067,0.552,0.106c0.021,0.171,0.042,0.341,0.063,0.515c0.013,0.003,0.024,0.009,0.037,0.016
		c0,0.006,0.003,0.015,0.003,0.021c0.21-0.003,0.423-0.003,0.637-0.006c0.058-0.027,0.115-0.055,0.173-0.079
		c-0.063-0.167,0.016-0.387-0.177-0.506c-0.009,0-0.015,0.003-0.024,0.003c-0.003-0.016-0.003-0.031-0.006-0.046
		c-0.055-0.128-0.177-0.149-0.298-0.177c-0.174-0.04-0.217-0.183-0.141-0.301c0.052-0.079,0.198-0.098,0.354-0.165
		c0.033,0.253,0.061,0.451,0.085,0.643c0.003,0.009,0.006,0.018,0.013,0.027c0.006,0.006,0.012,0.009,0.018,0.015
		c0.226-0.027,0.448-0.055,0.674-0.082c0.036-0.018,0.076-0.037,0.115-0.055c0.019-0.021,0.033-0.046,0.049-0.07
		c-0.006-0.356,0.003-0.405,0.262-0.408c0.289-0.491,0.527-1.042,0.691-1.666c-0.03,0.024-0.063,0.04-0.095,0.046
		c-0.066,0.012-0.152-0.08-0.292-0.159C14.061,9.202,14.118,9.108,14.197,9.077z M5.656,6.165c-0.14,0.061-0.27-0.055-0.262-0.208
		C5.4,5.833,5.464,5.74,5.591,5.754c0.086,0.01,0.167,0.079,0.315,0.154C5.789,6.033,5.737,6.132,5.656,6.165z M6.241,5.505
		C6.091,5.496,6.052,5.39,6.075,5.281c0.017-0.086,0.094-0.16,0.187-0.306C6.368,5.114,6.457,5.18,6.479,5.263
		C6.517,5.416,6.4,5.514,6.241,5.505z M8.217,4.835c-0.12-0.005-0.186-0.114-0.139-0.217C8.11,4.546,8.222,4.462,8.29,4.469
		c0.067,0.007,0.125,0.119,0.247,0.247C8.382,4.776,8.298,4.837,8.217,4.835z M9.596,4.84C9.492,4.875,9.395,4.795,9.389,4.656
		C9.38,4.498,9.429,4.384,9.605,4.384c0.115,0,0.213,0.038,0.219,0.255C9.772,4.69,9.696,4.806,9.596,4.84z M10.254,5.505
		c-0.052,0.014-0.177-0.093-0.198-0.167c-0.046-0.147,0.061-0.273,0.204-0.252c0.085,0.013,0.161,0.083,0.316,0.169
		C10.428,5.379,10.352,5.479,10.254,5.505z M12.288,3.119c0.079,0.022,0.143,0.108,0.183,0.138
		c-0.006,0.245-0.119,0.282-0.265,0.274c-0.135-0.008-0.18-0.091-0.177-0.21C12.032,3.165,12.133,3.074,12.288,3.119z M12.215,4.415
		c0.119-0.012,0.204,0.034,0.234,0.158c0.04,0.161-0.027,0.265-0.256,0.292c-0.033-0.034-0.128-0.087-0.158-0.165
		C11.98,4.553,12.068,4.429,12.215,4.415z M11.621,3.771c0.076,0.03,0.183,0.153,0.171,0.203c-0.028,0.096-0.135,0.17-0.263,0.318
		c-0.079-0.155-0.146-0.232-0.155-0.315C11.359,3.83,11.49,3.719,11.621,3.771z M10.927,4.435c0.052-0.014,0.174,0.094,0.204,0.17
		c0.052,0.131-0.064,0.264-0.207,0.248c-0.086-0.01-0.161-0.077-0.32-0.157C10.756,4.566,10.829,4.461,10.927,4.435z M10.936,8.828
		c-0.112,0.027-0.225-0.019-0.222-0.165c0.003-0.113,0.015-0.247,0.164-0.229c0.092,0.009,0.174,0.088,0.338,0.177
		C11.079,8.721,11.015,8.809,10.936,8.828z M10.731,7.239c0.034-0.081,0.125-0.14,0.247-0.27c0.079,0.153,0.149,0.233,0.158,0.319
		c0.013,0.151-0.125,0.239-0.277,0.202C10.723,7.455,10.689,7.345,10.731,7.239z M11.509,10.816
		c-0.125-0.021-0.156-0.122-0.141-0.234c0.021-0.152,0.144-0.237,0.283-0.17c0.076,0.037,0.122,0.131,0.158,0.173
		C11.771,10.813,11.646,10.84,11.509,10.816z M11.584,9.491c-0.085-0.009-0.164-0.079-0.331-0.161
		c0.158-0.125,0.237-0.226,0.338-0.256c0.106-0.034,0.201,0.037,0.219,0.167C11.834,9.394,11.746,9.507,11.584,9.491z M11.39,7.908
		c0.033-0.082,0.125-0.14,0.243-0.268c0.083,0.152,0.155,0.231,0.165,0.316c0.018,0.149-0.122,0.238-0.28,0.201
		C11.384,8.124,11.347,8.015,11.39,7.908z M11.825,6.55c-0.027,0.135-0.049,0.271-0.22,0.29c-0.231,0.024-0.24-0.153-0.28-0.309
		c-0.018-0.071-0.066-0.134-0.104-0.2c-0.094-0.043-0.183-0.098-0.279-0.121c-0.149-0.034-0.247-0.094-0.235-0.262
		c0.016-0.169,0.141-0.203,0.28-0.224c0.079-0.011,0.155-0.04,0.234-0.061c0.052-0.025,0.107-0.05,0.162-0.076
		c0-0.408,0.042-0.517,0.21-0.501c0.283,0.026,0.204,0.269,0.256,0.433c0.012,0.046,0.027,0.091,0.042,0.137
		c0.177,0.042,0.354,0.085,0.546,0.132c0,0.12,0,0.223,0,0.336c-0.135,0.044-0.263,0.086-0.387,0.127
		c-0.049,0.027-0.098,0.049-0.149,0.069C11.874,6.396,11.84,6.471,11.825,6.55z M12.041,8.544c0.037-0.122,0.119-0.167,0.241-0.149
		c0.137,0.019,0.216,0.155,0.152,0.356c-0.049,0.018-0.138,0.079-0.226,0.082C12.065,8.837,11.995,8.697,12.041,8.544z
		 M12.188,10.143c-0.07-0.03-0.137-0.146-0.146-0.229c-0.009-0.146,0.128-0.244,0.269-0.186c0.079,0.03,0.128,0.128,0.158,0.162
		C12.446,10.104,12.321,10.207,12.188,10.143z M12.267,7.499c-0.106,0.028-0.213-0.011-0.231-0.155
		c-0.021-0.16,0.076-0.293,0.223-0.258c0.085,0.021,0.158,0.104,0.298,0.204C12.422,7.391,12.352,7.476,12.267,7.499z M12.955,3.775
		c0.079,0.033,0.134,0.126,0.259,0.25c-0.149,0.076-0.231,0.142-0.32,0.154c-0.121,0.018-0.194-0.063-0.197-0.192
		C12.693,3.833,12.817,3.718,12.955,3.775z M12.973,5.093c0.037,0.061,0.128,0.149,0.141,0.247c0.006,0.05-0.128,0.163-0.201,0.166
		c-0.07,0.003-0.186-0.082-0.213-0.154C12.645,5.221,12.76,5.096,12.973,5.093z M12.888,6.424c0.082,0.009,0.192,0.078,0.226,0.15
		c0.061,0.136-0.037,0.255-0.253,0.278c-0.033-0.033-0.128-0.084-0.155-0.161C12.65,6.55,12.751,6.407,12.888,6.424z M13.11,10.621
		c-0.016,0.083-0.098,0.159-0.195,0.302c-0.106-0.134-0.21-0.207-0.21-0.277c0.003-0.085,0.076-0.207,0.152-0.24
		C12.991,10.341,13.135,10.466,13.11,10.621z M12.931,9.482c-0.104,0.033-0.226,0-0.226-0.131c0-0.085,0.076-0.247,0.106-0.244
		c0.106,0.009,0.21,0.073,0.399,0.155C13.067,9.379,13.007,9.458,12.931,9.482z M12.897,8.158c-0.125,0.018-0.198-0.064-0.201-0.192
		c-0.007-0.155,0.121-0.271,0.259-0.213c0.082,0.034,0.137,0.128,0.262,0.253C13.064,8.082,12.985,8.146,12.897,8.158z
		 M13.549,7.092c0.143-0.046,0.273,0.088,0.231,0.234c-0.024,0.083-0.122,0.144-0.234,0.271c-0.086-0.136-0.183-0.22-0.174-0.292
		C13.381,7.226,13.47,7.117,13.549,7.092z M13.375,5.979c0.009-0.08,0.098-0.188,0.177-0.213c0.14-0.046,0.271,0.087,0.229,0.233
		c-0.024,0.082-0.119,0.143-0.231,0.269C13.46,6.132,13.366,6.049,13.375,5.979z M13.552,8.414c0.14-0.046,0.271,0.088,0.226,0.234
		c-0.024,0.082-0.116,0.143-0.231,0.268c-0.086-0.134-0.177-0.216-0.171-0.29C13.388,8.547,13.473,8.441,13.552,8.414z
		 M13.487,10.131c-0.066-0.033-0.115-0.17-0.106-0.256c0.019-0.122,0.144-0.173,0.247-0.1c0.076,0.052,0.115,0.155,0.216,0.298
		C13.674,10.106,13.555,10.167,13.487,10.131z M13.579,4.84c-0.055,0.013-0.18-0.091-0.201-0.162
		c-0.039-0.148,0.049-0.259,0.207-0.248c0.082,0.006,0.162,0.079,0.32,0.163C13.753,4.716,13.674,4.816,13.579,4.84z M14.237,7.74
		c0.085,0.012,0.161,0.083,0.316,0.167c-0.149,0.125-0.226,0.226-0.32,0.25c-0.052,0.012-0.176-0.095-0.197-0.167
		C13.99,7.847,14.097,7.719,14.237,7.74z"/>
	<path fill="#E5E5E5" d="M11.898,5.673c-0.003-0.006-0.007-0.012-0.007-0.018c-0.006-0.001-0.009-0.002-0.015-0.003L11.898,5.673z"
		/>
	<path fill="#E5E5E5" d="M4.601,5.008c-0.002-0.004-0.002-0.01-0.003-0.015c-0.004,0-0.009-0.001-0.015-0.002L4.601,5.008z"/>
	<path fill="#E5E5E5" d="M9.885,3.662c0.004,0.004,0.004,0.007,0.007,0.011c0.006,0.003,0.012,0.005,0.015,0.009L9.885,3.662z"/>
	<polygon fill="#E5E5E5" points="5.245,3.001 5.252,3.015 5.265,3.02 	"/>
	<path fill="#E5E5E5" d="M4.603,3.683c-0.001-0.005-0.003-0.01-0.003-0.015C4.593,3.666,4.587,3.664,4.583,3.663L4.603,3.683z"/>
	<path fill="#E5E5E5" d="M10.57,10.978c-0.003-0.006-0.003-0.012-0.006-0.015c-0.006-0.003-0.01-0.003-0.016-0.006L10.57,10.978z"/>
	<path fill="#E5E5E5" d="M11.213,6.316c0.003,0.005,0.006,0.01,0.009,0.015c0.004,0.001,0.007,0.004,0.013,0.005L11.213,6.316z"/>
	<polygon fill="#E5E5E5" points="9.906,10.313 9.906,10.313 9.906,10.313 	"/>
	<path fill="#E5E5E5" d="M9.9,10.308c-0.006-0.006-0.012-0.012-0.012-0.012c0,0.003,0.003,0.009,0.003,0.012
		c0.006,0.003,0.009,0.006,0.015,0.006C9.906,10.313,9.903,10.311,9.9,10.308z"/>
	<path fill="#E5E5E5" d="M10.57,9.65c0-0.003-0.003-0.009-0.003-0.015c-0.006,0-0.013-0.003-0.016-0.003L10.57,9.65z"/>
	<path fill="#E5E5E5" d="M12.534,12.512c0.104-0.106,0.207-0.213,0.305-0.326c-0.042,0.006-0.085,0.015-0.128,0.034
		c-0.058,0.024-0.115,0.052-0.173,0.079C12.534,12.369,12.534,12.442,12.534,12.512z"/>
	<path fill="#E5E5E5" d="M9.9,10.308c0.003,0.003,0.006,0.006,0.006,0.006l0,0c0-0.006,0-0.012,0-0.018c-0.006,0-0.012,0-0.018,0
		C9.889,10.295,9.895,10.301,9.9,10.308z"/>
	<path fill="#E5E5E5" d="M10.552,9.631c0,0.003,0,0.009,0.003,0.016c0.007,0,0.013,0.003,0.016,0.003L10.552,9.631z"/>
	<path fill="#E5E5E5" d="M10.567,10.301c0.052-0.024,0.104-0.048,0.155-0.07c-0.055-0.195-0.112-0.39-0.168-0.584
		c-0.194-0.055-0.39-0.113-0.584-0.167C9.946,9.534,9.922,9.586,9.897,9.641C9.9,9.86,9.903,10.076,9.906,10.295
		C10.126,10.298,10.348,10.298,10.567,10.301z"/>
	<path fill="#E5E5E5" d="M7.258,1.033C7.48,1.027,7.701,1.021,7.923,1.014c0.051-0.019,0.1-0.042,0.146-0.068
		C8.055,0.893,8.039,0.841,8.025,0.791c-0.008,0-0.014-0.001-0.02-0.001c-0.266,0-0.524,0.018-0.78,0.048
		C7.225,0.889,7.225,0.942,7.223,0.994C7.233,1,7.244,1.005,7.255,1.01C7.257,1.019,7.257,1.025,7.258,1.033z"/>
	<path fill="#E5E5E5" d="M11.234,6.336c0-0.006-0.003-0.013-0.003-0.019c-0.006,0-0.013,0-0.019-0.001L11.234,6.336z"/>
	<path fill="#E5E5E5" d="M11.883,5.67c-0.167-0.028-0.332-0.056-0.499-0.084c-0.055,0.026-0.11,0.051-0.162,0.076
		c0.004,0.218,0.007,0.437,0.01,0.654c0.226,0.001,0.447,0.002,0.67,0.003c0.052-0.02,0.101-0.042,0.149-0.069
		C11.992,6.058,11.938,5.864,11.883,5.67z"/>
	<path fill="#E5E5E5" d="M11.898,5.673l-0.021-0.021c0.003,0.006,0.003,0.012,0.006,0.018C11.886,5.67,11.892,5.672,11.898,5.673
		L11.898,5.673z"/>
	<path fill="#E5E5E5" d="M3.427,5.587C3.372,5.612,3.319,5.637,3.264,5.662C3.261,5.876,3.255,6.089,3.252,6.303
		c0.007,0.004,0.017,0.007,0.024,0.013c0.001,0.011,0.003,0.021,0.004,0.031c0.225-0.01,0.451-0.021,0.674-0.03l0,0
		c0.047-0.019,0.093-0.041,0.136-0.065C4.036,6.057,3.979,5.863,3.923,5.669C3.759,5.642,3.593,5.615,3.427,5.587z"/>
	<path fill="#E5E5E5" d="M3.923,5.669C3.929,5.67,3.933,5.671,3.937,5.672L3.92,5.654C3.92,5.659,3.922,5.664,3.923,5.669z"/>
	<path fill="#E5E5E5" d="M4.039,4.966L3.96,4.986C3.952,5.208,3.945,5.431,3.938,5.654c0.229-0.001,0.457-0.001,0.684-0.001
		c0.047-0.018,0.091-0.039,0.133-0.064C4.698,5.392,4.642,5.196,4.585,5C4.411,4.906,4.229,4.861,4.039,4.966z"/>
	<path fill="#E5E5E5" d="M3.937,5.672c0-0.006,0.001-0.012,0.001-0.018c-0.006,0-0.012,0-0.018,0L3.937,5.672z"/>
	<polygon fill="#E5E5E5" points="4.583,4.991 4.585,5 4.601,5.008 	"/>
	<path fill="#E5E5E5" d="M4.583,3.663c0,0.003,0.001,0.006,0.003,0.01C4.59,3.676,4.596,3.68,4.603,3.683L4.583,3.663z"/>
	<path fill="#E5E5E5" d="M4.041,3.641C4.013,3.648,3.987,3.656,3.96,3.663C3.952,3.886,3.945,4.109,3.938,4.331
		C4.17,4.329,4.403,4.327,4.634,4.324c0.041-0.016,0.081-0.038,0.119-0.062C4.697,4.065,4.642,3.869,4.585,3.673
		C4.411,3.566,4.231,3.528,4.041,3.641z"/>
	<path fill="#E5E5E5" d="M3.938,4.331c-0.008,0-0.015,0-0.021,0.001l0.021,0.015C3.938,4.341,3.938,4.336,3.938,4.331z"/>
	<path fill="#E5E5E5" d="M9.913,3.014c0,0.216-0.004,0.433-0.007,0.648c0.231,0,0.46,0,0.688,0c0.046-0.017,0.088-0.038,0.128-0.064
		c-0.055-0.196-0.112-0.392-0.168-0.588C10.339,2.868,10.126,2.93,9.913,3.014z"/>
	<path fill="#E5E5E5" d="M10.555,3.01c0.004,0.003,0.01,0.005,0.016,0.009L10.552,3C10.552,3.003,10.552,3.007,10.555,3.01z"/>
	<path fill="#E5E5E5" d="M9.885,3.025c0.01-0.004,0.019-0.007,0.028-0.011c0-0.004,0-0.008,0-0.011L9.885,3.025z"/>
	<path fill="#E5E5E5" d="M9.906,3.683c0-0.007,0-0.014,0-0.021c-0.006,0-0.012,0-0.021,0L9.906,3.683z"/>
	<path fill="#E5E5E5" d="M10.57,2.327c0,0.01,0.003,0.021,0.003,0.031c-0.006,0-0.015-0.001-0.021-0.001
		c0.007,0.215,0.013,0.43,0.019,0.644c0.213,0.004,0.43,0.007,0.646,0.011c0.055-0.025,0.113-0.05,0.171-0.076
		c-0.046-0.188-0.089-0.377-0.131-0.567l-0.055-0.052C10.987,2.163,10.78,2.264,10.57,2.327z"/>
	<path fill="#E5E5E5" d="M10.57,3.019c0-0.006,0-0.011,0-0.018c-0.006,0-0.012,0-0.019,0L10.57,3.019z"/>
	<path fill="#E5E5E5" d="M10.549,11.62c0.013-0.003,0.024-0.006,0.037-0.009c0.063-0.216,0.148-0.436-0.027-0.643
		c-0.152-0.116-0.32-0.131-0.5-0.076c-0.058,0.028-0.112,0.052-0.17,0.08c0,0.216,0.003,0.432,0.003,0.648l0,0l0.015,0.015
		c0.217,0.003,0.43,0.003,0.643,0.006C10.549,11.632,10.549,11.626,10.549,11.62z"/>
	<path fill="#E5E5E5" d="M10.549,10.956c0.003,0.006,0.006,0.009,0.01,0.012c0.003,0.003,0.006,0.006,0.012,0.009L10.549,10.956z"/>
	<path fill="#E5E5E5" d="M13.208,11.736c0.039-0.052,0.079-0.104,0.115-0.158c-0.039,0.018-0.079,0.037-0.115,0.055
		C13.208,11.666,13.208,11.702,13.208,11.736z"/>
	<path fill="#E5E5E5" d="M5.26,3.001c0.216,0.008,0.432,0.016,0.647,0.023c0-0.008,0-0.017,0-0.026
		c0.011-0.002,0.02-0.004,0.029-0.007c0.058-0.211,0.09-0.423-0.001-0.634c-0.009,0-0.018,0.001-0.027,0.001
		c0-0.009,0-0.018,0-0.028C5.743,2.311,5.579,2.292,5.416,2.272C5.383,2.296,5.35,2.316,5.313,2.332
		C5.193,2.548,5.216,2.773,5.26,3.001z"/>
	<path fill="#E5E5E5" d="M5.265,3.02C5.263,3.014,5.262,3.008,5.26,3.001c-0.005,0-0.011,0-0.015,0L5.265,3.02z"/>
	<path fill="#E5E5E5" d="M9.885,12.948c0.004,0.003,0.007,0.006,0.007,0.009c0.006,0,0.009,0.003,0.012,0.006L9.885,12.948z"/>
	<path fill="#E5E5E5" d="M8.56,12.302c0.006-0.003,0.014-0.006,0.021-0.012c0-0.003,0.002-0.003,0.002-0.006L8.56,12.302z"/>
	<path fill="#E5E5E5" d="M7.255,14.294c0-0.006-0.002-0.013-0.002-0.019c-0.006,0-0.012,0-0.018-0.003L7.255,14.294z"/>
	<path fill="#E5E5E5" d="M9.892,14.288c0.006,0.003,0.009,0.003,0.015,0.006l-0.021-0.021C9.889,14.278,9.889,14.285,9.892,14.288z"
		/>
	<path fill="#E5E5E5" d="M13.226,18.944c0.174,0.021,0.348,0.042,0.536,0.066c0.033,0.204,0.058,0.378,0.085,0.549
		c0.013,0.006,0.024,0.012,0.04,0.021c0,0.007,0,0.013,0.003,0.021c0.024,0,0.046-0.003,0.07-0.003v-1.029h-0.811
		c0.013,0.112,0.024,0.223,0.037,0.332c0.012,0.003,0.024,0.009,0.036,0.012C13.226,18.926,13.226,18.935,13.226,18.944z"/>
	<path fill="#E5E5E5" d="M9.563,13.706c0.119-0.036,0.231-0.098,0.347-0.149c0.016-0.033,0.037-0.066,0.062-0.101
		c0.091-0.186,0.061-0.353-0.079-0.499c-0.064-0.042-0.125-0.104-0.195-0.11c-0.213-0.024-0.351-0.1-0.359-0.341
		c-0.003-0.067-0.049-0.134-0.082-0.198c-0.006-0.009-0.009-0.015-0.013-0.024C9.228,12.275,9.215,12.269,9.2,12.26
		c-0.209-0.128-0.415-0.07-0.619,0.03c-0.035,0.231-0.071,0.463-0.106,0.694C8.479,12.994,8.483,13,8.488,13.012
		c0.008,0,0.014,0.006,0.021,0.009c0.178,0,0.358,0,0.579,0c0.016,0.104,0.067,0.217,0.04,0.302c-0.056,0.165-0.3,0.204-0.396,0.079
		c-0.092-0.115-0.043-0.319-0.224-0.381c-0.014,0-0.027,0-0.04,0c0.002-0.012,0.003-0.024,0.005-0.036
		c-0.06-0.122-0.172-0.134-0.291-0.113c-0.09,0.015-0.177,0.046-0.265,0.07c0,0.009,0,0.018,0,0.027
		c-0.008-0.003-0.017,0-0.024-0.003c-0.03,0.231-0.06,0.459-0.09,0.688c0.003,0.009,0.006,0.019,0.006,0.03
		c0.006,0,0.009,0,0.014,0.003c0.202,0,0.403,0,0.612,0c0.008,0.135,0.039,0.223,0.014,0.29c-0.067,0.173-0.289,0.213-0.378,0.069
		c-0.076-0.125-0.044-0.322-0.248-0.359c-0.008,0-0.016,0-0.024,0c0.002-0.012,0.003-0.024,0.005-0.033
		c-0.03-0.149-0.155-0.152-0.274-0.137c-0.091,0.009-0.18,0.049-0.268,0.079c-0.002,0.012-0.005,0.024-0.006,0.036
		C7.25,13.63,7.242,13.63,7.236,13.63c0.006,0.217,0.013,0.433,0.017,0.646c0.171,0.037,0.342,0.073,0.509,0.106
		c0.046,0.369,0.046,0.369-0.354,0.49c-0.047,0.027-0.096,0.049-0.146,0.067c-0.012,0.216-0.024,0.433-0.036,0.648
		c0.011,0.003,0.021,0.006,0.032,0.013c0,0.009,0.001,0.018,0.003,0.027c0.17,0.024,0.341,0.052,0.535,0.082
		c0.01,0.055,0.018,0.109,0.026,0.161c0.158-0.125,0.326-0.246,0.498-0.368c-0.085-0.037-0.172-0.076-0.261-0.116
		c0-0.076,0-0.155,0-0.286c0.165-0.052,0.34-0.104,0.514-0.158c0.024-0.052,0.049-0.104,0.072-0.158
		c0.144-0.359,0.144-0.359,0.49-0.362c0.032,0.158,0.065,0.322,0.099,0.484c0.131-0.082,0.262-0.165,0.396-0.247
		c0.104-0.063,0.208-0.128,0.312-0.194c-0.016-0.059-0.031-0.119-0.049-0.177c-0.165-0.064-0.323-0.125-0.476-0.183
		C9.367,13.919,9.353,13.773,9.563,13.706z"/>
	<path fill="#E5E5E5" d="M9.242,2.327c-0.006,0-0.012,0.001-0.015,0.001c-0.003,0.01-0.006,0.021-0.006,0.032L9.242,2.327z"/>
	<path fill="#E5E5E5" d="M8.583,1.689c0-0.006,0-0.013,0-0.02L8.557,1.695C8.565,1.693,8.575,1.692,8.583,1.689z"/>
	<path fill="#E5E5E5" d="M9.228,2.328c0.012-0.069,0.03-0.138,0.03-0.208C9.271,1.729,9.19,1.651,8.796,1.654
		c-0.07,0-0.142,0.021-0.213,0.035c0.001,0.215,0.001,0.429,0.001,0.643C8.797,2.331,9.013,2.329,9.228,2.328z"/>
	<path fill="#E5E5E5" d="M8.584,2.361c0-0.009,0-0.019,0-0.029c-0.011,0-0.021,0-0.03,0L8.584,2.361z"/>
	<path fill="#E5E5E5" d="M8.799,2.991C8.726,2.988,8.651,2.996,8.579,3c0,0.005,0,0.011,0,0.016c-0.006,0-0.01,0-0.017,0
		C8.562,3.228,8.56,3.439,8.557,3.651c0,0.012,0,0.023,0,0.036c0.009,0,0.019,0,0.027,0c0.213-0.001,0.429-0.002,0.641-0.004
		c0.006,0,0.012,0,0.021,0c0-0.008,0-0.015,0-0.023c0.006-0.071,0.012-0.141,0.009-0.212C9.239,3.042,9.2,3.004,8.799,2.991z"/>
	<path fill="#E5E5E5" d="M7.919,2.356c-0.008,0-0.017,0-0.024,0c0.008,0.214,0.017,0.43,0.024,0.645
		c0.215,0.005,0.431,0.01,0.644,0.016c0.007,0,0.011,0,0.017,0c0-0.005,0-0.011,0-0.016C8.57,2.787,8.563,2.573,8.555,2.359
		C8.345,2.35,8.137,2.34,7.928,2.331C7.925,2.339,7.922,2.348,7.919,2.356z"/>
	<path fill="#E5E5E5" d="M8.555,2.359c0.01,0.001,0.019,0.001,0.029,0.001l-0.03-0.028C8.554,2.342,8.554,2.35,8.555,2.359z"/>
	<path fill="#E5E5E5" d="M7.919,3.023c0-0.007,0-0.015,0-0.022c-0.01,0-0.019,0-0.027,0L7.919,3.023z"/>
	<path fill="#E5E5E5" d="M9.879,2.334c0,0.008,0,0.017,0,0.026c0.013,0,0.021,0,0.03,0L9.879,2.334z"/>
	<path fill="#E5E5E5" d="M9.249,2.563c0.03,0.342,0.088,0.399,0.429,0.436c0.067,0.008,0.138,0.004,0.207,0.004
		c0-0.215-0.003-0.429-0.006-0.643c-0.21,0-0.423-0.001-0.637-0.001C9.242,2.427,9.239,2.496,9.249,2.563z"/>
	<path fill="#E5E5E5" d="M9.242,2.359c0-0.011,0-0.021,0-0.033L9.222,2.359C9.228,2.359,9.236,2.359,9.242,2.359z"/>
	<path fill="#E5E5E5" d="M9.885,3.003c0,0.007,0,0.015,0,0.021l0.028-0.022C9.903,3.003,9.895,3.003,9.885,3.003z"/>
	<path fill="#E5E5E5" d="M3.908,6.963C3.737,6.87,3.564,6.834,3.381,6.948c-0.037,0.013-0.07,0.026-0.107,0.038
		c0,0.126,0,0.252,0,0.38h0.757c0.021-0.12-0.014-0.238-0.078-0.356c-0.006-0.01-0.011-0.02-0.015-0.029
		C3.928,6.974,3.919,6.968,3.908,6.963z"/>
	<path fill="#E5E5E5" d="M7.887,1.66c0.011,0.005,0.021,0.009,0.03,0.014c0.006,0.008,0.01,0.015,0.014,0.024
		C8.145,1.688,8.355,1.679,8.567,1.67C8.665,1.457,8.709,1.243,8.57,1.028C8.403,1,8.235,0.973,8.068,0.946
		C8.022,0.972,7.974,0.995,7.923,1.014C7.911,1.229,7.898,1.445,7.887,1.66z"/>
	<path fill="#E5E5E5" d="M8.583,1.669c-0.005,0-0.01,0.001-0.016,0.001C8.564,1.679,8.562,1.687,8.557,1.695L8.583,1.669z"/>
	<path fill="#E5E5E5" d="M8.562,1.011C8.564,1.017,8.565,1.022,8.57,1.028c0.003,0.001,0.006,0.001,0.009,0.001L8.562,1.011z"/>
	<path fill="#E5E5E5" d="M8.581,1.011c-0.006,0-0.014,0-0.02,0l0.018,0.018C8.579,1.023,8.581,1.017,8.581,1.011z"/>
	<path fill="#E5E5E5" d="M9.225,1.01C9.23,1.009,9.239,1.008,9.249,1.007c0.006-0.032,0.015-0.063,0.021-0.094
		C9.049,0.87,8.823,0.837,8.593,0.817c-0.004,0.065-0.007,0.13-0.012,0.194C8.796,1.018,9.013,1.024,9.225,1.03
		C9.225,1.023,9.225,1.017,9.225,1.01z"/>
	<path fill="#E5E5E5" d="M3.427,5.587C3.372,5.392,3.319,5.195,3.264,5c-0.151-0.125-0.318-0.147-0.5-0.075
		C2.724,4.949,2.681,4.971,2.637,4.989C2.512,5.199,2.553,5.42,2.585,5.641c0.009,0.004,0.02,0.006,0.029,0.01
		c0.004,0.011,0.008,0.021,0.011,0.031c0.213-0.007,0.426-0.013,0.64-0.02C3.319,5.637,3.372,5.612,3.427,5.587z"/>
	<polygon fill="#E5E5E5" points="3.263,4.993 3.264,5 3.271,5.004 	"/>
	<polygon fill="#E5E5E5" points="3.263,4.993 3.271,5.004 3.269,4.993 	"/>
	<path fill="#E5E5E5" d="M4.039,4.966c0.017-0.221,0.021-0.441-0.12-0.632C3.742,4.225,3.56,4.18,3.368,4.312L3.34,4.31
		C3.182,4.524,3.205,4.757,3.269,4.993C3.499,4.991,3.73,4.988,3.96,4.986L4.039,4.966z"/>
	<path fill="#E5E5E5" d="M3.917,4.332c0,0,0,0.001,0.002,0.002c0.006,0.003,0.012,0.007,0.02,0.012L3.917,4.332z"/>
	<path fill="#E5E5E5" d="M3.274,3.668c-0.006,0-0.014,0-0.02,0l0.02,0.015C3.274,3.677,3.274,3.673,3.274,3.668z"/>
	<path fill="#E5E5E5" d="M3.96,3.663c0.027-0.007,0.053-0.014,0.081-0.022C4.007,3.435,3.974,3.229,3.941,3.024
		C3.94,3.017,3.938,3.01,3.937,3.002c-0.015-0.012-0.03-0.02-0.046-0.03C3.683,2.84,3.48,2.918,3.278,3.009
		c0,0.22-0.001,0.439-0.003,0.659C3.503,3.667,3.731,3.665,3.96,3.663L3.96,3.663z"/>
	<path fill="#E5E5E5" d="M3.255,3.02C3.263,3.016,3.27,3.012,3.278,3.009c0-0.003,0-0.007,0-0.01L3.255,3.02z"/>
	<path fill="#E5E5E5" d="M7.922,11.635c-0.009,0.216-0.017,0.433-0.024,0.649c0.008,0,0.014,0,0.02,0c0,0.006,0,0.015,0,0.021
		c0.217-0.006,0.433-0.015,0.648-0.021c0.09-0.21,0.101-0.42,0.027-0.634c-0.004-0.012-0.006-0.021-0.01-0.03
		c-0.014-0.006-0.026-0.009-0.038-0.015C8.333,11.526,8.127,11.568,7.922,11.635z"/>
	<path fill="#E5E5E5" d="M7.922,11.635c0-0.006,0-0.012,0-0.018l-0.027,0.027C7.902,11.642,7.911,11.638,7.922,11.635z"/>
	<path fill="#E5E5E5" d="M8.583,12.284L8.583,12.284L8.583,12.284c-0.007,0-0.011,0-0.018,0c-0.003,0.006-0.004,0.012-0.006,0.018
		L8.583,12.284z"/>
	<path fill="#E5E5E5" d="M7.255,11.642c0.213-0.006,0.427-0.016,0.64-0.024c0.008-0.21,0.015-0.417,0.024-0.627
		c0-0.012,0-0.024,0.001-0.034c-0.009,0-0.018,0-0.027,0c-0.132,0.006-0.265,0.009-0.398,0.016c-0.037,0.021-0.072,0.045-0.11,0.067
		c-0.044,0.027-0.088,0.055-0.132,0.082c-0.006,0.167-0.013,0.335-0.019,0.5c0.006,0,0.014,0,0.021,0
		C7.255,11.629,7.255,11.635,7.255,11.642z"/>
	<path fill="#E5E5E5" d="M7.922,11.617c-0.009,0-0.019,0-0.027,0c0,0.009,0,0.018,0,0.027L7.922,11.617z"/>
	<path fill="#E5E5E5" d="M6.591,11.62c0-0.027-0.001-0.055-0.001-0.079c-0.051,0.03-0.1,0.061-0.148,0.094
		c0.045,0,0.087,0.003,0.131,0.003c0-0.006,0-0.012,0-0.018C6.579,11.62,6.585,11.62,6.591,11.62z"/>
	<path fill="#E5E5E5" d="M5.929,1.673c-0.005,0-0.008,0-0.012,0C5.914,1.68,5.91,1.687,5.907,1.693L5.929,1.673z"/>
	<path fill="#E5E5E5" d="M5.268,1.693C5.484,1.687,5.7,1.68,5.917,1.673C6.005,1.487,6.06,1.3,5.97,1.113
		C5.712,1.197,5.464,1.296,5.221,1.41c0.004,0.081,0.015,0.164,0.021,0.246c0.002,0.012,0.002,0.025,0.002,0.038
		C5.252,1.694,5.26,1.694,5.268,1.693z"/>
	<path fill="#E5E5E5" d="M3.94,2.332c0-0.042,0-0.086,0-0.129C3.875,2.253,3.812,2.305,3.75,2.358c0.052,0,0.105,0,0.157,0
		c0.01,0,0.021,0,0.033,0C3.94,2.35,3.94,2.341,3.94,2.332z"/>
	<path fill="#E5E5E5" d="M3.089,3.005C3.144,3.003,3.2,3.001,3.255,3c0.001-0.06,0.004-0.12,0.006-0.18
		C3.202,2.88,3.144,2.942,3.089,3.005z"/>
	<path fill="#E5E5E5" d="M3.255,3c0,0.006,0,0.013,0,0.02l0.023-0.021C3.27,2.999,3.263,2.999,3.255,3z"/>
	<path fill="#E5E5E5" d="M5.936,12.284c0.021-0.116,0.044-0.229,0.046-0.341c-0.167,0.116-0.336,0.238-0.505,0.362
		c0.145,0,0.288,0,0.432-0.003c0-0.006,0-0.012,0-0.018C5.918,12.284,5.927,12.284,5.936,12.284z"/>
	<path fill="#E5E5E5" d="M10.586,11.611c-0.013,0.003-0.024,0.006-0.037,0.009c0,0.006,0,0.012,0,0.021
		c0.006,0.213,0.013,0.426,0.019,0.643c0.219,0,0.436-0.003,0.654-0.003c0.067-0.21,0.107-0.417,0.024-0.633
		c-0.006-0.009-0.006-0.018-0.012-0.027c-0.013-0.006-0.024-0.009-0.037-0.015C10.994,11.532,10.79,11.562,10.586,11.611z"/>
	<path fill="#E5E5E5" d="M11.237,12.281c-0.006,0-0.009,0-0.016,0c-0.003,0.009-0.006,0.019-0.006,0.027L11.237,12.281z"/>
	<path fill="#E5E5E5" d="M10.567,12.284c-0.006,0-0.013,0-0.019,0l0.019,0.024C10.567,12.299,10.567,12.29,10.567,12.284z"/>
	<path fill="#E5E5E5" d="M10.552,12.966c0-0.006,0-0.012,0-0.021c0.007,0,0.016,0,0.021,0c0.046-0.213,0.101-0.429-0.015-0.64
		c-0.204-0.106-0.414-0.106-0.625-0.037c-0.015,0.003-0.03,0.009-0.049,0.016c0,0.006,0,0.015,0,0.021
		c0.007,0.213,0.013,0.43,0.019,0.643C10.12,12.954,10.336,12.96,10.552,12.966z"/>
	<path fill="#E5E5E5" d="M9.903,12.948c-0.006,0-0.012,0-0.019,0l0,0l0,0l0.019,0.015C9.903,12.96,9.903,12.954,9.903,12.948z"/>
	<path fill="#E5E5E5" d="M10.549,12.284c0.003,0.006,0.006,0.012,0.01,0.021c0.003,0,0.006,0.003,0.009,0.003L10.549,12.284z"/>
	<polygon fill="#E5E5E5" points="10.567,12.308 10.567,12.308 10.567,12.308 	"/>
	<path fill="#E5E5E5" d="M7.23,3.023C7.239,3.02,7.249,3.017,7.258,3.014c0-0.006,0-0.011,0-0.018L7.23,3.023z"/>
	<polygon fill="#E5E5E5" points="7.23,3.023 7.23,3.023 7.23,3.023 	"/>
	<path fill="#E5E5E5" d="M7.896,3.013c0.008,0.004,0.016,0.006,0.023,0.011L7.892,3C7.893,3.005,7.895,3.009,7.896,3.013z"/>
	<path fill="#E5E5E5" d="M7.257,3.685c0-0.006,0-0.012,0-0.019c-0.01,0-0.019-0.001-0.026-0.001L7.257,3.685z"/>
	<path fill="#E5E5E5" d="M7.896,3.013C7.685,2.91,7.471,2.943,7.258,3.014c0,0.217-0.001,0.435-0.001,0.652
		C7.468,3.672,7.68,3.677,7.892,3.684c0.009,0,0.018,0,0.027,0C7.925,3.667,7.93,3.65,7.936,3.634
		C8.007,3.423,7.988,3.217,7.896,3.013z"/>
	<path fill="#E5E5E5" d="M10.573,1.672c-0.009,0-0.019,0-0.027,0l0.027,0.024C10.573,1.688,10.573,1.68,10.573,1.672z"/>
	<path fill="#E5E5E5" d="M11.234,1.695c0.006-0.012,0.009-0.023,0.015-0.035c0-0.003,0-0.006,0.004-0.009
		c-0.22-0.125-0.445-0.238-0.68-0.338c0,0.121,0,0.241,0,0.359c0.21,0.008,0.421,0.015,0.631,0.022
		C11.213,1.694,11.226,1.694,11.234,1.695z"/>
	<path fill="#E5E5E5" d="M10.546,1.672c0,0.008,0,0.016,0,0.023c0.009,0,0.019,0,0.027,0.001L10.546,1.672z"/>
	<path fill="#E5E5E5" d="M9.889,1.69c0.009,0.214,0.015,0.43,0.021,0.645c0.217,0.008,0.43,0.015,0.643,0.022
		c0.007,0,0.016,0.001,0.021,0.001c0-0.011-0.003-0.021-0.003-0.031c-0.006-0.211-0.016-0.421-0.024-0.631
		c-0.213-0.006-0.423-0.012-0.64-0.019c0,0.005,0,0.01,0,0.016C9.9,1.691,9.895,1.691,9.889,1.69z"/>
	<path fill="#E5E5E5" d="M9.909,2.335c-0.009,0-0.018,0-0.03,0l0.03,0.026C9.909,2.352,9.909,2.343,9.909,2.335z"/>
	<path fill="#E5E5E5" d="M11.216,12.308c0.006-0.003,0.013-0.006,0.019-0.009c0.003-0.006,0.003-0.012,0.003-0.019L11.216,12.308z"
		/>
	<path fill="#E5E5E5" d="M11.861,12.269c-0.213-0.091-0.42-0.061-0.627,0.031c-0.006,0.216-0.016,0.432-0.021,0.646
		c0.006,0,0.016,0,0.021,0c0,0.009,0,0.015,0,0.021c0.243-0.006,0.49-0.012,0.733-0.021l0.016-0.003
		c-0.027-0.213-0.055-0.423-0.082-0.637c0-0.006-0.003-0.015-0.003-0.021C11.886,12.278,11.874,12.272,11.861,12.269z"/>
	<path fill="#E5E5E5" d="M11.864,13.118c0.107-0.085,0.211-0.173,0.314-0.268c-0.064,0.012-0.128,0.04-0.195,0.091l-0.016,0.003
		C11.92,13.003,11.886,13.061,11.864,13.118z"/>
	<path fill="#E5E5E5" d="M6.684,0.923C6.552,0.95,6.421,0.983,6.289,1.018C6.384,1.02,6.479,1.021,6.572,1.022
		C6.614,1.009,6.653,0.99,6.689,0.965C6.688,0.951,6.686,0.937,6.684,0.923z"/>
	<path fill="#E5E5E5" d="M6.576,3.015C6.367,2.9,6.152,2.934,5.936,2.991C5.927,2.994,5.918,2.996,5.907,2.998
		c0,0.009,0,0.018,0,0.026c0,0.208,0,0.417,0,0.625c0,0.012,0,0.024,0,0.036c0.009,0,0.02,0,0.029-0.001
		c0.213-0.007,0.428-0.014,0.641-0.021C6.658,3.447,6.691,3.231,6.576,3.015z"/>
	<path fill="#E5E5E5" d="M6.568,2.999C6.571,3.004,6.574,3.01,6.576,3.015c0.006,0.003,0.01,0.004,0.015,0.007L6.568,2.999z"/>
	<path fill="#E5E5E5" d="M6.577,3.663C6.574,3.67,6.572,3.677,6.569,3.685l0.023-0.023C6.588,3.663,6.582,3.663,6.577,3.663z"/>
	<path fill="#E5E5E5" d="M7.233,3.676c-0.213-0.105-0.428-0.081-0.641,0C6.585,3.889,6.579,4.101,6.571,4.313
		C6.569,4.325,6.569,4.336,6.569,4.348c0.01,0,0.017,0,0.026,0c0.212,0,0.422,0,0.633-0.001c0.01,0,0.018,0,0.028,0
		c0.004-0.014,0.009-0.028,0.014-0.042C7.342,4.092,7.334,3.882,7.233,3.676z"/>
	<path fill="#E5E5E5" d="M7.233,3.676C7.241,3.68,7.249,3.681,7.257,3.685L7.23,3.665C7.232,3.668,7.232,3.672,7.233,3.676z"/>
	<path fill="#E5E5E5" d="M6.569,3.685C6.577,3.682,6.585,3.68,6.593,3.676c0-0.004,0-0.009,0-0.014L6.569,3.685z"/>
	<path fill="#E5E5E5" d="M6.571,1.673l0.02,0.02c0-0.007,0-0.013,0-0.02C6.585,1.673,6.579,1.673,6.571,1.673z"/>
	<path fill="#E5E5E5" d="M7.345,1.646C7.315,1.442,7.287,1.237,7.258,1.033C7.257,1.025,7.257,1.019,7.255,1.01
		C7.244,1.005,7.233,1,7.223,0.994c-0.172-0.089-0.347-0.12-0.533-0.029C6.653,0.99,6.614,1.009,6.572,1.022
		C6.579,1.24,6.585,1.457,6.591,1.673C6.814,1.675,7.037,1.676,7.26,1.677C7.288,1.668,7.317,1.658,7.345,1.646z"/>
	<path fill="#E5E5E5" d="M6.593,2.334c-0.007,0-0.011,0-0.017,0C6.574,2.343,6.571,2.352,6.568,2.359L6.593,2.334z"/>
	<path fill="#E5E5E5" d="M5.929,1.686c0-0.004,0-0.008,0-0.012l-0.021,0.02C5.915,1.691,5.921,1.688,5.929,1.686z"/>
	<polygon fill="#E5E5E5" points="6.571,1.673 6.579,1.687 6.591,1.693 	"/>
	<path fill="#E5E5E5" d="M5.907,2.358c0.009,0,0.019-0.001,0.027-0.001C6.148,2.35,6.362,2.343,6.576,2.335
		C6.65,2.12,6.7,1.903,6.579,1.687C6.361,1.571,6.145,1.6,5.929,1.686C5.921,1.9,5.915,2.116,5.907,2.33
		C5.907,2.34,5.907,2.349,5.907,2.358z"/>
	<path fill="#E5E5E5" d="M2.589,6.334C2.597,6.33,2.606,6.326,2.614,6.322c0-0.002,0-0.005,0-0.008L2.589,6.334z"/>
	<path fill="#E5E5E5" d="M3.281,6.347C3.279,6.336,3.278,6.327,3.276,6.316C3.269,6.311,3.259,6.308,3.252,6.303
		c-0.216-0.12-0.428-0.091-0.638,0.019C2.606,6.538,2.599,6.754,2.591,6.969c0.008,0.003,0.016,0.004,0.023,0.008
		C2.618,6.987,2.62,6.997,2.623,7.006C2.841,7,3.057,6.992,3.274,6.985c0.037-0.012,0.07-0.024,0.107-0.038
		C3.348,6.748,3.314,6.547,3.281,6.347z"/>
	<path fill="#E5E5E5" d="M11.207,19.565l0.009,0.009c0.013,0.013,0.03,0.03,0.03,0.03l0,0c0.162,0.034,0.32,0.064,0.524,0.107
		c0.033,0.164,0.073,0.347,0.109,0.526l0.019,0.021l0,0c0.216-0.003,0.436-0.006,0.648-0.01c0.055-0.023,0.109-0.048,0.164-0.072
		c-0.055-0.195-0.112-0.391-0.167-0.585c-0.158-0.07-0.317-0.141-0.466-0.204c-0.062-0.177-0.073-0.329,0.128-0.393
		c0.121-0.043,0.256-0.055,0.384-0.083l0.061-0.018c-0.016-0.109-0.033-0.217-0.049-0.326h-0.779
		c-0.086,0.174-0.253,0.271-0.484,0.313c-0.04,0.016-0.079,0.03-0.119,0.043C11.216,19.139,11.21,19.353,11.207,19.565z"/>
	<path fill="#E5E5E5" d="M12.541,19.58c0,0.004,0.003,0.007,0.003,0.013c0.006,0,0.009,0.003,0.015,0.006L12.541,19.58z"/>
	<path fill="#E5E5E5" d="M8.576,15.329c0.195-0.131,0.396-0.259,0.605-0.39c-0.178-0.052-0.357-0.104-0.537-0.155
		c-0.023,0.055-0.048,0.106-0.072,0.158C8.573,15.073,8.575,15.201,8.576,15.329z"/>
	<path fill="#E5E5E5" d="M9.906,14.294c0-0.006,0-0.013,0-0.021c-0.006,0-0.012,0-0.021,0L9.906,14.294z"/>
	<path fill="#E5E5E5" d="M10.549,13.605c-0.191-0.052-0.387-0.101-0.578-0.149c-0.024,0.034-0.046,0.067-0.062,0.101
		c0,0.241-0.003,0.479-0.003,0.716c0.113,0,0.226,0,0.338,0c0.141-0.088,0.283-0.18,0.424-0.271
		c-0.033-0.125-0.064-0.247-0.098-0.369c-0.006,0-0.016,0-0.021,0C10.549,13.624,10.549,13.615,10.549,13.605z"/>
	<polygon fill="#E5E5E5" points="11.237,13.605 11.234,13.605 11.234,13.605 	"/>
	<path fill="#E5E5E5" d="M6.6,14.261c-0.001,0.012-0.004,0.021-0.007,0.033c-0.007,0-0.014,0-0.021,0
		c-0.002,0.21-0.003,0.42-0.003,0.63c0.008,0.007,0.015,0.007,0.024,0.013c0.001,0.009,0.003,0.021,0.004,0.03
		c0.221-0.009,0.443-0.019,0.664-0.027c0.051-0.019,0.1-0.04,0.146-0.067c-0.057-0.197-0.113-0.393-0.169-0.591
		C7.031,14.123,6.814,14.193,6.6,14.261z"/>
	<path fill="#E5E5E5" d="M7.235,14.272c0.001,0.003,0.001,0.006,0.003,0.009c0.004,0.007,0.011,0.007,0.017,0.013L7.235,14.272z"/>
	<path fill="#E5E5E5" d="M7.257,2.337c-0.008,0-0.018-0.001-0.023-0.001l0.023,0.021C7.257,2.35,7.257,2.344,7.257,2.337z"/>
	<path fill="#E5E5E5" d="M7.919,2.356c0.003-0.008,0.006-0.018,0.009-0.026c0.076-0.212,0.123-0.423,0.003-0.633
		C7.927,1.688,7.923,1.681,7.917,1.673c-0.009-0.004-0.02-0.009-0.03-0.014C7.71,1.584,7.532,1.53,7.345,1.646
		C7.317,1.658,7.288,1.668,7.26,1.677c0,0.22-0.002,0.44-0.003,0.66C7.47,2.343,7.683,2.35,7.895,2.356
		C7.902,2.356,7.911,2.356,7.919,2.356z"/>
	<path fill="#E5E5E5" d="M5.909,16.261c0.006-0.003,0.014-0.003,0.02-0.006c-0.008-0.213-0.014-0.43-0.021-0.643
		c-0.211-0.082-0.422-0.049-0.632,0.003c0,0.217-0.001,0.43-0.003,0.646c0.211,0.01,0.425,0.019,0.636,0.027
		C5.909,16.279,5.909,16.271,5.909,16.261z"/>
	<path fill="#E5E5E5" d="M5.272,16.261c-0.011,0-0.021-0.003-0.031-0.003l0.031,0.03C5.272,16.279,5.272,16.271,5.272,16.261z"/>
	<path fill="#E5E5E5" d="M5.244,15.625c0.01-0.003,0.021-0.007,0.032-0.01c0-0.003,0-0.009,0-0.012L5.244,15.625z"/>
	<path fill="#E5E5E5" d="M5.906,15.598c0.001,0.006,0.001,0.009,0.001,0.015c0.008,0.003,0.015,0.006,0.023,0.01L5.906,15.598z"/>
	<path fill="#E5E5E5" d="M5.907,14.934c0,0.012,0,0.021,0,0.03l0.024-0.03C5.924,14.934,5.915,14.934,5.907,14.934z"/>
	<path fill="#E5E5E5" d="M5.242,14.297c0.011,0,0.021,0,0.032,0c0-0.006,0-0.016,0-0.024L5.242,14.297z"/>
	<path fill="#E5E5E5" d="M5.926,14.291l-0.021-0.019c0,0.009,0,0.016,0,0.024c0.009,0,0.018,0,0.027,0
		C5.932,14.297,5.93,14.294,5.926,14.291z"/>
	<path fill="#E5E5E5" d="M5.904,14.297c-0.21,0-0.42,0-0.63,0c0,0.213,0.001,0.423,0.001,0.637c0.21,0,0.42,0,0.632,0
		C5.906,14.72,5.906,14.51,5.904,14.297z"/>
	<path fill="#E5E5E5" d="M5.275,14.934c-0.012,0-0.023,0-0.034,0l0.034,0.027C5.275,14.951,5.275,14.942,5.275,14.934z"/>
	<path fill="#E5E5E5" d="M5.263,16.928c-0.008-0.213-0.014-0.426-0.021-0.64c-0.211,0-0.425,0.004-0.638,0.004
		c-0.001,0.066-0.006,0.137-0.001,0.204c0.03,0.335,0.082,0.387,0.428,0.432c0.072,0.01,0.146,0.01,0.219,0.016
		c-0.001-0.006-0.001-0.009-0.001-0.016C5.252,16.928,5.259,16.928,5.263,16.928z"/>
	<path fill="#E5E5E5" d="M4.599,16.268l-0.021,0.024c0.009,0,0.017,0,0.026,0c0-0.01,0.001-0.021,0.001-0.034
		C4.605,16.258,4.603,16.265,4.599,16.268z"/>
	<path fill="#E5E5E5" d="M5.242,16.258c0,0.01,0,0.021,0,0.03c0.011,0,0.02,0,0.031,0L5.242,16.258z"/>
	<path fill="#E5E5E5" d="M4.578,16.261c0,0.01,0,0.021,0,0.031c0,0,0.012-0.016,0.021-0.024c0.003-0.003,0.006-0.01,0.006-0.01
		C4.596,16.258,4.587,16.261,4.578,16.261z"/>
	<path fill="#E5E5E5" d="M3.914,15.628c0.009,0,0.019,0,0.027,0c0-0.01,0-0.021,0.001-0.03L3.914,15.628z"/>
	<path fill="#E5E5E5" d="M3.995,15.625c-0.018,0.003-0.035,0.003-0.053,0.003c-0.003,0.069-0.007,0.137-0.001,0.204
		c0.029,0.338,0.091,0.398,0.43,0.429c0.068,0.007,0.138,0.004,0.208,0c0-0.015,0-0.033,0-0.049
		C4.611,15.604,4.595,15.585,3.995,15.625z"/>
	<path fill="#E5E5E5" d="M5.242,14.934c0,0.009,0,0.015,0,0.024c0.011,0.003,0.021,0.003,0.034,0.003L5.242,14.934z"/>
	<path fill="#E5E5E5" d="M5.244,15.604c0,0.006,0,0.012,0,0.021l0.032-0.021C5.265,15.604,5.254,15.604,5.244,15.604z"/>
	<path fill="#E5E5E5" d="M4.878,14.955c-0.106,0.039-0.224,0.161-0.251,0.268c-0.044,0.177,0.074,0.313,0.25,0.354
		c0.119,0.03,0.244,0.021,0.367,0.027c0-0.217,0-0.43-0.002-0.646C5.117,14.948,4.983,14.915,4.878,14.955z"/>
	<path fill="#E5E5E5" d="M3.916,15.598c0,0.009,0,0.021-0.001,0.03l0.029-0.03C3.934,15.598,3.923,15.598,3.916,15.598z"/>
	<path fill="#E5E5E5" d="M3.252,14.967c0.009-0.003,0.017-0.003,0.026-0.003c0.001-0.009,0.001-0.021,0.001-0.03L3.252,14.967z"/>
	<path fill="#E5E5E5" d="M3.331,14.961c-0.019,0-0.035,0.003-0.053,0.003c-0.003,0.07-0.009,0.137-0.003,0.207
		c0.031,0.335,0.095,0.399,0.431,0.43c0.07,0.006,0.14,0,0.21-0.003c0-0.016-0.001-0.031,0-0.049
		C3.951,14.937,3.933,14.918,3.331,14.961z"/>
	<path fill="#E5E5E5" d="M3.252,14.934c0,0.012,0,0.021,0,0.033l0.027-0.033C3.27,14.934,3.261,14.934,3.252,14.934z"/>
	<path fill="#E5E5E5" d="M3.258,14.485c-0.104,0.144-0.204,0.293-0.303,0.442c0.027,0.003,0.055,0.009,0.086,0.009
		c0.07,0.006,0.14,0,0.21-0.003c0-0.016,0-0.03,0.001-0.049C3.266,14.705,3.271,14.577,3.258,14.485z"/>
	<path fill="#E5E5E5" d="M5.244,14.275c0,0.006,0,0.016-0.002,0.021l0.032-0.024C5.263,14.272,5.252,14.272,5.244,14.275z"/>
	<path fill="#E5E5E5" d="M5.247,13.627c0-0.003,0-0.009,0-0.016c-0.212,0.007-0.423,0.016-0.637,0.021
		c-0.003,0.07-0.012,0.144-0.007,0.214c0.027,0.331,0.093,0.396,0.436,0.426c0.067,0.006,0.135,0.003,0.206,0.003
		c0.006-0.216,0.014-0.433,0.02-0.648C5.259,13.627,5.252,13.627,5.247,13.627z"/>
	<path fill="#E5E5E5" d="M4.58,13.633c0.011,0,0.021,0,0.03,0c0-0.009,0.001-0.015,0.001-0.024L4.58,13.633z"/>
	<path fill="#E5E5E5" d="M3.677,14.264c0.161-0.019,0.274-0.174,0.265-0.351c-0.004-0.076-0.024-0.137-0.058-0.186
		c-0.146,0.161-0.29,0.326-0.428,0.502C3.518,14.261,3.594,14.272,3.677,14.264z"/>
	<path fill="#E5E5E5" d="M4.072,13.529c0.064,0.043,0.157,0.064,0.305,0.076c0.067,0.006,0.136,0.006,0.203,0.003
		c0.006-0.194,0.012-0.39,0.018-0.584C4.419,13.183,4.245,13.353,4.072,13.529z"/>
	<path fill="#E5E5E5" d="M4.58,13.608c0,0.01,0,0.016,0,0.024l0.032-0.024C4.601,13.608,4.59,13.608,4.58,13.608z"/>
	<path fill="#E5E5E5" d="M4.334,14.921c0.157-0.024,0.277-0.188,0.265-0.359c-0.014-0.17-0.158-0.295-0.411-0.276
		c-0.056,0.072-0.19,0.176-0.221,0.308C3.922,14.778,4.144,14.951,4.334,14.921z"/>
	<path fill="#E5E5E5" d="M1.95,5.012c0.229-0.007,0.458-0.015,0.687-0.023l0,0c0.044-0.018,0.087-0.04,0.128-0.064
		C2.708,4.729,2.653,4.534,2.597,4.338C2.469,4.256,2.341,4.236,2.213,4.254C2.111,4.444,2.019,4.64,1.935,4.84
		C1.932,4.89,1.932,4.939,1.93,4.988c0.006,0,0.014,0,0.02,0C1.95,4.996,1.95,5.004,1.95,5.012z"/>
	<path fill="#E5E5E5" d="M2.594,4.327c0.001,0.004,0.003,0.008,0.003,0.011c0.004,0.003,0.009,0.005,0.015,0.008L2.594,4.327z"/>
	<path fill="#E5E5E5" d="M1.926,5.677c0.009-0.004,0.018-0.006,0.027-0.009c0-0.007,0-0.013,0-0.019L1.926,5.677z"/>
	<path fill="#E5E5E5" d="M2.614,6.314C2.609,6.315,2.603,6.315,2.597,6.315C2.596,6.321,2.592,6.328,2.589,6.334L2.614,6.314z"/>
	<path fill="#E5E5E5" d="M1.948,6.334c0.216-0.006,0.433-0.013,0.649-0.019c0.093-0.208,0.102-0.42,0.027-0.634
		C2.622,5.672,2.618,5.661,2.614,5.65c-0.009-0.003-0.02-0.006-0.029-0.01C2.37,5.557,2.162,5.598,1.953,5.668
		C1.945,5.884,1.939,6.101,1.932,6.317c0.004,0,0.011,0,0.017,0C1.948,6.322,1.948,6.328,1.948,6.334z"/>
	<path fill="#E5E5E5" d="M2.589,3.684C2.599,3.68,2.606,3.676,2.615,3.673c0-0.004,0-0.008,0-0.012L2.589,3.684z"/>
	<path fill="#E5E5E5" d="M3.368,4.312C3.33,4.098,3.293,3.884,3.255,3.669c-0.213-0.142-0.426-0.088-0.64,0.003
		C2.614,3.891,2.614,4.109,2.612,4.327C2.854,4.321,3.097,4.315,3.34,4.31L3.368,4.312z"/>
	<path fill="#E5E5E5" d="M2.612,4.327c-0.006,0-0.012,0-0.018,0l0.018,0.019C2.612,4.339,2.612,4.333,2.612,4.327z"/>
	<path fill="#E5E5E5" d="M3.255,3.668c0,0.001,0,0.001,0,0.001c0.006,0.005,0.014,0.008,0.02,0.013L3.255,3.668z"/>
	<path fill="#E5E5E5" d="M2.591,3.661c0,0.007,0,0.015-0.001,0.023l0.026-0.023C2.608,3.661,2.599,3.661,2.591,3.661z"/>
	<path fill="#E5E5E5" d="M2.576,3.661c0.004,0,0.011,0,0.015,0c0-0.007,0-0.016,0-0.023C2.586,3.646,2.58,3.653,2.576,3.661z"/>
	<path fill="#E5E5E5" d="M7.233,2.336c0.002,0.005,0.003,0.01,0.005,0.015C7.244,2.354,7.25,2.355,7.257,2.357L7.233,2.336z"/>
	<path fill="#E5E5E5" d="M6.591,2.999c-0.008,0-0.015,0-0.022,0l0.022,0.023C6.591,3.014,6.591,3.006,6.591,2.999z"/>
	<path fill="#E5E5E5" d="M7.238,2.997c0.058-0.215,0.087-0.43,0-0.646C7.023,2.267,6.808,2.295,6.593,2.354
		c-0.002,0.214-0.002,0.43-0.002,0.646C6.806,2.998,7.021,2.998,7.238,2.997z"/>
	<path fill="#E5E5E5" d="M6.593,2.354c0-0.007,0-0.012,0-0.019L6.568,2.359C6.576,2.357,6.585,2.355,6.593,2.354z"/>
	<path fill="#E5E5E5" d="M7.23,3.023l0.027-0.027c-0.006,0-0.014,0-0.02,0C7.235,3.006,7.232,3.014,7.23,3.023L7.23,3.023z"/>
	<path fill="#E5E5E5" d="M13.314,20.458c-0.007-0.073-0.07-0.144-0.11-0.214c-0.148-0.112-0.316-0.131-0.493-0.066
		c-0.055,0.024-0.109,0.049-0.164,0.072c-0.016,0.08-0.04,0.155-0.049,0.235c-0.019,0.137-0.049,0.262-0.216,0.279
		c-0.217,0.024-0.253-0.128-0.28-0.292c-0.016-0.076-0.067-0.143-0.104-0.213l0,0l-0.019-0.021c-0.07-0.033-0.137-0.092-0.207-0.098
		c-0.21-0.015-0.335-0.091-0.341-0.322c0-0.073-0.055-0.144-0.086-0.214l0,0c0,0-0.018-0.018-0.03-0.03l-0.009-0.009
		c-0.213-0.161-0.424-0.07-0.634,0c0,0.012,0,0.024,0,0.033c-0.009,0-0.015,0-0.021,0c-0.003,0.217-0.003,0.43-0.006,0.643
		c0.009,0,0.019,0,0.027,0c0,0.006,0,0.016-0.003,0.024c0.174,0.024,0.348,0.052,0.548,0.082c0.031,0.201,0.056,0.372,0.079,0.542
		c0.013,0.007,0.024,0.01,0.037,0.013c0,0.012,0,0.021,0,0.03c0.171,0.03,0.338,0.061,0.509,0.092
		c0.055,0.203,0.104,0.377,0.148,0.548c0.174,0.046,0.351,0.091,0.543,0.143c0.006,0.116,0.012,0.22,0.018,0.339
		c-0.149,0.042-0.277,0.079-0.401,0.115c-0.031,0.021-0.062,0.043-0.092,0.058c-0.149,0.189-0.14,0.394-0.095,0.604h0.847l0,0
		c-0.006-0.027-0.015-0.055-0.015-0.079c0-0.338,0.045-0.424,0.222-0.414c0.231,0.009,0.22,0.188,0.241,0.347
		c0.009,0.049,0.024,0.098,0.039,0.146h0.713c0.021-0.034,0.036-0.07,0.049-0.104v-0.362c-0.016-0.034-0.033-0.07-0.058-0.107
		l-0.043-0.039c-0.149-0.058-0.299-0.119-0.472-0.186c0-0.098,0-0.201,0-0.323c0.167-0.042,0.322-0.085,0.478-0.128
		c0.03-0.012,0.062-0.027,0.095-0.042v-0.305c-0.03-0.106-0.062-0.214-0.092-0.32c-0.066-0.036-0.131-0.091-0.201-0.098
		C13.439,20.796,13.329,20.686,13.314,20.458z M12.876,21.423c-0.141-0.006-0.18-0.104-0.177-0.216
		c0.006-0.159,0.101-0.253,0.262-0.211c0.079,0.021,0.144,0.11,0.183,0.141C13.132,21.374,13.031,21.429,12.876,21.423z"/>
	<path fill="#E5E5E5" d="M13.868,20.914c0.007,0.007,0.013,0.01,0.019,0.013l-0.021-0.021
		C13.868,20.908,13.868,20.911,13.868,20.914z"/>
	<path fill="#E5E5E5" d="M11.898,21.587c-0.003-0.003-0.003-0.009-0.007-0.015c-0.003-0.003-0.009-0.003-0.015-0.003L11.898,21.587z
		"/>
	<path fill="#E5E5E5" d="M13.204,20.244c0.007,0.006,0.013,0.01,0.019,0.013l-0.019-0.016
		C13.204,20.244,13.204,20.244,13.204,20.244z"/>
	<polygon fill="#E5E5E5" points="13.293,19.563 13.293,19.563 13.293,19.563 13.293,19.571 13.293,19.563 	"/>
	<path fill="#E5E5E5" d="M12.559,19.58c0.247-0.006,0.49-0.012,0.734-0.018c-0.021-0.207-0.043-0.414-0.067-0.618
		c0-0.01,0-0.019-0.003-0.031c-0.012-0.003-0.024-0.009-0.036-0.012c-0.177-0.067-0.354-0.109-0.536-0.006l-0.061,0.018
		C12.58,19.136,12.568,19.358,12.559,19.58z"/>
	<path fill="#E5E5E5" d="M12.559,19.599c0-0.006,0-0.012,0-0.019c-0.006,0-0.012,0-0.018,0L12.559,19.599z"/>
	<path fill="#E5E5E5" d="M10.573,18.941c0.213-0.004,0.43-0.01,0.646-0.016c0.04-0.013,0.079-0.027,0.119-0.043
		c-0.019-0.106-0.033-0.21-0.052-0.313h-0.725c-0.003,0.116-0.01,0.231-0.013,0.344c0.006,0,0.016,0,0.024,0
		C10.573,18.923,10.573,18.932,10.573,18.941z"/>
	<path fill="#E5E5E5" d="M6.599,12.305c-0.009,0-0.019,0-0.027,0c0-0.009,0-0.015,0-0.021c-0.212,0-0.423,0-0.635,0
		c-0.009,0-0.018,0-0.027,0c0,0.006,0,0.012,0,0.018c0.006,0.216,0.012,0.429,0.017,0.643c0.217,0,0.434,0,0.65-0.003
		C6.646,12.731,6.666,12.519,6.599,12.305z"/>
	<path fill="#E5E5E5" d="M6.576,12.942c-0.004,0.012-0.005,0.021-0.01,0.03l0.029-0.03C6.59,12.942,6.583,12.942,6.576,12.942z"/>
	<path fill="#E5E5E5" d="M5.926,12.945c-0.006,0-0.014,0-0.02,0l0.021,0.027C5.927,12.963,5.926,12.954,5.926,12.945z"/>
	<path fill="#E5E5E5" d="M6.808,12.923c-0.072,0.003-0.142,0.024-0.212,0.043c-0.002,0.213-0.002,0.429-0.002,0.642
		c0.215,0.01,0.428,0.016,0.643,0.021c0.006,0,0.014,0,0.021,0.003c0.001-0.012,0.004-0.024,0.006-0.036
		c0.011-0.07,0.025-0.141,0.024-0.207C7.276,12.991,7.194,12.911,6.808,12.923z"/>
	<path fill="#E5E5E5" d="M6.566,12.972c0.01-0.003,0.02-0.003,0.029-0.006c0-0.009,0-0.016,0-0.024L6.566,12.972z"/>
	<path fill="#E5E5E5" d="M6.594,13.608c-0.009,0-0.02,0-0.028,0l0.028,0.024C6.594,13.627,6.594,13.618,6.594,13.608z"/>
	<path fill="#E5E5E5" d="M6.599,12.305c0.212-0.003,0.425-0.003,0.638-0.003c0-0.006,0.002-0.012,0-0.018c0.006,0,0.013,0,0.017,0
		c0-0.213,0.002-0.427,0.002-0.643c0-0.006,0-0.012,0-0.021c-0.008,0-0.016,0-0.021,0c-0.213,0-0.428,0-0.643,0
		c-0.006,0-0.012,0-0.019,0c0,0.006,0,0.012,0,0.018c0,0.216-0.001,0.43-0.001,0.646c0,0.006,0,0.012,0,0.021
		C6.58,12.305,6.59,12.305,6.599,12.305z"/>
	<path fill="#E5E5E5" d="M7.917,12.284c-0.006,0-0.012,0-0.02,0c-0.215,0-0.43,0-0.645,0c-0.004,0-0.011,0-0.017,0
		c0.002,0.006,0,0.012,0,0.018c0.002,0.073-0.001,0.149,0.006,0.222c0.04,0.347,0.086,0.393,0.438,0.436
		c0.071,0.009,0.144,0.006,0.215,0.006c0.008,0.003,0.017,0,0.024,0.003c0-0.009,0-0.019,0-0.027c0-0.21,0-0.423-0.002-0.637
		C7.917,12.299,7.917,12.29,7.917,12.284z"/>
	<path fill="#E5E5E5" d="M9.913,18.91c-0.01,0-0.021,0.003-0.031,0.003c0,0.01,0,0.019,0,0.028L9.913,18.91z"/>
	<path fill="#E5E5E5" d="M9.242,18.935c0.214-0.006,0.427-0.015,0.64-0.021c0-0.115,0-0.228,0-0.344H9.236
		c-0.003,0.116-0.009,0.231-0.012,0.348c0.006,0,0.012,0,0.018,0C9.242,18.923,9.242,18.929,9.242,18.935z"/>
	<path fill="#E5E5E5" d="M5.932,14.272c-0.009,0-0.018,0-0.027,0c0,0,0.014,0.013,0.021,0.019c0.004,0.003,0.006,0.006,0.006,0.006
		C5.932,14.288,5.932,14.281,5.932,14.272z"/>
	<path fill="#E5E5E5" d="M6.565,13.608c0.003,0.007,0.004,0.013,0.007,0.019c0.007,0.003,0.014,0.003,0.021,0.006L6.565,13.608z"/>
	<path fill="#E5E5E5" d="M5.906,13.633c0.008-0.003,0.017-0.006,0.024-0.006c0-0.006,0-0.012,0-0.019L5.906,13.633z"/>
	<path fill="#E5E5E5" d="M6.593,14.294c0.003-0.013,0.006-0.021,0.007-0.033c0.042-0.214,0.063-0.427-0.027-0.634
		c-0.214-0.088-0.427-0.067-0.642,0c0,0.216,0.001,0.43,0.001,0.646c0.213,0.006,0.427,0.016,0.64,0.021
		C6.579,14.294,6.586,14.294,6.593,14.294z"/>
	<path fill="#E5E5E5" d="M11.213,12.945c-0.213,0-0.427,0-0.64,0c-0.006,0-0.015,0-0.021,0c0,0.009,0,0.015,0,0.021
		c-0.003,0.213-0.003,0.426-0.003,0.639c0,0.01,0,0.019,0,0.027c0.006,0,0.016,0,0.021,0c0.21,0,0.42-0.003,0.631-0.003
		c0.012-0.006,0.024-0.015,0.033-0.024l0,0c0-0.213,0-0.426,0-0.639c0-0.006,0-0.012,0-0.021
		C11.229,12.945,11.219,12.945,11.213,12.945z"/>
	<path fill="#E5E5E5" d="M7.225,15.588c-0.182-0.063-0.364-0.112-0.544,0.016l-0.005-0.003c-0.175,0.191-0.117,0.423-0.117,0.646
		c0.011,0.006,0.021,0.009,0.032,0.019c0.006,0.006,0.009,0.015,0.014,0.023c0.244-0.009,0.489-0.015,0.732-0.023
		c-0.025-0.214-0.052-0.424-0.077-0.637c-0.002-0.01-0.003-0.019-0.003-0.027C7.246,15.594,7.235,15.591,7.225,15.588z"/>
	<polygon fill="#E5E5E5" points="7.339,16.265 7.337,16.265 7.337,16.265 	"/>
	<path fill="#E5E5E5" d="M5.907,14.964c0.009-0.003,0.017-0.006,0.024-0.009c0-0.01,0-0.016,0-0.021L5.907,14.964z"/>
	<path fill="#E5E5E5" d="M6.593,14.937c-0.01-0.006-0.017-0.006-0.024-0.013c-0.217-0.1-0.428-0.066-0.637,0.031
		c0,0.213,0,0.429-0.001,0.643c0.248,0.003,0.497,0.003,0.745,0.003h0.001l0.005,0.003c-0.028-0.213-0.057-0.424-0.084-0.637
		C6.596,14.958,6.594,14.945,6.593,14.937z"/>
	<path fill="#E5E5E5" d="M5.93,15.598c-0.008,0-0.015,0-0.024,0l0.024,0.024C5.93,15.612,5.93,15.606,5.93,15.598z"/>
	<path fill="#E5E5E5" d="M7.398,16.23c-0.021,0.01-0.04,0.021-0.06,0.034c-0.023,0.023-0.041,0.048-0.057,0.075
		C7.32,16.304,7.358,16.268,7.398,16.23z"/>
	<polygon fill="#E5E5E5" points="7.339,16.265 7.339,16.265 7.337,16.265 	"/>
	<path fill="#E5E5E5" d="M13.847,19.56c-0.183-0.095-0.368-0.122-0.554,0.012v-0.009l0,0c-0.168,0.213-0.144,0.444-0.076,0.679
		c0.226,0.003,0.454,0.003,0.679,0.003c0.024-0.006,0.043-0.015,0.064-0.024v-0.14c-0.024-0.158-0.046-0.32-0.07-0.479
		c-0.003-0.009-0.003-0.015-0.003-0.021C13.871,19.571,13.859,19.565,13.847,19.56z"/>
	<path fill="#E5E5E5" d="M13.223,20.257c-0.003-0.003-0.003-0.01-0.006-0.016c-0.003,0-0.009,0-0.013,0L13.223,20.257z"/>
	<path fill="#E5E5E5" d="M13.887,20.927c0-0.006,0-0.016,0-0.021c-0.006,0-0.016,0-0.021,0L13.887,20.927z"/>
	<path fill="#E5E5E5" d="M13.887,20.905c0.024,0,0.049,0,0.073,0V20.22c-0.021,0.01-0.04,0.019-0.064,0.024
		C13.893,20.464,13.89,20.686,13.887,20.905z"/>
	<path fill="#E5E5E5" d="M13.07,22.83c-0.112-0.04-0.234-0.037-0.359,0l0,0H13.07z"/>
	<path fill="#E5E5E5" d="M11.408,22.83h0.359C11.648,22.778,11.529,22.766,11.408,22.83z"/>
	<path fill="#E5E5E5" d="M9.225,1.03C9.23,1.077,9.233,1.123,9.236,1.168c0.04,0.461,0.052,0.475,0.512,0.51
		C9.794,1.682,9.843,1.686,9.889,1.69c0.006,0,0.012,0,0.018,0.001c0-0.005,0-0.01,0-0.016c0.01-0.074,0.019-0.148,0.019-0.222
		c-0.006-0.267-0.03-0.378-0.168-0.425C9.742,1.024,9.727,1.02,9.712,1.016c-0.064-0.015-0.144-0.021-0.25-0.023
		C9.392,0.991,9.318,1,9.249,1.007c-0.01,0-0.019,0.001-0.024,0.002C9.225,1.017,9.225,1.023,9.225,1.03z"/>
	<path fill="#E5E5E5" d="M2.591,6.969c-0.214-0.084-0.428-0.03-0.643,0.008c0,0.007,0,0.014,0,0.021
		c-0.004,0-0.01-0.001-0.017-0.001c0,0.123,0,0.246,0,0.369h0.732c0.009-0.12,0.003-0.239-0.041-0.359
		c-0.003-0.01-0.005-0.02-0.009-0.029C2.606,6.974,2.599,6.972,2.591,6.969z"/>
	<path fill="#E5E5E5" d="M1.926,5.677l0.027-0.028c-0.009,0-0.019,0-0.027,0.001C1.926,5.659,1.926,5.668,1.926,5.677z"/>
	<path fill="#E5E5E5" d="M1.95,4.988c-0.006,0-0.014,0-0.02,0c-0.018,0-0.037,0-0.053,0C1.79,5.207,1.717,5.43,1.655,5.658
		C1.746,5.655,1.836,5.653,1.926,5.65C1.935,5.438,1.942,5.225,1.95,5.012C1.95,5.004,1.95,4.996,1.95,4.988z"/>
	<path fill="#E5E5E5" d="M1.948,6.977c0-0.214,0-0.429,0-0.643c0-0.006,0-0.012,0-0.018c-0.006,0-0.012,0-0.017,0
		c-0.14,0.005-0.28,0.01-0.42,0.014c-0.03,0.195-0.052,0.392-0.065,0.592c0.058,0.026,0.139,0.041,0.257,0.058
		c0.076,0.011,0.152,0.011,0.229,0.015c0.006,0,0.012,0.001,0.017,0.001C1.948,6.991,1.948,6.984,1.948,6.977z"/>
	<path fill="#E5E5E5" d="M5.266,12.942c0-0.159,0-0.317,0-0.475c-0.202,0.158-0.403,0.323-0.603,0.5c0.193,0,0.389,0,0.582,0
		c0-0.006,0-0.012,0-0.021C5.252,12.945,5.26,12.942,5.266,12.942z"/>
	<path fill="#E5E5E5" d="M5.914,13.608c-0.003,0.01-0.005,0.016-0.008,0.024l0.024-0.024C5.924,13.608,5.919,13.608,5.914,13.608z"
		/>
	<path fill="#E5E5E5" d="M5.263,13.627c0.218-0.006,0.434-0.012,0.65-0.019c0.073-0.213,0.106-0.426,0.001-0.642
		c-0.212-0.119-0.431-0.064-0.649-0.024c-0.006,0-0.014,0.003-0.021,0.003c0,0.009,0,0.015,0,0.021c0,0.216,0.001,0.432,0.001,0.645
		c0,0.007,0,0.013,0,0.016C5.252,13.627,5.259,13.627,5.263,13.627z"/>
	<path fill="#E5E5E5" d="M5.906,12.945c0.003,0.009,0.006,0.015,0.009,0.021c0.004,0.003,0.007,0.003,0.012,0.006L5.906,12.945z"/>
	<path fill="#E5E5E5" d="M11.234,22.251c0-0.006,0-0.009,0-0.015c-0.009,0-0.016,0-0.024,0L11.234,22.251z"/>
	<path fill="#E5E5E5" d="M11.88,21.578c0.006,0.003,0.012,0.006,0.019,0.009l-0.021-0.018C11.877,21.572,11.88,21.575,11.88,21.578z
		"/>
	<path fill="#E5E5E5" d="M11.234,21.557c0,0.013,0,0.021,0,0.034c-0.006-0.004-0.013-0.004-0.019-0.004
		c0.006,0.217,0.013,0.433,0.019,0.649c0.24-0.003,0.481-0.007,0.725-0.01c0.03-0.015,0.061-0.036,0.092-0.058
		c-0.059-0.198-0.113-0.393-0.171-0.591C11.67,21.432,11.453,21.505,11.234,21.557z"/>
	<path fill="#E5E5E5" d="M13.859,22.218l0.043,0.039c0.018,0,0.039,0,0.058,0v-0.718c-0.033,0.015-0.064,0.03-0.095,0.042
		C13.862,21.794,13.862,22.005,13.859,22.218z"/>
	<path fill="#E5E5E5" d="M9.906,19.58c0,0.007,0,0.01,0,0.016c0.214,0,0.43,0.003,0.646,0.003c0.007,0,0.013,0,0.021,0
		c0-0.009,0-0.021,0-0.033c0-0.207,0-0.414,0-0.624c0-0.01,0-0.019,0-0.028c-0.009,0-0.019,0-0.024,0
		c-0.213,0.01-0.426,0.019-0.64,0.028c-0.006,0.213-0.012,0.426-0.018,0.639C9.895,19.58,9.9,19.58,9.906,19.58z"/>
	<path fill="#E5E5E5" d="M9.909,18.941c0-0.01,0.004-0.019,0.004-0.031l-0.031,0.031C9.892,18.941,9.9,18.941,9.909,18.941z"/>
	<path fill="#E5E5E5" d="M10.57,22.227c0,0.007,0,0.016,0,0.024c-0.006,0-0.012,0-0.019,0c0,0.192,0,0.387-0.003,0.579h0.771
		c-0.033-0.195-0.07-0.394-0.106-0.591C11.003,22.111,10.786,22.172,10.57,22.227z"/>
	<path fill="#E5E5E5" d="M11.213,22.239c0.006,0.006,0.013,0.009,0.021,0.012l-0.024-0.015C11.21,22.236,11.21,22.239,11.213,22.239
		z"/>
	<path fill="#E5E5E5" d="M4.605,17.616c0-0.012,0.001-0.021,0.001-0.03l-0.03,0.03C4.585,17.616,4.595,17.616,4.605,17.616z"/>
	<path fill="#E5E5E5" d="M5.242,17.586c0,0.009,0,0.019,0,0.027c0.008,0,0.016,0,0.024,0L5.242,17.586z"/>
	<path fill="#E5E5E5" d="M4.601,18.253c0,0.006,0,0.015,0,0.021c0.214,0,0.431-0.003,0.646-0.003c0-0.007,0-0.013,0-0.019
		c0.006,0,0.012,0,0.017,0c-0.008-0.213-0.014-0.427-0.021-0.64c-0.211,0.003-0.425,0.003-0.636,0.003
		c-0.008,0.213-0.017,0.424-0.024,0.637C4.587,18.253,4.595,18.253,4.601,18.253z"/>
	<path fill="#E5E5E5" d="M5.909,16.943c0.006,0.003,0.014,0.003,0.021,0.003l-0.023-0.021C5.907,16.931,5.909,16.938,5.909,16.943z"
		/>
	<path fill="#E5E5E5" d="M5.248,16.928c0,0.007,0,0.01,0.001,0.016c0.004,0.213,0.011,0.43,0.015,0.643
		c0.216,0.009,0.431,0.015,0.646,0.021c0-0.007,0-0.013-0.001-0.019c0.006,0,0.012,0,0.019,0c-0.006-0.213-0.012-0.43-0.019-0.646
		c-0.214-0.003-0.431-0.009-0.646-0.016C5.259,16.928,5.252,16.928,5.248,16.928z"/>
	<path fill="#E5E5E5" d="M5.265,17.586c-0.007,0-0.015,0-0.023,0l0.024,0.027C5.266,17.604,5.265,17.595,5.265,17.586z"/>
	<path fill="#E5E5E5" d="M4.607,17.586c-0.008,0-0.017,0-0.024,0c-0.001,0.009-0.004,0.019-0.006,0.03L4.607,17.586z"/>
	<path fill="#E5E5E5" d="M3.938,17.589c0,0.009-0.001,0.016-0.001,0.021c0.216-0.01,0.431-0.016,0.646-0.024
		c0.015-0.07,0.035-0.141,0.037-0.21c0.011-0.394-0.073-0.479-0.466-0.466c-0.072,0-0.142,0.021-0.212,0.036
		c-0.007,0.213-0.015,0.43-0.024,0.646C3.923,17.592,3.931,17.589,3.938,17.589z"/>
	<path fill="#E5E5E5" d="M3.941,16.946c0.001-0.009,0.001-0.016,0.001-0.024l-0.03,0.03C3.923,16.949,3.933,16.949,3.941,16.946z"/>
	<path fill="#E5E5E5" d="M3.274,16.928c0,0.007,0,0.013,0,0.019c0.215-0.006,0.43-0.016,0.646-0.024
		c0.014-0.07,0.035-0.14,0.036-0.21c0.012-0.393-0.076-0.481-0.466-0.469c-0.07,0.003-0.14,0.024-0.211,0.039
		c-0.008,0.217-0.017,0.43-0.024,0.646C3.261,16.928,3.269,16.928,3.274,16.928z"/>
	<path fill="#E5E5E5" d="M3.943,16.922c-0.007,0-0.015,0-0.022,0c-0.003,0.009-0.005,0.021-0.008,0.03L3.943,16.922z"/>
	<path fill="#E5E5E5" d="M3.279,16.282c0-0.006,0-0.015,0.001-0.024l-0.03,0.03C3.261,16.288,3.27,16.285,3.279,16.282z"/>
	<path fill="#E5E5E5" d="M3.281,16.258c-0.009,0-0.017,0-0.024,0c-0.001,0.013-0.004,0.021-0.006,0.03L3.281,16.258z"/>
	<path fill="#E5E5E5" d="M2.609,16.282c0.216-0.009,0.432-0.015,0.647-0.024c0.014-0.066,0.03-0.137,0.032-0.207
		c0.007-0.396-0.069-0.472-0.461-0.463c-0.072,0.003-0.142,0.021-0.212,0.034c-0.007,0.216-0.015,0.429-0.023,0.643
		c0.006,0,0.012,0,0.019,0C2.611,16.271,2.611,16.276,2.609,16.282z"/>
	<path fill="#E5E5E5" d="M2.588,15.628c0.009,0,0.019-0.003,0.027-0.006c0.001-0.01,0.001-0.019,0.001-0.028L2.588,15.628z"/>
	<path fill="#E5E5E5" d="M2.563,15.601c0.011,0,0.02-0.003,0.029-0.003c0.005-0.027,0.009-0.056,0.014-0.079
		C2.592,15.546,2.579,15.573,2.563,15.601z"/>
	<path fill="#E5E5E5" d="M2.592,15.598c-0.001,0.009-0.003,0.021-0.004,0.03l0.029-0.034C2.609,15.594,2.6,15.598,2.592,15.598z"/>
	<path fill="#E5E5E5" d="M6.559,16.246c-0.21-0.119-0.42-0.076-0.63,0.009c-0.006,0.003-0.014,0.003-0.02,0.006
		c0,0.01,0,0.019,0,0.027c0.008,0.214,0.014,0.424,0.021,0.637c0.218,0,0.437,0,0.655,0c0.111-0.21,0.14-0.423,0.02-0.637
		c-0.005-0.009-0.008-0.018-0.014-0.023C6.58,16.255,6.569,16.252,6.559,16.246z"/>
	<path fill="#E5E5E5" d="M6.593,16.925c-0.002,0-0.005,0-0.008,0c-0.003,0.006-0.006,0.016-0.011,0.024L6.593,16.925z"/>
	<path fill="#E5E5E5" d="M5.93,16.946c0-0.009,0-0.016,0-0.021c-0.008,0-0.015,0-0.023,0L5.93,16.946z"/>
	<path fill="#E5E5E5" d="M9.885,20.271c0.01,0,0.016,0,0.024-0.003c0-0.009,0-0.019,0.004-0.03L9.885,20.271z"/>
	<path fill="#E5E5E5" d="M10.546,20.905c0,0.009,0,0.019,0,0.027l0.03-0.03C10.567,20.902,10.555,20.902,10.546,20.905z"/>
	<path fill="#E5E5E5" d="M10.573,20.241c-0.009,0-0.019,0-0.027,0c-0.21,0.009-0.423,0.019-0.637,0.027
		c-0.006,0.07-0.015,0.141-0.009,0.21c0.024,0.338,0.095,0.408,0.436,0.436c0.07,0.003,0.14-0.006,0.21-0.009
		c0.009-0.213,0.019-0.427,0.024-0.64C10.573,20.257,10.573,20.247,10.573,20.241z"/>
	<path fill="#E5E5E5" d="M9.219,19.607c0.009,0,0.018,0,0.027-0.003c0-0.009,0-0.018,0-0.03L9.219,19.607z"/>
	<path fill="#E5E5E5" d="M9.906,19.58c-0.006,0-0.012,0-0.015,0c-0.217,0.01-0.43,0.019-0.646,0.024c0,0.07,0,0.138,0.006,0.204
		c0.033,0.335,0.091,0.394,0.426,0.427c0.07,0.006,0.138,0.003,0.207,0.003c0.007-0.213,0.016-0.43,0.021-0.643
		C9.906,19.59,9.906,19.587,9.906,19.58z"/>
	<path fill="#E5E5E5" d="M9.885,20.271l0.028-0.033c-0.01,0-0.019,0-0.028,0C9.885,20.25,9.885,20.26,9.885,20.271z"/>
	<path fill="#E5E5E5" d="M11.234,21.591c0-0.013,0-0.021,0-0.034c0-0.207,0-0.417,0-0.624c0-0.009,0-0.019,0-0.03
		c-0.013-0.003-0.024-0.006-0.037-0.013c-0.21-0.076-0.417-0.03-0.621,0.034c0,0.213-0.003,0.426-0.003,0.643
		c0.213,0.006,0.427,0.015,0.643,0.021C11.222,21.587,11.229,21.587,11.234,21.591z"/>
	<path fill="#E5E5E5" d="M10.546,20.933c0.009-0.003,0.019-0.006,0.03-0.009c0-0.01,0-0.016,0-0.021L10.546,20.933z"/>
	<path fill="#E5E5E5" d="M10.573,21.566c-0.009,0-0.019-0.004-0.027-0.004l0.027,0.031C10.573,21.584,10.573,21.575,10.573,21.566z"
		/>
	<path fill="#E5E5E5" d="M8.569,18.91c-0.005,0.01-0.008,0.019-0.013,0.027l0.026-0.027C8.578,18.91,8.573,18.91,8.569,18.91z"/>
	<path fill="#E5E5E5" d="M7.875,18.569c-0.004,0.112,0.021,0.231,0.022,0.344c0.008,0,0.016,0,0.021,0c0,0.01,0,0.016,0,0.024
		c0.216-0.009,0.433-0.018,0.65-0.027c0.055-0.112,0.09-0.225,0.093-0.341H7.875z"/>
	<path fill="#E5E5E5" d="M9.219,19.577c0,0.01,0,0.019,0,0.03l0.027-0.033C9.236,19.574,9.228,19.577,9.219,19.577z"/>
	<path fill="#E5E5E5" d="M9.242,18.917c-0.006,0-0.012,0-0.018,0c-0.215,0.006-0.429,0.015-0.644,0.021
		c-0.005,0.07-0.016,0.144-0.008,0.214c0.03,0.338,0.098,0.404,0.437,0.433c0.07,0.006,0.14-0.004,0.209-0.007
		c0.009-0.213,0.015-0.429,0.023-0.643C9.242,18.929,9.242,18.923,9.242,18.917z"/>
	<path fill="#E5E5E5" d="M8.557,18.938c0.008,0,0.017,0,0.024,0c0-0.009,0.002-0.018,0.002-0.027L8.557,18.938z"/>
	<path fill="#E5E5E5" d="M6.591,16.94c0-0.006,0.002-0.01,0.002-0.016l-0.019,0.024C6.58,16.946,6.585,16.943,6.591,16.94z"/>
	<path fill="#E5E5E5" d="M6.794,16.879c-0.069,0.013-0.136,0.031-0.203,0.062c-0.001,0.076-0.005,0.152-0.008,0.229
		C6.65,17.068,6.721,16.971,6.794,16.879z"/>
	<path fill="#E5E5E5" d="M7.236,22.248c0.006,0.003,0.014,0.003,0.021,0.006L7.23,22.233C7.233,22.236,7.235,22.242,7.236,22.248z"
		/>
	<path fill="#E5E5E5" d="M6.591,22.229c0,0.007,0,0.016,0,0.021c-0.006,0-0.012,0-0.019,0c-0.001,0.192-0.003,0.387-0.004,0.579
		h0.689c0.055-0.195,0.074-0.39-0.021-0.582C7.025,22.139,6.808,22.19,6.591,22.229z"/>
	<path fill="#E5E5E5" d="M7.895,22.224c0,0.01,0,0.021,0,0.03l0.024-0.03C7.911,22.224,7.903,22.224,7.895,22.224z"/>
	<path fill="#E5E5E5" d="M7.898,21.587c0-0.006,0-0.012,0-0.018c-0.214,0-0.429,0-0.642,0c-0.002,0.006-0.002,0.012-0.004,0.018
		c-0.004-0.003-0.011-0.003-0.017-0.003c0.006,0.217,0.013,0.433,0.021,0.649c0.213-0.004,0.426-0.007,0.638-0.01
		c0.006-0.213,0.012-0.423,0.02-0.637C7.908,21.587,7.903,21.587,7.898,21.587z"/>
	<path fill="#E5E5E5" d="M7.257,22.254c0-0.006,0-0.015,0-0.021c-0.01,0-0.018,0-0.026,0L7.257,22.254z"/>
	<path fill="#E5E5E5" d="M7.895,22.254c0.008,0,0.017,0,0.025,0c0-0.009-0.001-0.021-0.001-0.03L7.895,22.254z"/>
	<path fill="#E5E5E5" d="M8.563,22.236c-0.213,0.006-0.428,0.012-0.643,0.018c0,0.043,0,0.089,0.002,0.131
		c0.011,0.266,0.025,0.387,0.126,0.445H8.56c0.006-0.192,0.013-0.387,0.017-0.579c-0.004,0-0.009,0-0.014,0
		C8.563,22.245,8.563,22.239,8.563,22.236z"/>
	<path fill="#E5E5E5" d="M10.546,21.563c0,0.01,0,0.019,0,0.028c0.009,0,0.019,0.003,0.027,0.003L10.546,21.563z"/>
	<path fill="#E5E5E5" d="M10.57,22.251c0-0.009,0-0.018,0-0.024c-0.009-0.213-0.016-0.423-0.024-0.636
		c-0.213-0.007-0.426-0.013-0.64-0.019c0,0.006,0,0.009,0,0.015c-0.003,0-0.009,0-0.015-0.003c0.006,0.217,0.012,0.43,0.018,0.643
		c0.214,0.01,0.43,0.016,0.643,0.024C10.559,22.251,10.564,22.251,10.57,22.251z"/>
	<path fill="#E5E5E5" d="M9.909,22.227c-0.009,0-0.021,0-0.03,0l0.03,0.03C9.909,22.245,9.909,22.236,9.909,22.227z"/>
	<path fill="#E5E5E5" d="M9.228,22.248c0.006,0.195,0.012,0.39,0.019,0.582h0.636c0-0.192-0.003-0.384-0.003-0.576
		c-0.21-0.006-0.423-0.012-0.633-0.021c0,0.006-0.004,0.012-0.004,0.015C9.236,22.248,9.233,22.248,9.228,22.248z"/>
	<path fill="#E5E5E5" d="M9.879,22.227c0,0.01,0,0.019,0,0.027c0.013,0,0.021,0,0.03,0.003L9.879,22.227z"/>
	<path fill="#E5E5E5" d="M4.607,18.935c0-0.009,0-0.015,0-0.024l-0.029,0.031C4.587,18.938,4.596,18.938,4.607,18.935z"/>
	<path fill="#E5E5E5" d="M4.605,19.602c0-0.009,0-0.018,0-0.027c-0.009,0-0.018,0-0.027,0L4.605,19.602z"/>
	<path fill="#E5E5E5" d="M5.248,18.935c0.006,0.003,0.012,0.003,0.017,0.007L5.24,18.913C5.244,18.92,5.245,18.929,5.248,18.935z"/>
	<path fill="#E5E5E5" d="M4.607,18.935c0,0.214-0.001,0.427-0.001,0.64c0.213,0,0.428,0,0.643,0c0.052-0.213,0.078-0.426,0-0.64
		C5.035,18.853,4.82,18.88,4.607,18.935z"/>
	<path fill="#E5E5E5" d="M5.27,19.574c-0.008,0-0.014,0-0.021,0c-0.003,0.01-0.004,0.019-0.006,0.027L5.27,19.574z"/>
	<path fill="#E5E5E5" d="M5.904,18.277c0.007,0,0.017,0,0.024,0L5.904,18.25C5.904,18.259,5.904,18.268,5.904,18.277z"/>
	<path fill="#E5E5E5" d="M5.933,18.91c-0.011,0-0.021,0-0.032,0c0,0.01,0,0.021,0,0.031L5.933,18.91z"/>
	<path fill="#E5E5E5" d="M5.265,18.941c0-0.01,0-0.019,0-0.028c-0.009,0-0.017,0-0.024,0L5.265,18.941z"/>
	<path fill="#E5E5E5" d="M5.247,18.253c0,0.006,0,0.012,0,0.019c0.006,0.213,0.012,0.429,0.018,0.642
		c0.212,0,0.423-0.003,0.637-0.003c0.001-0.21,0.001-0.423,0.003-0.633c-0.215-0.01-0.428-0.016-0.641-0.024
		C5.259,18.253,5.252,18.253,5.247,18.253z"/>
	<path fill="#E5E5E5" d="M3.941,18.277c0.001-0.01,0.001-0.019,0.001-0.03l-0.03,0.033C3.923,18.277,3.933,18.277,3.941,18.277z"/>
	<path fill="#E5E5E5" d="M4.607,18.91c-0.009,0-0.02,0-0.029,0.003c0,0.01,0,0.019,0,0.028L4.607,18.91z"/>
	<path fill="#E5E5E5" d="M3.938,18.917c0,0.006,0,0.015,0,0.021c0.213-0.009,0.426-0.018,0.64-0.024
		c0.007-0.213,0.015-0.426,0.023-0.639c0-0.007,0-0.016,0-0.021c-0.006,0-0.014,0-0.02,0c-0.213,0.009-0.426,0.019-0.64,0.024
		c-0.007,0.213-0.017,0.426-0.026,0.64C3.923,18.917,3.931,18.917,3.938,18.917z"/>
	<path fill="#E5E5E5" d="M5.929,18.277c0-0.01,0-0.019,0-0.027c-0.009,0-0.017,0-0.024,0L5.929,18.277z"/>
	<path fill="#E5E5E5" d="M5.91,17.607c0.006,0.216,0.012,0.429,0.019,0.643c0.038,0,0.078,0.003,0.117,0.003
		c0.082-0.237,0.177-0.457,0.285-0.664c-0.134,0-0.27,0-0.404,0c-0.006,0-0.012,0-0.019,0C5.91,17.595,5.91,17.601,5.91,17.607z"/>
	<path fill="#E5E5E5" d="M3.943,18.247c-0.009,0.003-0.02,0.003-0.029,0.003c0,0.009-0.001,0.018-0.001,0.03L3.943,18.247z"/>
	<path fill="#E5E5E5" d="M3.25,17.616c0.009,0,0.02,0,0.029-0.003c0-0.009,0-0.019,0.001-0.027l-0.008,0.006
		C3.264,17.601,3.25,17.616,3.25,17.616z"/>
	<path fill="#E5E5E5" d="M3.276,18.253c0.004,0.009,0.007,0.019,0.01,0.027c0.21-0.009,0.419-0.021,0.627-0.03
		c0.008-0.214,0.015-0.427,0.023-0.64c0-0.006,0.001-0.013,0.001-0.021c-0.008,0-0.015,0.003-0.021,0.003
		c-0.213,0.006-0.426,0.016-0.638,0.021c-0.011,0.21-0.02,0.42-0.031,0.627C3.258,18.243,3.267,18.247,3.276,18.253z"/>
	<polygon fill="#E5E5E5" points="3.25,17.616 3.25,17.616 3.25,17.616 	"/>
	<path fill="#E5E5E5" d="M2.588,16.952c0.009,0,0.019,0,0.027,0c0.001-0.009,0.001-0.021,0.001-0.03L2.588,16.952z"/>
	<path fill="#E5E5E5" d="M2.611,17.61c0.213-0.006,0.426-0.016,0.641-0.024c0.007-0.213,0.015-0.427,0.022-0.64
		c0-0.006,0-0.012,0-0.019c-0.006,0-0.014,0-0.02,0c-0.213,0.01-0.426,0.016-0.64,0.024c-0.007,0.214-0.015,0.427-0.024,0.637
		c0.008,0,0.014,0,0.021,0C2.611,17.598,2.611,17.604,2.611,17.61z"/>
	<path fill="#E5E5E5" d="M3.25,17.616c0,0,0.014-0.016,0.022-0.024l0.008-0.006c-0.011,0-0.02,0-0.029,0
		C3.25,17.595,3.25,17.607,3.25,17.616L3.25,17.616z"/>
	<path fill="#E5E5E5" d="M2.589,16.925c0,0.01-0.001,0.019-0.001,0.027l0.029-0.03C2.608,16.922,2.599,16.922,2.589,16.925z"/>
	<path fill="#E5E5E5" d="M2.611,16.265c-0.006,0-0.012,0-0.019,0c-0.117,0.006-0.233,0.009-0.35,0.015
		c-0.073,0.174-0.143,0.354-0.207,0.539c0.061,0.07,0.163,0.098,0.343,0.112c0.07,0.007,0.14-0.003,0.211-0.006
		c0.008-0.216,0.014-0.429,0.02-0.643C2.611,16.276,2.611,16.271,2.611,16.265z"/>
	<path fill="#E5E5E5" d="M9.906,21.572c0.003-0.076,0.01-0.152,0.007-0.229c-0.013-0.39-0.073-0.438-0.5-0.43
		c-0.055,0.003-0.109,0.01-0.164,0.013c0.003,0.052,0.003,0.104,0.003,0.155c0.024,0.405,0.058,0.444,0.426,0.487
		c0.07,0.009,0.144,0.012,0.214,0.015c0.006,0.003,0.012,0.003,0.015,0.003C9.906,21.581,9.906,21.578,9.906,21.572z"/>
	<path fill="#E5E5E5" d="M9.222,20.899c0.009-0.079,0.027-0.158,0.027-0.238c-0.007-0.338-0.086-0.42-0.417-0.423
		c-0.079,0-0.158,0.021-0.235,0.033C8.6,20.881,8.6,20.881,9.222,20.899z"/>
	<path fill="#E5E5E5" d="M7.902,19.593c0.061,0.624,0.063,0.624,0.646,0.63C8.6,19.599,8.589,19.59,7.979,19.59
		c-0.021,0-0.043-0.003-0.065-0.006c0,0.003,0,0.006,0,0.009C7.909,19.593,7.905,19.593,7.902,19.593z"/>
	<path fill="#E5E5E5" d="M7.897,18.913c-0.215,0-0.43,0.004-0.645,0.004c0,0.006,0,0.012,0,0.015c-0.004,0-0.011,0-0.015,0
		c0.001,0.073,0,0.149,0.008,0.223c0.041,0.347,0.088,0.396,0.432,0.433c0.073,0.009,0.148,0.006,0.225,0.006
		c0.003,0,0.007,0,0.012,0c0-0.003,0-0.006,0-0.009c0.002-0.217,0.003-0.433,0.005-0.646c0-0.009,0-0.015,0-0.024
		C7.913,18.913,7.905,18.913,7.897,18.913z"/>
	<path fill="#E5E5E5" d="M7.253,18.917c0-0.116,0.002-0.231,0.002-0.348H6.594c0.04,0.271,0.106,0.316,0.424,0.354
		c0.073,0.009,0.146,0.009,0.221,0.009c0.004,0,0.011,0,0.015,0C7.253,18.929,7.253,18.923,7.253,18.917z"/>
	<path fill="#E5E5E5" d="M3.938,19.577c0,0.007,0,0.013,0,0.021c-0.006-0.003-0.012-0.003-0.018-0.003
		c0.006,0.213,0.014,0.427,0.021,0.64c0.212,0,0.423,0,0.637,0c0-0.213,0-0.424,0-0.634C4.365,19.593,4.152,19.587,3.938,19.577z"/>
	<path fill="#E5E5E5" d="M3.943,20.266c-0.001-0.009-0.001-0.021-0.001-0.03c-0.009,0-0.02,0-0.029,0L3.943,20.266z"/>
	<path fill="#E5E5E5" d="M4.578,19.602c0.009,0,0.018,0,0.027,0l-0.027-0.027C4.578,19.584,4.578,19.593,4.578,19.602z"/>
	<path fill="#E5E5E5" d="M4.578,20.235c0,0.009,0,0.019,0,0.03l0.024-0.03C4.595,20.235,4.585,20.235,4.578,20.235z"/>
	<path fill="#E5E5E5" d="M5.26,22.468c0.017,0.2,0.049,0.304,0.143,0.362h0.521c0.102-0.539-0.14-0.713-0.656-0.576
		C5.263,22.324,5.254,22.395,5.26,22.468z"/>
	<path fill="#E5E5E5" d="M5.268,22.254c0-0.009,0.002-0.018,0.002-0.027L5.24,22.261C5.25,22.257,5.259,22.254,5.268,22.254z"/>
	<path fill="#E5E5E5" d="M5.904,21.594c0.011,0,0.02,0,0.03,0c0-0.01,0.001-0.019,0.001-0.027L5.904,21.594z"/>
	<path fill="#E5E5E5" d="M6.591,22.229c-0.009-0.213-0.019-0.423-0.025-0.636c-0.211,0-0.42,0-0.631,0
		c-0.006,0.069-0.015,0.14-0.011,0.21c0.026,0.335,0.083,0.393,0.431,0.436c0.072,0.009,0.146,0.009,0.218,0.012
		c0.007,0,0.013,0,0.019,0C6.591,22.245,6.591,22.236,6.591,22.229z"/>
	<path fill="#E5E5E5" d="M6.565,21.594c0.009,0,0.02,0,0.03,0l-0.032-0.024C6.563,21.575,6.563,21.584,6.565,21.594z"/>
	<path fill="#E5E5E5" d="M5.03,22.236c0.07,0.006,0.142-0.003,0.213-0.007c0-0.018,0.001-0.033,0.001-0.052
		c0.047-0.608,0.015-0.643-0.586-0.587c-0.018,0-0.037,0.003-0.055,0.003c-0.005,0.069-0.014,0.14-0.008,0.21
		C4.622,22.142,4.691,22.212,5.03,22.236z"/>
	<path fill="#E5E5E5" d="M4.604,21.594c0.001-0.01,0.001-0.019,0.003-0.031l-0.029,0.034C4.587,21.597,4.595,21.597,4.604,21.594z"
		/>
	<path fill="#E5E5E5" d="M5.27,22.227c-0.009,0-0.019,0.003-0.026,0.003c-0.002,0.01-0.003,0.021-0.003,0.031L5.27,22.227z"/>
	<path fill="#E5E5E5" d="M5.272,20.924c-0.006,0.072-0.017,0.146-0.012,0.219c0.026,0.338,0.094,0.402,0.437,0.43
		c0.07,0.006,0.142,0,0.211-0.003C6.032,21,5.871,20.799,5.272,20.924z"/>
	<path fill="#E5E5E5" d="M5.242,20.93c0.011-0.003,0.02-0.006,0.031-0.006c0-0.007,0.001-0.016,0.001-0.021L5.242,20.93z"/>
	<path fill="#E5E5E5" d="M5.909,21.569c-0.001,0.006-0.003,0.015-0.004,0.024l0.032-0.027C5.929,21.566,5.918,21.566,5.909,21.569z"
		/>
	<path fill="#E5E5E5" d="M4.607,21.563c-0.009,0.004-0.018,0.004-0.027,0.004c-0.001,0.009-0.001,0.021-0.001,0.03L4.607,21.563z"/>
	<path fill="#E5E5E5" d="M3.914,20.933c0.009,0,0.019,0,0.027,0c0-0.009,0-0.021,0.001-0.03c0,0-0.003,0.003-0.007,0.006
		L3.914,20.933z"/>
	<path fill="#E5E5E5" d="M3.938,21.14c0.029,0.335,0.093,0.399,0.431,0.43c0.068,0.006,0.14,0,0.21-0.003
		c0-0.016,0-0.034,0.001-0.049c0.037-0.612,0.017-0.631-0.588-0.588c-0.017,0-0.035,0.003-0.052,0.003
		C3.938,21.003,3.933,21.069,3.938,21.14z"/>
	<path fill="#E5E5E5" d="M4.601,20.266c-0.003,0.07-0.009,0.14-0.003,0.207c0.029,0.344,0.095,0.408,0.436,0.436
		c0.069,0.006,0.139,0,0.208-0.003c0-0.213,0-0.427-0.001-0.64C5.029,20.266,4.814,20.266,4.601,20.266z"/>
	<path fill="#E5E5E5" d="M4.578,20.266c0.007,0,0.015,0,0.023,0c0.001-0.012,0.001-0.021,0.001-0.03L4.578,20.266z"/>
	<path fill="#E5E5E5" d="M5.24,20.266c0.011,0,0.02,0,0.027,0L5.24,20.238C5.24,20.247,5.24,20.257,5.24,20.266z"/>
	<path fill="#E5E5E5" d="M5.242,20.905c0,0.009,0,0.016,0,0.024l0.032-0.027C5.263,20.902,5.252,20.905,5.242,20.905z"/>
	<path fill="#E5E5E5" d="M3.913,20.266c0.009,0,0.02,0,0.03,0l-0.03-0.03C3.913,20.244,3.913,20.257,3.913,20.266z"/>
	<path fill="#E5E5E5" d="M3.936,20.908c0.004-0.003,0.007-0.006,0.007-0.006c-0.01,0-0.02,0-0.029,0c0,0.012,0,0.021,0,0.03
		C3.914,20.933,3.928,20.921,3.936,20.908z"/>
	<path fill="#E5E5E5" d="M3.274,20.26c-0.004,0-0.009,0-0.014,0c0.003,0.073,0.003,0.146,0.012,0.219
		c0.043,0.345,0.098,0.396,0.434,0.427c0.068,0.006,0.139,0,0.207-0.003c0-0.213-0.001-0.424-0.001-0.637
		c-0.213-0.006-0.426-0.012-0.638-0.021C3.274,20.25,3.274,20.257,3.274,20.26z"/>
	<path fill="#E5E5E5" d="M6.804,20.89c-0.069,0.003-0.138,0.021-0.208,0.037c0,0.213,0,0.429,0,0.643
		c0.213,0.006,0.428,0.012,0.641,0.015c0.006,0,0.013,0,0.017,0.003c0.002-0.006,0.002-0.012,0.004-0.018
		c0.007-0.073,0.02-0.149,0.018-0.223C7.267,20.951,7.194,20.878,6.804,20.89z"/>
	<path fill="#E5E5E5" d="M6.566,20.933c0.01,0,0.02-0.003,0.029-0.006c0.001-0.01,0.001-0.019,0.001-0.024L6.566,20.933z"/>
	<path fill="#E5E5E5" d="M6.596,21.594c0-0.01,0-0.016,0-0.024c-0.011,0-0.021,0-0.032,0L6.596,21.594z"/>
	<path fill="#E5E5E5" d="M7.9,20.924c0,0.213-0.002,0.432-0.002,0.646c0,0.006,0,0.012,0,0.018c0.005,0,0.01,0,0.016,0
		c0.216,0,0.433,0,0.65-0.003c0-0.003,0-0.009,0-0.015c0.005,0,0.011,0,0.017,0c0.008-0.073,0.019-0.146,0.017-0.22
		c-0.008-0.398-0.061-0.453-0.46-0.46c-0.073-0.003-0.146,0.01-0.221,0.016c0,0.006-0.001,0.012-0.001,0.019
		C7.911,20.921,7.905,20.924,7.9,20.924z"/>
	<path fill="#E5E5E5" d="M5.901,20.238c0,0.009,0,0.019,0,0.027l0.032-0.027C5.922,20.238,5.912,20.238,5.901,20.238z"/>
	<path fill="#E5E5E5" d="M5.27,19.602c0-0.009,0-0.018,0-0.027l-0.028,0.027C5.251,19.602,5.26,19.602,5.27,19.602z"/>
	<path fill="#E5E5E5" d="M5.268,20.266c0-0.009,0-0.019,0-0.027c-0.007,0-0.017,0-0.027,0L5.268,20.266z"/>
	<path fill="#E5E5E5" d="M5.901,19.58c0,0.007,0,0.016,0,0.021c0.009,0,0.02,0,0.03,0L5.901,19.58z"/>
	<path fill="#E5E5E5" d="M5.901,20.238c0-0.213,0-0.423,0-0.637c-0.212,0-0.42,0-0.632,0c0,0.214,0,0.424-0.002,0.637
		C5.479,20.238,5.689,20.238,5.901,20.238z"/>
	<path fill="#E5E5E5" d="M5.933,18.935c0-0.009,0-0.015,0-0.024l-0.032,0.031C5.912,18.938,5.922,18.938,5.933,18.935z"/>
	<path fill="#E5E5E5" d="M5.932,19.58c-0.011,0-0.021,0-0.03,0l0.03,0.021C5.932,19.596,5.932,19.59,5.932,19.58z"/>
	<path fill="#E5E5E5" d="M6.574,19.596c0-0.006,0-0.009,0-0.016c0.006,0,0.011,0,0.017-0.003c0.008-0.073,0.019-0.146,0.017-0.219
		c-0.009-0.396-0.076-0.463-0.469-0.454c-0.068,0-0.137,0.019-0.206,0.03c-0.001,0.217-0.001,0.43-0.001,0.646
		C6.146,19.587,6.359,19.59,6.574,19.596z"/>
	<path fill="#E5E5E5" d="M7.238,20.26c0.001,0.073-0.002,0.149,0.006,0.222c0.038,0.348,0.087,0.396,0.434,0.436
		c0.073,0.007,0.148,0.004,0.223,0.007c0.005,0,0.011-0.003,0.016,0c0-0.007,0.001-0.013,0.001-0.019
		c0.008-0.073,0.019-0.146,0.017-0.22c-0.009-0.398-0.061-0.45-0.46-0.459c-0.072,0-0.146,0.009-0.219,0.015
		c0,0.006-0.002,0.013-0.002,0.019C7.249,20.26,7.242,20.26,7.238,20.26z"/>
	<path fill="#E5E5E5" d="M5.901,20.266c0.009,0,0.02-0.003,0.029-0.003c0.001-0.009,0.001-0.019,0.003-0.024L5.901,20.266z"/>
	<path fill="#E5E5E5" d="M6.14,20.232c-0.07,0-0.14,0.018-0.21,0.03c-0.004,0.07-0.015,0.143-0.009,0.216
		c0.026,0.338,0.095,0.408,0.436,0.433c0.07,0.006,0.144-0.003,0.216-0.009c0.013-0.07,0.027-0.141,0.029-0.21
		C6.607,20.296,6.536,20.227,6.14,20.232z"/>
	<path fill="#E5E5E5" d="M6.572,20.902c-0.001,0.012-0.004,0.021-0.006,0.03l0.03-0.03C6.588,20.902,6.58,20.902,6.572,20.902z"/>
	<path fill="#E5E5E5" d="M6.574,19.596c0.002,0.073,0,0.149,0.009,0.223c0.041,0.344,0.089,0.393,0.435,0.432
		c0.073,0.01,0.146,0.007,0.221,0.01c0.004,0,0.011,0,0.015,0c0-0.006,0.002-0.013,0.002-0.019c0.005-0.073,0.014-0.146,0.011-0.216
		c-0.009-0.405-0.052-0.448-0.455-0.457c-0.073-0.003-0.146,0.006-0.22,0.009C6.585,19.58,6.58,19.58,6.574,19.58
		C6.574,19.587,6.574,19.59,6.574,19.596z"/>
	<path fill="#E5E5E5" d="M8.564,21.584c-0.002,0.22-0.002,0.433-0.002,0.652c0,0.003,0,0.009,0,0.015c0.005,0,0.01,0,0.014,0
		c0.217-0.003,0.434-0.003,0.651-0.003c0.006,0,0.009,0,0.015,0c0-0.003,0.004-0.009,0.004-0.015
		c0.006-0.073,0.018-0.146,0.018-0.223c-0.009-0.399-0.063-0.454-0.462-0.46c-0.073-0.003-0.147,0.009-0.221,0.019
		c-0.006,0-0.012,0-0.017,0C8.564,21.575,8.564,21.581,8.564,21.584z"/>
	<path fill="#E5E5E5" d="M2.611,17.61c0-0.006,0-0.013,0.001-0.021c-0.008,0-0.014,0-0.021,0c-0.214,0.003-0.428,0.003-0.643,0.003
		c0,0.003,0,0.009,0,0.016c-0.006,0-0.01,0-0.015,0c0.008,0.213,0.014,0.426,0.021,0.643c0.213,0,0.426,0,0.638,0
		C2.599,18.036,2.604,17.823,2.611,17.61z"/>
	<path fill="#E5E5E5" d="M1.955,18.25c-0.011,0-0.02,0-0.029,0l0.03,0.03C1.956,18.268,1.955,18.259,1.955,18.25z"/>
	<path fill="#E5E5E5" d="M2.592,18.25c0,0.009,0,0.021,0,0.03l0.023-0.03C2.608,18.25,2.6,18.25,2.592,18.25z"/>
	<path fill="#E5E5E5" d="M1.948,18.917c-0.007-0.214-0.015-0.424-0.022-0.637c-0.093,0-0.186,0-0.28,0
		c-0.038,0.201-0.07,0.408-0.099,0.618c0.047,0.012,0.099,0.019,0.165,0.027c0.073,0.009,0.147,0.006,0.221,0.009
		c0-0.006,0-0.012,0-0.018C1.938,18.917,1.942,18.917,1.948,18.917z"/>
	<path fill="#E5E5E5" d="M1.926,18.25c0,0.009,0,0.018,0,0.03c0.01,0,0.02,0,0.03,0L1.926,18.25z"/>
	<path fill="#E5E5E5" d="M1.948,17.592c0.005-0.073,0.011-0.146,0.009-0.219c-0.003-0.11-0.009-0.189-0.023-0.253
		c-0.048,0.158-0.094,0.316-0.137,0.48c0.045,0.004,0.09,0.004,0.135,0.007c0.005,0,0.009,0,0.015,0
		C1.948,17.601,1.948,17.595,1.948,17.592z"/>
	<path fill="#E5E5E5" d="M3.279,19.602c0-0.009,0-0.018,0-0.027c-0.009,0-0.02,0-0.031,0L3.279,19.602z"/>
	<path fill="#E5E5E5" d="M3.25,18.935c0.009,0,0.018,0,0.027,0c0-0.009,0-0.015,0-0.021L3.25,18.935z"/>
	<path fill="#E5E5E5" d="M3.938,18.917c-0.008,0-0.015,0-0.023,0c-0.213,0.006-0.425,0.012-0.638,0.018
		c0.001,0.214,0.001,0.427,0.001,0.64c0.213,0.006,0.426,0.016,0.641,0.021c0.006,0,0.012,0,0.018,0.003c0-0.009,0-0.015,0-0.021
		c0-0.213,0-0.426,0-0.64C3.938,18.932,3.938,18.923,3.938,18.917z"/>
	<path fill="#E5E5E5" d="M3.287,18.28c-0.003-0.009-0.006-0.019-0.01-0.027c-0.009-0.006-0.019-0.01-0.028-0.013
		c-0.214-0.097-0.426-0.076-0.633,0.027c0,0.217-0.001,0.43-0.001,0.646c0.215,0,0.431,0,0.647,0
		C3.366,18.706,3.383,18.496,3.287,18.28z"/>
	<path fill="#E5E5E5" d="M3.261,18.913c-0.004,0.007-0.007,0.013-0.01,0.021l0.027-0.021C3.271,18.913,3.266,18.913,3.261,18.913z"
		/>
	<path fill="#E5E5E5" d="M2.592,18.28c0.008-0.003,0.016-0.006,0.023-0.013c0-0.006,0-0.012,0-0.018L2.592,18.28z"/>
	<path fill="#E5E5E5" d="M2.614,18.938L2.614,18.938L2.614,18.938c0-0.009,0-0.015,0-0.024c-0.007,0-0.015,0-0.023,0L2.614,18.938z"
		/>
	<path fill="#E5E5E5" d="M2.588,19.571c0,0.013,0,0.021,0,0.03l0.026-0.03C2.604,19.571,2.597,19.571,2.588,19.571z"/>
	<path fill="#E5E5E5" d="M1.948,18.917c-0.006,0-0.01,0-0.017,0c0,0.006,0,0.012,0,0.018c0,0.214,0,0.43,0,0.646
		c0.006,0,0.011,0,0.017,0c0,0.004,0,0.01,0,0.016c0.213-0.009,0.427-0.016,0.64-0.024c0.001-0.21,0.001-0.423,0.003-0.634
		C2.376,18.932,2.162,18.926,1.948,18.917z"/>
	<path fill="#E5E5E5" d="M2.591,18.913c0,0.01,0,0.016,0,0.024c0.008,0,0.016,0,0.023,0l0,0L2.591,18.913z"/>
	<path fill="#E5E5E5" d="M4.155,22.224c-0.072-0.003-0.143,0.003-0.215,0.006c-0.001,0.01-0.001,0.013-0.001,0.021
		c-0.006-0.003-0.012-0.003-0.017-0.003c0.003,0.073,0.003,0.146,0.012,0.22c0.026,0.21,0.053,0.308,0.147,0.362h0.524
		c0.001-0.052,0.004-0.101,0.003-0.152C4.596,22.272,4.561,22.236,4.155,22.224z"/>
	<path fill="#E5E5E5" d="M3.94,22.229c0.053-0.627-0.03-0.715-0.664-0.66c0,0.006-0.002,0.012-0.002,0.018
		c-0.004,0-0.01,0-0.017-0.003c0.003,0.073,0.003,0.149,0.012,0.22c0.041,0.347,0.087,0.393,0.433,0.433
		c0.073,0.009,0.146,0.009,0.219,0.012c0.004,0,0.011,0,0.017,0.003C3.938,22.242,3.938,22.239,3.94,22.229z"/>
	<path fill="#E5E5E5" d="M3.276,21.569c0.004-0.076,0.01-0.152,0.009-0.229c-0.011-0.365-0.079-0.438-0.425-0.444
		c-0.081,0-0.163,0.018-0.245,0.03c0.001,0.052,0,0.104,0.003,0.155c0.023,0.408,0.058,0.447,0.425,0.49
		c0.072,0.009,0.144,0.009,0.215,0.012c0.006,0.003,0.012,0.003,0.017,0.003C3.274,21.581,3.276,21.575,3.276,21.569z"/>
	<path fill="#E5E5E5" d="M2.597,20.734c0.015-0.436-0.046-0.496-0.469-0.475c-0.052,0-0.104,0.015-0.155,0.021
		c-0.004,0.594,0.001,0.6,0.609,0.608C2.586,20.838,2.594,20.786,2.597,20.734z"/>
	<path fill="#E5E5E5" d="M3.25,19.602c0.01,0,0.02,0,0.029,0l-0.031-0.027C3.25,19.584,3.25,19.593,3.25,19.602z"/>
	<path fill="#E5E5E5" d="M2.588,19.602c0.009,0,0.019,0,0.026,0c0-0.009,0-0.021,0-0.03L2.588,19.602z"/>
	<path fill="#E5E5E5" d="M3.274,20.244c-0.007-0.213-0.017-0.426-0.024-0.643c-0.212,0-0.423,0-0.637,0
		c0,0.043,0.001,0.086,0.003,0.128c0.02,0.454,0.04,0.473,0.5,0.512c0.049,0.003,0.098,0.013,0.145,0.019c0.005,0,0.009,0,0.014,0
		C3.274,20.257,3.274,20.25,3.274,20.244z"/>
	<path fill="#E5E5E5" d="M1.932,19.58c-0.154,0.01-0.308,0.016-0.461,0.024c-0.014,0.187-0.024,0.378-0.03,0.573
		c0.087,0.042,0.23,0.042,0.469,0.039c0.014-0.207,0.026-0.414,0.04-0.621c0-0.006,0-0.012,0-0.016
		C1.942,19.58,1.938,19.58,1.932,19.58z"/>
	<path fill="#E5E5E5" d="M2.165,21.557c-0.07,0-0.142,0.021-0.211,0.037c-0.008,0.213-0.017,0.426-0.024,0.64
		c0.006,0,0.014,0,0.02,0c0,0.006,0,0.015,0,0.021c0.213-0.009,0.428-0.018,0.641-0.027c0.015-0.069,0.034-0.14,0.037-0.21
		C2.637,21.624,2.556,21.545,2.165,21.557z"/>
	<path fill="#E5E5E5" d="M2.589,22.227c-0.001,0.01-0.003,0.019-0.004,0.027l0.032-0.027C2.608,22.227,2.599,22.227,2.589,22.227z"
		/>
	<path fill="#E5E5E5" d="M1.927,21.597c0.007,0,0.017-0.003,0.026-0.003c0-0.01,0.001-0.019,0.001-0.027L1.927,21.597z"/>
	<path fill="#E5E5E5" d="M2.585,22.254c0.011,0,0.02-0.003,0.03-0.006c0-0.006,0-0.015,0.001-0.021L2.585,22.254z"/>
	<path fill="#E5E5E5" d="M2.615,22.248c-0.004,0.073-0.014,0.146-0.007,0.217c0.017,0.203,0.048,0.307,0.143,0.365h0.515
		C3.36,22.227,3.113,22.142,2.615,22.248z"/>
	<path fill="#E5E5E5" d="M1.429,20.927v0.572c0.063,0.04,0.152,0.058,0.289,0.067c0.069,0.009,0.139,0.003,0.209,0
		c0-0.016,0-0.031,0-0.049C1.956,20.938,1.944,20.893,1.429,20.927z"/>
	<path fill="#E5E5E5" d="M1.927,21.566c0,0.009,0,0.021,0,0.03l0.027-0.03C1.945,21.566,1.936,21.566,1.927,21.566z"/>
	<path fill="#E5E5E5" d="M1.929,22.233c-0.167,0-0.333,0-0.5,0v0.597h0.519c0-0.192,0-0.384,0-0.576c0-0.006,0-0.015,0-0.021
		C1.942,22.233,1.935,22.233,1.929,22.233z"/>
</g>
</svg>
