<?xml version="1.0" encoding="utf-8"?>
<!-- Generator: Adobe Illustrator 16.0.0, SVG Export Plug-In . SVG Version: 6.00 Build 0)  -->
<!DOCTYPE svg PUBLIC "-//W3C//DTD SVG 1.1//EN" "http://www.w3.org/Graphics/SVG/1.1/DTD/svg11.dtd">
<svg version="1.1" id="圖層_2" xmlns="http://www.w3.org/2000/svg" xmlns:xlink="http://www.w3.org/1999/xlink" x="0px" y="0px"
	 width="16px" height="24px" viewBox="0 0 16 24" enable-background="new 0 0 16 24" xml:space="preserve">
<g>
	<path fill="#E5E5E5" d="M5.647,19.229c-0.001-0.007-0.002-0.012-0.004-0.018c-0.005,0-0.009,0-0.014,0L5.647,19.229z"/>
	<path fill="#E5E5E5" d="M14.391,16.225c0.015-0.049,0.062-0.089,0.113-0.143c-0.01-0.387-0.053-0.767-0.129-1.134
		c-0.009-0.008-0.017-0.017-0.027-0.024c0.007-0.006,0.012-0.013,0.019-0.018c-0.191-0.905-0.572-1.739-1.096-2.464
		c-0.021,0.009-0.039,0.016-0.059,0.02c-0.046,0.009-0.137-0.074-0.156-0.132c-0.019-0.057-0.017-0.115,0.007-0.159
		c-0.093-0.115-0.188-0.228-0.287-0.336c0.391-0.424,0.724-0.899,0.993-1.413c-0.048-0.05-0.075-0.126-0.039-0.17
		c0.034-0.044,0.106-0.08,0.165-0.085c0.253-0.537,0.434-1.114,0.53-1.718c-0.033-0.041-0.059-0.095-0.05-0.116
		c0.019-0.038,0.048-0.082,0.081-0.116c0.033-0.26,0.052-0.527,0.052-0.796c0-0.075-0.004-0.149-0.006-0.222
		c-0.059-0.021-0.126-0.074-0.136-0.119c-0.021-0.083-0.003-0.173,0.115-0.221c-0.054-0.627-0.196-1.228-0.415-1.792
		c-0.057,0.072-0.09,0.125-0.134,0.136c-0.108,0.028-0.214-0.018-0.206-0.15c0.004-0.061,0.074-0.167,0.11-0.166
		c0.057,0.001,0.114,0.031,0.186,0.068c-0.727-1.776-2.212-3.162-4.054-3.752C9.949,1.216,9.93,1.229,9.912,1.241
		c-0.018-0.025-0.043-0.05-0.065-0.074c-0.389-0.118-0.794-0.199-1.21-0.241c0.061,0.057,0.119,0.1,0.121,0.144
		c0.001,0.059-0.055,0.146-0.109,0.175c-0.094,0.05-0.222-0.064-0.19-0.167c0.016-0.053,0.068-0.095,0.125-0.156
		c-0.2-0.019-0.401-0.029-0.605-0.029c-0.651,0-1.282,0.097-1.878,0.277c-0.02,0.035-0.049,0.065-0.077,0.08
		C5.983,1.271,5.937,1.26,5.899,1.235C4.113,1.836,2.669,3.19,1.95,4.919c0.025-0.014,0.053-0.021,0.082-0.015
		C2.09,4.919,2.168,4.986,2.177,5.039C2.186,5.094,2.121,5.16,2.076,5.244c-0.084-0.056-0.165-0.083-0.2-0.139c0,0,0,0,0-0.001
		C1.66,5.673,1.521,6.281,1.472,6.914C1.495,6.93,1.514,6.948,1.525,6.969c0.031,0.059-0.009,0.137-0.068,0.174
		C1.454,7.235,1.45,7.328,1.45,7.421h4.23c0-0.34,0.076-0.663,0.209-0.954C5.867,6.449,5.845,6.43,5.833,6.409
		C5.783,6.313,5.9,6.183,6.007,6.215C6.012,6.216,6.016,6.22,6.021,6.222c0.127-0.206,0.285-0.391,0.468-0.548
		C6.511,5.618,6.565,5.571,6.621,5.57C7.002,5.29,7.47,5.122,7.978,5.122c0.192,0,0.378,0.027,0.556,0.071
		c-0.032-0.03-0.072-0.119-0.068-0.169c0.01-0.125,0.121-0.164,0.221-0.128c0.052,0.018,0.077,0.114,0.145,0.224
		C8.725,5.155,8.646,5.2,8.57,5.202c0.266,0.071,0.511,0.187,0.728,0.339C9.309,5.543,9.32,5.546,9.329,5.55
		C9.35,5.557,9.365,5.577,9.382,5.604c0.221,0.17,0.409,0.381,0.556,0.62C9.949,6.222,9.961,6.219,9.97,6.221
		c0.055,0.005,0.1,0.092,0.173,0.167c-0.031,0.021-0.057,0.042-0.083,0.063c0.139,0.295,0.219,0.623,0.219,0.97
		c0,1.22-0.957,2.219-2.161,2.292C8.101,9.765,8.06,9.805,7.986,9.81c-0.002,0.001-0.004,0-0.008,0v1.018
		c0.057,0.023,0.121,0.082,0.129,0.13c0.009,0.056-0.056,0.125-0.1,0.212c-0.01-0.007-0.019-0.012-0.029-0.018v0.984
		c0.125-0.002,0.17,0.101,0.143,0.207c-0.011,0.042-0.067,0.076-0.143,0.131v0.903c0.084,0.119,0.145,0.194,0.168,0.279
		c0.007,0.024-0.094,0.111-0.168,0.137v0.155c1.268,0,2.3,1.031,2.3,2.299c0,0.642-0.266,1.223-0.69,1.64
		c0.004,0.001,0.008,0.003,0.012,0.004c0.005,0.011,0.009,0.022,0.013,0.031c0.161,0.035,0.323,0.073,0.506,0.114
		c0.034,0.169,0.065,0.331,0.099,0.492c0.014,0.008,0.026,0.014,0.04,0.023c0.001,0.008,0.003,0.018,0.004,0.025
		c0.164,0.033,0.327,0.066,0.505,0.103c0.043,0.177,0.085,0.349,0.126,0.521l0.033,0.032c0.171,0.037,0.344,0.075,0.573,0.124
		c-0.013,0.177-0.025,0.356-0.038,0.536c0.005,0.013,0.009,0.025,0.014,0.04c0.005,0,0.01,0.004,0.016,0.004
		c0.194,0,0.391,0,0.594,0c0.019,0.128,0.052,0.21,0.033,0.278c-0.017,0.066-0.082,0.166-0.129,0.168
		c-0.092,0.002-0.229-0.026-0.269-0.093c-0.074-0.119-0.033-0.313-0.229-0.354c-0.012,0-0.022,0-0.033,0
		c0.001-0.015,0.003-0.029,0.004-0.044c-0.079-0.195-0.246-0.118-0.395-0.09c-0.05,0.023-0.101,0.048-0.15,0.071
		c-0.042,0.153-0.083,0.305-0.121,0.447c-0.216,0.097-0.378,0.113-0.443-0.154c-0.023-0.096-0.068-0.188-0.105-0.282
		c-0.167-0.026-0.331-0.054-0.497-0.08c-0.022,0.021-0.044,0.042-0.066,0.063c-0.063,0.237-0.127,0.476-0.19,0.714
		c0.003,0.007,0.005,0.013,0.008,0.02c0.002,0.003,0.005,0.006,0.01,0.009c0.202,0,0.403,0,0.596,0
		c0.06,0.196,0.103,0.363-0.125,0.42c-0.155,0.036-0.244-0.036-0.296-0.196c-0.026-0.084-0.113-0.15-0.175-0.224
		c-0.01,0-0.018,0-0.024,0c0.002-0.009,0.005-0.019,0.007-0.028c-0.045-0.139-0.162-0.146-0.282-0.129
		c-0.091,0.011-0.179,0.041-0.267,0.064c0,0.01,0,0.019,0,0.028c-0.007,0-0.014,0-0.021,0c0.006,0.213,0.012,0.428,0.019,0.641
		c0.146,0.026,0.292,0.052,0.434,0.076c0.103,0.364,0.103,0.364-0.282,0.516c-0.031,0.024-0.063,0.044-0.098,0.06
		C8.925,22,8.856,22.159,8.788,22.318c-0.155,0.064-0.311,0.13-0.466,0.194c0.001,0.01,0.002,0.021,0.003,0.03
		c-0.012,0.002-0.023,0.002-0.036,0.003c-0.027,0.064-0.061,0.128-0.074,0.195c-0.002,0.01-0.005,0.019-0.008,0.028
		c0.302-0.01,0.598-0.041,0.889-0.09c0.034-0.063,0.1-0.09,0.186-0.091c0.052-0.002,0.092,0.006,0.125,0.027
		c0.856-0.19,1.651-0.552,2.346-1.045c-0.01-0.015-0.02-0.029-0.024-0.046c-0.033-0.104,0.008-0.21,0.139-0.247
		c0.082-0.024,0.161-0.003,0.212,0.045c0.128-0.103,0.251-0.212,0.37-0.323c-0.04-0.077-0.064-0.131-0.064-0.185
		c-0.001-0.052,0.118-0.156,0.139-0.147c0.052,0.026,0.113,0.062,0.156,0.104c0.146-0.152,0.285-0.311,0.416-0.475
		c-0.016-0.022-0.027-0.051-0.03-0.084c-0.003-0.062,0.057-0.178,0.092-0.18c0.037-0.002,0.076,0.008,0.119,0.024
		c0.746-1.035,1.197-2.298,1.229-3.661C14.432,16.377,14.368,16.297,14.391,16.225z M5.177,1.755
		c0.017-0.059,0.084-0.134,0.139-0.144c0.054-0.009,0.121,0.055,0.207,0.1c-0.058,0.084-0.086,0.166-0.141,0.2
		C5.297,1.963,5.151,1.853,5.177,1.755z M5.311,5.571C5.365,5.563,5.43,5.625,5.515,5.667C5.458,5.75,5.429,5.827,5.374,5.859
		c-0.085,0.049-0.225-0.056-0.2-0.15C5.19,5.651,5.258,5.58,5.311,5.571z M5.33,4.234c0.051,0.005,0.127,0.078,0.135,0.13
		c0.008,0.053-0.05,0.118-0.091,0.202c-0.08-0.055-0.17-0.084-0.186-0.137C5.156,4.327,5.194,4.218,5.33,4.234z M4.518,2.356
		c0.043-0.051,0.137-0.095,0.198-0.084c0.052,0.01,0.09,0.101,0.153,0.181C4.784,2.503,4.728,2.56,4.666,2.568
		C4.567,2.582,4.459,2.424,4.518,2.356z M4.864,3.675C4.808,3.76,4.782,3.838,4.728,3.873c-0.081,0.049-0.224-0.06-0.199-0.154
		C4.543,3.662,4.61,3.59,4.664,3.581C4.717,3.572,4.782,3.634,4.864,3.675z M3.861,3.025C3.891,2.97,3.968,2.939,4.048,2.881
		C4.095,2.959,4.163,3.02,4.157,3.07C4.15,3.125,4.082,3.196,4.025,3.214C3.929,3.246,3.814,3.112,3.861,3.025z M4.14,4.408
		C4.126,4.461,4.039,4.494,3.984,4.535C3.941,4.479,3.866,4.421,3.869,4.367c0.002-0.049,0.088-0.095,0.169-0.172
		C4.087,4.291,4.153,4.36,4.14,4.408z M3.321,3.526c0.077,0.082,0.162,0.132,0.163,0.182c0,0.057-0.074,0.115-0.117,0.172
		c-0.057-0.044-0.146-0.079-0.16-0.133C3.196,3.698,3.265,3.627,3.321,3.526z M2.547,4.388C2.563,4.331,2.628,4.259,2.681,4.25
		c0.052-0.009,0.116,0.053,0.196,0.095C2.822,4.428,2.797,4.506,2.744,4.54C2.664,4.589,2.523,4.48,2.547,4.388z M2.015,6.521
		c-0.062-0.019-0.109-0.084-0.187-0.15C1.901,6.301,1.95,6.219,2.004,6.215c0.059-0.003,0.148,0.053,0.177,0.108
		C2.229,6.419,2.117,6.552,2.015,6.521z M2.537,5.689C2.554,5.631,2.619,5.585,2.683,5.51C2.75,5.582,2.828,5.631,2.83,5.682
		C2.832,5.74,2.778,5.826,2.724,5.854C2.633,5.902,2.506,5.79,2.537,5.689z M2.745,7.178C2.657,7.23,2.512,7.12,2.538,7.021
		c0.016-0.059,0.085-0.135,0.14-0.143c0.056-0.01,0.123,0.055,0.21,0.1C2.829,7.064,2.801,7.145,2.745,7.178z M3.201,4.998
		C3.234,4.946,3.32,4.9,3.378,4.906c0.049,0.005,0.091,0.087,0.156,0.155C3.456,5.119,3.407,5.179,3.35,5.192
		C3.256,5.214,3.148,5.074,3.201,4.998z M3.376,6.517C3.318,6.518,3.231,6.464,3.203,6.41c-0.05-0.093,0.063-0.219,0.166-0.188
		c0.06,0.018,0.106,0.083,0.183,0.147C3.478,6.435,3.428,6.514,3.376,6.517z M3.944,7.18C3.892,7.139,3.846,7.042,3.857,6.981
		c0.009-0.053,0.103-0.092,0.182-0.157C4.092,6.91,4.152,6.967,4.161,7.031C4.176,7.132,4.019,7.239,3.944,7.18z M4.007,5.86
		c-0.097,0.013-0.2-0.138-0.142-0.207c0.041-0.05,0.133-0.093,0.193-0.083c0.05,0.008,0.086,0.099,0.146,0.177
		C4.123,5.796,4.067,5.853,4.007,5.86z M4.714,6.559c-0.085-0.057-0.166-0.085-0.201-0.14C4.459,6.332,4.567,6.188,4.668,6.213
		C4.727,6.229,4.804,6.296,4.813,6.35C4.822,6.406,4.758,6.474,4.714,6.559z M4.686,5.195C4.627,5.19,4.535,5.122,4.53,5.073
		C4.524,5.023,4.597,4.931,4.65,4.917c0.047-0.012,0.117,0.057,0.327,0.176C4.826,5.149,4.753,5.202,4.686,5.195z M5.168,3.056
		c0.019-0.062,0.084-0.109,0.15-0.189c0.069,0.077,0.15,0.128,0.154,0.182c0.002,0.06-0.053,0.15-0.108,0.179
		C5.267,3.278,5.137,3.162,5.168,3.056z M5.381,7.179C5.292,7.23,5.146,7.12,5.172,7.021c0.016-0.06,0.087-0.136,0.142-0.145
		c0.057-0.009,0.125,0.056,0.213,0.102C5.467,7.063,5.438,7.145,5.381,7.179z M5.827,2.36c0.035-0.053,0.125-0.103,0.185-0.097
		c0.053,0.005,0.096,0.091,0.166,0.164C6.094,2.488,6.043,2.551,5.981,2.565C5.883,2.588,5.773,2.445,5.827,2.36z M5.827,3.71
		c0.018-0.059,0.083-0.104,0.147-0.179c0.067,0.072,0.148,0.121,0.15,0.171c0.001,0.058-0.055,0.144-0.109,0.173
		C5.921,3.925,5.795,3.813,5.827,3.71z M6.003,5.19C5.949,5.191,5.856,5.119,5.849,5.068C5.841,5.02,5.915,4.927,5.968,4.913
		c0.048-0.012,0.116,0.058,0.209,0.111C6.1,5.102,6.054,5.189,6.003,5.19z M6.488,1.737c0.018-0.06,0.083-0.105,0.148-0.18
		c0.066,0.072,0.147,0.121,0.149,0.172c0.002,0.058-0.053,0.145-0.107,0.173C6.586,1.951,6.457,1.837,6.488,1.737z M6.492,3.07
		c0.015-0.057,0.082-0.13,0.135-0.139C6.68,2.922,6.745,2.984,6.828,3.027C6.771,3.11,6.745,3.189,6.691,3.222
		C6.609,3.272,6.468,3.165,6.492,3.07z M6.627,4.522c-0.054-0.013-0.09-0.104-0.133-0.159c0.057-0.042,0.113-0.117,0.171-0.117
		c0.049,0,0.099,0.084,0.181,0.162C6.746,4.465,6.675,4.535,6.627,4.522z M7.346,5.197C7.26,5.244,7.13,5.128,7.16,5.034
		c0.019-0.058,0.083-0.101,0.147-0.175C7.371,4.93,7.447,4.977,7.448,5.027C7.451,5.085,7.399,5.169,7.346,5.197z M7.286,3.879
		C7.227,3.86,7.183,3.798,7.105,3.735c0.072-0.064,0.119-0.141,0.17-0.145c0.056-0.003,0.141,0.048,0.168,0.1
		C7.491,3.781,7.382,3.909,7.286,3.879z M7.324,2.561C7.223,2.592,7.111,2.473,7.155,2.378c0.024-0.054,0.108-0.11,0.166-0.109
		c0.051,0.001,0.102,0.077,0.176,0.14C7.425,2.475,7.382,2.542,7.324,2.561z M7.329,1.243C7.27,1.244,7.181,1.188,7.152,1.133
		c-0.05-0.097,0.064-0.226,0.17-0.194C7.383,0.958,7.43,1.023,7.509,1.09C7.433,1.158,7.383,1.24,7.329,1.243z M7.935,1.602
		c0.056-0.004,0.145,0.052,0.171,0.106c0.049,0.096-0.063,0.229-0.161,0.196C7.885,1.885,7.839,1.82,7.763,1.755
		C7.834,1.687,7.882,1.605,7.935,1.602z M8.156,3.084c-0.082,0.059-0.13,0.121-0.189,0.133C7.871,3.24,7.76,3.097,7.813,3.019
		C7.846,2.967,7.936,2.92,7.995,2.926C8.045,2.93,8.088,3.014,8.156,3.084z M7.957,4.541C7.86,4.553,7.754,4.399,7.812,4.331
		c0.043-0.05,0.136-0.092,0.197-0.082C8.06,4.257,8.097,4.348,8.161,4.426C8.075,4.477,8.02,4.532,7.957,4.541z M8.465,2.4
		c0.018-0.058,0.081-0.103,0.145-0.178c0.064,0.072,0.144,0.12,0.145,0.171C8.756,2.45,8.703,2.536,8.65,2.563
		C8.561,2.611,8.435,2.5,8.465,2.4z M8.613,3.885C8.517,3.898,8.412,3.744,8.469,3.672c0.042-0.051,0.136-0.096,0.195-0.084
		c0.051,0.009,0.087,0.101,0.147,0.181C8.729,3.819,8.674,3.876,8.613,3.885z M9.917,2.287c0.045-0.01,0.142,0.064,0.152,0.116
		c0.013,0.052-0.055,0.12-0.167,0.335c-0.06-0.153-0.113-0.226-0.107-0.293C9.8,2.386,9.864,2.297,9.917,2.287z M9.314,4.546
		C9.217,4.595,9.087,4.48,9.118,4.377c0.02-0.062,0.086-0.108,0.152-0.186C9.339,4.266,9.422,4.315,9.425,4.37
		C9.427,4.429,9.37,4.519,9.314,4.546z M9.217,3.219C9.17,3.204,9.121,3.092,9.132,3.034c0.009-0.05,0.1-0.084,0.179-0.146
		c0.049,0.079,0.111,0.135,0.114,0.193C9.43,3.219,9.315,3.251,9.217,3.219z M9.289,1.893C9.231,1.887,9.144,1.819,9.135,1.768
		C9.127,1.722,9.201,1.627,9.254,1.615c0.05-0.011,0.118,0.056,0.325,0.169C9.43,1.844,9.356,1.899,9.289,1.893z M9.971,5.195
		c-0.097,0.05-0.226-0.064-0.193-0.167c0.02-0.061,0.085-0.106,0.15-0.183c0.067,0.074,0.15,0.123,0.152,0.175
		C10.083,5.079,10.026,5.167,9.971,5.195z M9.989,3.884c-0.085,0.052-0.23-0.059-0.204-0.158C9.8,3.668,9.868,3.592,9.923,3.583
		c0.055-0.009,0.122,0.056,0.207,0.101C10.072,3.769,10.046,3.851,9.989,3.884z M8.771,13.015c-0.018,0.055-0.115,0.082-0.228,0.156
		c-0.039-0.12-0.092-0.206-0.086-0.287c0.003-0.039,0.121-0.102,0.182-0.097C8.768,12.797,8.804,12.913,8.771,13.015z M8.604,11.794
		c-0.063-0.018-0.109-0.084-0.191-0.15c0.077-0.071,0.125-0.155,0.18-0.158c0.061-0.004,0.15,0.053,0.18,0.108
		C8.823,11.693,8.71,11.825,8.604,11.794z M8.619,10.468c-0.1,0.022-0.21-0.122-0.156-0.208c0.034-0.053,0.126-0.104,0.186-0.098
		c0.054,0.006,0.098,0.094,0.166,0.167C8.731,10.391,8.681,10.454,8.619,10.468z M9.213,9.494C9.311,9.459,9.424,9.495,9.434,9.62
		c0.004,0.062-0.053,0.179-0.088,0.181C9.267,9.805,9.183,9.754,9.069,9.714C9.136,9.606,9.161,9.512,9.213,9.494z M9.32,12.136
		c0.052,0.035,0.102,0.128,0.095,0.188c-0.007,0.054-0.093,0.098-0.168,0.17c-0.06-0.085-0.12-0.138-0.134-0.202
		C9.091,12.19,9.232,12.08,9.32,12.136z M9.423,13.673c-0.019,0.053-0.112,0.078-0.221,0.147c-0.04-0.113-0.091-0.196-0.085-0.275
		c0.002-0.035,0.117-0.094,0.178-0.09C9.42,13.464,9.458,13.575,9.423,13.673z M9.268,11.126c-0.098,0.014-0.202-0.142-0.146-0.212
		c0.041-0.051,0.136-0.095,0.196-0.084c0.05,0.009,0.088,0.1,0.149,0.18C9.385,11.061,9.329,11.118,9.268,11.126z M9.941,8.84
		c0.13-0.007,0.176,0.099,0.148,0.205C10.074,9.1,9.992,9.137,9.887,9.229c-0.051-0.123-0.108-0.201-0.108-0.28
		C9.778,8.912,9.881,8.844,9.941,8.84z M9.972,14.422c-0.099,0.051-0.229-0.063-0.195-0.168c0.019-0.062,0.084-0.108,0.15-0.188
		c0.068,0.076,0.15,0.126,0.152,0.179C10.083,14.305,10.026,14.395,9.972,14.422z M9.976,11.485
		c0.051,0.032,0.099,0.121,0.091,0.178c-0.007,0.052-0.088,0.095-0.159,0.163c-0.057-0.082-0.116-0.132-0.129-0.192
		C9.757,11.536,9.894,11.433,9.976,11.485z M9.874,13.101c-0.052-0.039-0.099-0.134-0.088-0.193
		c0.009-0.051,0.102-0.086,0.183-0.148c0.052,0.081,0.109,0.136,0.119,0.198C10.102,13.055,9.95,13.158,9.874,13.101z M9.941,10.463
		c-0.099,0.022-0.209-0.121-0.155-0.206c0.033-0.054,0.126-0.104,0.185-0.098c0.052,0.005,0.095,0.092,0.163,0.166
		C10.053,10.386,10.003,10.449,9.941,10.463z M10.807,6.958c-0.07,0.109-0.098,0.203-0.149,0.222
		c-0.101,0.034-0.214-0.004-0.222-0.13c-0.004-0.062,0.056-0.179,0.092-0.181C10.607,6.864,10.691,6.917,10.807,6.958z
		 M10.604,5.863C10.5,5.886,10.39,5.741,10.445,5.658c0.037-0.055,0.129-0.105,0.19-0.098c0.053,0.006,0.098,0.094,0.168,0.168
		C10.72,5.788,10.667,5.85,10.604,5.863z M10.57,1.552c0.077,0.081,0.161,0.129,0.161,0.179c0,0.056-0.073,0.113-0.115,0.169
		c-0.056-0.043-0.144-0.078-0.159-0.132C10.445,1.721,10.515,1.651,10.57,1.552z M10.442,3.075c0.016-0.058,0.083-0.132,0.138-0.141
		c0.056-0.009,0.121,0.055,0.208,0.099c-0.059,0.083-0.087,0.163-0.144,0.194C10.559,3.278,10.416,3.17,10.442,3.075z M10.566,4.241
		c0.06-0.003,0.147,0.051,0.178,0.105c0.05,0.094-0.064,0.228-0.166,0.196c-0.062-0.019-0.108-0.083-0.188-0.149
		C10.465,4.325,10.513,4.244,10.566,4.241z M10.569,10.825c0.057-0.002,0.142,0.049,0.17,0.101c0.047,0.088-0.065,0.219-0.16,0.189
		c-0.059-0.02-0.104-0.082-0.181-0.146C10.471,10.905,10.517,10.828,10.569,10.825z M10.438,9.681
		c-0.004-0.06,0.056-0.176,0.092-0.177c0.078-0.004,0.16,0.048,0.276,0.088c-0.07,0.107-0.098,0.199-0.149,0.217
		C10.557,9.843,10.445,9.805,10.438,9.681z M10.785,12.332c-0.083,0.049-0.137,0.105-0.197,0.113
		c-0.097,0.014-0.198-0.137-0.142-0.207c0.042-0.05,0.133-0.095,0.192-0.083C10.688,12.163,10.725,12.254,10.785,12.332z
		 M10.594,14.773c0.059,0.015,0.138,0.083,0.146,0.138s-0.056,0.123-0.101,0.209c-0.086-0.057-0.166-0.084-0.201-0.141
		C10.385,14.892,10.492,14.749,10.594,14.773z M10.434,16.229c0.018-0.062,0.085-0.109,0.151-0.191
		c0.07,0.078,0.152,0.128,0.156,0.183c0.002,0.061-0.055,0.151-0.11,0.181C10.533,16.451,10.402,16.336,10.434,16.229z
		 M10.754,17.609c-0.015,0.059-0.103,0.097-0.212,0.19c-0.054-0.126-0.112-0.206-0.112-0.289c0-0.04,0.108-0.111,0.17-0.114
		C10.735,17.389,10.782,17.499,10.754,17.609z M10.625,13.754c-0.061,0.002-0.15-0.053-0.181-0.108
		c-0.051-0.097,0.065-0.225,0.174-0.193c0.062,0.019,0.11,0.083,0.192,0.15C10.731,13.671,10.68,13.751,10.625,13.754z
		 M10.542,8.491c-0.038,0-0.104-0.104-0.108-0.163c-0.006-0.129,0.097-0.175,0.202-0.147c0.054,0.014,0.091,0.096,0.18,0.2
		C10.696,8.434,10.62,8.49,10.542,8.491z M9.951,22.331c-0.063,0.005-0.184-0.057-0.185-0.09c-0.003-0.083,0.049-0.169,0.09-0.285
		c0.112,0.071,0.209,0.098,0.229,0.152C10.122,22.212,10.08,22.323,9.951,22.331z M10.643,21.798
		c-0.118-0.149-0.209-0.216-0.219-0.292c-0.014-0.105,0.053-0.215,0.188-0.183c0.063,0.013,0.152,0.087,0.155,0.136
		C10.771,21.537,10.712,21.62,10.643,21.798z M11.235,21.029c-0.073-0.02-0.163-0.128-0.17-0.204
		c-0.013-0.152,0.089-0.25,0.249-0.209c0.079,0.021,0.142,0.107,0.182,0.138C11.481,20.984,11.382,21.067,11.235,21.029z
		 M13.91,13.943c0.079,0.181,0.16,0.28,0.139,0.341c-0.024,0.067-0.141,0.116-0.226,0.137c-0.024,0.006-0.121-0.117-0.111-0.169
		C13.727,14.172,13.802,14.103,13.91,13.943z M13.38,11.029c-0.014,0.055-0.098,0.093-0.203,0.185
		c-0.052-0.123-0.108-0.201-0.107-0.28c0-0.041,0.104-0.109,0.162-0.112C13.364,10.815,13.407,10.924,13.38,11.029z M13.259,9.467
		c0.052,0.083,0.109,0.138,0.118,0.2c0.015,0.099-0.137,0.201-0.211,0.144c-0.052-0.04-0.099-0.134-0.087-0.193
		C13.088,9.566,13.18,9.529,13.259,9.467z M13.084,8.287c0.009-0.053,0.1-0.091,0.18-0.155c0.051,0.085,0.108,0.142,0.116,0.204
		c0.015,0.103-0.137,0.206-0.21,0.147C13.118,8.441,13.073,8.348,13.084,8.287z M13.879,9.148c-0.095,0.014-0.2-0.144-0.144-0.215
		c0.041-0.05,0.136-0.095,0.195-0.084c0.051,0.01,0.087,0.102,0.148,0.182C13.996,9.082,13.941,9.14,13.879,9.148z M13.908,6.208
		c0.128,0.008,0.166,0.123,0.132,0.225c-0.02,0.054-0.114,0.08-0.226,0.151c-0.041-0.117-0.092-0.202-0.087-0.283
		C13.729,6.265,13.847,6.204,13.908,6.208z M13.699,7.649c0.006-0.132,0.096-0.197,0.208-0.159c0.083,0.027,0.144,0.12,0.188,0.159
		c-0.017,0.204-0.127,0.21-0.232,0.212C13.721,7.865,13.694,7.762,13.699,7.649z M13.077,4.331c0.042-0.053,0.14-0.099,0.202-0.087
		c0.054,0.01,0.092,0.104,0.157,0.187c-0.088,0.052-0.146,0.11-0.21,0.119C13.123,4.563,13.017,4.404,13.077,4.331z M13.385,5.77
		c-0.018,0.055-0.113,0.082-0.224,0.154c-0.041-0.117-0.094-0.202-0.088-0.284c0.002-0.037,0.118-0.098,0.18-0.094
		C13.381,5.555,13.42,5.669,13.385,5.77z M13.197,6.85c0.06-0.023,0.16,0.063,0.215,0.088c0.021,0.202-0.07,0.264-0.183,0.261
		c-0.061-0.002-0.177-0.092-0.17-0.119C13.079,6.994,13.129,6.876,13.197,6.85z M12.626,7.829c-0.087,0.052-0.233-0.059-0.208-0.159
		c0.015-0.06,0.086-0.138,0.14-0.146c0.057-0.009,0.125,0.056,0.213,0.101C12.712,7.712,12.683,7.794,12.626,7.829z M12.76,8.998
		c-0.069,0.065-0.112,0.14-0.166,0.148c-0.125,0.021-0.19-0.066-0.165-0.18c0.014-0.049,0.105-0.108,0.161-0.107
		C12.64,8.86,12.688,8.937,12.76,8.998z M12.508,6.515c-0.038-0.003-0.097-0.12-0.092-0.181c0.009-0.126,0.123-0.161,0.224-0.126
		c0.052,0.018,0.079,0.112,0.149,0.222C12.671,6.469,12.587,6.521,12.508,6.515z M12.425,3.695c0.012-0.05,0.108-0.109,0.165-0.108
		c0.051,0.001,0.101,0.078,0.176,0.142c-0.071,0.066-0.116,0.143-0.171,0.151C12.466,3.901,12.398,3.812,12.425,3.695z
		 M12.507,4.901c0.08-0.005,0.162,0.046,0.28,0.087c-0.073,0.106-0.101,0.198-0.152,0.215c-0.101,0.033-0.213-0.002-0.222-0.127
		C12.408,5.018,12.47,4.903,12.507,4.901z M12.63,10.166c0.052,0.019,0.078,0.112,0.147,0.22c-0.116,0.04-0.199,0.09-0.28,0.086
		c-0.034-0.001-0.094-0.119-0.089-0.18C12.418,10.167,12.53,10.131,12.63,10.166z M12.393,11.619
		c0.019-0.076,0.138-0.18,0.203-0.173c0.07,0.007,0.176,0.125,0.18,0.2c0.005,0.067-0.108,0.141-0.223,0.271
		C12.471,11.773,12.377,11.683,12.393,11.619z M11.892,15.079c-0.038,0.01-0.134-0.084-0.146-0.143
		c-0.023-0.114,0.03-0.224,0.171-0.203c0.063,0.008,0.115,0.084,0.229,0.173C12.037,14.985,11.971,15.062,11.892,15.079z
		 M12.063,16.22c0.003,0.059-0.055,0.146-0.109,0.173c-0.098,0.049-0.229-0.065-0.196-0.167c0.019-0.06,0.085-0.104,0.151-0.181
		C11.978,16.118,12.062,16.166,12.063,16.22z M12.145,12.33c-0.121,0.052-0.197,0.109-0.275,0.109
		c-0.038,0.001-0.105-0.103-0.108-0.162c-0.008-0.13,0.098-0.173,0.202-0.146C12.017,12.144,12.054,12.227,12.145,12.33z
		 M11.98,11.13c-0.1,0.034-0.212-0.005-0.219-0.13c-0.004-0.062,0.056-0.178,0.092-0.18c0.08-0.004,0.162,0.048,0.277,0.09
		C12.062,11.019,12.033,11.112,11.98,11.13z M11.759,3.064c0.014-0.057,0.082-0.13,0.136-0.139s0.119,0.052,0.202,0.095
		c-0.056,0.084-0.083,0.164-0.138,0.197C11.877,3.269,11.733,3.16,11.759,3.064z M11.759,4.394c0.017-0.059,0.083-0.133,0.139-0.142
		c0.054-0.009,0.119,0.055,0.204,0.099c-0.059,0.083-0.086,0.163-0.142,0.196C11.876,4.598,11.731,4.489,11.759,4.394z
		 M12.092,8.283c-0.055,0.083-0.08,0.163-0.135,0.197c-0.08,0.051-0.222-0.056-0.197-0.152c0.014-0.057,0.08-0.131,0.133-0.139
		C11.945,8.18,12.011,8.241,12.092,8.283z M11.936,5.859c-0.061,0.004-0.177-0.055-0.178-0.091
		c-0.004-0.079,0.048-0.162,0.088-0.275c0.108,0.07,0.201,0.095,0.22,0.148C12.099,5.741,12.061,5.851,11.936,5.859z M11.964,6.87
		c0.055,0.034,0.106,0.128,0.1,0.188c-0.006,0.054-0.095,0.099-0.17,0.169c-0.062-0.084-0.125-0.136-0.14-0.2
		C11.729,6.926,11.877,6.815,11.964,6.87z M11.754,9.666c0.016-0.058,0.084-0.134,0.139-0.143s0.122,0.056,0.209,0.102
		c-0.059,0.083-0.088,0.163-0.144,0.194C11.868,9.87,11.727,9.763,11.754,9.666z M11.194,10.464
		c-0.053-0.042-0.101-0.138-0.089-0.199c0.009-0.052,0.104-0.091,0.185-0.155c0.053,0.085,0.112,0.142,0.121,0.206
		C11.427,10.417,11.271,10.522,11.194,10.464z M11.41,11.636c-0.007,0.054-0.077,0.125-0.134,0.144
		c-0.101,0.031-0.215-0.1-0.167-0.188c0.03-0.057,0.107-0.088,0.188-0.148C11.347,11.522,11.416,11.583,11.41,11.636z M11.244,9.155
		c-0.099,0.024-0.204-0.117-0.151-0.204c0.034-0.053,0.124-0.104,0.183-0.098c0.052,0.006,0.095,0.093,0.161,0.167
		C11.356,9.08,11.306,9.141,11.244,9.155z M11.098,12.954c0.052-0.065,0.128-0.124,0.206-0.148c0.024-0.008,0.086,0.093,0.174,0.198
		c-0.118,0.049-0.196,0.104-0.273,0.104C11.167,13.108,11.086,12.97,11.098,12.954z M11.459,6.298
		c-0.068,0.108-0.094,0.203-0.146,0.222c-0.101,0.035-0.211-0.005-0.219-0.13c-0.004-0.062,0.055-0.18,0.09-0.181
		C11.263,6.205,11.346,6.256,11.459,6.298z M11.257,5.206c-0.104,0.022-0.214-0.122-0.16-0.207c0.036-0.054,0.13-0.104,0.19-0.097
		c0.054,0.006,0.1,0.093,0.17,0.168C11.372,5.13,11.319,5.192,11.257,5.206z M11.109,2.37c0.033-0.052,0.123-0.1,0.18-0.094
		c0.051,0.006,0.092,0.09,0.158,0.162c-0.079,0.056-0.128,0.116-0.188,0.129C11.16,2.588,11.056,2.45,11.109,2.37z M11.096,3.679
		c0.034-0.053,0.124-0.103,0.184-0.096c0.051,0.006,0.094,0.091,0.161,0.163c-0.081,0.06-0.13,0.122-0.191,0.136
		C11.151,3.906,11.044,3.762,11.096,3.679z M11.093,7.614c0.043-0.053,0.14-0.098,0.201-0.086c0.053,0.01,0.092,0.104,0.156,0.185
		c-0.087,0.053-0.145,0.112-0.209,0.122C11.143,7.848,11.034,7.688,11.093,7.614z M11.307,18.379
		c-0.104,0.038-0.218-0.001-0.226-0.131c-0.003-0.064,0.056-0.188,0.092-0.189c0.082-0.003,0.166,0.051,0.284,0.094
		C11.387,18.263,11.36,18.36,11.307,18.379z M11.309,17.058c-0.1,0.036-0.211-0.002-0.219-0.126
		c-0.004-0.062,0.055-0.178,0.091-0.179c0.079-0.006,0.161,0.046,0.276,0.087C11.388,16.948,11.361,17.04,11.309,17.058z
		 M11.102,15.538c0.009-0.051,0.101-0.089,0.181-0.151c0.052,0.084,0.109,0.139,0.117,0.202c0.014,0.101-0.137,0.203-0.211,0.146
		C11.137,15.694,11.091,15.6,11.102,15.538z M11.256,14.438c-0.125,0.018-0.207-0.083-0.175-0.193
		c0.023-0.075,0.129-0.171,0.203-0.175c0.068-0.005,0.146,0.1,0.285,0.207C11.416,14.359,11.34,14.429,11.256,14.438z
		 M11.867,13.339c0.121,0.118,0.232,0.178,0.238,0.245c0.006,0.065-0.084,0.171-0.156,0.202c-0.106,0.045-0.217-0.017-0.216-0.141
		C11.734,13.563,11.802,13.482,11.867,13.339z M11.75,17.493c0.043-0.053,0.139-0.096,0.2-0.084c0.052,0.008,0.09,0.1,0.154,0.18
		c-0.087,0.053-0.144,0.11-0.207,0.121C11.799,17.725,11.692,17.563,11.75,17.493z M12.492,19.777
		c-0.104-0.192-0.187-0.341-0.266-0.489c-0.009,0-0.018-0.002-0.026-0.002c-0.003-0.011-0.005-0.021-0.008-0.031
		c-0.131-0.064-0.271-0.123-0.389-0.205c-0.049-0.035-0.079-0.145-0.063-0.206c0.015-0.056,0.101-0.123,0.159-0.125
		c0.063-0.003,0.165,0.051,0.184,0.104c0.053,0.138,0.077,0.286,0.108,0.433c0.008,0.005,0.015,0.008,0.021,0.011
		c0.005,0.007,0.009,0.015,0.013,0.022c0.123,0.014,0.255,0.007,0.365,0.054c0.07,0.031,0.146,0.159,0.139,0.234
		C12.724,19.642,12.601,19.693,12.492,19.777z M12.416,18.208c0.02-0.062,0.086-0.108,0.154-0.189
		c0.068,0.076,0.15,0.126,0.153,0.181c0.003,0.061-0.054,0.151-0.109,0.18C12.517,18.43,12.384,18.313,12.416,18.208z
		 M12.627,17.051c-0.088,0.052-0.235-0.06-0.209-0.159c0.015-0.061,0.086-0.139,0.142-0.148c0.056-0.009,0.124,0.057,0.213,0.104
		C12.714,16.933,12.685,17.018,12.627,17.051z M12.416,15.587c0.015-0.059,0.078-0.133,0.132-0.142
		c0.053-0.01,0.117,0.055,0.197,0.099c-0.055,0.082-0.08,0.161-0.135,0.195C12.529,15.791,12.39,15.685,12.416,15.587z
		 M12.596,14.427c-0.106,0.035-0.216-0.009-0.219-0.154c-0.005-0.11,0.009-0.234,0.152-0.229c0.085,0.002,0.169,0.066,0.329,0.135
		C12.729,14.305,12.675,14.401,12.596,14.427z M12.53,13.128c-0.048,0-0.12-0.097-0.134-0.158c-0.029-0.132,0.065-0.219,0.182-0.2
		c0.081,0.012,0.149,0.109,0.301,0.23C12.701,13.07,12.615,13.13,12.53,13.128z M13.268,16.107c0.052,0.011,0.091,0.101,0.155,0.182
		c-0.086,0.051-0.143,0.107-0.205,0.115c-0.102,0.013-0.206-0.139-0.148-0.21C13.111,16.143,13.206,16.099,13.268,16.107z
		 M13.228,14.764c0.057,0.016,0.131,0.081,0.139,0.133c0.009,0.055-0.052,0.119-0.093,0.206c-0.082-0.057-0.159-0.087-0.19-0.141
		C13.031,14.875,13.129,14.74,13.228,14.764z M13.385,17.617c-0.018,0.052-0.109,0.079-0.219,0.15
		c-0.041-0.114-0.093-0.199-0.088-0.279c0.001-0.036,0.118-0.096,0.178-0.091C13.382,17.405,13.42,17.518,13.385,17.617z
		 M13.175,19.031c-0.039,0-0.108-0.104-0.11-0.165c-0.007-0.131,0.1-0.176,0.207-0.149c0.055,0.016,0.093,0.098,0.186,0.203
		C13.334,18.973,13.254,19.029,13.175,19.031z M13.249,13.792c-0.113,0.028-0.208-0.026-0.229-0.158
		c-0.025-0.151,0.079-0.271,0.234-0.238c0.083,0.016,0.152,0.1,0.294,0.201C13.404,13.694,13.334,13.771,13.249,13.792z
		 M13.847,18.383c-0.057-0.02-0.137-0.109-0.128-0.153c0.012-0.082,0.082-0.154,0.175-0.31c0.093,0.161,0.172,0.241,0.175,0.322
		C14.071,18.37,13.958,18.42,13.847,18.383z M13.871,17.059c-0.101,0.016-0.205-0.142-0.147-0.218
		c0.04-0.054,0.138-0.101,0.199-0.088c0.054,0.009,0.091,0.103,0.155,0.183C13.991,16.989,13.935,17.05,13.871,17.059z
		 M13.887,15.732c-0.134,0.004-0.17-0.107-0.138-0.207c0.015-0.046,0.128-0.092,0.188-0.082c0.05,0.01,0.083,0.101,0.142,0.178
		C13.999,15.669,13.943,15.73,13.887,15.732z"/>
	<path fill="#E5E5E5" d="M8.322,22.513c-0.019-0.218-0.04-0.438-0.061-0.656c-0.21-0.109-0.424-0.049-0.639-0.014
		c0,0.007,0,0.014,0,0.02c-0.006,0-0.013-0.001-0.019-0.001c-0.016,0.148-0.031,0.298-0.045,0.435
		c-0.208,0.066-0.393,0.127-0.575,0.184c-0.007,0.016-0.014,0.028-0.019,0.043c-0.009,0-0.018,0-0.028,0
		c-0.012,0.04-0.023,0.079-0.04,0.118c-0.006,0.013-0.01,0.027-0.014,0.042c0.296,0.05,0.6,0.079,0.908,0.089
		c-0.015-0.056-0.031-0.118-0.055-0.179c0.219-0.017,0.388-0.031,0.552-0.047c0.004-0.008,0.009-0.016,0.012-0.025
		C8.308,22.518,8.315,22.515,8.322,22.513z"/>
	<path fill="#E5E5E5" d="M6.286,22.488c-0.067-0.032-0.133-0.078-0.203-0.083c-0.219-0.014-0.33-0.115-0.343-0.338
		C5.736,22,5.692,21.932,5.663,21.864c-0.012,0-0.023,0-0.036,0c0.001-0.008,0.001-0.019,0.002-0.028
		c-0.063-0.032-0.125-0.072-0.191-0.079c-0.213-0.022-0.338-0.108-0.346-0.341c-0.001-0.071-0.064-0.144-0.099-0.213l-0.022-0.021
		l0,0c-0.044-0.026-0.087-0.056-0.135-0.076c-0.149-0.066-0.394-0.021-0.358-0.305c0.027-0.215,0.209-0.189,0.352-0.225
		c0.051-0.014,0.1-0.027,0.15-0.04c0.054-0.024,0.107-0.049,0.16-0.073c-0.056-0.193-0.112-0.39-0.168-0.584
		c-0.041-0.024-0.081-0.048-0.122-0.071c-0.144-0.081-0.411-0.017-0.378-0.309c0.024-0.224,0.222-0.189,0.364-0.238
		c0.051-0.016,0.1-0.039,0.15-0.058c0.018-0.051,0.04-0.1,0.068-0.145c0.119-0.364,0.119-0.364,0.47-0.411
		c0.04,0.187,0.08,0.374,0.12,0.563c0.241-0.002,0.481-0.003,0.721-0.005c0.032-0.018,0.062-0.038,0.09-0.06
		c-0.073-0.162,0.008-0.386-0.184-0.502c-0.007,0-0.014,0.002-0.021,0.002c0-0.007-0.001-0.014-0.001-0.02
		c-0.077-0.062-0.146-0.148-0.233-0.17c-0.202-0.051-0.288-0.17-0.196-0.34c0.042-0.079,0.207-0.094,0.37-0.159
		c0.023,0.264,0.041,0.467,0.059,0.669c0.002,0.002,0.005,0.003,0.007,0.006c0.007,0.004,0.011,0.007,0.016,0.012
		c0.223-0.021,0.447-0.046,0.672-0.069c0-0.008,0-0.017,0-0.024c0.015-0.005,0.03-0.009,0.044-0.014
		c0.026-0.063,0.045-0.127,0.059-0.189c-0.804-0.359-1.365-1.166-1.365-2.1H5.542c0.001,0.004,0.003,0.009,0.003,0.013
		c0.004,0.067-0.112,0.141-0.228,0.271c-0.078-0.133-0.166-0.222-0.163-0.284H4.161c0.001,0.001,0.001,0.003,0.001,0.003
		c0.014,0.098-0.136,0.198-0.213,0.142c-0.04-0.029-0.076-0.091-0.086-0.145H2.892c0.002,0.001,0.002,0.003,0.003,0.003
		c-0.075,0.067-0.125,0.148-0.179,0.151c-0.06,0.002-0.148-0.055-0.177-0.11c-0.007-0.014-0.009-0.028-0.01-0.044H1.535
		c-0.028,0.049-0.052,0.093-0.081,0.124c0.025,1.353,0.463,2.604,1.193,3.637c0.04-0.019,0.079-0.028,0.109-0.021
		c0.072,0.015,0.163,0.129,0.176,0.212c0.009,0.061,0.006,0.119-0.002,0.183c0.06,0.073,0.122,0.145,0.185,0.216
		c0.092,0.001,0.184,0.003,0.274,0.016c0.124,0.016,0.187,0.12,0.155,0.238c-0.011,0.038-0.039,0.08-0.071,0.113
		c0.143,0.138,0.291,0.267,0.445,0.39c0.023-0.021,0.048-0.036,0.065-0.034c0.088,0.014,0.218,0.069,0.241,0.137
		c0.017,0.049,0.026,0.1,0.033,0.149c0.168,0.117,0.342,0.227,0.522,0.329c0.025,0,0.048,0,0.073,0
		c0.004,0.016,0.008,0.031,0.011,0.049c0.46,0.25,0.955,0.447,1.473,0.582c-0.007-0.015-0.015-0.028-0.022-0.043
		c-0.009,0-0.019,0-0.028,0C6.286,22.511,6.286,22.5,6.286,22.488z M5.369,17.338c0.139,0.006,0.2,0.097,0.179,0.212
		c-0.016,0.085-0.09,0.159-0.178,0.303c-0.113-0.128-0.206-0.188-0.229-0.267C5.099,17.436,5.212,17.331,5.369,17.338z
		 M4.709,16.717c0.035,0.039,0.144,0.108,0.14,0.172c-0.005,0.067-0.106,0.148-0.183,0.182c-0.032,0.016-0.149-0.068-0.162-0.12
		C4.482,16.853,4.499,16.735,4.709,16.717z M4.709,18.03c0.036,0.041,0.128,0.102,0.151,0.182c0.04,0.139-0.078,0.197-0.188,0.191
		C4.61,18.4,4.512,18.33,4.5,18.275C4.478,18.176,4.493,18.055,4.709,18.03z M1.985,18.375c-0.053-0.015-0.13-0.132-0.116-0.163
		c0.036-0.075,0.119-0.172,0.187-0.175c0.061-0.004,0.127,0.105,0.164,0.142C2.194,18.384,2.082,18.398,1.985,18.375z M2.001,17.072
		c-0.046,0-0.119-0.089-0.133-0.147c-0.029-0.128,0.065-0.207,0.176-0.19c0.078,0.009,0.146,0.099,0.298,0.212
		C2.166,17.016,2.083,17.072,2.001,17.072z M2.631,19.096c-0.04-0.116-0.091-0.2-0.085-0.279c0.002-0.038,0.153-0.108,0.171-0.095
		c0.062,0.061,0.112,0.145,0.131,0.228C2.853,18.973,2.739,19.024,2.631,19.096z M2.664,17.857c-0.08-0.179-0.143-0.259-0.143-0.34
		c-0.001-0.051,0.115-0.156,0.139-0.145c0.083,0.037,0.19,0.104,0.208,0.178C2.881,17.609,2.777,17.696,2.664,17.857z M4.024,17.405
		c0.063,0.018,0.111,0.084,0.192,0.15c-0.079,0.069-0.13,0.153-0.185,0.154c-0.061,0.003-0.151-0.054-0.181-0.108
		C3.799,17.506,3.916,17.374,4.024,17.405z M4.021,19.063c-0.062-0.002-0.184-0.092-0.177-0.115
		c0.023-0.087,0.073-0.207,0.143-0.231c0.063-0.022,0.165,0.062,0.22,0.086C4.231,19.011,4.132,19.065,4.021,19.063z M3.297,16.676
		c0.104,0.091,0.186,0.128,0.2,0.182c0.028,0.106-0.018,0.208-0.146,0.203c-0.059-0.003-0.163-0.071-0.163-0.107
		C3.189,16.874,3.245,16.797,3.297,16.676z M3.358,18.371c-0.059-0.003-0.161-0.071-0.161-0.11c0-0.079,0.056-0.156,0.107-0.279
		c0.103,0.092,0.184,0.13,0.198,0.185C3.53,18.271,3.488,18.378,3.358,18.371z M4.16,20.342c-0.091,0.03-0.242,0.046-0.293-0.008
		c-0.099-0.101-0.153-0.246-0.222-0.377c-0.005,0-0.011,0-0.017,0c-0.001-0.008-0.002-0.017-0.004-0.025
		c-0.132-0.074-0.271-0.139-0.39-0.232c-0.048-0.037-0.074-0.15-0.054-0.212c0.018-0.055,0.111-0.119,0.171-0.119
		c0.065-0.002,0.169,0.054,0.187,0.109c0.046,0.146,0.06,0.303,0.085,0.454c0.004,0.002,0.008,0.006,0.012,0.008
		c0.004,0.006,0.006,0.011,0.009,0.018c0.152,0.005,0.308-0.005,0.458,0.019c0.055,0.008,0.124,0.104,0.134,0.167
		C4.246,20.208,4.206,20.329,4.16,20.342z"/>
	<path fill="#E5E5E5" d="M8.261,21.843c0,0.003,0.001,0.009,0.001,0.014c0.007,0.003,0.015,0.005,0.021,0.009L8.261,21.843z"/>
	<path fill="#E5E5E5" d="M10.238,19.869c0.003,0.006,0.004,0.012,0.007,0.017c0.004,0,0.008,0.002,0.011,0.002L10.238,19.869z"/>
	<path fill="#E5E5E5" d="M8.94,21.205c0-0.005,0-0.011,0-0.018c-0.008,0-0.014-0.002-0.021-0.003L8.94,21.205z"/>
	<path fill="#E5E5E5" d="M4.97,19.869c0.001,0.003,0.001,0.007,0.002,0.01c0.005,0.004,0.011,0.007,0.017,0.01L4.97,19.869z"/>
	<path fill="#E5E5E5" d="M4.989,19.889c0-0.006,0-0.013,0-0.02c-0.006,0-0.013,0-0.019,0L4.989,19.889z"/>
	<path fill="#E5E5E5" d="M5.718,19.844c0.036-0.214,0.031-0.423-0.081-0.619c-0.194-0.055-0.389-0.11-0.583-0.166
		c-0.028,0.045-0.05,0.094-0.068,0.145c0,0.221,0.002,0.443,0.003,0.666C5.231,19.859,5.475,19.852,5.718,19.844z"/>
	<path fill="#E5E5E5" d="M5.729,19.845C5.73,19.845,5.73,19.844,5.729,19.845c-0.003-0.001-0.008-0.001-0.012-0.001
		c-0.001,0.008-0.002,0.014-0.003,0.021L5.729,19.845C5.73,19.845,5.729,19.845,5.729,19.845z"/>
	<polygon fill="#E5E5E5" points="5.629,19.211 5.637,19.225 5.647,19.229 	"/>
	<path fill="#E5E5E5" d="M5.797,21.121c-0.055-0.195-0.111-0.392-0.167-0.589c-0.152-0.097-0.313-0.136-0.49-0.069
		c-0.053,0.024-0.106,0.049-0.16,0.073c-0.003,0.215-0.005,0.431-0.009,0.646l0,0l0.022,0.021c0.229-0.009,0.459-0.019,0.689-0.028
		C5.722,21.159,5.76,21.141,5.797,21.121z"/>
	<polygon fill="#E5E5E5" points="5.628,20.528 5.63,20.532 5.646,20.544 	"/>
	<path fill="#E5E5E5" d="M9.579,19.229c0-0.009,0-0.019,0-0.028c-0.211-0.098-0.421-0.064-0.63,0
		c-0.002,0.01-0.005,0.02-0.007,0.028c-0.01,0-0.019,0-0.026-0.001c0,0.214,0.002,0.427,0.003,0.639c0.008,0,0.015,0,0.022,0
		c0,0.009,0,0.017,0,0.023c0.246-0.007,0.493-0.015,0.74-0.021c0.022-0.021,0.044-0.042,0.066-0.063
		c-0.046-0.192-0.092-0.385-0.139-0.577C9.6,19.229,9.589,19.229,9.579,19.229z"/>
	<path fill="#E5E5E5" d="M10.355,19.187l-0.077,0.02c-0.008,0.221-0.016,0.441-0.021,0.663c0.22,0.001,0.438,0.003,0.658,0.006
		c0.05-0.023,0.101-0.048,0.15-0.071c-0.047-0.19-0.095-0.382-0.141-0.57l-0.033-0.032C10.716,19.099,10.538,19.073,10.355,19.187z"
		/>
	<path fill="#E5E5E5" d="M10.256,19.888c0-0.007,0.001-0.012,0.001-0.019c-0.007,0-0.012,0-0.019,0L10.256,19.888z"/>
	<path fill="#E5E5E5" d="M8.92,21.185c0.001,0.005,0.002,0.008,0.003,0.011c0.006,0.003,0.011,0.007,0.018,0.01L8.92,21.185z"/>
	<path fill="#E5E5E5" d="M8.282,21.182c0,0.008,0,0.016,0,0.023c-0.007,0-0.015,0-0.023,0c0.009,0.213,0.016,0.424,0.023,0.638
		c0.237-0.002,0.475-0.002,0.712-0.004c0.035-0.016,0.066-0.035,0.098-0.06c-0.057-0.194-0.112-0.388-0.169-0.584
		C8.713,21.064,8.498,21.12,8.282,21.182z"/>
	<path fill="#E5E5E5" d="M8.282,21.865c0-0.008,0-0.016,0-0.022c-0.007,0-0.015,0-0.021,0L8.282,21.865z"/>
	<path fill="#E5E5E5" d="M6.299,19.869c-0.005,0-0.009,0-0.014,0l0.016,0.023C6.301,19.884,6.3,19.876,6.299,19.869z"/>
	<path fill="#E5E5E5" d="M6.299,19.869c0.215,0.007,0.43,0.015,0.646,0.021c0-0.008,0-0.016,0-0.023c0.008,0,0.016,0,0.024,0
		c0.057-0.212,0.096-0.425,0.002-0.638c-0.009,0-0.019,0-0.029,0.002c0-0.01,0-0.02,0-0.028c-0.161-0.02-0.325-0.038-0.487-0.057
		c-0.028,0.021-0.058,0.042-0.09,0.06C6.224,19.416,6.275,19.645,6.299,19.869z"/>
	<path fill="#E5E5E5" d="M6.295,21.205c-0.166-0.027-0.331-0.056-0.498-0.084c-0.037,0.02-0.075,0.038-0.114,0.054
		c-0.018,0.22-0.036,0.441-0.054,0.661c-0.001,0.01-0.001,0.021-0.002,0.028c0.013,0,0.023,0,0.036,0c0.208,0,0.416,0,0.623,0
		c0-0.007,0-0.015,0-0.021c0.01-0.004,0.021-0.005,0.031-0.009C6.383,21.623,6.419,21.411,6.295,21.205z"/>
	<path fill="#E5E5E5" d="M6.295,21.205c0.004,0,0.008,0.002,0.011,0.002l-0.021-0.021C6.289,21.192,6.291,21.198,6.295,21.205z"/>
	<path fill="#E5E5E5" d="M6.983,22.479C7,22.444,7.016,22.41,7.018,22.375c0.024-0.508-0.08-0.608-0.576-0.564
		c-0.042,0.005-0.084,0.015-0.125,0.023c-0.011,0.004-0.021,0.005-0.031,0.009c0,0.007,0,0.015,0,0.021c0,0.207,0,0.415,0,0.624
		c0,0.012,0,0.022,0,0.035c0.009,0,0.019,0,0.028,0c0.208,0,0.415-0.001,0.623-0.001c0.01,0,0.019,0,0.028,0
		C6.969,22.508,6.977,22.495,6.983,22.479z"/>
	<path fill="#E5E5E5" d="M6.306,21.207c0-0.007,0-0.015,0-0.021c-0.007,0-0.014,0-0.021,0L6.306,21.207z"/>
	<path fill="#E5E5E5" d="M6.941,21.178c0,0.01-0.001,0.02-0.001,0.03l0.024-0.03C6.957,21.178,6.95,21.178,6.941,21.178z"/>
	<path fill="#E5E5E5" d="M6.284,20.547c0.008,0,0.016,0,0.025,0c0-0.008,0-0.016,0-0.022L6.284,20.547z"/>
	<path fill="#E5E5E5" d="M6.945,20.547c0-0.006,0-0.013,0-0.021c-0.212,0.008-0.424,0.015-0.636,0.021
		c0,0.213-0.001,0.426-0.003,0.639c0.212-0.003,0.424-0.004,0.635-0.008c0.006-0.21,0.013-0.421,0.019-0.631
		C6.957,20.547,6.951,20.547,6.945,20.547z"/>
	<path fill="#E5E5E5" d="M6.965,21.208c0.002,0.043,0.002,0.087,0.004,0.128c0.02,0.455,0.035,0.47,0.496,0.508
		c0.046,0.006,0.092,0.013,0.139,0.018c0.006,0,0.013,0.001,0.019,0.001c0-0.006,0-0.013,0-0.02
		c-0.009-0.21-0.017-0.422-0.025-0.635C7.387,21.208,7.177,21.208,6.965,21.208z"/>
	<path fill="#E5E5E5" d="M6.94,21.208c0.009,0,0.017,0,0.025,0c0-0.011-0.001-0.021-0.001-0.03L6.94,21.208z"/>
	<path fill="#E5E5E5" d="M7.597,21.183c0.001,0.01,0.001,0.018,0.001,0.025c0.01,0,0.02,0,0.029,0l-0.004-0.003L7.597,21.183z"/>
	<path fill="#E5E5E5" d="M6.297,19.891c-0.189-0.105-0.382-0.156-0.581-0.026C5.562,20.07,5.6,20.298,5.644,20.528
		c0.218-0.002,0.434-0.004,0.651-0.004C6.39,20.313,6.429,20.101,6.297,19.891z"/>
	<path fill="#E5E5E5" d="M6.286,19.869c0.005,0.007,0.008,0.014,0.012,0.021c0.002,0,0.002,0,0.004,0.002L6.286,19.869z"/>
	<path fill="#E5E5E5" d="M5.644,20.528c-0.005,0-0.01,0-0.015,0l0.018,0.016C5.645,20.537,5.644,20.532,5.644,20.528z"/>
	<path fill="#E5E5E5" d="M6.294,20.524c-0.003,0.008-0.006,0.015-0.01,0.022l0.025-0.022C6.304,20.524,6.299,20.524,6.294,20.524z"
		/>
	<path fill="#E5E5E5" d="M5.73,19.844l-0.016,0.021c0.001,0,0.001,0,0.002-0.001C5.721,19.857,5.725,19.852,5.73,19.844
		C5.729,19.845,5.73,19.845,5.73,19.844z"/>
	<path fill="#E5E5E5" d="M9.608,18.54c-0.003,0.011-0.005,0.022-0.008,0.032c-0.008,0-0.015,0-0.021,0c0,0.208,0,0.419,0,0.629
		c0,0.01,0,0.02,0,0.028c0.01,0,0.021,0,0.03-0.001c0.224-0.007,0.446-0.015,0.669-0.022l0.077-0.02
		c-0.031-0.202-0.063-0.406-0.095-0.608c-0.001-0.008-0.003-0.018-0.004-0.025c-0.014-0.01-0.026-0.016-0.04-0.023
		C10.014,18.414,9.812,18.466,9.608,18.54z"/>
	<path fill="#E5E5E5" d="M7.627,20.544c0-0.007,0-0.013,0-0.02L7.6,20.55C7.609,20.547,7.618,20.545,7.627,20.544z"/>
	<path fill="#E5E5E5" d="M7.623,21.205l0.004,0.003c0-0.008,0-0.016,0-0.023c-0.009,0-0.02,0-0.03-0.002
		C7.597,21.183,7.614,21.197,7.623,21.205z"/>
	<path fill="#E5E5E5" d="M8.259,20.542c0.008,0.003,0.017,0.005,0.025,0.008l-0.026-0.023C8.258,20.532,8.259,20.537,8.259,20.542z"
		/>
	<path fill="#E5E5E5" d="M7.627,20.544c0,0.213,0,0.427,0,0.641c0.21,0.006,0.421,0.013,0.632,0.021c0.009,0,0.017,0,0.023,0
		c0-0.008,0-0.016,0-0.023c-0.009-0.214-0.016-0.428-0.023-0.64C8.048,20.463,7.837,20.49,7.627,20.544z"/>
	<path fill="#E5E5E5" d="M8.284,20.55c0-0.008,0-0.014,0-0.021c-0.009,0-0.018,0-0.026-0.002L8.284,20.55z"/>
	<path fill="#E5E5E5" d="M8.257,19.894c0.01,0,0.02,0,0.029,0c0-0.01,0-0.019,0-0.029L8.257,19.894z"/>
	<path fill="#E5E5E5" d="M8.941,19.867c-0.008,0-0.015,0-0.022,0c-0.21,0.009-0.422,0.017-0.633,0.026
		c-0.001,0.21-0.002,0.422-0.002,0.635c0.213,0.006,0.426,0.013,0.638,0.019c0.007,0,0.014,0,0.021,0c0-0.01,0-0.019,0-0.028
		c0-0.21-0.001-0.418-0.001-0.628C8.941,19.884,8.941,19.876,8.941,19.867z"/>
	<path fill="#E5E5E5" d="M9.601,18.572c0.003-0.01,0.005-0.021,0.008-0.032c0.056-0.206,0.091-0.411,0.004-0.617
		c-0.004-0.009-0.008-0.021-0.013-0.031c-0.004-0.001-0.008-0.003-0.012-0.004C9.4,18.07,9.182,18.222,8.942,18.332
		c0,0.074-0.001,0.149-0.001,0.224c0.212,0.005,0.424,0.012,0.638,0.017C9.586,18.572,9.593,18.572,9.601,18.572z"/>
	<path fill="#E5E5E5" d="M8.941,18.556c-0.009-0.001-0.018-0.001-0.025-0.001l0.025,0.019C8.941,18.567,8.941,18.561,8.941,18.556z"
		/>
	<path fill="#E5E5E5" d="M8.284,18.55c-0.005,0-0.011,0-0.016,0c-0.003,0.008-0.006,0.016-0.009,0.023L8.284,18.55z"/>
	<path fill="#E5E5E5" d="M8.276,18.524c-0.098,0.014-0.197,0.021-0.298,0.021c-0.122,0-0.241-0.014-0.359-0.031
		c0,0.012,0,0.025,0.001,0.036c0.216-0.001,0.432-0.001,0.648-0.001C8.271,18.542,8.273,18.532,8.276,18.524z"/>
	<path fill="#E5E5E5" d="M7.62,18.551c-0.006,0-0.012,0-0.019,0l0.02,0.025C7.62,18.568,7.62,18.559,7.62,18.551z"/>
	<path fill="#E5E5E5" d="M7.624,19.208c-0.006,0-0.01,0-0.015,0c-0.004,0.008-0.006,0.016-0.009,0.023L7.624,19.208z"/>
	<path fill="#E5E5E5" d="M7.601,18.551c0.004,0.007,0.007,0.015,0.011,0.021c0.002,0.001,0.006,0.003,0.009,0.004L7.601,18.551z"/>
	<path fill="#E5E5E5" d="M6.943,18.575c0,0.21,0,0.419-0.001,0.628c0,0.009,0,0.019,0,0.028c0.01-0.002,0.02-0.002,0.029-0.002
		c0.212-0.008,0.425-0.014,0.638-0.021c0.076-0.212,0.116-0.425,0.003-0.636c-0.204-0.115-0.414-0.097-0.625-0.035
		c-0.014,0.005-0.029,0.009-0.044,0.014C6.943,18.559,6.943,18.567,6.943,18.575z"/>
	<path fill="#E5E5E5" d="M8.916,19.229c0.008,0.001,0.017,0.001,0.026,0.001c0.002-0.009,0.005-0.019,0.007-0.028
		c0.055-0.215,0.096-0.431-0.028-0.638c-0.212-0.111-0.425-0.079-0.637,0.002c0,0.213,0,0.429,0,0.643
		C8.496,19.216,8.705,19.222,8.916,19.229z"/>
	<path fill="#E5E5E5" d="M8.916,18.555c0.001,0.003,0.002,0.006,0.005,0.009c0.006,0.004,0.013,0.005,0.021,0.01L8.916,18.555z"/>
	<path fill="#E5E5E5" d="M8.284,19.208c-0.008,0-0.018,0-0.026,0l0.026,0.023C8.284,19.225,8.284,19.216,8.284,19.208z"/>
	<path fill="#E5E5E5" d="M8.284,18.565c0-0.007,0-0.011,0-0.016L8.26,18.573C8.268,18.57,8.276,18.567,8.284,18.565z"/>
	<path fill="#E5E5E5" d="M7.627,19.865c-0.009,0-0.018,0-0.027,0l0.027,0.03C7.627,19.886,7.627,19.876,7.627,19.865z"/>
	<path fill="#E5E5E5" d="M8.257,19.864c0-0.21,0.001-0.42,0.001-0.633c-0.211,0-0.423,0-0.634,0
		c0.001,0.213,0.003,0.423,0.003,0.634C7.837,19.864,8.046,19.864,8.257,19.864z"/>
	<path fill="#E5E5E5" d="M7.624,19.231c0-0.008,0-0.016,0-0.023L7.6,19.231C7.608,19.231,7.616,19.231,7.624,19.231z"/>
	<path fill="#E5E5E5" d="M8.286,19.864c-0.01,0-0.02,0-0.029,0c0,0.011,0,0.02,0,0.029L8.286,19.864z"/>
	<path fill="#E5E5E5" d="M8.258,19.208c0,0.008,0,0.016,0,0.023c0.009,0,0.019,0,0.026,0L8.258,19.208z"/>
	<path fill="#E5E5E5" d="M7.6,19.865c0.003,0.011,0.005,0.019,0.009,0.028c0.006,0.002,0.012,0.002,0.018,0.002L7.6,19.865z"/>
	<path fill="#E5E5E5" d="M7.627,20.524c-0.007,0-0.014,0-0.021,0.002C7.604,20.534,7.602,20.542,7.6,20.55L7.627,20.524z"/>
	<path fill="#E5E5E5" d="M6.945,20.547c0.006,0,0.012,0,0.016,0c0.215-0.008,0.431-0.015,0.646-0.021
		c0.056-0.213,0.077-0.423,0.003-0.633c-0.214-0.008-0.426-0.016-0.64-0.026c-0.009,0-0.017,0-0.024,0c0,0.008,0,0.016,0,0.023
		c0,0.212,0,0.423,0,0.636C6.945,20.534,6.945,20.541,6.945,20.547z"/>
</g>
</svg>
