<?xml version="1.0" encoding="utf-8"?>
<!-- Generator: Adobe Illustrator 16.0.0, SVG Export Plug-In . SVG Version: 6.00 Build 0)  -->
<!DOCTYPE svg PUBLIC "-//W3C//DTD SVG 1.1//EN" "http://www.w3.org/Graphics/SVG/1.1/DTD/svg11.dtd">
<svg version="1.1" id="圖層_3" xmlns="http://www.w3.org/2000/svg" xmlns:xlink="http://www.w3.org/1999/xlink" x="0px" y="0px"
	 width="16px" height="24px" viewBox="0 0 16 24" enable-background="new 0 0 16 24" xml:space="preserve">
<g>
	<polygon fill="#E5E5E5" points="4.704,16.019 4.694,16.025 4.693,16.028 	"/>
	<path fill="#E5E5E5" d="M9.075,19.163c0.005-0.001,0.01-0.003,0.016-0.004c0-0.005,0-0.01,0-0.015L9.075,19.163z"/>
	<polygon fill="#E5E5E5" points="6.586,16.639 6.572,16.648 6.568,16.658 	"/>
	<path fill="#E5E5E5" d="M10.951,21.042c0.006-0.001,0.011-0.002,0.016-0.004c0.001-0.004,0.002-0.01,0.004-0.016L10.951,21.042z"/>
	<path fill="#E5E5E5" d="M10.331,21.551c0.177-0.097,0.092-0.304,0.156-0.448c-0.052-0.022-0.104-0.048-0.156-0.07V21.551z"/>
	<path fill="#E5E5E5" d="M15.646,16.18c0.03-0.008,0.061-0.011,0.088-0.007v-0.516h-0.479c0.023,0.014,0.046,0.029,0.075,0.045
		c-0.137,0.097-0.201,0.176-0.278,0.188c-0.101,0.019-0.184-0.043-0.188-0.166c-0.001-0.026,0.002-0.047,0.008-0.067h-0.518v-0.312
		c-0.083,0.013-0.166,0.024-0.251,0.037c0,0.008,0,0.018,0,0.025c-0.011,0-0.021,0-0.031,0c-0.024,0.162-0.049,0.325-0.071,0.473
		c-0.201,0.126-0.385,0.112-0.571,0.057c-0.006,0.004-0.011,0.008-0.018,0.012c-0.004,0.003-0.009,0.007-0.012,0.01
		c0,0.19,0,0.381,0,0.563c-0.206,0.052-0.369,0.1-0.408-0.134c-0.021-0.142,0.016-0.245,0.183-0.284
		c0.081-0.019,0.152-0.093,0.226-0.145c0-0.011,0-0.02,0-0.029c0.01,0.002,0.019,0.005,0.029,0.008
		c0.228-0.154,0.043-0.354,0.048-0.53c-0.008,0-0.014,0-0.021,0c0-0.007,0-0.015,0-0.021c-0.224-0.029-0.447-0.057-0.671-0.086
		c-0.004,0.002-0.008,0.003-0.012,0.005c0,0.002-0.001,0.003-0.001,0.005c0.009,0.175,0.018,0.346,0.025,0.503
		c-0.078,0.041-0.13,0.092-0.163,0.082c-0.089-0.026-0.205-0.059-0.245-0.126c-0.048-0.085-0.021-0.203,0.113-0.237
		c0.126-0.031,0.253-0.061,0.27-0.222c0-0.004-0.001-0.008-0.001-0.012c0.005,0.001,0.009,0.001,0.014,0.002
		c0.041-0.02,0.106-0.035,0.108-0.058c0.042-0.337,0.315-0.376,0.561-0.453c0-0.011,0-0.021,0-0.029c0.009,0,0.018,0,0.026,0
		c0.027-0.065,0.064-0.127,0.069-0.193c0.02-0.219,0.14-0.307,0.35-0.325c0.064-0.007,0.125-0.06,0.188-0.098
		c0.04-0.086,0.094-0.169,0.116-0.257c0.025-0.105,0.063-0.185,0.15-0.212v-0.945c-0.036-0.014-0.065-0.032-0.082-0.058
		c-0.067-0.1-0.036-0.211,0.082-0.26v-0.827c-0.086,0.021-0.172,0.041-0.256,0.061c-0.024,0.115-0.036,0.236-0.086,0.339
		c-0.034,0.073-0.128,0.16-0.197,0.161c-0.068,0.003-0.156-0.081-0.21-0.146c-0.043-0.053-0.049-0.136-0.07-0.207
		c-0.022-0.05-0.045-0.099-0.066-0.149c-0.147-0.042-0.293-0.085-0.462-0.133c-0.012-0.093-0.021-0.19-0.032-0.291
		c0.173-0.074,0.33-0.142,0.485-0.208c0.053-0.185,0.104-0.368,0.157-0.553c-0.037-0.023-0.077-0.043-0.117-0.059l0,0
		c-0.228-0.036-0.452-0.072-0.678-0.107c-0.011,0.003-0.021,0.007-0.032,0.01c0,0.003-0.001,0.004-0.001,0.006
		c0,0.19,0,0.379,0,0.578c-0.125,0.02-0.2,0.054-0.266,0.038c-0.061-0.016-0.155-0.082-0.156-0.127
		c-0.002-0.089,0.025-0.223,0.087-0.259c0.118-0.071,0.308-0.026,0.335-0.23c0-0.007,0-0.014,0-0.021
		c0.011,0.002,0.021,0.004,0.033,0.006c0.202-0.073,0.119-0.233,0.087-0.376c-0.021-0.025-0.04-0.051-0.059-0.078
		c-0.116-0.19-0.524-0.043-0.485-0.397c0.029-0.26,0.327-0.168,0.465-0.297c0.055-0.188,0.107-0.375,0.16-0.563
		c-0.034-0.024-0.071-0.043-0.11-0.058l0,0c-0.12-0.026-0.245-0.042-0.362-0.08c-0.187-0.06-0.185-0.2-0.123-0.37
		c0.14-0.061,0.289-0.126,0.438-0.191c0.054-0.184,0.106-0.369,0.158-0.552c-0.043-0.025-0.087-0.047-0.133-0.064
		c-0.075-0.018-0.147-0.041-0.225-0.052c-0.129-0.019-0.256-0.041-0.275-0.202c-0.025-0.211,0.124-0.241,0.283-0.273
		c0.07-0.015,0.133-0.069,0.199-0.106c0.014-0.02,0.026-0.043,0.044-0.061c0.128-0.126,0.007-0.465,0.33-0.42
		c0.283,0.04,0.155,0.339,0.274,0.488c0.045,0.018,0.088,0.039,0.13,0.063c0.148,0.039,0.3,0.085,0.394-0.086
		c0-0.007-0.001-0.016-0.001-0.023c0.006-0.001,0.012-0.001,0.017-0.001c0.066-0.099,0.148-0.19,0.188-0.298
		c0.029-0.084,0.078-0.125,0.138-0.136V5.285c-0.098,0.025-0.198,0.042-0.297,0.063c-0.003,0.006-0.007,0.013-0.01,0.02
		c-0.007,0.003-0.015,0.007-0.021,0.012c-0.011,0.168-0.018,0.34-0.027,0.538c-0.13,0-0.251,0.036-0.315-0.01
		c-0.065-0.047-0.073-0.173-0.116-0.29c0.167-0.087,0.313-0.163,0.459-0.238c0-0.008,0.001-0.017,0.002-0.025
		c0.01-0.003,0.02-0.004,0.029-0.006c0.063-0.127,0.119-0.261,0.201-0.375c0.017-0.025,0.054-0.042,0.096-0.051V3.988
		c-0.057-0.037-0.112-0.122-0.108-0.174c0.003-0.038,0.054-0.09,0.108-0.122V2.855c-0.067-0.15-0.135-0.235-0.118-0.298
		c0.011-0.046,0.064-0.102,0.118-0.132V1.491c-0.039-0.02-0.112-0.099-0.111-0.14c0.003-0.079,0.065-0.154,0.091-0.203
		c0.008-0.001,0.013,0,0.021,0V0.793l-1.193,1.566c0.105-0.024,0.219-0.036,0.251-0.169c0-0.015,0-0.028,0-0.043
		c0.008,0,0.016,0,0.023,0.001c0.049-0.05,0.114-0.094,0.123-0.147c0.031-0.184,0.108-0.289,0.306-0.245
		c0.112,0.025,0.118,0.082,0.066,0.422c-0.162-0.01-0.329-0.021-0.495-0.03c-0.006,0.006-0.013,0.012-0.018,0.018
		c-0.001,0.008-0.004,0.016-0.006,0.024c0,0.166,0,0.331,0,0.489c-0.343,0.122-0.383,0.134-0.404-0.119l-0.375,0.492
		c0.098,0.046,0.114,0.125,0.082,0.191c-0.031,0.063-0.15,0.096-0.235,0.109c-0.01,0.001-0.027-0.016-0.044-0.041l-0.363,0.477
		c0.008,0.032,0.005,0.07-0.008,0.104C12.051,3.935,11.989,3.959,11.912,4L10.95,5.262c0.006,0.039,0.01,0.078,0.016,0.118
		c0.049,0.023,0.098,0.045,0.148,0.069l0,0c0.147,0.038,0.295,0.076,0.395-0.076c0.001-0.01,0.001-0.02,0.001-0.03
		c0.008,0,0.015,0,0.022-0.001c0.06-0.1,0.11-0.207,0.187-0.292c0.057-0.064,0.146-0.12,0.227-0.134
		c0.042-0.006,0.133,0.082,0.145,0.139c0.031,0.147-0.051,0.238-0.202,0.255c-0.118,0.013-0.237,0.022-0.355,0.033
		c-0.002,0.002-0.005,0.004-0.006,0.007c-0.005,0.01-0.012,0.016-0.018,0.024c-0.002,0.156-0.003,0.313-0.003,0.49
		c-0.199,0.048-0.361,0.087-0.523,0.126l-0.035,0.038c-0.023,0.098-0.044,0.198-0.064,0.296c-0.032,0.142-0.115,0.227-0.266,0.199
		c-0.17-0.032-0.158-0.171-0.152-0.297c0.002-0.05,0.015-0.1,0.021-0.15c-0.038-0.018-0.076-0.035-0.113-0.052L9.856,6.698
		C9.858,6.699,9.86,6.699,9.861,6.7c0.209,0.055,0.469,0.059,0.358,0.451c-0.148,0.033-0.325,0.071-0.503,0.111
		C9.714,7.469,9.712,7.676,9.709,7.883c0.052,0.023,0.102,0.046,0.152,0.07c0.147,0.041,0.293,0.07,0.401-0.068
		c0-0.01,0-0.021,0.001-0.031c0.008-0.001,0.016-0.002,0.024-0.003c0.064-0.126,0.119-0.26,0.2-0.373
		c0.036-0.048,0.139-0.078,0.201-0.067c0.061,0.011,0.157,0.095,0.151,0.134c-0.013,0.086-0.063,0.211-0.128,0.236
		c-0.131,0.05-0.281,0.052-0.425,0.07c-0.002,0.004-0.004,0.007-0.007,0.012c-0.006,0.008-0.012,0.015-0.019,0.022
		C10.26,8.049,10.26,8.215,10.26,8.389c-0.212,0.047-0.38,0.085-0.548,0.124C9.676,8.678,9.639,8.843,9.6,9.019
		C9.426,9.051,9.261,9.081,9.097,9.111C9.095,9.123,9.093,9.133,9.091,9.144C9.083,9.148,9.075,9.152,9.067,9.156
		C9.033,9.315,8.998,9.475,8.959,9.65C8.794,9.682,8.632,9.713,8.471,9.744C8.468,9.753,8.467,9.763,8.466,9.772
		c-0.01,0.003-0.02,0.007-0.03,0.011c0.002,0.201,0.004,0.4,0.005,0.6c0.054,0.036,0.109,0.072,0.164,0.107
		c0.372,0.066,0.379,0.069,0.462,0.512c0.009,0,0.018,0,0.026,0c0,0.012,0,0.023,0,0.035c0.205,0.079,0.412,0.153,0.608-0.022
		c0.042-0.089,0.098-0.175,0.119-0.27c0.032-0.143,0.099-0.249,0.25-0.21c0.076,0.02,0.15,0.113,0.192,0.191
		c0.047,0.087,0.059,0.194,0.087,0.292c0.047,0.019,0.093,0.04,0.137,0.065c0.075,0.022,0.169,0.023,0.221,0.07
		c0.064,0.06,0.121,0.154,0.132,0.24c0.006,0.047-0.079,0.129-0.14,0.156c-0.114,0.047-0.239,0.068-0.36,0.097
		c-0.03,0.114-0.047,0.236-0.104,0.335c-0.042,0.07-0.151,0.145-0.224,0.138c-0.063-0.007-0.137-0.114-0.168-0.191
		c-0.025-0.061,0.008-0.144,0.016-0.217v-0.001c-0.038-0.023-0.079-0.043-0.121-0.06c-0.215-0.008-0.431-0.018-0.646-0.026
		c0,0.009,0,0.018,0,0.027c-0.008,0-0.016,0-0.023,0c-0.002,0.042-0.004,0.083-0.012,0.123c-0.031,0.142-0.02,0.321-0.218,0.348
		c-0.208,0.029-0.237-0.129-0.273-0.281c-0.016-0.066-0.053-0.126-0.083-0.189c-0.013,0-0.026,0-0.038,0c0-0.009,0-0.019,0-0.028
		c-0.039-0.013-0.077-0.029-0.116-0.031c-0.27-0.015-0.403-0.166-0.43-0.425c-0.019-0.029-0.039-0.058-0.058-0.086
		c-0.039-0.027-0.076-0.075-0.117-0.078c-0.29-0.021-0.397-0.213-0.452-0.462c-0.026-0.044-0.047-0.092-0.065-0.14
		c-0.042-0.019-0.084-0.042-0.127-0.058l-2.044,2.684c0.007,0.001,0.016,0.001,0.023,0.002c0.143,0.021,0.22,0.134,0.157,0.268
		c-0.033,0.072-0.121,0.119-0.161,0.155c-0.142-0.028-0.199-0.089-0.217-0.163l-0.313,0.411c0.044,0.047,0.077,0.086,0.091,0.129
		c0.043,0.14-0.073,0.241-0.226,0.226c-0.044-0.004-0.08-0.018-0.106-0.037l-0.338,0.444c0.008,0.053,0.009,0.13,0.009,0.239
		c-0.065,0.003-0.131,0.004-0.197,0.007l-0.314,0.412c0.023,0.098,0.044,0.193,0.066,0.291c0.032,0.016,0.062,0.034,0.089,0.057
		c0.148,0.034,0.296,0.068,0.396-0.085c-0.001-0.009-0.002-0.018-0.003-0.026c0.007,0,0.015-0.001,0.022-0.002
		c0.088-0.141,0.177-0.281,0.267-0.425c0.304,0.026,0.304,0.026,0.305,0.379c-0.188,0.016-0.378,0.031-0.572,0.046
		c-0.002,0.003-0.003,0.006-0.005,0.009C4.004,15.369,4,15.375,3.995,15.382c0.027,0.214,0.056,0.43,0.085,0.645
		c0.048,0.021,0.096,0.045,0.145,0.067c0.171,0.065,0.328,0.049,0.469-0.068c0.041-0.089,0.097-0.175,0.117-0.269
		c0.031-0.142,0.092-0.229,0.247-0.217c0.159,0.013,0.196,0.126,0.211,0.26c0.009,0.074,0.032,0.146,0.047,0.221
		c0.053,0.023,0.107,0.049,0.161,0.073C5.627,16.133,5.783,16.192,5.866,16c-0.001-0.007-0.003-0.015-0.003-0.021
		c0.007-0.001,0.015-0.001,0.022-0.001c0.19-0.047,0.155-0.237,0.229-0.356c0.029-0.047,0.143-0.073,0.205-0.058
		c0.059,0.014,0.146,0.103,0.139,0.147c-0.013,0.086-0.067,0.215-0.132,0.233c-0.139,0.038-0.291,0.028-0.441,0.033
		c-0.003,0.001-0.005,0.002-0.009,0.003C5.873,15.988,5.869,15.993,5.866,16c0.032,0.218,0.066,0.437,0.101,0.655
		c0.047,0.018,0.094,0.039,0.137,0.064c0.17,0.059,0.326,0.032,0.469-0.071c0.04-0.087,0.09-0.172,0.112-0.263
		c0.033-0.141,0.098-0.227,0.25-0.212c0.158,0.016,0.188,0.134,0.211,0.263c0.013,0.073,0.042,0.144,0.063,0.216
		c0.05,0.021,0.1,0.044,0.149,0.067c0.165,0.082,0.316,0.036,0.462-0.046c0-0.012,0-0.022,0-0.036c0.01,0,0.019,0,0.029,0
		c0.032-0.058,0.066-0.115,0.083-0.178c0.038-0.147,0.046-0.315,0.264-0.292c0.161,0.019,0.182,0.148,0.204,0.276
		c0.011,0.065,0.026,0.129,0.042,0.193c0.008,0,0.018,0,0.026,0c0.006,0.016,0.01,0.028,0.015,0.042
		c0.154,0.052,0.309,0.104,0.496,0.168c0.004,0.104,0.01,0.219,0.017,0.365c-0.197,0.017-0.358,0.032-0.518,0.045
		c-0.002,0.01-0.005,0.02-0.01,0.028c-0.009,0.005-0.018,0.007-0.028,0.01c0.005,0.21-0.065,0.432,0.107,0.614
		c0.021,0.021,0.042,0.041,0.063,0.061c0.146,0.019,0.294,0.051,0.396-0.092c0-0.009-0.002-0.018-0.002-0.026
		c0.007,0,0.015,0,0.022,0c0.059-0.104,0.104-0.221,0.185-0.306c0.059-0.063,0.163-0.104,0.247-0.108
		c0.046-0.002,0.14,0.102,0.135,0.147c-0.011,0.085-0.063,0.217-0.127,0.234c-0.138,0.039-0.29,0.027-0.439,0.032
		c-0.003,0.003-0.005,0.006-0.007,0.009c-0.004,0.007-0.009,0.012-0.014,0.018c0.024,0.215,0.048,0.432,0.072,0.647
		c0.052,0.031,0.104,0.064,0.155,0.096c0.144,0.004,0.3,0.054,0.4-0.092c0-0.013,0-0.023,0-0.034
		c0.008-0.001,0.016-0.002,0.024-0.003c0.085-0.141,0.17-0.28,0.256-0.423c0.3,0.012,0.3,0.012,0.301,0.352
		c-0.183,0.023-0.368,0.047-0.557,0.071c-0.002,0.003-0.004,0.006-0.005,0.009c-0.008,0.012-0.014,0.019-0.02,0.028
		C9.63,18.693,9.63,18.857,9.63,19.038c-0.207,0.046-0.374,0.084-0.539,0.121c-0.004,0.174-0.008,0.347-0.013,0.521H9.75
		c0.028-0.055,0.052-0.109,0.064-0.166c0.031-0.142,0.092-0.23,0.248-0.22c0.16,0.013,0.198,0.123,0.214,0.258
		c0.005,0.043,0.014,0.085,0.022,0.128h0.032v0.101c0.052,0.022,0.104,0.047,0.155,0.069c0.149,0.042,0.304,0.102,0.39-0.088
		c-0.001-0.008-0.002-0.016-0.003-0.024c0.006,0,0.011,0,0.016,0c0.063-0.066,0.162-0.127,0.175-0.201
		c0.031-0.187,0.118-0.29,0.297-0.235c0.194,0.059,0.163,0.216,0.078,0.404c-0.17,0.011-0.358,0.021-0.55,0.032l-0.002,0.002
		c-0.004,0.01-0.007,0.015-0.011,0.022c0.026,0.215,0.056,0.431,0.084,0.646c0.052,0.022,0.103,0.046,0.154,0.068
		c0.121,0.037,0.243,0.073,0.367,0.111c0,0.118,0,0.219,0,0.337c-0.18,0.041-0.347,0.078-0.515,0.114
		c-0.035,0.161-0.069,0.324-0.112,0.521c-0.175,0-0.35,0-0.523,0v1.065h0.161c0.002-0.067,0.075-0.159,0.14-0.203
		c0.098-0.065,0.218-0.098,0.329-0.142c0.036-0.06,0.085-0.117,0.093-0.18c0.023-0.19,0.081-0.326,0.304-0.345
		c0.053-0.005,0.098-0.081,0.146-0.132c-0.001-0.004-0.001-0.008-0.002-0.012c0.006,0,0.012,0,0.018,0
		c0.146-0.041,0.172-0.167,0.198-0.293c0.027-0.137,0.146-0.166,0.233-0.126c0.07,0.033,0.149,0.156,0.138,0.226
		c-0.011,0.07-0.119,0.157-0.2,0.178c-0.116,0.031-0.245,0.016-0.369,0.016c-0.003,0-0.005,0.002-0.008,0.003
		c-0.002,0.002-0.005,0.006-0.008,0.009c0.033,0.223,0.071,0.446,0.108,0.671c0.045,0.018,0.088,0.038,0.128,0.062
		c0.171,0.061,0.326,0.024,0.47-0.071c0.011-0.021,0.02-0.043,0.034-0.059c0.117-0.122,0.022-0.388,0.279-0.415
		c0.322-0.031,0.23,0.285,0.351,0.425c0.017,0.019,0.033,0.04,0.051,0.06c0.021,0.02,0.045,0.04,0.067,0.059
		c0.154-0.018,0.311-0.034,0.464-0.052c0-0.009,0-0.018,0-0.027c0.008,0,0.015,0,0.022,0c0.047-0.183,0.093-0.364,0.14-0.546
		c-0.029-0.019-0.059-0.037-0.087-0.056l0,0c-0.166-0.04-0.332-0.078-0.482-0.112c-0.072-0.173-0.103-0.31,0.091-0.387
		c0.112-0.044,0.22-0.097,0.329-0.146c0.012-0.017,0.022-0.034,0.038-0.046c0.14-0.105,0.007-0.404,0.266-0.407
		c0.307-0.004,0.21,0.29,0.295,0.449c0.059,0.04,0.115,0.08,0.175,0.121c0.042,0.007,0.079,0.014,0.113,0.021v-0.881
		c-0.053-0.02-0.09-0.059-0.098-0.138c-0.01-0.083,0.001-0.159,0.098-0.198v-0.27h0.615c-0.063-0.023-0.102-0.073-0.102-0.161
		c-0.001-0.112,0.03-0.202,0.232-0.199c0.029,0.036,0.113,0.099,0.131,0.176c0.017,0.08-0.016,0.153-0.087,0.185h0.589v-0.684
		c-0.013,0.01-0.025,0.018-0.04,0.018c-0.052,0.003-0.133-0.049-0.156-0.099c-0.043-0.085,0.064-0.208,0.152-0.179
		c0.016,0.006,0.029,0.015,0.044,0.025v-1.105c-0.019,0.032-0.042,0.068-0.069,0.115c-0.06-0.094-0.125-0.153-0.115-0.192
		c0.013-0.046,0.089-0.082,0.145-0.103c0.007-0.003,0.023,0.011,0.04,0.027v-0.975c-0.018,0.024-0.035,0.05-0.054,0.079
		c-0.086-0.144-0.15-0.212-0.162-0.289C15.511,16.278,15.592,16.196,15.646,16.18z M13.79,13.045c0.141,0,0.236,0.105,0.188,0.241
		c-0.026,0.073-0.114,0.124-0.226,0.237c-0.067-0.14-0.126-0.213-0.136-0.295C13.606,13.124,13.666,13.044,13.79,13.045z
		 M13.219,12.44c0.052,0.014,0.089,0.094,0.174,0.196c-0.117,0.051-0.192,0.105-0.27,0.106c-0.035,0-0.099-0.103-0.103-0.162
		C13.014,12.453,13.116,12.412,13.219,12.44z M13.144,13.57c0.12,0.15,0.213,0.222,0.242,0.314c0.028,0.091-0.019,0.187-0.15,0.199
		c-0.157,0.014-0.239-0.065-0.233-0.207C13.006,13.8,13.07,13.725,13.144,13.57z M12.382,11.951c0.011-0.059,0.08-0.146,0.125-0.147
		c0.08-0.004,0.161,0.049,0.336,0.112c-0.146,0.115-0.209,0.204-0.285,0.216C12.45,12.15,12.355,12.078,12.382,11.951z
		 M12.693,13.194c0.002,0.055-0.05,0.141-0.103,0.167c-0.091,0.048-0.22-0.062-0.189-0.156c0.02-0.059,0.082-0.103,0.145-0.177
		C12.612,13.097,12.69,13.145,12.693,13.194z M12.377,14.487c0.015-0.079,0.097-0.145,0.187-0.271
		c0.1,0.124,0.184,0.185,0.208,0.265c0.029,0.101-0.006,0.202-0.145,0.217C12.479,14.713,12.352,14.624,12.377,14.487z
		 M13.779,3.002c0.146-0.017,0.228,0.069,0.219,0.293c-0.035,0.026-0.096,0.103-0.173,0.125c-0.134,0.037-0.221-0.065-0.221-0.222
		C13.604,3.078,13.665,3.016,13.779,3.002z M13.795,4.259c0.156-0.004,0.216,0.088,0.217,0.232c0,0.107-0.031,0.194-0.156,0.202
		c-0.136,0.009-0.244-0.022-0.271-0.367C13.589,4.364,13.632,4.263,13.795,4.259z M13.49,5.191c-0.162,0.05-0.246,0.098-0.326,0.094
		c-0.129-0.005-0.206-0.145-0.165-0.27c0.038-0.116,0.143-0.158,0.231-0.111C13.316,4.948,13.37,5.054,13.49,5.191z M13.001,3.795
		c0.027-0.073,0.116-0.124,0.226-0.23c0.077,0.13,0.147,0.203,0.158,0.283c0.018,0.137-0.121,0.223-0.26,0.181
		C13.008,3.992,12.966,3.893,13.001,3.795z M9.458,10.3c-0.125,0.048-0.249-0.057-0.234-0.195c0.009-0.078,0.072-0.15,0.148-0.296
		c0.122,0.14,0.22,0.21,0.247,0.301C9.634,10.155,9.531,10.272,9.458,10.3z M5.231,14.479c-0.016,0.08-0.089,0.149-0.173,0.283
		c-0.1-0.117-0.18-0.174-0.206-0.25c-0.034-0.1,0.001-0.197,0.127-0.224C5.123,14.26,5.256,14.349,5.231,14.479z M5.476,12.59
		c0.009-0.073,0.099-0.136,0.216-0.281c0.066,0.174,0.122,0.255,0.116,0.332c-0.002,0.048-0.092,0.116-0.153,0.129
		C5.521,12.802,5.462,12.69,5.476,12.59z M5.685,15.308c-0.116,0.053-0.227-0.064-0.22-0.211c0.004-0.117,0.069-0.195,0.182-0.177
		c0.079,0.014,0.147,0.084,0.272,0.16C5.81,15.189,5.759,15.274,5.685,15.308z M5.705,14.04c-0.122,0.061-0.241-0.038-0.239-0.184
		c0.001-0.104,0.038-0.206,0.166-0.187c0.081,0.012,0.155,0.068,0.289,0.131C5.821,13.916,5.776,14.005,5.705,14.04z M6.28,11.845
		c0.056,0.019,0.097,0.078,0.168,0.139c-0.068,0.061-0.112,0.133-0.161,0.136c-0.053,0.002-0.134-0.048-0.158-0.096
		C6.087,11.939,6.194,11.816,6.28,11.845z M6.117,13.213c0.021-0.073,0.102-0.131,0.134-0.167c0.2,0.025,0.245,0.137,0.202,0.226
		c-0.031,0.063-0.155,0.098-0.242,0.108C6.185,13.384,6.103,13.26,6.117,13.213z M6.288,14.643
		c-0.109,0.018-0.206-0.056-0.178-0.184c0.012-0.06,0.084-0.146,0.13-0.146c0.081-0.003,0.163,0.051,0.341,0.117
		C6.431,14.543,6.365,14.63,6.288,14.643z M6.888,11.116c0.111,0.076,0.206,0.106,0.22,0.159c0.029,0.107-0.028,0.21-0.153,0.208
		c-0.062,0-0.174-0.067-0.173-0.101C6.783,11.301,6.84,11.222,6.888,11.116z M6.945,12.334c0.063,0.166,0.116,0.243,0.111,0.317
		c-0.003,0.045-0.116,0.132-0.139,0.119c-0.07-0.036-0.163-0.105-0.171-0.17C6.74,12.542,6.836,12.473,6.945,12.334z M6.909,15.281
		c-0.072-0.021-0.158-0.116-0.168-0.188c-0.009-0.063,0.078-0.14,0.154-0.261c0.107,0.107,0.196,0.158,0.222,0.233
		C7.161,15.194,7.042,15.319,6.909,15.281z M6.962,14.048c-0.152,0.033-0.244-0.071-0.234-0.224
		c0.009-0.144,0.115-0.174,0.216-0.155c0.082,0.015,0.152,0.088,0.296,0.177C7.104,13.947,7.04,14.031,6.962,14.048z M9.273,12.57
		c0.014-0.057,0.081-0.131,0.132-0.139c0.052-0.008,0.117,0.055,0.196,0.097c-0.053,0.083-0.079,0.162-0.133,0.197
		C9.392,12.774,9.25,12.664,9.273,12.57z M8.799,13.075c0.06,0.015,0.103,0.086,0.203,0.174c-0.112,0.068-0.183,0.134-0.261,0.148
		c-0.033,0.006-0.118-0.094-0.125-0.152C8.603,13.131,8.67,13.042,8.799,13.075z M8.104,12.446c0.074,0.004,0.146,0.058,0.253,0.106
		c-0.08,0.1-0.112,0.18-0.162,0.194C8.091,12.776,8,12.724,8.007,12.605C8.01,12.547,8.072,12.445,8.104,12.446z M7.482,11.755
		c0.104,0.066,0.214,0.115,0.209,0.135c-0.02,0.081-0.066,0.162-0.125,0.216c-0.018,0.017-0.163-0.051-0.166-0.086
		C7.396,11.944,7.445,11.865,7.482,11.755z M7.353,13.189c0.025-0.128,0.122-0.169,0.221-0.128c0.076,0.031,0.126,0.12,0.237,0.232
		c-0.129,0.075-0.201,0.147-0.28,0.157C7.396,13.47,7.322,13.344,7.353,13.189z M7.592,16.027c-0.115-0.121-0.198-0.175-0.229-0.249
		c-0.041-0.1-0.007-0.201,0.115-0.238c0.138-0.04,0.277,0.049,0.262,0.184C7.731,15.806,7.667,15.881,7.592,16.027z M7.762,14.1
		c0,0.001-0.002,0.002-0.003,0.004c-0.003,0.002-0.007,0.004-0.012,0.007c0.002,0.147,0.02,0.299,0.004,0.446
		c-0.004,0.051-0.109,0.134-0.156,0.126c-0.084-0.012-0.182-0.065-0.233-0.135c-0.032-0.043-0.018-0.174,0.024-0.209
		c0.106-0.092,0.238-0.155,0.361-0.229c0-0.004,0-0.008,0-0.01C7.752,14.1,7.757,14.1,7.762,14.1
		c0.093-0.14,0.185-0.279,0.277-0.421c0.299,0.029,0.299,0.029,0.299,0.387C8.148,14.076,7.955,14.087,7.762,14.1z M9.482,16.527
		c-0.193,0.021-0.252-0.066-0.25-0.171c0.002-0.06,0.087-0.169,0.114-0.164c0.082,0.021,0.191,0.067,0.218,0.133
		C9.587,16.379,9.506,16.475,9.482,16.527z M10.083,17.133c-0.104,0.028-0.205-0.018-0.199-0.143
		c0.003-0.058,0.069-0.159,0.105-0.158c0.077,0,0.152,0.054,0.271,0.104C10.173,17.038,10.137,17.118,10.083,17.133z M10.331,15.657
		h-0.118c0.018,0.036,0.017,0.076-0.002,0.114c-0.031,0.063-0.152,0.095-0.239,0.107c-0.025,0.002-0.106-0.121-0.094-0.165
		c0.007-0.021,0.018-0.039,0.032-0.057H8.963c0.024,0.015,0.049,0.03,0.079,0.046c-0.12,0.104-0.185,0.203-0.25,0.202
		c-0.063-0.001-0.16-0.092-0.183-0.161c-0.009-0.03-0.008-0.061-0.002-0.087H8.091l0.764-1.003
		c-0.004,0.003-0.009,0.006-0.012,0.007c-0.132,0.054-0.283,0.061-0.427,0.083c-0.002,0.005-0.005,0.01-0.007,0.016
		c-0.007,0.003-0.014,0.006-0.021,0.01c-0.012,0.166-0.021,0.332-0.03,0.491c-0.336,0.042-0.336,0.042-0.395-0.271
		c0.139-0.071,0.281-0.147,0.425-0.221c0-0.008,0-0.015,0.001-0.021c0.009-0.002,0.018-0.003,0.026-0.004
		c0.062-0.128,0.108-0.27,0.198-0.374c0.05-0.057,0.18-0.055,0.274-0.058c0.031-0.001,0.093,0.081,0.084,0.106
		c-0.014,0.046-0.031,0.103-0.053,0.148l0.421-0.551c-0.038-0.028-0.096-0.092-0.095-0.128c0.002-0.074,0.063-0.146,0.142-0.311
		c0.053,0.083,0.105,0.146,0.139,0.193l0.378-0.496c-0.008-0.021-0.011-0.04-0.006-0.06c0.017-0.055,0.079-0.127,0.13-0.135
		c0.007-0.001,0.015,0.001,0.021,0.002l0.281-0.368V15.657z M10.621,12.367c0.099,0.083,0.196,0.141,0.189,0.165
		c-0.026,0.075-0.079,0.148-0.142,0.197c-0.017,0.013-0.148-0.064-0.148-0.101C10.521,12.555,10.573,12.48,10.621,12.367z
		 M10.802,13.856c0.016,0.093-0.129,0.194-0.198,0.141c-0.049-0.039-0.09-0.127-0.081-0.185c0.009-0.05,0.093-0.087,0.165-0.15
		C10.737,13.744,10.791,13.797,10.802,13.856z M10.643,14.926c0.104,0.001,0.205,0.019,0.225,0.212
		c-0.043,0.039-0.101,0.126-0.177,0.149c-0.108,0.032-0.198-0.026-0.203-0.155C10.481,15.022,10.505,14.925,10.643,14.926z
		 M10.592,17.437c0.196-0.01,0.273,0.075,0.246,0.181c-0.019,0.071-0.126,0.13-0.207,0.164c-0.022,0.009-0.13-0.094-0.128-0.145
		C10.505,17.561,10.568,17.485,10.592,17.437z M10.519,16.416c-0.007-0.078,0.043-0.159,0.081-0.273
		c0.107,0.067,0.201,0.093,0.219,0.145c0.033,0.097-0.001,0.207-0.124,0.218C10.635,16.51,10.521,16.452,10.519,16.416z
		 M10.608,19.069c-0.122-0.039-0.159-0.143-0.124-0.242c0.027-0.074,0.115-0.127,0.226-0.24c0.078,0.14,0.15,0.213,0.161,0.296
		C10.889,19.023,10.748,19.112,10.608,19.069z M10.968,9.767c-0.025,0.119-0.038,0.244-0.089,0.352
		c-0.035,0.076-0.123,0.166-0.198,0.179c-0.159,0.026-0.214-0.098-0.216-0.238c-0.001-0.075,0.014-0.151,0.021-0.228
		c-0.053-0.025-0.106-0.049-0.16-0.073c-0.097-0.023-0.204-0.029-0.289-0.075C9.963,9.643,9.871,9.559,9.864,9.487
		c-0.006-0.068,0.073-0.168,0.142-0.214c0.097-0.066,0.216-0.098,0.326-0.143c0.041-0.084,0.093-0.167,0.114-0.256
		c0.031-0.137,0.084-0.234,0.241-0.22c0.159,0.014,0.188,0.133,0.209,0.263c0.012,0.074,0.038,0.145,0.06,0.217
		c0.053,0.024,0.104,0.047,0.158,0.071c0.116,0.041,0.235,0.082,0.361,0.125c0,0.103,0,0.199,0,0.31
		C11.295,9.684,11.131,9.725,10.968,9.767z M11.114,8.179c0.026-0.072,0.113-0.123,0.22-0.23c0.077,0.131,0.149,0.203,0.159,0.282
		c0.017,0.134-0.124,0.223-0.257,0.182C11.117,8.375,11.078,8.275,11.114,8.179z M11.239,18.435
		c-0.12-0.037-0.159-0.138-0.123-0.235c0.027-0.073,0.113-0.124,0.223-0.233c0.078,0.134,0.149,0.206,0.159,0.286
		C11.516,18.389,11.375,18.478,11.239,18.435z M11.275,14.321c0.119-0.028,0.192,0.06,0.178,0.163
		c-0.01,0.073-0.093,0.137-0.197,0.278c-0.067-0.165-0.121-0.241-0.12-0.316C11.136,14.401,11.218,14.334,11.275,14.321z
		 M11.148,13.211c0.015-0.055,0.079-0.126,0.13-0.134c0.049-0.009,0.112,0.053,0.189,0.096c-0.053,0.078-0.078,0.153-0.131,0.186
		C11.259,13.406,11.124,13.302,11.148,13.211z M11.312,15.88c-0.059,0.005-0.172-0.053-0.175-0.089
		c-0.007-0.079,0.043-0.161,0.079-0.275c0.108,0.067,0.201,0.094,0.219,0.146C11.468,15.757,11.435,15.869,11.312,15.88z
		 M11.221,16.829c0.078-0.002,0.156,0.047,0.266,0.086c-0.064,0.106-0.09,0.2-0.142,0.217c-0.097,0.036-0.201-0.005-0.209-0.127
		C11.133,16.944,11.188,16.831,11.221,16.829z M11.217,12.112c-0.034-0.001-0.091-0.115-0.087-0.175
		c0.012-0.123,0.121-0.154,0.216-0.12c0.051,0.018,0.077,0.107,0.145,0.212C11.377,12.068,11.296,12.117,11.217,12.112z
		 M11.295,10.887c-0.103,0.02-0.182-0.046-0.188-0.169c-0.005-0.123,0.068-0.193,0.174-0.183c0.077,0.007,0.148,0.078,0.289,0.159
		C11.436,10.792,11.371,10.873,11.295,10.887z M11.304,7.147c-0.129,0.024-0.223-0.102-0.193-0.24
		c0.024-0.124,0.118-0.16,0.217-0.126c0.076,0.025,0.134,0.1,0.256,0.197C11.45,7.061,11.381,7.132,11.304,7.147z M11.923,6.146
		c0.082,0.012,0.154,0.082,0.289,0.159c-0.119,0.11-0.175,0.196-0.252,0.225c-0.129,0.047-0.236-0.064-0.231-0.211
		C11.732,6.19,11.815,6.129,11.923,6.146z M12.138,7.6c0.014,0.043-0.09,0.164-0.16,0.185c-0.144,0.045-0.242-0.046-0.238-0.191
		c0.003-0.074,0.074-0.147,0.151-0.287C12.012,7.441,12.107,7.51,12.138,7.6z M11.871,8.649c0.136-0.024,0.246,0.012,0.304,0.214
		c-0.047,0.051-0.096,0.148-0.168,0.172c-0.13,0.042-0.252,0.001-0.279-0.162C11.709,8.759,11.753,8.671,11.871,8.649z
		 M12.116,10.243c-0.354,0.056-0.354,0.056-0.365-0.328C12.108,9.944,12.108,9.944,12.116,10.243z M11.892,12.449
		c0.057-0.004,0.143,0.048,0.17,0.1c0.048,0.09-0.059,0.213-0.159,0.185c-0.059-0.017-0.105-0.078-0.182-0.139
		C11.793,12.529,11.841,12.452,11.892,12.449z M12.058,13.883c-0.021,0.051-0.102,0.107-0.153,0.106c-0.05,0-0.1-0.071-0.172-0.13
		c0.068-0.066,0.108-0.131,0.165-0.151C11.993,13.673,12.097,13.783,12.058,13.883z M11.939,20.285
		c-0.069-0.001-0.178-0.079-0.198-0.146c-0.019-0.06,0.054-0.151,0.114-0.296c0.112,0.113,0.198,0.163,0.226,0.237
		C12.119,20.186,12.043,20.286,11.939,20.285z M12.088,18.858c-0.011,0.076-0.09,0.142-0.185,0.277
		c-0.085-0.137-0.157-0.205-0.167-0.281c-0.014-0.104,0.053-0.181,0.177-0.179C12.033,18.679,12.104,18.755,12.088,18.858z
		 M11.97,17.914c-0.115-0.128-0.199-0.183-0.226-0.258c-0.034-0.101,0-0.204,0.137-0.218c0.115-0.012,0.215,0.027,0.215,0.152
		C12.096,17.671,12.036,17.752,11.97,17.914z M11.959,16.496c-0.086,0.05-0.222-0.055-0.196-0.151
		c0.015-0.057,0.082-0.131,0.134-0.139c0.054-0.008,0.119,0.056,0.202,0.101C12.042,16.388,12.015,16.465,11.959,16.496z
		 M12.107,15.119c-0.024,0.074-0.122,0.122-0.159,0.155c-0.205-0.027-0.221-0.142-0.193-0.235c0.014-0.051,0.115-0.105,0.177-0.105
		C12.036,14.934,12.151,14.989,12.107,15.119z M11.926,11.508c-0.108,0.018-0.202-0.057-0.175-0.185
		c0.013-0.059,0.084-0.145,0.13-0.146c0.079-0.002,0.16,0.052,0.336,0.119C12.068,11.409,12.004,11.495,11.926,11.508z M12.568,4.27
		c0.043,0.043,0.135,0.094,0.158,0.167c0.035,0.124-0.07,0.189-0.177,0.189c-0.059,0-0.153-0.063-0.168-0.115
		C12.354,4.415,12.378,4.308,12.568,4.27z M12.358,5.657c0.032-0.125,0.134-0.157,0.233-0.117c0.075,0.03,0.131,0.113,0.25,0.223
		c-0.143,0.075-0.216,0.142-0.298,0.152C12.406,5.932,12.321,5.799,12.358,5.657z M12.717,20.782
		c-0.032,0.063-0.156,0.096-0.244,0.106c-0.026,0.004-0.109-0.122-0.096-0.166c0.022-0.073,0.104-0.13,0.137-0.166
		C12.714,20.582,12.761,20.691,12.717,20.782z M12.386,19.438c0-0.037,0.098-0.102,0.153-0.104c0.124-0.006,0.162,0.098,0.137,0.196
		c-0.014,0.053-0.091,0.089-0.191,0.177C12.438,19.588,12.384,19.513,12.386,19.438z M12.485,18.38
		c-0.036,0-0.102-0.103-0.104-0.162c-0.007-0.129,0.098-0.167,0.199-0.141c0.054,0.015,0.089,0.095,0.178,0.196
		C12.64,18.324,12.563,18.379,12.485,18.38z M12.52,17.146c-0.042,0.002-0.118-0.08-0.133-0.137c-0.03-0.118,0.05-0.199,0.159-0.189
		c0.075,0.008,0.143,0.084,0.295,0.182C12.674,17.081,12.599,17.141,12.52,17.146z M13.004,17.544
		c0.013-0.051,0.106-0.114,0.167-0.115c0.103-0.002,0.213,0.056,0.175,0.184c-0.022,0.074-0.111,0.128-0.147,0.165
		C12.995,17.751,12.98,17.638,13.004,17.544z M13.345,18.807c-0.056,0.079-0.082,0.155-0.136,0.186
		c-0.083,0.05-0.217-0.054-0.191-0.148c0.014-0.055,0.079-0.126,0.13-0.134C13.201,18.701,13.264,18.763,13.345,18.807z
		 M13.174,20.285c-0.064-0.006-0.14-0.101-0.172-0.173c-0.014-0.031,0.068-0.148,0.111-0.15c0.076-0.006,0.156,0.048,0.316,0.107
		C13.298,20.186,13.231,20.29,13.174,20.285z M13.846,19.627c-0.092,0.045-0.219-0.062-0.188-0.152
		c0.021-0.058,0.081-0.102,0.194-0.234c0.046,0.097,0.1,0.16,0.097,0.223C13.946,19.52,13.897,19.602,13.846,19.627z M13.646,18.204
		c0-0.051,0.07-0.102,0.131-0.176c0.064,0.071,0.13,0.113,0.147,0.17c0.031,0.102-0.08,0.208-0.173,0.166
		C13.699,18.341,13.646,18.259,13.646,18.204z M13.799,17.152c-0.07-0.013-0.163-0.105-0.175-0.174
		c-0.01-0.063,0.074-0.144,0.16-0.29c0.095,0.139,0.171,0.203,0.184,0.278C13.985,17.072,13.91,17.173,13.799,17.152z
		 M14.558,18.903c-0.019,0.05-0.1,0.108-0.15,0.108c-0.049-0.002-0.099-0.073-0.232-0.188c0.098-0.045,0.158-0.08,0.225-0.099
		C14.495,18.697,14.595,18.803,14.558,18.903z M14.398,17.732c-0.09,0.015-0.188-0.132-0.136-0.2
		c0.037-0.047,0.126-0.088,0.181-0.079c0.049,0.009,0.085,0.094,0.145,0.166C14.508,17.669,14.457,17.724,14.398,17.732z
		 M14.357,16.502c-0.037,0.002-0.104-0.106-0.107-0.169c-0.007-0.132,0.1-0.174,0.206-0.146c0.054,0.015,0.091,0.098,0.183,0.202
		C14.516,16.442,14.438,16.5,14.357,16.502z M15.024,18.359c-0.044-0.007-0.107-0.092-0.105-0.138
		c0.004-0.048,0.076-0.091,0.144-0.165c0.049,0.091,0.107,0.151,0.099,0.198C15.152,18.301,15.066,18.366,15.024,18.359z
		 M15.08,17.142c-0.08-0.053-0.153-0.077-0.187-0.129c-0.049-0.08,0.052-0.209,0.145-0.186c0.057,0.013,0.128,0.074,0.137,0.124
		C15.183,17.001,15.121,17.063,15.08,17.142z"/>
	<path fill="#E5E5E5" d="M14.013,6.615c0.019,0.21,0.04,0.42,0.063,0.63c0.009,0,0.019,0,0.027,0
		c0.003,0.009,0.005,0.018,0.007,0.026c0.081,0.026,0.16,0.052,0.245,0.079V6.568c-0.108,0.008-0.217,0.015-0.326,0.022
		c0,0.002-0.002,0.003-0.003,0.004C14.021,6.604,14.018,6.608,14.013,6.615z"/>
	<path fill="#E5E5E5" d="M12.847,9.126c-0.004,0.006-0.011,0.011-0.017,0.017l0,0L12.847,9.126z"/>
	<polygon fill="#E5E5E5" points="12.847,7.874 12.833,7.88 12.83,7.89 	"/>
	<polygon fill="#E5E5E5" points="12.83,9.143 12.83,9.143 12.83,9.143 	"/>
	<polygon fill="#E5E5E5" points="12.842,6.63 12.841,6.63 12.839,6.631 	"/>
	<polygon fill="#E5E5E5" points="13.475,11.003 13.46,11.01 13.456,11.022 	"/>
	<path fill="#E5E5E5" d="M14.099,11.646c0.001-0.004,0.002-0.01,0.004-0.015l-0.02,0.019C14.089,11.648,14.094,11.647,14.099,11.646
		z"/>
	<polygon fill="#E5E5E5" points="13.474,21.024 13.468,21.027 13.458,21.039 	"/>
	<path fill="#E5E5E5" d="M9.699,7.265c0.006-0.001,0.012-0.002,0.018-0.003c0-0.005,0-0.009,0-0.014L9.699,7.265z"/>
	<polygon fill="#E5E5E5" points="12.209,22.284 12.204,22.293 12.222,22.276 	"/>
	<polygon fill="#E5E5E5" points="9.713,8.505 9.705,8.514 9.712,8.512 9.713,8.505 	"/>
	<path fill="#E5E5E5" d="M10.951,9.772c0.006-0.002,0.012-0.003,0.017-0.005c0.001-0.004,0.002-0.01,0.004-0.016L10.951,9.772z"/>
	<polygon fill="#E5E5E5" points="10.343,9.124 10.332,9.13 10.324,9.144 	"/>
	<polygon fill="#E5E5E5" points="9.713,8.505 9.713,8.505 9.713,8.505 	"/>
	<polygon fill="#E5E5E5" points="10.961,22.279 10.951,22.294 10.971,22.275 	"/>
	<polygon fill="#E5E5E5" points="9.717,11.002 9.702,11.015 9.698,11.022 	"/>
	<path fill="#E5E5E5" d="M10.324,11.65c0.006-0.002,0.011-0.003,0.016-0.004c0.001-0.005,0.002-0.011,0.004-0.017L10.324,11.65z"/>
	<polygon fill="#E5E5E5" points="14.101,14.134 14.088,14.144 14.082,14.153 	"/>
	<path fill="#E5E5E5" d="M8.334,19.112c-0.298,0.007-0.395-0.182-0.435-0.432l0,0l0,0c-0.013-0.018-0.021-0.039-0.033-0.06
		c-0.008-0.016-0.019-0.031-0.025-0.048c-0.197-0.137-0.41-0.113-0.625-0.071c-0.001,0.013-0.003,0.023-0.004,0.034
		c-0.009,0.006-0.018,0.01-0.027,0.014c-0.032,0.155-0.064,0.311-0.1,0.484c-0.169,0.032-0.333,0.063-0.495,0.096
		c-0.002,0.011-0.003,0.021-0.004,0.033c-0.008,0.005-0.017,0.009-0.025,0.013c-0.033,0.154-0.066,0.31-0.105,0.492
		C6.439,19.671,6.419,19.676,6.4,19.68h1.021c-0.054-0.037-0.088-0.109-0.076-0.195c0.01-0.078,0.08-0.146,0.167-0.294
		c0.107,0.149,0.2,0.228,0.217,0.319c0.008,0.045-0.065,0.13-0.131,0.17h1.131c-0.111-0.073-0.185-0.19-0.203-0.372
		c-0.022-0.039-0.042-0.079-0.061-0.12C8.421,19.161,8.376,19.111,8.334,19.112z"/>
	<path fill="#E5E5E5" d="M7.82,10.397c0.006,0,0.013,0,0.02-0.001c0-0.005,0-0.012,0-0.019L7.82,10.397z"/>
	<path fill="#E5E5E5" d="M7.842,11.081c0.019,0.029,0.039,0.058,0.058,0.086c0.182-0.047,0.364-0.095,0.545-0.142
		c0-0.007,0-0.015,0-0.022c0.009,0,0.019,0,0.028,0c0.044-0.17,0.088-0.341,0.131-0.512c-0.055-0.036-0.109-0.072-0.164-0.107
		C8.24,10.387,8.04,10.391,7.84,10.396C7.84,10.624,7.841,10.852,7.842,11.081z"/>
	<path fill="#E5E5E5" d="M7.918,9.77c-0.134,0-0.268,0-0.4,0l-0.309,0.403c0,0.076-0.001,0.152-0.001,0.227
		c0.018,0.048,0.039,0.096,0.065,0.14c0.183-0.053,0.366-0.105,0.549-0.158C7.854,10.178,7.887,9.974,7.918,9.77z"/>
	<path fill="#E5E5E5" d="M7.822,10.382c0,0.004-0.001,0.01-0.002,0.015l0.02-0.02C7.834,10.379,7.828,10.381,7.822,10.382z"/>
	<polygon fill="#E5E5E5" points="7.919,9.77 7.919,9.77 7.919,9.77 7.918,9.769 7.918,9.77 7.919,9.77 	"/>
	<path fill="#E5E5E5" d="M8.466,18.518c-0.006,0.001-0.01,0.003-0.016,0.004c0,0.006-0.002,0.011-0.003,0.016L8.466,18.518z"/>
	<path fill="#E5E5E5" d="M7.84,17.912c-0.007,0.002-0.015,0.004-0.022,0.006c0.008,0.219,0.016,0.437,0.024,0.655
		c0.006,0.017,0.017,0.031,0.025,0.048c0.011,0.021,0.02,0.042,0.033,0.06l0,0c0.184-0.052,0.368-0.104,0.55-0.159
		c0.053-0.184,0.105-0.367,0.158-0.551c-0.021-0.02-0.042-0.04-0.063-0.061c-0.231-0.008-0.462-0.018-0.694-0.025
		C7.847,17.894,7.844,17.903,7.84,17.912z"/>
	<path fill="#E5E5E5" d="M8.446,18.537c0.006,0,0.013,0,0.02,0c0-0.006,0-0.013,0-0.02L8.446,18.537z"/>
	<polygon fill="#E5E5E5" points="9.078,19.149 9.075,19.163 9.091,19.145 	"/>
	<path fill="#E5E5E5" d="M9.076,18.526c-0.204,0.004-0.406,0.007-0.61,0.011c0,0.217,0,0.433-0.001,0.65l0,0
		c0.019,0.041,0.039,0.081,0.061,0.12c0.186-0.053,0.368-0.105,0.552-0.158c0.051-0.176,0.103-0.352,0.153-0.527
		C9.181,18.591,9.128,18.558,9.076,18.526z"/>
	<path fill="#E5E5E5" d="M13.475,11.022c0-0.006,0-0.012,0-0.019l-0.019,0.019C13.463,11.022,13.469,11.022,13.475,11.022z"/>
	<path fill="#E5E5E5" d="M14.103,11.631c-0.004,0.001-0.008,0.002-0.01,0.003c-0.004,0.005-0.006,0.01-0.01,0.016L14.103,11.631z"/>
	<path fill="#E5E5E5" d="M14.147,11.034c-0.223-0.003-0.448-0.007-0.673-0.012c-0.002,0.207-0.005,0.414-0.006,0.62
		c0.021,0.05,0.044,0.099,0.066,0.149c0.186-0.053,0.372-0.105,0.558-0.158c0.114-0.188,0.112-0.392,0.082-0.6H14.147z"/>
	<path fill="#E5E5E5" d="M10.947,6.026l0.035-0.038c0.044-0.18,0.087-0.359,0.132-0.54l0,0c-0.051-0.023-0.1-0.045-0.148-0.069
		c-0.036,0-0.07,0.001-0.106,0.001l-0.486,0.641c0.037,0.018,0.075,0.034,0.113,0.052C10.648,6.133,10.802,6.122,10.947,6.026z"/>
	<polygon fill="#E5E5E5" points="10.331,20.409 10.342,20.398 10.331,20.406 	"/>
	<path fill="#E5E5E5" d="M10.331,20.397c0.052-0.182,0.104-0.365,0.155-0.548c-0.051-0.022-0.104-0.047-0.155-0.069V20.397z"/>
	<polygon fill="#E5E5E5" points="10.331,20.409 10.331,20.414 10.342,20.414 10.342,20.398 	"/>
	<polygon fill="#E5E5E5" points="10.954,21.034 10.951,21.042 10.971,21.022 	"/>
	<path fill="#E5E5E5" d="M10.96,20.407c-0.206,0.002-0.411,0.004-0.618,0.007c-0.003,0.165-0.007,0.33-0.011,0.494v0.124
		c0.053,0.022,0.104,0.048,0.156,0.07c0.169,0.063,0.326,0.043,0.467-0.068c0.053-0.185,0.106-0.371,0.16-0.559
		C11.063,20.453,11.012,20.43,10.96,20.407z"/>
	<path fill="#E5E5E5" d="M9.706,8.51C9.758,8.324,9.81,8.138,9.861,7.953c-0.051-0.023-0.101-0.047-0.152-0.07
		c-0.204-0.006-0.408-0.014-0.612-0.02C9.095,7.872,9.094,7.882,9.092,7.892C9.085,7.893,9.078,7.894,9.071,7.896
		C9.08,8.102,9.089,8.308,9.099,8.515c0.029,0.008,0.059,0.019,0.087,0.029C9.368,8.658,9.54,8.626,9.706,8.51z"/>
	<polygon fill="#E5E5E5" points="9.713,8.505 9.706,8.51 9.705,8.514 	"/>
	<polygon fill="#E5E5E5" points="13.458,21.039 13.47,21.039 13.474,21.024 	"/>
	<path fill="#E5E5E5" d="M13.47,21.039c-0.052,0.218-0.064,0.432,0.061,0.634l0,0c0.028,0.019,0.058,0.037,0.087,0.056
		c0.154-0.019,0.31-0.036,0.464-0.055c-0.001-0.01-0.001-0.018-0.001-0.027c0.009,0,0.016,0,0.023,0
		c0.045-0.167,0.092-0.334,0.138-0.502c-0.06-0.041-0.116-0.081-0.175-0.121C13.867,21.029,13.668,21.034,13.47,21.039z"/>
	<polygon fill="#E5E5E5" points="3.438,16.031 3.438,16.031 3.438,16.031 	"/>
	<path fill="#E5E5E5" d="M3.599,15.467c-0.027-0.022-0.057-0.041-0.089-0.057c-0.095-0.001-0.19-0.001-0.287-0.002l-0.395,0.52
		c0.028,0.059,0.073,0.114,0.146,0.165c0.156-0.025,0.312-0.051,0.468-0.077C3.495,15.833,3.547,15.649,3.599,15.467z"/>
	<polygon fill="#E5E5E5" points="2.975,16.093 2.972,16.093 2.975,16.093 	"/>
	<path fill="#E5E5E5" d="M3.442,16.016c-0.001,0.006-0.003,0.011-0.005,0.016l0.017-0.018C3.451,16.015,3.446,16.016,3.442,16.016z"
		/>
	<path fill="#E5E5E5" d="M9.698,11.022c0.007,0,0.014,0,0.02,0c-0.001-0.006-0.001-0.013-0.001-0.02L9.698,11.022z"/>
	<path fill="#E5E5E5" d="M9.739,11.649c0.042,0.017,0.083,0.037,0.121,0.06v0.001c0.167,0.047,0.325,0.034,0.467-0.069
		c0.055-0.186,0.107-0.372,0.16-0.558c-0.044-0.025-0.09-0.046-0.137-0.065c-0.211,0.002-0.422,0.003-0.633,0.004
		C9.726,11.232,9.732,11.44,9.739,11.649z"/>
	<path fill="#E5E5E5" d="M10.344,11.63c-0.005,0.004-0.011,0.007-0.017,0.011c-0.001,0.002-0.001,0.006-0.003,0.009L10.344,11.63z"
		/>
	<path fill="#E5E5E5" d="M10.951,22.294c0.007,0,0.013,0,0.019,0c0-0.007,0-0.012,0.001-0.019L10.951,22.294z"/>
	<path fill="#E5E5E5" d="M10.97,22.294c-0.004,0.11-0.006,0.221-0.01,0.33h0.711c0.022-0.091,0.046-0.179,0.068-0.269
		c-0.04-0.023-0.083-0.044-0.128-0.062C11.398,22.294,11.184,22.294,10.97,22.294z"/>
	<path fill="#E5E5E5" d="M12.218,22.293c-0.017,0.111-0.034,0.223-0.03,0.331h0.727c0.026-0.091,0.052-0.18,0.077-0.271
		c-0.022-0.019-0.046-0.039-0.067-0.059C12.688,22.294,12.454,22.294,12.218,22.293z"/>
	<path fill="#E5E5E5" d="M12.204,22.293c0.005,0,0.01,0,0.014,0c0.002-0.006,0.002-0.011,0.004-0.017L12.204,22.293z"/>
	<path fill="#E5E5E5" d="M13.465,9.754c-0.003,0.006-0.006,0.011-0.009,0.017l0.02-0.02C13.472,9.752,13.469,9.753,13.465,9.754z"/>
	<path fill="#E5E5E5" d="M13.48,9.146c-0.008,0-0.016,0-0.024,0c0-0.007,0-0.016,0-0.023c-0.203,0.006-0.405,0.013-0.609,0.02
		c0.001,0.231,0.003,0.462,0.004,0.694c0.019,0.027,0.038,0.052,0.059,0.078c0.185-0.054,0.37-0.108,0.556-0.161
		C13.584,9.555,13.537,9.351,13.48,9.146z"/>
	<path fill="#E5E5E5" d="M12.83,9.143L12.83,9.143L12.83,9.143c0.006,0,0.012,0,0.017,0c0-0.005,0-0.011,0-0.017L12.83,9.143z"/>
	<path fill="#E5E5E5" d="M10.954,9.763c0.053-0.186,0.106-0.372,0.16-0.559c-0.054-0.023-0.105-0.047-0.158-0.071
		c-0.205,0.004-0.408,0.006-0.613,0.01c-0.005,0.205-0.011,0.41-0.017,0.615c0.054,0.024,0.107,0.048,0.16,0.073
		C10.654,9.879,10.813,9.867,10.954,9.763z"/>
	<path fill="#E5E5E5" d="M10.972,9.751c-0.006,0.005-0.012,0.008-0.018,0.012c-0.001,0.003-0.002,0.006-0.003,0.009L10.972,9.751z"
		/>
	<path fill="#E5E5E5" d="M10.324,9.144c0.006,0,0.013,0,0.019,0c0-0.006,0-0.013,0-0.02L10.324,9.144z"/>
	<polygon fill="#E5E5E5" points="12.839,6.631 12.842,6.631 12.842,6.63 	"/>
	<path fill="#E5E5E5" d="M13.455,7.245c0.01,0,0.02,0,0.029,0c0.045-0.181,0.089-0.363,0.135-0.544
		c-0.042-0.025-0.085-0.046-0.13-0.063c-0.217-0.002-0.433-0.003-0.647-0.006c0.004,0.21,0.011,0.421,0.017,0.632
		c0.046,0.018,0.09,0.039,0.133,0.064c0.154-0.021,0.31-0.042,0.464-0.063C13.455,7.258,13.455,7.252,13.455,7.245z"/>
	<path fill="#E5E5E5" d="M6.659,17.314c0.007,0.003,0.071,0.03,0.071,0.03l0,0c0.154-0.02,0.308-0.04,0.463-0.061
		c0-0.006,0-0.013,0-0.02c0.01,0,0.021,0,0.03,0c0.044-0.183,0.089-0.364,0.134-0.545c-0.05-0.023-0.099-0.046-0.149-0.067
		C7,16.654,6.792,16.656,6.583,16.658C6.532,16.884,6.5,17.11,6.659,17.314z"/>
	<path fill="#E5E5E5" d="M6.568,16.658c0.005,0,0.009,0,0.015,0c0.001-0.006,0.003-0.013,0.004-0.02L6.568,16.658z"/>
	<path fill="#E5E5E5" d="M3.467,16.66c0.046,0.015,0.09,0.035,0.131,0.06l0,0c0.156-0.02,0.31-0.04,0.464-0.061
		c0-0.006,0-0.014,0-0.021c0.01,0,0.021,0,0.03,0.001c0.045-0.183,0.088-0.364,0.132-0.546c-0.048-0.022-0.096-0.046-0.145-0.067
		c-0.208,0.001-0.417,0.003-0.624,0.005C3.46,16.241,3.464,16.45,3.467,16.66z"/>
	<path fill="#E5E5E5" d="M3.438,16.031L3.438,16.031L3.438,16.031c0.005,0,0.012,0,0.019,0c-0.001-0.006-0.001-0.012-0.002-0.018
		L3.438,16.031z"/>
	<polygon fill="#E5E5E5" points="4.693,16.028 4.7,16.028 4.704,16.019 	"/>
	<path fill="#E5E5E5" d="M5.334,16.639c-0.006,0.004-0.011,0.008-0.016,0.013c-0.001,0.003-0.002,0.005-0.003,0.007L5.334,16.639z"
		/>
	<path fill="#E5E5E5" d="M4.724,16.662c0.045,0.015,0.087,0.034,0.127,0.058c0.17,0.062,0.325,0.036,0.467-0.068
		c0.052-0.187,0.105-0.372,0.159-0.558c-0.054-0.024-0.108-0.05-0.161-0.073c-0.205,0.003-0.41,0.006-0.616,0.008
		C4.632,16.242,4.635,16.453,4.724,16.662z"/>
	<polygon fill="#E5E5E5" points="5.96,17.267 5.948,17.274 5.945,17.283 	"/>
	<path fill="#E5E5E5" d="M5.329,16.658c0.002-0.006,0.003-0.013,0.005-0.02l-0.019,0.02C5.32,16.658,5.325,16.658,5.329,16.658z"/>
	<path fill="#E5E5E5" d="M5.37,17.297c0.038,0.015,0.073,0.03,0.108,0.048c0.169,0.056,0.326,0.026,0.47-0.07
		C6,17.089,6.052,16.904,6.104,16.72c-0.043-0.025-0.09-0.047-0.137-0.064c-0.212,0.001-0.425,0.002-0.638,0.003
		C5.271,16.875,5.262,17.089,5.37,17.297z"/>
	<path fill="#E5E5E5" d="M14.103,14.76c0,0.011,0,0.02,0,0.03c0.085,0.021,0.168,0.05,0.252,0.064V14.15
		c-0.085,0-0.169,0.002-0.254,0.003c-0.006,0.202-0.01,0.404-0.016,0.606C14.091,14.76,14.097,14.76,14.103,14.76z"/>
	<path fill="#E5E5E5" d="M14.082,14.153L14.082,14.153c0.007,0,0.013,0,0.019,0c0-0.006,0-0.014,0-0.02L14.082,14.153z"/>
	<path fill="#E5E5E5" d="M9.856,6.698L9.364,7.345c0.114,0.011,0.228-0.029,0.339-0.09C9.756,7.07,9.809,6.886,9.861,6.7
		C9.86,6.699,9.858,6.699,9.856,6.698z"/>
	<polygon fill="#E5E5E5" points="9.703,7.255 9.699,7.265 9.717,7.248 	"/>
	<path fill="#E5E5E5" d="M13.455,8.498c0.009,0,0.018,0,0.026,0c0.086-0.199,0.057-0.398,0.002-0.598
		c-0.01-0.002-0.019-0.004-0.027-0.006c0-0.007,0-0.016,0-0.023c-0.202,0.006-0.404,0.013-0.608,0.019
		c0.012,0.211,0.021,0.421,0.032,0.632l0,0c0.039,0.015,0.076,0.034,0.11,0.058c0.154-0.018,0.311-0.037,0.465-0.055
		C13.455,8.516,13.455,8.506,13.455,8.498z"/>
	<path fill="#E5E5E5" d="M12.83,7.89c0.006,0,0.013,0,0.018-0.001c0-0.004,0-0.01-0.001-0.016L12.83,7.89z"/>
	<path fill="#E5E5E5" d="M13.456,9.771c0.007,0,0.013-0.001,0.021-0.001c0-0.006-0.001-0.012-0.001-0.019L13.456,9.771z"/>
	<path fill="#E5E5E5" d="M14.082,9.748c-0.202,0.008-0.403,0.015-0.605,0.022c0.008,0.209,0.015,0.418,0.023,0.628l0,0
		c0.04,0.016,0.08,0.036,0.117,0.059c0.158-0.025,0.315-0.05,0.475-0.075c0.122-0.199,0.071-0.401,0.018-0.603
		c-0.01-0.003-0.018-0.005-0.027-0.007C14.082,9.764,14.082,9.756,14.082,9.748z"/>
	<polygon fill="#E5E5E5" points="14.102,10.38 14.092,10.382 14.083,10.396 	"/>
	<path fill="#E5E5E5" d="M5.341,19.142c-0.002,0.008-0.004,0.015-0.005,0.023c-0.012,0.004-0.023,0.008-0.035,0.012
		c-0.018,0.139-0.037,0.28-0.06,0.455c-0.063,0.016-0.129,0.031-0.194,0.048h0.937c0.024-0.16,0.047-0.321,0.07-0.48
		c-0.032-0.019-0.065-0.032-0.101-0.043C5.75,19.15,5.546,19.146,5.341,19.142z"/>
	<path fill="#E5E5E5" d="M14.082,22.276c-0.202-0.001-0.402-0.002-0.604-0.002c-0.008,0-0.015,0-0.022,0c0,0.01,0,0.019,0,0.027
		c0,0.107,0,0.215,0,0.322h0.702c-0.003-0.108-0.024-0.216-0.05-0.324c-0.009-0.001-0.016-0.003-0.025-0.004
		C14.082,22.289,14.082,22.283,14.082,22.276z"/>
	<path fill="#E5E5E5" d="M14.081,21.674c0,0.2,0.001,0.4,0.001,0.603c0,0.007,0,0.013,0,0.02c0.01,0.001,0.017,0.003,0.025,0.004
		c0.068,0.01,0.136,0.024,0.202,0.023c0.017-0.001,0.03-0.002,0.045-0.002v-0.674c-0.084,0-0.167,0-0.251-0.001
		c-0.008,0-0.015,0-0.023,0C14.08,21.656,14.08,21.664,14.081,21.674z"/>
	<path fill="#E5E5E5" d="M7.919,9.77L7.919,9.77c0.171,0.114,0.344,0.078,0.517,0.013c0.01-0.003,0.021-0.007,0.03-0.011
		c0.001-0.009,0.002-0.019,0.004-0.028C8.496,9.545,8.52,9.346,8.545,9.147L8.539,9.145C8.361,9.14,8.184,9.134,8.005,9.129
		l-0.2,0.264C7.799,9.525,7.81,9.655,7.919,9.77L7.919,9.77C7.919,9.77,7.918,9.77,7.919,9.77z"/>
	<path fill="#E5E5E5" d="M14.147,11.034h0.027l0,0c0.061,0.04,0.119,0.063,0.18,0.073v-0.708c-0.086-0.001-0.172-0.002-0.257-0.003
		C14.049,10.614,14.013,10.83,14.147,11.034z"/>
	<path fill="#E5E5E5" d="M14.098,10.396c0.001-0.005,0.003-0.01,0.004-0.016l-0.019,0.016
		C14.089,10.396,14.093,10.396,14.098,10.396z"/>
	<path fill="#E5E5E5" d="M9.067,9.156c0.008-0.004,0.016-0.008,0.023-0.013c0.002-0.01,0.004-0.021,0.006-0.032
		c0.029-0.189,0.059-0.378,0.089-0.568c-0.028-0.01-0.058-0.021-0.087-0.029C8.895,8.506,8.694,8.499,8.492,8.491L8.439,8.56
		c-0.016,0.202-0.063,0.408,0.1,0.584l0.006,0.002C8.719,9.271,8.894,9.245,9.067,9.156z"/>
	<path fill="#E5E5E5" d="M2.346,16.718l0.036,0.015c-0.008-0.006-0.017-0.012-0.025-0.017c-0.001,0.001-0.004,0.001-0.006,0.001
		c0.01,0.005,0.021,0.009,0.03,0.016C2.382,16.732,2.346,16.718,2.346,16.718z"/>
	<path fill="#E5E5E5" d="M2.819,16.642c-0.002,0.006-0.002,0.012-0.004,0.016l0.015-0.018C2.825,16.641,2.823,16.641,2.819,16.642z"
		/>
	<path fill="#E5E5E5" d="M2.972,16.093c0,0,0.002,0,0.001,0c-0.068-0.04-0.139-0.065-0.21-0.081l-0.484,0.637
		c0.022,0.024,0.047,0.046,0.078,0.067c0.154-0.024,0.308-0.049,0.462-0.074C2.87,16.459,2.921,16.275,2.972,16.093z"/>
	<path fill="#E5E5E5" d="M6.104,17.972c0.158-0.025,0.315-0.051,0.473-0.077c0.051-0.184,0.102-0.367,0.154-0.55l0,0
		c0,0-0.064-0.027-0.071-0.03l-0.002-0.001c-0.233-0.011-0.464-0.02-0.697-0.03c0.005,0.21,0.009,0.42,0.012,0.629
		C6.019,17.927,6.062,17.946,6.104,17.972z"/>
	<path fill="#E5E5E5" d="M5.96,17.283c0-0.005,0-0.011,0-0.017l-0.015,0.017C5.951,17.283,5.955,17.283,5.96,17.283z"/>
	<polygon fill="#E5E5E5" points="6.576,17.895 6.572,17.909 6.586,17.893 	"/>
	<path fill="#E5E5E5" d="M2.814,16.657c0.005,0,0.01,0,0.015,0c0-0.005,0-0.012,0-0.018L2.814,16.657z"/>
	<path fill="#E5E5E5" d="M3.446,17.273c0.051-0.186,0.103-0.369,0.153-0.554l0,0c-0.041-0.024-0.085-0.045-0.131-0.06v-0.001
		c-0.212,0-0.426-0.001-0.638-0.002c0.002,0.209,0.003,0.416,0.004,0.625c0.049,0.017,0.096,0.037,0.14,0.063
		C3.144,17.4,3.302,17.383,3.446,17.273z"/>
	<polygon fill="#E5E5E5" points="3.457,17.266 3.446,17.273 3.443,17.282 	"/>
	<polygon fill="#E5E5E5" points="4.697,17.269 4.693,17.282 4.707,17.267 	"/>
	<path fill="#E5E5E5" d="M4.851,16.72c-0.041-0.023-0.083-0.043-0.127-0.058l0,0c-0.21-0.008-0.42-0.015-0.63-0.022
		c-0.01-0.001-0.02-0.001-0.03-0.001c0,0.007,0,0.015,0,0.021c0.004,0.205,0.006,0.411,0.01,0.617
		c0.05,0.023,0.101,0.047,0.152,0.069c0.157-0.025,0.314-0.051,0.472-0.077C4.749,17.085,4.801,16.902,4.851,16.72z"/>
	<path fill="#E5E5E5" d="M4.704,17.283C4.66,17.51,4.618,17.736,4.78,17.94c0.007,0.003,0.071,0.03,0.071,0.03
		c0.169,0.052,0.326,0.025,0.472-0.071c0.051-0.185,0.103-0.37,0.155-0.555c-0.035-0.018-0.07-0.033-0.108-0.048l0,0
		C5.147,17.293,4.925,17.288,4.704,17.283z"/>
	<polygon fill="#E5E5E5" points="5.323,17.899 5.32,17.909 5.334,17.893 	"/>
	<path fill="#E5E5E5" d="M4.693,17.282c0.003,0.001,0.007,0.001,0.011,0.001c0.001-0.005,0.002-0.011,0.003-0.017L4.693,17.282z"/>
	<path fill="#E5E5E5" d="M9.097,7.863C9.104,7.796,9.113,7.73,9.122,7.664L8.926,7.92c0.049-0.008,0.096-0.017,0.146-0.025
		c0.007-0.001,0.014-0.002,0.021-0.003C9.094,7.882,9.095,7.872,9.097,7.863z"/>
	<path fill="#E5E5E5" d="M14.085,14.76c-0.202,0-0.403,0-0.604,0c-0.009,0-0.018,0-0.026,0c0,0.009,0,0.019,0,0.029
		c0.001,0.198,0.002,0.398,0.002,0.597c0,0.007,0,0.015,0,0.021c0.008,0,0.014,0,0.021,0c0.198,0,0.396,0,0.595,0.001
		c0.01,0,0.021,0,0.031,0c0-0.008,0-0.018,0-0.025c0-0.197-0.001-0.396-0.001-0.593c0-0.011,0-0.02,0-0.03
		C14.097,14.76,14.091,14.76,14.085,14.76z"/>
	<path fill="#E5E5E5" d="M8.445,11.002c0,0.008,0,0.015,0,0.022c0,0.199,0,0.399,0,0.598c0,0.009,0,0.019,0,0.028
		c0.012,0,0.025,0,0.038,0c0.194,0,0.391,0,0.586,0c0.008,0,0.016,0,0.023,0c0-0.009,0-0.018,0-0.027c0-0.196,0-0.391,0.001-0.586
		c0-0.011,0-0.023,0-0.035c-0.009,0-0.018,0-0.026,0c-0.197,0-0.396,0-0.594,0C8.464,11.002,8.455,11.002,8.445,11.002z"/>
	<path fill="#E5E5E5" d="M7.282,17.928c0.001,0,0.01-0.009,0.01-0.009c0.176,0.104,0.351,0.046,0.527-0.001
		c0.007-0.002,0.015-0.004,0.022-0.006c0.004-0.009,0.007-0.019,0.01-0.027c0.077-0.196,0.048-0.395-0.002-0.591
		c-0.009-0.003-0.019-0.005-0.028-0.008c0-0.007,0-0.013,0-0.021c-0.2-0.001-0.399-0.001-0.598-0.001c-0.009,0-0.02,0-0.03,0
		c0,0.007,0,0.014,0,0.02C7.188,17.503,7.133,17.729,7.282,17.928z"/>
	<path fill="#E5E5E5" d="M7.82,17.286c0.009,0.003,0.019,0.005,0.028,0.008c0.197,0.051,0.394,0.076,0.59,0.002
		c0.01-0.003,0.02-0.005,0.028-0.01c0.004-0.009,0.007-0.019,0.01-0.028c0.065-0.192,0.073-0.386,0.005-0.578
		c-0.005-0.014-0.008-0.026-0.015-0.042c-0.009,0-0.018,0-0.026,0c-0.198,0-0.395,0-0.592,0c-0.01,0-0.019,0-0.029,0
		c0,0.014,0,0.024,0,0.036C7.82,16.87,7.82,17.067,7.82,17.266C7.82,17.273,7.82,17.279,7.82,17.286z"/>
	<path fill="#E5E5E5" d="M14.082,7.899c0,0.201,0,0.4,0,0.599c0.008,0,0.014,0,0.021,0c0.003,0.01,0.005,0.018,0.007,0.026
		c0.082,0.019,0.163,0.034,0.245,0.042V7.872c-0.083,0-0.164,0-0.247,0.001c-0.002,0.006-0.002,0.013-0.005,0.021
		C14.095,7.896,14.089,7.897,14.082,7.899z"/>
	<path fill="#E5E5E5" d="M14.075,7.245c-0.197,0-0.395,0-0.591,0c-0.01,0-0.02,0-0.029,0c0,0.007,0,0.013,0,0.02
		c0,0.201,0.001,0.402,0.001,0.605c0,0.007,0,0.016,0,0.023c0.009,0.002,0.018,0.004,0.027,0.006c0.199,0.05,0.397,0.07,0.599,0
		c0.007-0.002,0.013-0.004,0.021-0.006c0.003-0.007,0.003-0.014,0.005-0.021c0.065-0.2,0.064-0.4,0.002-0.601
		c-0.002-0.008-0.004-0.018-0.007-0.026C14.094,7.245,14.084,7.245,14.075,7.245z"/>
	<path fill="#E5E5E5" d="M14.082,8.499c-0.201,0-0.399-0.001-0.601-0.001c-0.009,0-0.018,0-0.026,0c0,0.009,0,0.018,0,0.026
		c0,0.2,0.001,0.399,0.001,0.599c0,0.007,0,0.016,0,0.023c0.009,0,0.017,0,0.024,0c0.2,0,0.4,0,0.602,0c0-0.007,0-0.014,0-0.021
		c0.01,0,0.019,0,0.027,0c0.068-0.199,0.045-0.398,0-0.599c-0.002-0.008-0.004-0.017-0.007-0.026
		C14.096,8.499,14.09,8.499,14.082,8.499z"/>
	<polygon fill="#E5E5E5" points="2.821,19.154 2.82,19.156 2.823,19.153 	"/>
	<polygon fill="#E5E5E5" points="4.083,17.892 4.071,17.896 4.068,17.909 	"/>
	<path fill="#E5E5E5" d="M3.443,17.282c0.003,0,0.007,0,0.009,0c0.002-0.005,0.003-0.011,0.004-0.017L3.443,17.282z"/>
	<path fill="#E5E5E5" d="M4.065,19.156c-0.001,0.002-0.001,0.004-0.002,0.007l0.019-0.02C4.076,19.148,4.07,19.151,4.065,19.156z"/>
	<path fill="#E5E5E5" d="M4.076,18.53c-0.098-0.023-0.206-0.028-0.292-0.073c-0.076-0.041-0.169-0.122-0.178-0.195
		c-0.008-0.069,0.066-0.175,0.135-0.221c0.097-0.068,0.218-0.101,0.331-0.146c0.051-0.183,0.103-0.367,0.154-0.55
		c-0.051-0.022-0.102-0.046-0.152-0.069c-0.207,0.002-0.414,0.004-0.621,0.006c-0.036,0.159-0.071,0.317-0.11,0.49
		c-0.167,0.035-0.33,0.072-0.495,0.108L2.8,17.929c-0.039,0.162-0.078,0.324-0.118,0.494c-0.166,0.031-0.321,0.06-0.475,0.09
		c0,0.008-0.001,0.017-0.003,0.024c-0.014,0.006-0.025,0.011-0.038,0.017C2.138,18.712,2.11,18.871,2.08,19.04
		c-0.18,0.035-0.34,0.065-0.499,0.097c0,0.009-0.001,0.018-0.003,0.027c-0.012,0.006-0.024,0.011-0.036,0.016
		c-0.025,0.159-0.051,0.318-0.076,0.478c-0.037,0.008-0.072,0.015-0.106,0.022h1.122c-0.065-0.045-0.129-0.11-0.136-0.169
		c-0.006-0.069,0.07-0.17,0.138-0.216c0.101-0.066,0.225-0.095,0.338-0.141c0.041-0.09,0.096-0.176,0.117-0.269
		c0.031-0.144,0.104-0.239,0.249-0.203c0.076,0.02,0.15,0.109,0.19,0.186c0.046,0.085,0.051,0.191,0.075,0.288
		c0.049,0.023,0.098,0.046,0.146,0.067c0.17,0.066,0.325,0.041,0.466-0.067c0.053-0.186,0.106-0.372,0.16-0.558
		C4.175,18.577,4.126,18.552,4.076,18.53z"/>
	<polygon fill="#E5E5E5" points="4.063,19.163 4.063,19.163 4.063,19.163 	"/>
	<path fill="#E5E5E5" d="M5.942,18.536c0.004,0,0.008,0,0.013,0c0-0.006,0-0.013,0-0.021L5.942,18.536z"/>
	<path fill="#E5E5E5" d="M6.592,19.13c0.026-0.191,0.052-0.384,0.078-0.576c0,0-0.009-0.003-0.02-0.006
		c-0.008-0.001-0.018-0.004-0.025-0.006L6.62,18.54c-0.005-0.001-0.008-0.002-0.008-0.002c-0.219-0.001-0.437-0.001-0.656-0.002
		c0,0.207-0.001,0.413-0.001,0.62c0.036,0.011,0.069,0.024,0.101,0.043l0,0c0.174,0.081,0.343,0.063,0.508-0.023
		c0.008-0.004,0.017-0.008,0.025-0.013C6.588,19.151,6.59,19.141,6.592,19.13z"/>
	<path fill="#E5E5E5" d="M6.572,17.909c0.003,0,0.007,0,0.01,0c0.002-0.005,0.004-0.011,0.005-0.017L6.572,17.909z"/>
	<path fill="#E5E5E5" d="M7.282,17.928L7.282,17.928c-0.233-0.006-0.466-0.012-0.7-0.019c-0.056,0.212-0.069,0.423,0.029,0.629
		h0.001c0,0,0.003,0.001,0.008,0.002l0.006,0.002c0.007,0.002,0.017,0.005,0.025,0.006c0.01,0.003,0.02,0.006,0.02,0.006
		c0.176,0.111,0.347,0.085,0.517-0.004c0.009-0.004,0.018-0.008,0.027-0.014c0-0.011,0.003-0.021,0.004-0.034
		c0.024-0.194,0.049-0.389,0.074-0.583C7.292,17.919,7.283,17.928,7.282,17.928z"/>
	<path fill="#E5E5E5" d="M14.082,9.146c0,0.2,0,0.402,0,0.602c0,0.009,0,0.016,0,0.024c0.01,0.002,0.018,0.004,0.027,0.007
		c0.082,0.021,0.163,0.038,0.245,0.045V9.125c-0.082,0-0.163-0.001-0.245-0.001c-0.009,0-0.018,0-0.027,0
		C14.082,9.131,14.082,9.138,14.082,9.146z"/>
	<path fill="#E5E5E5" d="M2.381,16.732c-0.01-0.007-0.02-0.011-0.03-0.016c-0.031-0.015-0.062-0.029-0.093-0.04L1.753,17.34
		c0.146-0.024,0.293-0.047,0.438-0.071c0.051-0.185,0.104-0.368,0.154-0.551C2.346,16.718,2.382,16.732,2.381,16.732z"/>
	<path fill="#E5E5E5" d="M2.191,17.269c-0.001,0.006-0.002,0.011-0.004,0.017l0.017-0.019C2.199,17.267,2.195,17.268,2.191,17.269z"
		/>
	<path fill="#E5E5E5" d="M0.956,18.519c0.017-0.065,0.033-0.132,0.049-0.196l-0.18,0.234c0.036-0.004,0.072-0.008,0.107-0.012
		c-0.001-0.01-0.001-0.019-0.001-0.028C0.939,18.518,0.947,18.518,0.956,18.519z"/>
	<path fill="#E5E5E5" d="M6.104,17.972c-0.042-0.025-0.085-0.045-0.131-0.06c-0.212-0.001-0.426-0.002-0.638-0.003
		c-0.005,0.206-0.009,0.412-0.013,0.617c0.047,0.034,0.095,0.068,0.142,0.103c0.162-0.037,0.323-0.074,0.484-0.111
		C5.999,18.336,6.052,18.154,6.104,17.972z"/>
	<path fill="#E5E5E5" d="M5.32,17.909c0.004,0,0.009,0,0.014,0c0-0.005,0-0.011,0-0.017L5.32,17.909z"/>
	<path fill="#E5E5E5" d="M5.955,18.516c-0.002,0.001-0.005,0.002-0.008,0.002c-0.001,0.007-0.002,0.014-0.004,0.019L5.955,18.516z"
		/>
	<path fill="#E5E5E5" d="M2.187,17.285c0.005,0,0.011,0,0.017,0c0-0.006,0-0.012,0-0.019L2.187,17.285z"/>
	<path fill="#E5E5E5" d="M2.8,17.929l0.047-0.048c0.042-0.178,0.083-0.356,0.125-0.535c-0.044-0.026-0.091-0.047-0.14-0.063
		c-0.209,0.001-0.42,0.002-0.629,0.003c0.004,0.208,0.01,0.419,0.014,0.628c0.027,0.007,0.051,0.013,0.076,0.021
		C2.463,18.042,2.632,18.02,2.8,17.929z"/>
	<path fill="#E5E5E5" d="M4.068,17.909c0.004,0,0.009,0,0.015,0.001c0-0.006,0-0.013,0-0.019L4.068,17.909z"/>
	<path fill="#E5E5E5" d="M4.78,17.94c-0.001-0.001-0.002-0.001-0.002-0.001c-0.233-0.011-0.464-0.02-0.695-0.029
		c-0.003,0.206-0.005,0.413-0.006,0.62c0.05,0.021,0.099,0.047,0.149,0.068c0.154-0.02,0.308-0.041,0.462-0.063
		c0-0.006,0.001-0.013,0.001-0.02c0.01,0,0.02,0,0.03,0c0.044-0.182,0.089-0.363,0.133-0.546C4.851,17.971,4.787,17.943,4.78,17.94z
		"/>
	<path fill="#E5E5E5" d="M2.823,19.156c-0.004,0.175-0.008,0.349-0.012,0.523h0.658c0.043-0.152,0.087-0.304,0.13-0.456
		c-0.049-0.021-0.097-0.044-0.146-0.067C3.243,19.156,3.032,19.156,2.823,19.156z"/>
	<polygon fill="#E5E5E5" points="2.82,19.156 2.823,19.156 2.823,19.153 	"/>
	<path fill="#E5E5E5" d="M4.093,19.68H4.72c0.018-0.166,0.034-0.331,0.051-0.496c-0.229-0.007-0.459-0.013-0.688-0.021
		C4.085,19.336,4.089,19.507,4.093,19.68z"/>
	<path fill="#E5E5E5" d="M4.771,19.184c0.005,0,0.008,0,0.013,0c-0.004-0.005-0.007-0.01-0.011-0.016
		C4.772,19.174,4.771,19.178,4.771,19.184z"/>
	<path fill="#E5E5E5" d="M4.063,19.163L4.063,19.163L4.063,19.163c0.006,0,0.013,0,0.02,0c-0.001-0.007-0.001-0.013-0.001-0.02
		L4.063,19.163z"/>
	<path fill="#E5E5E5" d="M5.341,19.142c0.04-0.171,0.081-0.343,0.122-0.513c-0.047-0.034-0.095-0.068-0.142-0.103
		c-0.201-0.003-0.402-0.006-0.603-0.01c-0.01,0-0.02,0-0.03,0c0,0.007-0.001,0.014-0.001,0.02c-0.008,0.217-0.058,0.438,0.085,0.632
		c0.004,0.006,0.006,0.011,0.011,0.016l-0.011-0.018c0.177,0.107,0.353,0.071,0.528,0.011c0.012-0.004,0.023-0.008,0.035-0.012
		C5.337,19.156,5.339,19.149,5.341,19.142z"/>
	<path fill="#E5E5E5" d="M1.588,17.893c0.04-0.163,0.079-0.327,0.118-0.49l-0.414,0.542c0.088-0.011,0.175-0.022,0.265-0.033
		c0-0.006,0-0.013,0.001-0.02C1.568,17.892,1.579,17.893,1.588,17.893z"/>
	<path fill="#E5E5E5" d="M0.377,19.146l-0.096,0.126C0.26,19.409,0.26,19.546,0.306,19.68h0.662
		c0.025-0.162,0.049-0.325,0.073-0.487c-0.027-0.015-0.055-0.024-0.084-0.032C0.763,19.156,0.57,19.15,0.377,19.146z"/>
	<polygon fill="#E5E5E5" points="1.642,18.545 1.642,18.555 1.65,18.556 	"/>
	<path fill="#E5E5E5" d="M1.581,19.137c0.02-0.194,0.041-0.388,0.061-0.582c-0.229-0.012-0.458-0.023-0.686-0.036
		c-0.008-0.001-0.017-0.001-0.024-0.002c0,0.01,0,0.019,0.001,0.028c0.007,0.205,0.016,0.41,0.023,0.615
		c0.03,0.008,0.057,0.018,0.084,0.032c0.171,0.085,0.337,0.057,0.501-0.013c0.012-0.005,0.024-0.01,0.036-0.016
		C1.58,19.154,1.581,19.146,1.581,19.137z"/>
	<path fill="#E5E5E5" d="M1.644,18.54c0.174,0.123,0.349,0.094,0.523,0.014c0.012-0.006,0.024-0.011,0.038-0.017
		c0.002-0.008,0.003-0.017,0.003-0.024c0.029-0.193,0.057-0.386,0.086-0.579c-0.025-0.008-0.049-0.014-0.076-0.021l0,0
		c-0.209-0.007-0.419-0.014-0.63-0.021c-0.009,0-0.02-0.001-0.03-0.001c-0.001,0.007-0.001,0.014-0.001,0.02
		c-0.027,0.22-0.067,0.439,0.085,0.634c0.004,0.003,0.005,0.007,0.008,0.011C1.649,18.555,1.644,18.54,1.644,18.54z"/>
</g>
</svg>
