<?xml version="1.0" encoding="utf-8"?>
<!-- Generator: Adobe Illustrator 16.0.0, SVG Export Plug-In . SVG Version: 6.00 Build 0)  -->
<!DOCTYPE svg PUBLIC "-//W3C//DTD SVG 1.1//EN" "http://www.w3.org/Graphics/SVG/1.1/DTD/svg11.dtd">
<svg version="1.1" id="圖層_2" xmlns="http://www.w3.org/2000/svg" xmlns:xlink="http://www.w3.org/1999/xlink" x="0px" y="0px"
	 width="16px" height="24px" viewBox="0 0 16 24" enable-background="new 0 0 16 24" xml:space="preserve">
<g>
	<path fill="#E5E5E5" d="M12.801,4.081c0.002-0.007,0.002-0.013,0.004-0.021l-0.021,0.021C12.789,4.081,12.795,4.081,12.801,4.081z"
		/>
	<path fill="#E5E5E5" d="M4.226,10.006c0.005-0.002,0.01-0.003,0.016-0.004c0.001-0.005,0.002-0.011,0.003-0.017L4.226,10.006z"/>
	<path fill="#E5E5E5" d="M3.568,10.664c0.005-0.001,0.011-0.002,0.016-0.003c0.001-0.005,0.002-0.01,0.004-0.016L3.568,10.664z"/>
	<path fill="#E5E5E5" d="M4.903,5.377C4.898,5.382,4.893,5.385,4.886,5.389C4.885,5.392,4.885,5.395,4.883,5.397L4.903,5.377z"/>
	<polygon fill="#E5E5E5" points="4.244,19.202 4.232,19.208 4.227,19.22 	"/>
	<path fill="#E5E5E5" d="M6.22,5.378c-0.004,0-0.006,0.001-0.009,0.001C6.207,5.385,6.205,5.391,6.201,5.396L6.22,5.378z"/>
	<polygon fill="#E5E5E5" points="3.587,5.377 3.574,5.383 3.567,5.397 	"/>
	<path fill="#E5E5E5" d="M3.584,6.696c-0.005,0.005-0.01,0.01-0.016,0.014c0,0.001,0,0.001,0,0.002L3.584,6.696z"/>
	<path fill="#E5E5E5" d="M5.543,6.055c0.004,0,0.01,0,0.015,0C5.56,6.048,5.562,6.042,5.563,6.036L5.543,6.055z"/>
	<polygon fill="#E5E5E5" points="6.873,20.524 6.864,20.531 6.862,20.535 	"/>
	<polygon fill="#E5E5E5" points="8.853,21.178 8.839,21.187 8.833,21.195 	"/>
	<path fill="#E5E5E5" d="M11.485,2.744c-0.004,0.003-0.007,0.005-0.013,0.008c-0.002,0.004-0.003,0.007-0.005,0.01L11.485,2.744z"/>
	<path fill="#E5E5E5" d="M12.295,12.044c0.156,0.042,0.309,0.074,0.422-0.071c0-0.011,0-0.022,0-0.033
		c0.01-0.002,0.019-0.002,0.027-0.003c0.026-0.053,0.052-0.108,0.08-0.162c-0.161-0.173-0.334-0.338-0.515-0.493
		c-0.054,0.011-0.109,0.023-0.166,0.036c-0.002,0.219-0.006,0.436-0.007,0.654C12.188,11.996,12.241,12.02,12.295,12.044z"/>
	<path fill="#E5E5E5" d="M1.593,16.5c0.073-0.129,0.118-0.21,0.17-0.276H1.527c0,0.122,0.003,0.243,0.011,0.363
		c0.006-0.009,0.011-0.019,0.018-0.028c0.002-0.021,0.004-0.043,0.007-0.063C1.573,16.497,1.583,16.499,1.593,16.5z"/>
	<path fill="#E5E5E5" d="M13.304,0.871h-0.171c0.071,0.083,0.133,0.145,0.171,0.201V0.871z"/>
	<path fill="#E5E5E5" d="M11.462,10.66c-0.204-0.126-0.414-0.24-0.632-0.343c0,0.114,0.002,0.227,0.002,0.341
		c0.051,0.02,0.099,0.042,0.146,0.069C11.155,10.795,11.314,10.766,11.462,10.66z"/>
	<path fill="#E5E5E5" d="M2.894,5.942c0.018-0.004,0.035-0.008,0.042-0.019c0.235-0.367,0.238-0.371,0.638-0.54
		c0.041-0.092,0.094-0.182,0.115-0.278C3.724,4.95,3.802,4.869,3.962,4.884C4.13,4.898,4.166,5.022,4.186,5.161
		C4.198,5.24,4.228,5.315,4.25,5.394C4.3,5.412,4.349,5.435,4.396,5.461C4.575,5.525,4.738,5.5,4.886,5.389
		c0.049-0.123,0.078-0.263,0.157-0.361c0.068-0.084,0.2-0.118,0.347-0.199c0.083,0.229,0.145,0.4,0.207,0.571
		c0.041,0.016,0.079,0.036,0.116,0.061C5.877,5.434,6.044,5.407,6.21,5.379c0.032-0.065,0.078-0.13,0.085-0.199
		c0.022-0.216,0.117-0.333,0.347-0.34c0.073-0.002,0.144-0.061,0.215-0.094l0.029-0.029C6.91,4.672,6.939,4.628,6.958,4.579
		C7.02,4.425,6.978,4.182,7.263,4.218c0.22,0.027,0.189,0.212,0.222,0.356c0.01,0.051,0.024,0.102,0.036,0.152
		c0.055,0.026,0.111,0.05,0.167,0.076c0.158,0.046,0.314,0.086,0.419-0.085C8.104,4.709,8.104,4.7,8.103,4.692
		C8.117,4.69,8.134,4.688,8.148,4.687c0.202-0.078,0.105-0.333,0.243-0.45c0.326,0.011,0.326,0.011,0.329,0.386
		c-0.188,0.021-0.38,0.042-0.572,0.063C8.139,4.69,8.13,4.694,8.119,4.696C8.116,4.705,8.11,4.71,8.106,4.717
		C8.117,4.844,8.13,4.972,8.145,5.1h0.823C8.979,5.053,8.99,5.007,9.013,4.966c0.028-0.05,0.146-0.086,0.211-0.073
		c0.061,0.014,0.154,0.105,0.149,0.151C9.371,5.062,9.365,5.08,9.363,5.1h0.953c0-0.007-0.001-0.013-0.001-0.02
		c-0.002-0.133,0.078-0.203,0.196-0.188c0.084,0.011,0.159,0.081,0.301,0.159C10.796,5.069,10.783,5.084,10.77,5.1h0.89
		c-0.004-0.063,0.057-0.187,0.094-0.187c0.084-0.003,0.17,0.05,0.29,0.093C12.021,5.039,12.004,5.07,11.987,5.1h0.961
		c-0.014-0.209,0.131-0.249,0.295-0.283c0.021-0.005,0.04-0.012,0.061-0.021V4.082c-0.166,0-0.337-0.001-0.503-0.001
		c-0.032,0.171-0.063,0.343-0.095,0.507c-0.353-0.001-0.353-0.001-0.498-0.356c-0.021-0.035-0.04-0.07-0.061-0.106
		c-0.064-0.038-0.129-0.109-0.191-0.106c-0.323,0.013-0.35-0.227-0.406-0.446c-0.023-0.034-0.044-0.071-0.06-0.109
		c-0.022-0.015-0.047-0.028-0.067-0.045c-0.138-0.108-0.409-0.015-0.443-0.271c-0.044-0.342,0.318-0.207,0.441-0.355
		c0.016-0.017,0.036-0.028,0.052-0.042c0.043-0.065,0.107-0.129,0.112-0.198c0.02-0.221,0.116-0.34,0.346-0.359
		C12,2.189,12.064,2.132,12.133,2.093c0.024-0.042,0.049-0.084,0.074-0.125c0.083-0.146,0.021-0.41,0.312-0.379
		c0.226,0.024,0.191,0.222,0.238,0.364c0.018,0.051,0.038,0.101,0.059,0.15c0.05,0.017,0.095,0.039,0.139,0.067
		c0.116,0.034,0.23,0.07,0.35,0.105V1.254c-0.034,0.044-0.081,0.086-0.119,0.101c-0.14,0.05-0.258-0.053-0.242-0.208
		C12.948,1.073,13.007,1,13.076,0.871H9.2C9.309,0.989,9.396,1.06,9.424,1.146c0.03,0.098-0.032,0.199-0.171,0.211
		C9.107,1.37,8.98,1.285,8.998,1.14c0.008-0.074,0.063-0.146,0.134-0.27H8.116C8.103,1.015,8.092,1.164,8.079,1.334
		C7.862,1.356,7.672,1.376,7.483,1.396C7.475,1.398,7.466,1.401,7.46,1.405C7.455,1.407,7.449,1.411,7.443,1.413
		C7.438,1.565,7.451,1.721,7.428,1.872c-0.009,0.053-0.121,0.135-0.17,0.125C7.172,1.98,7.075,1.918,7.027,1.846
		C6.997,1.801,7.02,1.668,7.065,1.633c0.113-0.09,0.249-0.15,0.378-0.22c0.001-0.005,0-0.009,0.001-0.013
		C7.457,1.399,7.47,1.398,7.483,1.396c0.019-0.006,0.04-0.012,0.047-0.026c0.203-0.333,0.251-0.412,0.42-0.5H2.497v0.114
		c0.01-0.025,0.02-0.051,0.03-0.079c0.114,0.07,0.213,0.096,0.232,0.151c0.036,0.103-0.003,0.218-0.133,0.229
		C2.591,1.289,2.538,1.271,2.497,1.248v1.056c0.019-0.017,0.037-0.031,0.055-0.035c0.101-0.023,0.222-0.008,0.248,0.208
		C2.758,2.514,2.698,2.607,2.619,2.63C2.567,2.646,2.528,2.639,2.497,2.618v0.954c0.014-0.03,0.028-0.061,0.042-0.096
		c0.129,0.12,0.226,0.17,0.26,0.249c0.06,0.14-0.048,0.276-0.193,0.271C2.564,3.994,2.528,3.985,2.497,3.97v0.851
		C2.628,4.853,2.754,4.866,2.828,4.7c0-0.007,0-0.014-0.001-0.021c0.007,0,0.014,0,0.021,0C3.091,4.633,2.982,4.352,3.13,4.244
		c0.318,0.027,0.318,0.027,0.319,0.35C3.404,4.619,3.36,4.661,3.314,4.665C3.159,4.676,3.003,4.676,2.848,4.68
		c-0.004,0-0.007,0.001-0.01,0.002C2.834,4.689,2.831,4.693,2.828,4.7c0.007,0.169,0.019,0.34,0.032,0.541
		C2.732,5.273,2.612,5.304,2.497,5.334v0.885c0.006-0.006,0.014-0.013,0.02-0.017c0.123-0.075,0.322-0.03,0.347-0.245
		c0-0.007,0-0.013,0-0.02C2.874,5.939,2.884,5.94,2.894,5.942z M11.171,4.223c0.072-0.009,0.155,0.077,0.314,0.167
		c-0.167,0.112-0.254,0.194-0.353,0.218C11.1,4.617,10.985,4.471,10.989,4.4C10.994,4.334,11.102,4.232,11.171,4.223z M11.835,0.94
		c0.085,0.014,0.158,0.091,0.296,0.177c-0.119,0.112-0.175,0.205-0.254,0.233c-0.138,0.048-0.246-0.067-0.24-0.225
		C11.641,0.993,11.72,0.92,11.835,0.94z M9.792,4.572c-0.039,0-0.106-0.108-0.109-0.17C9.678,4.268,9.785,4.226,9.891,4.255
		c0.058,0.015,0.095,0.1,0.187,0.207C9.954,4.514,9.873,4.572,9.792,4.572z M9.668,3.083C9.662,3.02,9.759,2.944,9.861,2.809
		c0.085,0.144,0.161,0.217,0.17,0.297c0.013,0.119-0.089,0.203-0.194,0.175C9.763,3.261,9.675,3.157,9.668,3.083z M10.967,1.764
		c0.029-0.074,0.137-0.154,0.216-0.166c0.158-0.021,0.244,0.092,0.214,0.315c-0.048,0.022-0.126,0.085-0.21,0.093
		C11.033,2.021,10.919,1.897,10.967,1.764z M10.461,3.933c-0.067-0.031-0.094-0.159-0.138-0.245
		c0.089-0.039,0.186-0.116,0.264-0.103c0.069,0.012,0.121,0.127,0.234,0.261C10.642,3.895,10.529,3.963,10.461,3.933z M10.504,2.656
		c-0.14,0.001-0.194-0.081-0.202-0.203c-0.007-0.123,0.036-0.213,0.252-0.218c0.033,0.028,0.135,0.08,0.168,0.16
		C10.779,2.532,10.661,2.654,10.504,2.656z M9.697,1.634c0.113-0.089,0.251-0.149,0.382-0.219c0-0.004,0-0.009,0-0.014
		c0.005,0,0.014-0.001,0.021-0.001c0.064-0.104,0.119-0.216,0.2-0.305c0.059-0.067,0.151-0.128,0.235-0.144
		c0.044-0.007,0.14,0.085,0.153,0.146c0.03,0.154-0.054,0.25-0.214,0.268c-0.125,0.013-0.25,0.023-0.375,0.035
		c-0.002,0.002-0.004,0.004-0.006,0.006c-0.004,0.003-0.01,0.006-0.015,0.009c-0.006,0.153,0.005,0.309-0.016,0.461
		C10.054,1.928,9.941,2.009,9.891,2C9.806,1.984,9.706,1.923,9.658,1.85C9.627,1.804,9.65,1.669,9.697,1.634z M9.473,3.765
		c-0.144,0.09-0.227,0.186-0.297,0.176C9.107,3.931,9.013,3.824,9,3.748c-0.02-0.11,0.068-0.206,0.191-0.176
		C9.272,3.593,9.338,3.669,9.473,3.765z M8.994,2.452c0.014-0.078,0.098-0.18,0.172-0.202c0.146-0.045,0.256,0.059,0.256,0.267
		C9.383,2.55,9.319,2.633,9.238,2.66C9.105,2.705,8.973,2.593,8.994,2.452z M8.507,1.598c0.145-0.039,0.249,0.035,0.26,0.26
		C8.725,1.892,8.661,1.979,8.583,2C8.428,2.04,8.325,1.944,8.338,1.795C8.345,1.721,8.436,1.617,8.507,1.598z M8.345,3.076
		c0.017-0.078,0.104-0.141,0.137-0.182C8.698,2.915,8.794,3,8.747,3.152C8.726,3.225,8.621,3.315,8.546,3.324
		C8.385,3.343,8.313,3.221,8.345,3.076z M7.927,3.99c-0.138,0.048-0.265-0.063-0.25-0.21c0.007-0.083,0.075-0.161,0.157-0.32
		c0.129,0.154,0.232,0.23,0.261,0.328C8.108,3.837,8.001,3.962,7.927,3.99z M7.829,2.239C7.974,2.223,8.09,2.257,8.11,2.499
		C8.073,2.532,8.018,2.624,7.939,2.65C7.789,2.705,7.683,2.619,7.67,2.462C7.661,2.345,7.698,2.254,7.829,2.239z M7.149,2.911
		c0.125-0.068,0.265,0.028,0.292,0.229C7.412,3.177,7.368,3.278,7.293,3.316c-0.128,0.065-0.28-0.027-0.274-0.168
		C7.022,3.065,7.08,2.948,7.149,2.911z M6.57,3.984c-0.163,0.013-0.238-0.107-0.2-0.25c0.019-0.071,0.145-0.179,0.194-0.166
		C6.66,3.596,6.733,3.696,6.881,3.818C6.728,3.903,6.652,3.977,6.57,3.984z M6.544,0.936c0.147-0.038,0.263,0.043,0.249,0.207
		c-0.007,0.083-0.08,0.159-0.165,0.316C6.502,1.305,6.401,1.229,6.374,1.13C6.36,1.082,6.47,0.956,6.544,0.936z M6.348,2.408
		c0.037-0.173,0.167-0.2,0.306-0.148c0.169,0.063,0.132,0.203,0.081,0.373C6.554,2.657,6.36,2.685,6.167,2.71
		C6.158,2.714,6.151,2.718,6.143,2.72c-0.004,0.003-0.01,0.006-0.015,0.008c0,0.125,0.023,0.257-0.005,0.376
		c-0.02,0.081-0.115,0.186-0.188,0.197c-0.069,0.011-0.2-0.078-0.219-0.145c-0.019-0.07,0.043-0.19,0.107-0.249
		c0.084-0.078,0.2-0.123,0.305-0.18c0-0.004,0-0.008,0-0.012C6.141,2.714,6.152,2.712,6.167,2.71
		C6.299,2.657,6.321,2.533,6.348,2.408z M5.915,1.595C6.001,1.61,6.078,1.687,6.22,1.773C6.097,1.887,6.038,1.979,5.958,2.005
		C5.813,2.052,5.707,1.939,5.71,1.78C5.713,1.644,5.8,1.576,5.915,1.595z M5.912,4.229c0.099,0.031,0.172,0.141,0.22,0.184
		C6.132,4.634,6.032,4.669,5.92,4.67c-0.172,0-0.222-0.109-0.217-0.265C5.709,4.266,5.811,4.198,5.912,4.229z M5.078,1.069
		c0.014-0.053,0.11-0.12,0.17-0.122c0.109-0.003,0.219,0.061,0.179,0.191C5.403,1.216,5.313,1.273,5.277,1.313
		C5.067,1.284,5.055,1.166,5.078,1.069z M5.182,2.143C5.323,2.3,5.437,2.373,5.464,2.471c0.031,0.111-0.066,0.196-0.193,0.196
		c-0.117,0-0.225-0.042-0.217-0.178C5.06,2.403,5.114,2.32,5.182,2.143z M5.252,3.563c0.117-0.018,0.226,0.065,0.195,0.189
		c-0.019,0.082-0.119,0.187-0.198,0.2c-0.064,0.011-0.15-0.095-0.294-0.198C5.097,3.658,5.169,3.576,5.252,3.563z M4.518,1.624
		c0.086,0.021,0.204,0.07,0.229,0.139c0.022,0.06-0.063,0.161-0.087,0.214c-0.203,0.022-0.263-0.07-0.26-0.181
		C4.401,1.733,4.49,1.618,4.518,1.624z M4.779,3.173c-0.056,0.025-0.157,0.109-0.22,0.086C4.489,3.234,4.44,3.116,4.416,3.028
		C4.41,3.005,4.53,2.915,4.592,2.914C4.703,2.911,4.804,2.965,4.779,3.173z M4.597,4.233C4.829,4.252,4.81,4.411,4.774,4.63
		c-0.189,0.037-0.355,0.09-0.386-0.151C4.366,4.319,4.45,4.22,4.597,4.233z M4.095,3.765c-0.01,0.079-0.099,0.147-0.213,0.301
		C3.811,3.888,3.753,3.805,3.753,3.723c0-0.047,0.089-0.12,0.149-0.134C4.032,3.558,4.109,3.653,4.095,3.765z M3.868,0.96
		c0.099-0.026,0.203,0.002,0.237,0.193c-0.043,0.042-0.111,0.152-0.17,0.149c-0.067-0.004-0.149-0.104-0.183-0.18
		C3.738,1.089,3.816,0.975,3.868,0.96z M3.751,2.379c0.014-0.054,0.115-0.119,0.177-0.12c0.111-0.003,0.208,0.053,0.188,0.259
		C4.059,2.542,3.976,2.607,3.89,2.61C3.74,2.616,3.728,2.479,3.751,2.379z M3.419,3.149C3.404,3.205,3.321,3.243,3.214,3.338
		c-0.053-0.126-0.11-0.207-0.11-0.287c0-0.04,0.105-0.109,0.167-0.112C3.403,2.933,3.448,3.041,3.419,3.149z M3.268,2.084
		c-0.091-0.158-0.16-0.233-0.172-0.315C3.089,1.723,3.173,1.635,3.23,1.618c0.114-0.036,0.226,0.021,0.219,0.147
		C3.445,1.846,3.364,1.924,3.268,2.084z"/>
	<path fill="#E5E5E5" d="M8.168,13.856c0.172-0.123,0.092-0.343,0.176-0.496c-0.025-0.021-0.051-0.042-0.077-0.062
		c-0.242-0.01-0.486-0.02-0.729-0.029c0,0.01,0,0.02,0,0.029c-0.01,0.003-0.021,0.006-0.032,0.009
		c-0.023,0.166-0.048,0.333-0.073,0.505c-0.141,0-0.245,0-0.353,0c-0.064-0.175-0.123-0.339-0.182-0.5
		c-0.014-0.005-0.028-0.009-0.042-0.014c0-0.011,0-0.02,0-0.03c-0.043-0.015-0.085-0.029-0.127-0.026
		c-0.324,0.018-0.409-0.191-0.446-0.453c-0.023-0.028-0.043-0.058-0.06-0.09c-0.232-0.056-0.463-0.113-0.694-0.169
		c-0.01,0.003-0.02,0.005-0.028,0.01c-0.001,0.009-0.003,0.017-0.005,0.024c-0.016,0.2-0.031,0.4-0.046,0.585
		c-0.167,0.062-0.309,0.104-0.38-0.063c-0.057-0.138-0.039-0.273,0.14-0.316c0.128-0.032,0.254-0.057,0.287-0.206
		c0.001-0.014,0.002-0.028,0.004-0.041C5.51,12.525,5.52,12.527,5.53,12.53c0.017-0.005,0.036-0.009,0.043-0.021
		c0.23-0.365,0.231-0.368,0.636-0.544c0.037-0.067,0.092-0.132,0.098-0.202c0.02-0.228,0.137-0.329,0.358-0.349
		c0.066-0.005,0.129-0.05,0.192-0.084c0-0.01,0-0.02,0-0.029c0.01,0,0.021,0,0.031,0c0.047-0.191,0.093-0.383,0.14-0.574
		c-0.058-0.026-0.115-0.052-0.173-0.078c-0.101-0.025-0.213-0.031-0.3-0.08c-0.078-0.043-0.171-0.131-0.178-0.208
		c-0.006-0.071,0.077-0.174,0.148-0.223c0.101-0.068,0.225-0.103,0.339-0.149c0.043-0.099,0.086-0.196,0.129-0.293H6.726V9.222
		C6.687,9.245,6.63,9.259,6.548,9.258c-0.042-0.049-0.15-0.124-0.18-0.224c-0.03-0.102,0.039-0.202,0.178-0.207
		c0.074-0.003,0.135,0.008,0.18,0.038V7.837c-0.042,0.04-0.08,0.067-0.121,0.078C6.462,7.955,6.363,7.838,6.373,7.68
		C6.38,7.538,6.483,7.496,6.59,7.516c0.043,0.009,0.085,0.036,0.136,0.073V6.508C6.683,6.555,6.628,6.595,6.577,6.603
		C6.414,6.63,6.35,6.507,6.348,6.357C6.346,6.278,6.362,6.198,6.37,6.12C6.313,6.094,6.257,6.068,6.201,6.043
		C5.988,6.046,5.772,6.051,5.558,6.055C5.516,6.223,5.473,6.391,5.429,6.566C5.249,6.604,5.078,6.641,4.909,6.677
		C4.907,6.689,4.905,6.701,4.903,6.712C4.893,6.719,4.882,6.724,4.872,6.73C4.853,6.791,4.834,6.851,4.817,6.913
		c-0.089,0.34-0.089,0.342-0.508,0.292c-0.06,0.105-0.119,0.208-0.18,0.313c-0.002,0.08,0.016,0.168-0.013,0.237
		C4.088,7.818,4,7.91,3.958,7.902C3.871,7.885,3.781,7.82,3.722,7.75C3.675,7.694,3.673,7.6,3.651,7.523
		C3.63,7.49,3.61,7.456,3.59,7.422C3.455,7.241,3.039,7.389,3.079,7.018c0.03-0.27,0.341-0.176,0.489-0.308
		c0.056-0.196,0.113-0.393,0.169-0.59C3.692,6.094,3.645,6.071,3.596,6.053C3.363,6.016,3.128,5.979,2.894,5.942
		c-0.01,0.003-0.02,0.006-0.029,0.011c0,0.002-0.001,0.003-0.001,0.005c0,0.199,0,0.398,0,0.607C2.74,6.584,2.662,6.62,2.594,6.603
		c-0.03-0.006-0.066-0.025-0.098-0.046v1.017c0.043-0.04,0.099-0.085,0.161-0.149c0.083,0.145,0.16,0.222,0.171,0.308
		c0.02,0.146-0.13,0.241-0.277,0.195c-0.02-0.005-0.038-0.014-0.055-0.024v0.942c0.046-0.033,0.105-0.055,0.188-0.061
		c0.05-0.003,0.096-0.089,0.144-0.144C2.827,8.638,2.825,8.636,2.825,8.632c0.005,0,0.009,0,0.013,0
		c0.164-0.026,0.197-0.15,0.213-0.285C3.074,8.165,3.21,8.13,3.337,8.178c0.07,0.026,0.112,0.152,0.145,0.241
		c0.013,0.038-0.027,0.096-0.056,0.187C3.24,8.615,3.039,8.624,2.838,8.632c-0.001,0-0.001,0-0.002,0
		C2.833,8.636,2.83,8.638,2.828,8.642C2.88,8.876,2.938,9.113,2.995,9.35c0.029,0.018,0.057,0.039,0.083,0.061
		c0.18,0.061,0.343,0.03,0.494-0.075c0.041-0.092,0.092-0.184,0.115-0.282c0.034-0.15,0.106-0.237,0.268-0.221
		c0.167,0.016,0.201,0.14,0.221,0.277C4.189,9.188,4.22,9.264,4.242,9.339c0.051,0.024,0.103,0.048,0.154,0.072
		c0.383,0.131,0.383,0.131,0.366,0.464c-0.169,0.041-0.344,0.084-0.52,0.126c-0.041,0.173-0.081,0.348-0.125,0.532
		c-0.184,0.044-0.359,0.085-0.533,0.126c-0.041,0.175-0.082,0.353-0.127,0.543c-0.121,0-0.224,0-0.344,0
		c-0.041-0.134-0.081-0.261-0.121-0.388c-0.024-0.039-0.045-0.079-0.062-0.123c-0.14-0.084-0.285-0.104-0.434-0.096v0.879
		c0.031-0.015,0.066-0.023,0.106-0.018c0.085,0.012,0.161,0.082,0.301,0.158c-0.122,0.116-0.179,0.205-0.259,0.238
		c-0.054,0.023-0.106,0.014-0.148-0.013v0.988c0.046-0.037,0.113-0.041,0.175-0.018c0.054,0.02,0.081,0.117,0.151,0.23
		c-0.12,0.042-0.207,0.094-0.289,0.09c-0.011-0.001-0.024-0.013-0.037-0.029v0.822h5.557c0.009,0,0.019,0.001,0.027,0.001
		c0.017-0.014,0.033-0.027,0.052-0.041c0-0.011,0-0.023,0-0.033C8.145,13.853,8.156,13.854,8.168,13.856z M3.273,13.818
		c-0.134,0.039-0.191-0.078-0.187-0.185c0.001-0.062,0.068-0.157,0.121-0.171c0.098-0.023,0.215-0.007,0.238,0.204
		C3.407,13.702,3.351,13.796,3.273,13.818z M3.442,12.361c-0.033,0.067-0.163,0.103-0.254,0.115c-0.029,0.004-0.114-0.128-0.1-0.177
		c0.022-0.077,0.106-0.136,0.142-0.176C3.442,12.15,3.489,12.269,3.442,12.361z M4.112,13.043c-0.054,0.025-0.134,0.092-0.217,0.099
		c-0.149,0.01-0.165-0.125-0.143-0.223c0.013-0.055,0.108-0.123,0.168-0.125C4.028,12.788,4.127,12.839,4.112,13.043z M3.905,11.853
		c-0.075-0.024-0.161-0.126-0.17-0.204c-0.01-0.069,0.078-0.15,0.158-0.284c0.112,0.12,0.203,0.176,0.228,0.254
		C4.165,11.752,4.035,11.893,3.905,11.853z M6.116,11.062c-0.023,0.08-0.108,0.141-0.142,0.181c-0.228-0.012-0.301-0.119-0.263-0.26
		c0.021-0.072,0.125-0.163,0.2-0.168C6.062,10.803,6.157,10.907,6.116,11.062z M5.903,6.858c0.08,0.01,0.151,0.085,0.296,0.174
		C6.057,7.131,5.988,7.213,5.907,7.226c-0.109,0.018-0.188-0.056-0.19-0.183C5.714,6.916,5.793,6.844,5.903,6.858z M5.71,8.314
		c0.033-0.129,0.136-0.163,0.238-0.121c0.077,0.031,0.133,0.116,0.254,0.229C6.059,8.5,5.982,8.569,5.9,8.58
		C5.763,8.598,5.673,8.459,5.71,8.314z M5.857,9.482c0.144-0.015,0.262,0.014,0.283,0.257C6.104,9.772,6.047,9.866,5.969,9.888
		C5.828,9.93,5.709,9.877,5.697,9.704C5.688,9.586,5.726,9.496,5.857,9.482z M5.583,11.723c-0.16,0.083-0.237,0.154-0.319,0.16
		c-0.162,0.012-0.245-0.104-0.206-0.249c0.019-0.072,0.147-0.178,0.199-0.164C5.353,11.496,5.429,11.597,5.583,11.723z M5.187,7.534
		C5.286,7.511,5.402,7.53,5.426,7.743c-0.041,0.036-0.1,0.128-0.177,0.15C5.111,7.932,5.056,7.812,5.061,7.705
		C5.062,7.644,5.131,7.546,5.187,7.534z M5.228,8.74c0.108,0.128,0.199,0.19,0.223,0.272c0.041,0.144-0.091,0.273-0.232,0.225
		C5.142,9.211,5.056,9.101,5.05,9.022C5.043,8.952,5.139,8.873,5.228,8.74z M4.632,8.595c-0.147,0.053-0.25-0.055-0.25-0.227
		C4.381,8.229,4.467,8.162,4.585,8.18c0.085,0.013,0.162,0.087,0.303,0.17C4.768,8.469,4.711,8.565,4.632,8.595z M4.561,10.796
		c0.086,0.016,0.197,0.073,0.234,0.145c0.064,0.126-0.041,0.262-0.18,0.275c-0.158,0.014-0.253-0.071-0.241-0.228
		C4.381,10.874,4.432,10.771,4.561,10.796z M4.785,13.647c-0.027,0.078-0.126,0.132-0.166,0.17
		c-0.216-0.033-0.227-0.155-0.201-0.254c0.014-0.054,0.119-0.114,0.183-0.114C4.714,13.448,4.83,13.512,4.785,13.647z M4.624,12.527
		c-0.158,0.029-0.261-0.09-0.239-0.242c0.02-0.134,0.119-0.188,0.231-0.16c0.085,0.022,0.156,0.099,0.3,0.199
		C4.774,12.426,4.706,12.511,4.624,12.527z M5.193,10.035c0.123,0.148,0.226,0.225,0.25,0.321c0.014,0.054-0.091,0.175-0.166,0.204
		c-0.137,0.053-0.261-0.056-0.244-0.209C5.042,10.266,5.112,10.189,5.193,10.035z M5.938,13.865
		c-0.154,0.022-0.25-0.065-0.251-0.229c-0.001-0.126,0.062-0.218,0.182-0.205c0.087,0.01,0.199,0.073,0.241,0.146
		C6.18,13.701,6.08,13.845,5.938,13.865z"/>
	<path fill="#E5E5E5" d="M14.431,16.771c0.037-0.002,0.083,0.019,0.121,0.048c0.019-0.195,0.03-0.395,0.03-0.595
		c0-0.165-0.01-0.328-0.021-0.489c-0.033,0.025-0.063,0.042-0.094,0.048c-0.115,0.019-0.214-0.061-0.185-0.194
		c0.011-0.062,0.087-0.152,0.135-0.154c0.036-0.001,0.073,0.01,0.117,0.027c-0.041-0.349-0.108-0.687-0.202-1.014
		c-0.025-0.029-0.037-0.076-0.043-0.153c-0.083-0.268-0.183-0.525-0.299-0.775c0,0.1,0,0.19,0,0.298
		c-0.189,0.047-0.359,0.091-0.532,0.137c-0.027,0.124-0.041,0.256-0.093,0.367c-0.038,0.081-0.13,0.176-0.209,0.188
		c-0.168,0.027-0.225-0.103-0.227-0.25c-0.002-0.08,0.016-0.159,0.021-0.239c-0.055-0.025-0.111-0.052-0.167-0.077
		c-0.102-0.024-0.215-0.03-0.305-0.079c-0.077-0.043-0.174-0.13-0.181-0.206c-0.007-0.071,0.075-0.178,0.147-0.226
		c0.102-0.068,0.227-0.104,0.344-0.15c0.042-0.09,0.097-0.175,0.119-0.27c0.034-0.142,0.089-0.246,0.254-0.23
		c0.167,0.014,0.197,0.139,0.219,0.275c0.013,0.077,0.042,0.152,0.063,0.229c0.058,0.024,0.112,0.048,0.168,0.074
		c0.119,0.04,0.238,0.082,0.363,0.125c-0.266-0.572-0.612-1.101-1.026-1.57c-0.067,0.007-0.137,0.013-0.206,0.021
		c-0.002,0.004-0.004,0.009-0.007,0.013c-0.005,0.008-0.013,0.015-0.021,0.023c-0.002,0.173-0.003,0.347-0.003,0.529
		c-0.221,0.05-0.399,0.09-0.576,0.129c-0.038,0.175-0.075,0.348-0.115,0.532c-0.186,0.033-0.356,0.066-0.532,0.098
		c0,0.012-0.001,0.023-0.005,0.034c-0.007,0.006-0.016,0.01-0.023,0.014c-0.037,0.167-0.073,0.335-0.114,0.519
		c-0.175,0.033-0.345,0.066-0.515,0.1c-0.001,0.01-0.001,0.019-0.003,0.028c-0.012,0.004-0.022,0.007-0.032,0.012
		c0.002,0.21,0.003,0.421,0.006,0.63c0.057,0.039,0.113,0.076,0.17,0.114c0.393,0.07,0.399,0.073,0.488,0.538
		c0.009,0,0.018,0,0.027,0c0,0.013,0,0.025,0,0.037c0.217,0.081,0.434,0.16,0.64-0.023c0.045-0.094,0.104-0.184,0.125-0.282
		c0.034-0.15,0.104-0.264,0.263-0.223c0.081,0.022,0.157,0.12,0.2,0.202c0.052,0.091,0.063,0.204,0.093,0.307
		c0.05,0.02,0.099,0.041,0.145,0.068c0.079,0.023,0.177,0.023,0.232,0.073c0.068,0.063,0.127,0.162,0.138,0.253
		c0.006,0.049-0.083,0.137-0.146,0.162c-0.119,0.05-0.251,0.071-0.377,0.104c-0.034,0.12-0.05,0.249-0.11,0.352
		c-0.045,0.073-0.16,0.152-0.234,0.145c-0.067-0.008-0.146-0.118-0.178-0.2c-0.026-0.065,0.01-0.152,0.017-0.229l0,0
		c-0.041-0.025-0.083-0.047-0.127-0.064c-0.227-0.009-0.452-0.018-0.679-0.027c0,0.01,0,0.02,0,0.029c-0.01,0-0.019,0-0.025,0
		c-0.004,0.043-0.005,0.085-0.014,0.127c-0.032,0.149-0.021,0.337-0.229,0.367c-0.217,0.029-0.248-0.137-0.287-0.297
		c-0.017-0.068-0.055-0.133-0.086-0.197c-0.015,0-0.027,0-0.04,0c0-0.011,0-0.02,0-0.029c-0.04-0.015-0.081-0.03-0.121-0.033
		c-0.286-0.016-0.424-0.176-0.452-0.447c-0.021-0.029-0.04-0.061-0.061-0.09c0,0,0,0,0-0.002c0.114,0.274,0.18,0.576,0.18,0.893
		c0,0.464-0.14,0.896-0.377,1.256c0.044,0.047,0.091,0.108,0.161,0.181c-0.134,0.078-0.209,0.153-0.292,0.165
		c-0.049,0.006-0.088-0.007-0.119-0.03c-0.112,0.119-0.235,0.228-0.37,0.319c0.049,0.034,0.105,0.077,0.183,0.126
		c-0.143,0.105-0.21,0.194-0.291,0.212c-0.127,0.027-0.211-0.035-0.238-0.142c-0.291,0.134-0.614,0.211-0.957,0.211
		c-0.542,0-1.041-0.189-1.433-0.506c0.08,0.086,0.14,0.14,0.161,0.206c0.044,0.146-0.077,0.254-0.237,0.237
		c-0.136-0.015-0.197-0.105-0.172-0.223c0.015-0.081,0.088-0.151,0.174-0.283c-0.435-0.379-0.726-0.918-0.78-1.524
		c-0.046-0.047-0.068-0.123-0.052-0.205H4.745c0.022,0.096-0.02,0.193-0.139,0.203c-0.063,0.005-0.185-0.056-0.188-0.093
		c-0.003-0.034,0.007-0.071,0.021-0.11H3.495c-0.014,0.218-0.113,0.289-0.268,0.26c-0.124-0.023-0.172-0.104-0.17-0.224
		c0-0.012,0.001-0.024,0.003-0.036H2.186c-0.019,0.248-0.077,0.271-0.393,0.289c-0.066,0.006-0.133-0.006-0.2-0.013
		c-0.006,0.009-0.009,0.015-0.015,0.024c-0.007,0.01-0.014,0.022-0.022,0.034c-0.003,0.037-0.008,0.075-0.012,0.114
		c0.05,0.733,0.221,1.437,0.495,2.084c0.075,0.025,0.092,0.077,0.093,0.208c0.084,0.18,0.176,0.354,0.274,0.524
		c0.059-0.119,0.157-0.158,0.305-0.102c0.168,0.064,0.119,0.21,0.079,0.381c-0.065,0.006-0.134,0.012-0.201,0.018
		c0.131,0.201,0.271,0.396,0.423,0.58c0.006-0.019,0.01-0.037,0.011-0.055c0.011-0.236,0.142-0.318,0.357-0.336
		c0.062-0.005,0.12-0.047,0.178-0.082c0.003-0.011,0.004-0.021,0.008-0.032c0.011,0,0.022,0.001,0.035,0.001
		c0.032-0.069,0.083-0.138,0.085-0.208c0.01-0.225,0.122-0.328,0.34-0.353c0.071-0.007,0.137-0.057,0.204-0.094
		c0.034-0.065,0.084-0.129,0.093-0.198c0.027-0.199,0.097-0.339,0.327-0.354c0.055-0.005,0.103-0.08,0.153-0.131
		c-0.001-0.007-0.001-0.013-0.001-0.019c0.008,0,0.017,0,0.026,0c0.148-0.044,0.175-0.176,0.201-0.304
		c0.03-0.142,0.152-0.173,0.244-0.133c0.074,0.033,0.16,0.163,0.147,0.233c-0.013,0.071-0.128,0.159-0.213,0.183
		c-0.119,0.031-0.25,0.02-0.378,0.021c-0.004,0.001-0.008,0.003-0.012,0.005c-0.004,0.005-0.009,0.009-0.013,0.014
		c0.027,0.229,0.055,0.457,0.084,0.687c0.054,0.034,0.107,0.065,0.162,0.1c0.153,0.002,0.331,0.071,0.409-0.133
		c-0.001-0.007-0.003-0.014-0.003-0.021c0.004,0,0.01,0,0.015,0c0.065-0.074,0.137-0.142,0.193-0.221
		c0.043-0.063,0.063-0.143,0.091-0.211c0.332,0.034,0.332,0.034,0.333,0.412c-0.204,0.006-0.409,0.014-0.617,0.02
		c-0.001,0.002-0.002,0.002-0.003,0.004c-0.002,0.007-0.006,0.011-0.008,0.017c0.051,0.234,0.105,0.471,0.159,0.706
		c0.034,0.018,0.065,0.037,0.094,0.06c0.155,0.035,0.31,0.072,0.417-0.091c-0.001-0.009-0.003-0.017-0.004-0.025
		c0.009,0,0.016-0.002,0.024-0.002c0.092-0.149,0.187-0.298,0.28-0.448c0.319,0.029,0.319,0.029,0.321,0.399
		c-0.197,0.016-0.398,0.033-0.601,0.049c-0.002,0.003-0.004,0.006-0.006,0.008c-0.003,0.009-0.009,0.014-0.014,0.02
		c0.028,0.228,0.059,0.452,0.089,0.68c0.052,0.023,0.102,0.047,0.154,0.07c0.178,0.069,0.344,0.051,0.492-0.071
		c0.044-0.093,0.102-0.184,0.124-0.283c0.033-0.148,0.097-0.24,0.259-0.227c0.167,0.012,0.205,0.133,0.223,0.272
		c0.009,0.078,0.032,0.154,0.05,0.231c0.056,0.025,0.112,0.051,0.168,0.077c0.158,0.041,0.32,0.105,0.409-0.099
		c-0.002-0.008-0.002-0.015-0.003-0.024c0.007,0,0.016,0,0.023,0c0.201-0.048,0.162-0.247,0.241-0.375
		c0.031-0.048,0.15-0.076,0.216-0.061c0.063,0.017,0.152,0.111,0.146,0.156c-0.014,0.089-0.071,0.225-0.139,0.244
		c-0.146,0.041-0.305,0.031-0.463,0.035c-0.003,0-0.006,0.003-0.011,0.004c-0.002,0.008-0.005,0.014-0.009,0.021
		c0.033,0.229,0.069,0.46,0.104,0.688c0.052,0.02,0.099,0.043,0.145,0.069c0.18,0.062,0.342,0.034,0.494-0.074
		c0.041-0.092,0.095-0.181,0.117-0.277c0.034-0.147,0.103-0.237,0.263-0.222c0.166,0.016,0.196,0.14,0.22,0.276
		c0.016,0.075,0.046,0.15,0.068,0.225c0.052,0.023,0.104,0.048,0.155,0.071c0.175,0.086,0.333,0.04,0.486-0.048
		c0-0.013,0-0.024,0-0.035c0.01,0,0.021,0,0.03,0c0.033-0.063,0.072-0.122,0.087-0.188c0.041-0.155,0.05-0.332,0.278-0.308
		c0.169,0.02,0.191,0.156,0.214,0.291c0.012,0.067,0.027,0.136,0.043,0.204c0.011,0,0.02,0,0.029,0
		c0.005,0.014,0.01,0.028,0.014,0.042c0.162,0.056,0.325,0.111,0.521,0.177c0.005,0.109,0.014,0.232,0.021,0.385
		c-0.209,0.018-0.377,0.034-0.545,0.046c-0.004,0.011-0.007,0.021-0.01,0.031c-0.01,0.004-0.021,0.007-0.03,0.01
		c0.001,0.093-0.009,0.188-0.009,0.28c1.993-0.923,3.442-2.824,3.735-5.084c-0.027,0.013-0.057,0.017-0.084,0.008
		c-0.063-0.017-0.11-0.082-0.191-0.146C14.326,16.855,14.375,16.773,14.431,16.771z M11.872,14.512
		c-0.131,0.051-0.264-0.061-0.247-0.205c0.01-0.082,0.076-0.158,0.157-0.311c0.126,0.146,0.231,0.22,0.259,0.316
		C12.056,14.359,11.946,14.481,11.872,14.512z M1.95,17.781c-0.132,0.035-0.233-0.104-0.206-0.25
		c0.024-0.132,0.121-0.176,0.227-0.146c0.08,0.024,0.143,0.105,0.268,0.202C2.104,17.681,2.034,17.76,1.95,17.781z M2.582,18.439
		c-0.147,0.016-0.164-0.112-0.166-0.222c-0.001-0.148,0.111-0.188,0.219-0.16c0.079,0.022,0.142,0.109,0.282,0.226
		C2.751,18.364,2.669,18.433,2.582,18.439z M2.573,17.114c-0.04,0.009-0.161-0.132-0.159-0.202c0.001-0.066,0.108-0.169,0.182-0.184
		c0.072-0.013,0.162,0.067,0.335,0.15C2.757,17.001,2.673,17.091,2.573,17.114z M3.227,17.297c0.126,0.116,0.226,0.168,0.259,0.247
		c0.057,0.139-0.059,0.257-0.215,0.256c-0.136-0.001-0.206-0.082-0.193-0.199C3.085,17.516,3.153,17.438,3.227,17.297z
		 M3.296,19.124c-0.159,0.012-0.252-0.095-0.212-0.246c0.02-0.072,0.148-0.175,0.202-0.162c0.097,0.023,0.175,0.124,0.334,0.251
		C3.457,19.051,3.378,19.119,3.296,19.124z M3.949,18.488c-0.17,0-0.225-0.107-0.219-0.264c0.006-0.143,0.11-0.206,0.21-0.175
		c0.099,0.032,0.175,0.14,0.224,0.183C4.162,18.452,4.063,18.488,3.949,18.488z M3.913,17.14c-0.129,0.021-0.213-0.12-0.182-0.271
		C3.76,16.739,3.859,16.7,3.96,16.74c0.077,0.029,0.129,0.12,0.238,0.227C4.069,17.049,3.995,17.125,3.913,17.14z M4.766,17.656
		c-0.028,0.077-0.12,0.133-0.24,0.255c-0.07-0.15-0.132-0.231-0.142-0.315c-0.012-0.112,0.048-0.198,0.182-0.197
		C4.715,17.399,4.816,17.511,4.766,17.656z M5.214,17.099c-0.06-0.016-0.146-0.101-0.142-0.147c0.008-0.084,0.076-0.16,0.163-0.322
		c0.103,0.156,0.188,0.229,0.194,0.309C5.438,17.063,5.332,17.129,5.214,17.099z M5.971,17.878c-0.126-0.13-0.222-0.187-0.247-0.266
		c-0.035-0.104,0.001-0.22,0.152-0.223c0.111-0.001,0.238,0.01,0.234,0.153C6.108,17.63,6.042,17.715,5.971,17.878z M7.429,18.903
		c-0.017,0.087-0.094,0.16-0.182,0.3C7.141,19.079,7.057,19.02,7.03,18.94c-0.037-0.104,0-0.206,0.134-0.234
		C7.314,18.676,7.455,18.768,7.429,18.903z M7.905,19.776c-0.123,0.056-0.24-0.067-0.232-0.222c0.006-0.123,0.073-0.207,0.192-0.187
		c0.081,0.014,0.155,0.088,0.286,0.169C8.037,19.651,7.983,19.742,7.905,19.776z M8.538,19.076
		c-0.113,0.019-0.214-0.059-0.188-0.194c0.014-0.061,0.089-0.152,0.138-0.153c0.085-0.002,0.172,0.055,0.36,0.125
		C8.689,18.973,8.619,19.063,8.538,19.076z M9.191,19.748c-0.074-0.021-0.165-0.121-0.177-0.196
		c-0.009-0.066,0.083-0.147,0.163-0.275c0.113,0.115,0.207,0.17,0.232,0.246C9.457,19.656,9.331,19.789,9.191,19.748z M11.179,17.43
		c0.063,0.015,0.108,0.09,0.213,0.183c-0.115,0.072-0.19,0.141-0.274,0.156c-0.033,0.007-0.123-0.1-0.13-0.16
		C10.973,17.487,11.043,17.395,11.179,17.43z M10.448,16.769c0.078,0.004,0.152,0.061,0.265,0.112
		c-0.083,0.104-0.117,0.188-0.171,0.203c-0.107,0.031-0.202-0.024-0.196-0.148C10.35,16.875,10.416,16.767,10.448,16.769z
		 M9.91,20.533c-0.12-0.127-0.208-0.184-0.239-0.263c-0.044-0.105-0.007-0.211,0.119-0.249c0.145-0.043,0.291,0.051,0.276,0.193
		C10.056,20.3,9.987,20.38,9.91,20.533z M10.088,18.505c0,0.002-0.002,0.003-0.002,0.005c-0.005,0.004-0.009,0.006-0.013,0.008
		c0.002,0.156,0.021,0.314,0.006,0.469c-0.007,0.054-0.116,0.142-0.166,0.134c-0.088-0.013-0.19-0.069-0.244-0.142
		c-0.035-0.045-0.021-0.184,0.023-0.221c0.113-0.098,0.25-0.163,0.381-0.24c0-0.003,0-0.008,0-0.012
		C10.079,18.506,10.083,18.505,10.088,18.505c0.098-0.145,0.193-0.292,0.293-0.44c0.313,0.029,0.313,0.029,0.314,0.405
		C10.495,18.481,10.293,18.495,10.088,18.505z M10.775,19.184c-0.002,0.006-0.004,0.011-0.006,0.016
		c-0.009,0.003-0.016,0.007-0.022,0.011c-0.012,0.176-0.021,0.349-0.03,0.518c-0.353,0.044-0.353,0.044-0.417-0.284
		c0.146-0.076,0.296-0.154,0.447-0.233c0.002-0.008,0.002-0.015,0.002-0.022C10.758,19.185,10.768,19.185,10.775,19.184
		c0.065-0.135,0.115-0.283,0.208-0.395c0.053-0.06,0.189-0.056,0.291-0.06c0.029-0.001,0.097,0.087,0.088,0.112
		c-0.031,0.094-0.068,0.228-0.138,0.255C11.087,19.153,10.929,19.16,10.775,19.184z M11.171,20.405
		c-0.065-0.001-0.167-0.098-0.191-0.17c-0.032-0.105,0.035-0.211,0.161-0.199c0.08,0.008,0.153,0.079,0.293,0.157
		C11.308,20.3,11.239,20.406,11.171,20.405z M11.897,21.058c-0.204,0.021-0.265-0.068-0.261-0.181c0-0.062,0.09-0.176,0.117-0.169
		c0.087,0.021,0.202,0.069,0.23,0.139C12.007,20.903,11.922,21.004,11.897,21.058z M11.982,19.599
		c-0.018,0.058-0.102,0.095-0.208,0.188c-0.053-0.123-0.112-0.203-0.113-0.284c-0.002-0.037,0.105-0.107,0.168-0.11
		C11.962,19.386,12.012,19.488,11.982,19.599z M11.649,18.285c0.004-0.079,0.066-0.155,0.148-0.327
		c0.104,0.161,0.2,0.248,0.187,0.305c-0.02,0.071-0.125,0.133-0.206,0.168C11.758,18.439,11.647,18.334,11.649,18.285z
		 M11.883,17.061c-0.081,0.053-0.229-0.063-0.204-0.163c0.015-0.06,0.083-0.137,0.138-0.146c0.056-0.009,0.123,0.057,0.206,0.103
		C11.965,16.941,11.939,17.024,11.883,17.061z M12.335,17.577c0.017-0.059,0.083-0.134,0.138-0.143
		c0.052-0.01,0.116,0.057,0.197,0.102c-0.056,0.083-0.081,0.163-0.137,0.197C12.452,17.784,12.31,17.671,12.335,17.577z
		 M12.664,20.264c-0.033,0.065-0.162,0.1-0.252,0.113c-0.027,0.003-0.112-0.128-0.098-0.174c0.022-0.077,0.106-0.135,0.14-0.173
		C12.663,20.057,12.708,20.171,12.664,20.264z M12.539,19.062c-0.104,0.035-0.213-0.002-0.223-0.13
		c-0.004-0.061,0.057-0.18,0.093-0.183c0.081-0.003,0.164,0.05,0.282,0.091C12.621,18.948,12.593,19.041,12.539,19.062z
		 M13.095,16.685c0.105,0.088,0.206,0.149,0.198,0.173c-0.026,0.08-0.084,0.157-0.149,0.208c-0.016,0.014-0.156-0.067-0.156-0.105
		C12.987,16.883,13.045,16.805,13.095,16.685z M13.283,18.251c0.018,0.097-0.135,0.204-0.207,0.146
		c-0.05-0.04-0.096-0.134-0.085-0.193c0.01-0.053,0.097-0.092,0.175-0.156C13.218,18.132,13.274,18.188,13.283,18.251z
		 M13.166,19.755c-0.112,0.035-0.206-0.028-0.214-0.164c-0.004-0.114,0.019-0.217,0.167-0.216c0.107,0.001,0.214,0.02,0.234,0.223
		C13.308,19.638,13.247,19.729,13.166,19.755z M13.97,18.911c-0.011,0.077-0.098,0.143-0.208,0.291
		c-0.069-0.172-0.126-0.252-0.126-0.332c0-0.047,0.087-0.117,0.146-0.131C13.908,18.708,13.984,18.802,13.97,18.911z M13.847,17.728
		c-0.083,0.05-0.223-0.061-0.196-0.154c0.014-0.059,0.082-0.133,0.136-0.142c0.052-0.01,0.117,0.056,0.198,0.101
		C13.929,17.615,13.901,17.693,13.847,17.728z M13.721,16.417c-0.036-0.003-0.096-0.122-0.091-0.185
		c0.011-0.128,0.127-0.161,0.228-0.125c0.053,0.02,0.079,0.111,0.151,0.223C13.889,16.371,13.804,16.422,13.721,16.417z
		 M13.802,15.129c-0.105,0.02-0.19-0.049-0.197-0.178c-0.005-0.129,0.072-0.203,0.185-0.193c0.081,0.009,0.154,0.083,0.304,0.167
		C13.951,15.029,13.883,15.115,13.802,15.129z"/>
	<path fill="#E5E5E5" d="M8.168,13.856c-0.009,0.005-0.014,0.013-0.025,0.02c-0.004,0.003-0.007,0.006-0.01,0.009
		c-0.002,0.015-0.002,0.03-0.002,0.044c0.309,0.011,0.601,0.082,0.868,0.203C9,14.097,9.001,14.062,9.003,14.02
		C8.952,13.996,8.9,13.973,8.85,13.948C8.623,13.918,8.396,13.887,8.168,13.856z"/>
	<path fill="#E5E5E5" d="M12.95,3.511c0.118-0.025,0.236-0.05,0.354-0.075V2.649c-0.173,0.038-0.338,0.074-0.501,0.11
		c-0.004,0.217-0.01,0.434-0.014,0.651C12.843,3.445,12.896,3.478,12.95,3.511z"/>
	<path fill="#E5E5E5" d="M3.587,9.328c-0.006,0.003-0.01,0.005-0.015,0.008C3.57,9.339,3.568,9.343,3.568,9.346L3.587,9.328z"/>
	<path fill="#E5E5E5" d="M12.805,2.744l-0.021,0.02c0.007-0.002,0.012-0.003,0.019-0.004C12.803,2.754,12.803,2.749,12.805,2.744z"
		/>
	<polygon fill="#E5E5E5" points="12.144,2.085 12.133,2.093 12.125,2.105 	"/>
	<path fill="#E5E5E5" d="M12.144,11.317c0-0.004,0-0.009,0-0.014l-0.019,0.019C12.133,11.32,12.138,11.319,12.144,11.317z"/>
	<polygon fill="#E5E5E5" points="12.14,12.625 12.131,12.634 12.138,12.632 12.14,12.625 	"/>
	<path fill="#E5E5E5" d="M13.459,13.953c0.001-0.007,0.001-0.012,0.003-0.018l-0.02,0.021
		C13.447,13.954,13.454,13.953,13.459,13.953z"/>
	<path fill="#E5E5E5" d="M12.805,13.275c-0.006,0.003-0.01,0.004-0.014,0.006c-0.004,0.005-0.006,0.01-0.009,0.015L12.805,13.275z"
		/>
	<polygon fill="#E5E5E5" points="12.14,12.625 12.14,12.625 12.14,12.625 	"/>
	<polygon fill="#E5E5E5" points="6.219,11.96 6.209,11.965 6.2,11.979 	"/>
	<path fill="#E5E5E5" d="M12.144,15.25c-0.006,0.007-0.009,0.008-0.015,0.014c-0.002,0.002-0.004,0.005-0.006,0.008L12.144,15.25z"
		/>
	<polygon fill="#E5E5E5" points="6.878,9.985 6.865,9.991 6.858,10.004 	"/>
	<polygon fill="#E5E5E5" points="6.858,10.004 6.858,10.004 6.858,10.004 	"/>
	<path fill="#E5E5E5" d="M12.784,15.932c0.005-0.001,0.011-0.003,0.017-0.004c0-0.006,0.002-0.013,0.004-0.018L12.784,15.932z"/>
	<path fill="#E5E5E5" d="M3.586,6.713C3.588,6.949,3.59,7.186,3.59,7.422C3.61,7.456,3.63,7.49,3.651,7.523
		c0.159-0.002,0.318-0.004,0.477-0.005c0.061-0.105,0.121-0.208,0.18-0.313C4.31,7.049,4.311,6.893,4.312,6.736
		C4.069,6.729,3.828,6.721,3.586,6.713z"/>
	<path fill="#E5E5E5" d="M4.312,6.713c0,0.008,0,0.016,0,0.023c0.006,0,0.014,0,0.02,0.001c0,0-0.002-0.002-0.004-0.003
		C4.323,6.727,4.312,6.713,4.312,6.713z"/>
	<path fill="#E5E5E5" d="M3.586,6.695L3.584,6.696L3.568,6.712c0.006,0,0.012,0,0.018,0C3.586,6.707,3.586,6.701,3.586,6.695
		L3.586,6.695z"/>
	<path fill="#E5E5E5" d="M3.588,10.644c-0.006,0.002-0.01,0.003-0.016,0.005c-0.001,0.005-0.003,0.01-0.004,0.015L3.588,10.644z"/>
	<path fill="#E5E5E5" d="M2.909,10.005c0.007,0,0.013,0,0.02,0c0-0.006,0-0.013,0-0.019L2.909,10.005z"/>
	<path fill="#E5E5E5" d="M3.572,10.649c0.055-0.194,0.11-0.388,0.165-0.581c-0.026-0.021-0.052-0.041-0.078-0.061v0
		c-0.244,0-0.487-0.001-0.73-0.002c0.001,0.229,0.001,0.458,0.002,0.688v0c0.017,0.043,0.038,0.084,0.062,0.123
		C3.186,10.76,3.379,10.704,3.572,10.649z"/>
	<path fill="#E5E5E5" d="M10.148,14.613c0.008,0,0.016-0.001,0.023-0.001c0-0.006,0-0.014,0-0.019L10.148,14.613z"/>
	<path fill="#E5E5E5" d="M10.808,15.25c0.009,0,0.021,0,0.028,0c0.047-0.18,0.093-0.358,0.138-0.538
		c-0.057-0.038-0.113-0.075-0.17-0.114c-0.212,0.006-0.423,0.011-0.632,0.015c0,0.239,0.002,0.48,0.002,0.721
		c0.021,0.029,0.04,0.061,0.061,0.09c0.19-0.05,0.382-0.1,0.573-0.148C10.808,15.266,10.808,15.258,10.808,15.25z"/>
	<path fill="#E5E5E5" d="M9.491,13.954c0.006,0,0.015,0,0.02,0c0-0.006,0-0.012,0-0.019L9.491,13.954z"/>
	<path fill="#E5E5E5" d="M9.511,13.954c0,0.164-0.002,0.327-0.004,0.492c0.099,0.079,0.186,0.166,0.27,0.261
		c0.126-0.037,0.251-0.072,0.377-0.109c0.032-0.213,0.065-0.429,0.102-0.644C10.005,13.954,9.759,13.954,9.511,13.954z"/>
	<path fill="#E5E5E5" d="M10.153,14.598c-0.002,0.006-0.002,0.011-0.005,0.016l0.023-0.02
		C10.164,14.595,10.158,14.596,10.153,14.598z"/>
	<polygon fill="#E5E5E5" points="10.255,13.954 10.255,13.954 10.255,13.954 10.255,13.954 10.255,13.954 10.255,13.954 	"/>
	<path fill="#E5E5E5" d="M12.146,3.422c0,0.234,0.001,0.469,0.001,0.703v0.001c0.021,0.036,0.04,0.072,0.061,0.106
		c0.192-0.055,0.386-0.112,0.579-0.168c0.056-0.184,0.108-0.369,0.163-0.554c-0.055-0.033-0.107-0.066-0.161-0.1
		C12.573,3.415,12.359,3.418,12.146,3.422z"/>
	<path fill="#E5E5E5" d="M12.146,3.422c0-0.007,0-0.013,0-0.021l-0.023,0.021C12.131,3.422,12.138,3.422,12.146,3.422z"/>
	<path fill="#E5E5E5" d="M12.805,4.06c-0.006,0.001-0.012,0.003-0.018,0.004c0,0.006-0.002,0.011-0.003,0.017L12.805,4.06z"/>
	<path fill="#E5E5E5" d="M12.295,2.827c-0.022-0.021-0.046-0.042-0.067-0.063c-0.249-0.001-0.495-0.001-0.742-0.002
		c0.002,0.235,0.004,0.468,0.005,0.703c0.016,0.038,0.036,0.075,0.06,0.109c0.192-0.056,0.386-0.112,0.579-0.167
		C12.184,3.213,12.239,3.02,12.295,2.827z"/>
	<path fill="#E5E5E5" d="M12.146,3.401c-0.007,0.001-0.012,0.003-0.018,0.005c-0.002,0.005-0.004,0.01-0.006,0.015L12.146,3.401z"/>
	<path fill="#E5E5E5" d="M11.468,2.762L11.468,2.762c0.005,0,0.012,0,0.018,0c0-0.005,0-0.012,0-0.018L11.468,2.762z"/>
	<path fill="#E5E5E5" d="M8.853,13.276c-0.003,0.002-0.009,0.003-0.014,0.003c-0.002,0.006-0.004,0.012-0.006,0.017L8.853,13.276z"
		/>
	<path fill="#E5E5E5" d="M9.003,12.702c-0.022-0.021-0.047-0.042-0.071-0.063c-0.245-0.007-0.49-0.014-0.735-0.021
		c0,0.007,0,0.014,0,0.022c-0.009,0-0.019,0-0.028,0c0.009,0.224-0.075,0.461,0.1,0.659c0.026,0.02,0.051,0.04,0.077,0.062
		c0.164-0.027,0.33-0.055,0.494-0.081C8.894,13.087,8.949,12.894,9.003,12.702z"/>
	<polygon fill="#E5E5E5" points="9.506,9.994 9.502,9.997 9.5,10 	"/>
	<path fill="#E5E5E5" d="M9.502,9.997c0.011-0.042,0.024-0.085,0.034-0.128c-0.242-0.057-0.49-0.1-0.744-0.129
		c0.009,0.088,0.031,0.177,0.067,0.264c0.051,0.018,0.099,0.04,0.146,0.065C9.186,10.146,9.352,10.123,9.502,9.997z"/>
	<path fill="#E5E5E5" d="M4.245,9.985C4.24,9.989,4.234,9.993,4.228,9.997c0,0.003-0.001,0.006-0.001,0.009L4.245,9.985z"/>
	<path fill="#E5E5E5" d="M3.568,9.346c0.004,0,0.01,0,0.015,0c0.001-0.007,0.002-0.013,0.005-0.019L3.568,9.346z"/>
	<path fill="#E5E5E5" d="M3.659,10.007L3.659,10.007c0.026,0.021,0.052,0.041,0.078,0.062c0.176,0.055,0.341,0.032,0.491-0.071
		C4.285,9.801,4.34,9.606,4.396,9.411C4.344,9.387,4.293,9.364,4.242,9.339c-0.22,0.003-0.44,0.005-0.659,0.007
		C3.531,9.575,3.491,9.802,3.659,10.007z"/>
	<path fill="#E5E5E5" d="M2.912,9.994c-0.001,0.004-0.001,0.007-0.003,0.011l0.02-0.019C2.923,9.988,2.918,9.991,2.912,9.994z"/>
	<path fill="#E5E5E5" d="M2.995,9.35c-0.166,0-0.333-0.001-0.499-0.002v0.73c0.144,0.027,0.281-0.014,0.416-0.083
		c0.055-0.194,0.111-0.389,0.166-0.583C3.052,9.388,3.024,9.368,2.995,9.35z"/>
	<path fill="#E5E5E5" d="M11.585,12.665c0.193,0.121,0.373,0.088,0.548-0.036c0.054-0.195,0.108-0.39,0.162-0.585
		c-0.054-0.024-0.107-0.049-0.158-0.073c-0.215-0.007-0.431-0.016-0.646-0.021c-0.001,0.01-0.001,0.021-0.003,0.031
		c-0.008,0.001-0.015,0.002-0.021,0.003c0.01,0.217,0.018,0.434,0.026,0.65C11.524,12.644,11.556,12.654,11.585,12.665z"/>
	<polygon fill="#E5E5E5" points="12.14,12.625 12.133,12.629 12.131,12.634 	"/>
	<path fill="#E5E5E5" d="M4.889,19.862c-0.002,0.006-0.004,0.011-0.005,0.02l0.021-0.021C4.899,19.861,4.895,19.862,4.889,19.862z"
		/>
	<path fill="#E5E5E5" d="M4.227,19.22c0.005,0,0.009,0,0.015,0c0-0.006,0.001-0.012,0.002-0.018L4.227,19.22z"/>
	<path fill="#E5E5E5" d="M4.295,19.899c0.034,0.012,0.067,0.026,0.098,0.044c0.165-0.028,0.331-0.054,0.495-0.081
		c0.054-0.185,0.107-0.368,0.162-0.552c-0.055-0.034-0.108-0.065-0.162-0.1c-0.215,0.003-0.432,0.005-0.647,0.009
		C4.204,19.45,4.171,19.681,4.295,19.899z"/>
	<path fill="#E5E5E5" d="M6.857,12.618c0.01,0,0.019,0,0.027,0c0.097-0.209,0.066-0.419,0.002-0.63
		c-0.01-0.001-0.02-0.003-0.029-0.006c0-0.009,0-0.017,0-0.026c-0.213,0.008-0.426,0.015-0.639,0.022c0,0.24,0.002,0.48,0.005,0.721
		c0.016,0.033,0.036,0.062,0.06,0.09c0.19-0.046,0.382-0.095,0.573-0.143C6.857,12.638,6.857,12.626,6.857,12.618z"/>
	<path fill="#E5E5E5" d="M6.2,11.979c0.007,0,0.013-0.001,0.02-0.001c0-0.006-0.001-0.013-0.001-0.018L6.2,11.979z"/>
	<polygon fill="#E5E5E5" points="5.543,20.538 5.543,20.538 5.543,20.538 	"/>
	<path fill="#E5E5E5" d="M5.056,20.601c0.164-0.026,0.327-0.052,0.491-0.08c0.056-0.192,0.11-0.384,0.165-0.577
		c-0.029-0.022-0.061-0.042-0.094-0.06c-0.238-0.001-0.478-0.002-0.716-0.002C4.875,20.137,4.774,20.408,5.056,20.601z"/>
	<polygon fill="#E5E5E5" points="5.056,20.601 5.056,20.601 5.053,20.601 	"/>
	<path fill="#E5E5E5" d="M5.547,20.521c-0.001,0.006-0.002,0.013-0.004,0.018l0.019-0.019C5.557,20.52,5.552,20.521,5.547,20.521z"
		/>
	<path fill="#E5E5E5" d="M4.883,19.882c0.006,0,0.013,0,0.019,0c0-0.01,0.001-0.016,0.002-0.021L4.883,19.882z"/>
	<path fill="#E5E5E5" d="M12.125,15.271c0.006-0.001,0.013-0.001,0.021-0.001c-0.003-0.006-0.003-0.013-0.003-0.021L12.125,15.271z"
		/>
	<path fill="#E5E5E5" d="M12.168,15.931c0.044,0.018,0.086,0.039,0.127,0.064l0,0c0.177,0.048,0.341,0.035,0.49-0.073
		c0.058-0.195,0.112-0.391,0.169-0.586c-0.046-0.027-0.095-0.049-0.145-0.068c-0.223,0.001-0.442,0.002-0.663,0.003
		C12.153,15.491,12.16,15.712,12.168,15.931z"/>
	<path fill="#E5E5E5" d="M12.805,15.91c-0.006,0.005-0.012,0.007-0.02,0.012c0,0.003,0,0.007-0.001,0.01L12.805,15.91z"/>
	<path fill="#E5E5E5" d="M12.803,13.296c-0.007,0.216-0.012,0.432-0.018,0.646c0.056,0.025,0.112,0.052,0.167,0.077
		c0.177,0.05,0.343,0.038,0.491-0.072c0.058-0.196,0.112-0.391,0.17-0.587c-0.056-0.026-0.11-0.05-0.168-0.074
		C13.231,13.289,13.018,13.293,12.803,13.296z"/>
	<path fill="#E5E5E5" d="M13.462,13.936c-0.005,0.004-0.01,0.008-0.019,0.012c0,0.004,0,0.006-0.001,0.009L13.462,13.936z"/>
	<path fill="#E5E5E5" d="M12.784,13.296c0.005,0,0.012,0,0.019,0c0-0.007,0.002-0.013,0.002-0.021L12.784,13.296z"/>
	<path fill="#E5E5E5" d="M6.37,6.12c0.126,0.038,0.245,0.04,0.356-0.001V5.393c-0.168,0-0.338,0.002-0.507,0.003
		C6.213,5.612,6.208,5.827,6.201,6.043C6.257,6.068,6.313,6.094,6.37,6.12z"/>
	<path fill="#E5E5E5" d="M6.219,5.396c0-0.007,0.001-0.013,0.001-0.019L6.201,5.396C6.208,5.396,6.213,5.396,6.219,5.396z"/>
	<path fill="#E5E5E5" d="M5.563,6.036C5.557,6.04,5.551,6.043,5.545,6.046c0,0.003-0.001,0.006-0.002,0.009L5.563,6.036z"/>
	<path fill="#E5E5E5" d="M4.883,5.397c0.007,0,0.014,0,0.02,0c0-0.006,0-0.013,0-0.02L4.883,5.397z"/>
	<path fill="#E5E5E5" d="M4.917,6.056C4.945,6.064,4.972,6.071,5,6.08c0.191,0.112,0.371,0.08,0.545-0.034
		c0.056-0.195,0.111-0.391,0.167-0.585C5.675,5.436,5.637,5.416,5.597,5.4C5.366,5.398,5.134,5.398,4.903,5.397
		C4.908,5.618,4.913,5.837,4.917,6.056z"/>
	<path fill="#E5E5E5" d="M4.225,6.036c0.011,0,0.021,0,0.032,0C4.304,5.844,4.35,5.653,4.396,5.461
		C4.349,5.435,4.3,5.412,4.25,5.394c-0.222,0-0.442,0.002-0.663,0.003C3.59,5.616,3.593,5.833,3.596,6.053
		C3.645,6.071,3.692,6.094,3.738,6.12C3.899,6.099,4.06,6.077,4.222,6.056C4.223,6.049,4.224,6.042,4.225,6.036z"/>
	<path fill="#E5E5E5" d="M3.567,5.397c0.007,0,0.014,0,0.021,0c0-0.007,0-0.013,0-0.02L3.567,5.397z"/>
	<path fill="#E5E5E5" d="M6.886,4.718c0,0-0.029,0.028-0.029,0.028C6.862,4.864,6.866,4.981,6.87,5.1h0.733
		C7.631,5,7.659,4.902,7.687,4.802c-0.056-0.025-0.111-0.05-0.167-0.076C7.308,4.724,7.098,4.721,6.886,4.718z"/>
	<path fill="#E5E5E5" d="M12.803,2.744c-0.004,0.001-0.01,0.002-0.014,0.002c-0.002,0.005-0.004,0.012-0.005,0.018L12.803,2.744z"/>
	<path fill="#E5E5E5" d="M12.14,2.105c-0.051,0.229-0.088,0.457,0.088,0.659c0.021,0.021,0.045,0.042,0.067,0.063
		c0.165-0.026,0.329-0.053,0.494-0.08c0.056-0.192,0.11-0.385,0.165-0.577c-0.044-0.028-0.089-0.05-0.139-0.067
		C12.591,2.104,12.365,2.104,12.14,2.105z"/>
	<path fill="#E5E5E5" d="M12.125,2.105c0.004,0,0.01,0,0.015,0c0.002-0.006,0.004-0.013,0.004-0.02L12.125,2.105z"/>
	<path fill="#E5E5E5" d="M8.929,21.886c0.007,0.003,0.074,0.032,0.074,0.032l0,0c0.163-0.021,0.324-0.042,0.486-0.063
		c0.002-0.009,0.002-0.015,0.002-0.021c0.011,0,0.02,0,0.031,0c0.045-0.191,0.094-0.384,0.14-0.574
		c-0.052-0.023-0.104-0.048-0.155-0.071c-0.22,0.002-0.438,0.005-0.657,0.007C8.796,21.435,8.761,21.671,8.929,21.886z"/>
	<path fill="#E5E5E5" d="M8.833,21.195c0.006,0,0.011,0,0.017,0c0-0.007,0.002-0.012,0.003-0.018L8.833,21.195z"/>
	<path fill="#E5E5E5" d="M5.574,21.197c0.048,0.017,0.094,0.039,0.138,0.063l0,0c0.163-0.022,0.326-0.043,0.488-0.064
		c0-0.007,0-0.013,0-0.02c0.011,0.001,0.021,0.001,0.032,0.001c0.047-0.191,0.093-0.384,0.14-0.575
		c-0.052-0.023-0.102-0.047-0.154-0.07c-0.219,0.002-0.438,0.004-0.656,0.006C5.565,20.757,5.57,20.978,5.574,21.197z"/>
	<path fill="#E5E5E5" d="M5.543,20.538L5.543,20.538L5.543,20.538c0.006,0,0.012,0,0.019,0c0-0.007,0-0.013,0-0.019L5.543,20.538z"
		/>
	<polygon fill="#E5E5E5" points="6.862,20.535 6.871,20.535 6.873,20.524 	"/>
	<path fill="#E5E5E5" d="M7.52,21.188c-0.001,0.003-0.002,0.006-0.003,0.008l0.019-0.019C7.53,21.182,7.525,21.185,7.52,21.188z"/>
	<path fill="#E5E5E5" d="M6.895,21.199c0.047,0.017,0.091,0.037,0.134,0.062c0.178,0.064,0.341,0.039,0.491-0.073
		c0.056-0.195,0.111-0.39,0.167-0.585c-0.056-0.026-0.112-0.052-0.168-0.077c-0.216,0.004-0.433,0.007-0.648,0.01
		C6.799,20.759,6.801,20.98,6.895,21.199z"/>
	<polygon fill="#E5E5E5" points="8.182,21.844 8.178,21.854 8.195,21.835 	"/>
	<path fill="#E5E5E5" d="M7.517,21.195c0.005,0,0.01,0,0.015,0c0.002-0.007,0.003-0.012,0.004-0.019L7.517,21.195z"/>
	<path fill="#E5E5E5" d="M7.575,21.867c0.039,0.017,0.077,0.032,0.112,0.051c0.178,0.059,0.342,0.028,0.495-0.074
		c0.055-0.195,0.11-0.39,0.163-0.583c-0.046-0.026-0.093-0.05-0.145-0.069c-0.223,0.002-0.446,0.004-0.669,0.004
		C7.47,21.425,7.46,21.649,7.575,21.867z"/>
	<path fill="#E5E5E5" d="M11.57,11.332c0.192,0.127,0.376,0.079,0.559-0.021c0.015-0.049,0.028-0.099,0.043-0.147
		c-0.219-0.179-0.45-0.343-0.692-0.493c-0.048,0.232-0.081,0.462,0.085,0.67c0,0,0.002-0.003,0.004-0.007L11.57,11.332z"/>
	<polygon fill="#E5E5E5" points="11.468,10.663 11.468,10.663 11.468,10.663 	"/>
	<path fill="#E5E5E5" d="M12.144,11.303c-0.004,0.002-0.009,0.005-0.015,0.008c-0.002,0.003-0.002,0.007-0.004,0.011L12.144,11.303z
		"/>
	<path fill="#E5E5E5" d="M10.32,11.387L10.32,11.387c0.18,0.058,0.341,0.025,0.494-0.076c0.056-0.194,0.11-0.388,0.163-0.583
		c-0.047-0.027-0.095-0.05-0.146-0.069c-0.222,0-0.442,0-0.663,0c0.003,0.219,0.005,0.439,0.006,0.659
		C10.225,11.337,10.274,11.36,10.32,11.387z"/>
	<path fill="#E5E5E5" d="M10.148,10.659c0.008,0,0.014,0,0.021,0c0-0.005,0-0.01,0-0.015v0v0L10.148,10.659z"/>
	<path fill="#E5E5E5" d="M10.828,11.302c-0.004,0.003-0.008,0.006-0.014,0.008c0,0.003-0.002,0.006-0.002,0.009L10.828,11.302z"/>
	<path fill="#E5E5E5" d="M7.029,10.728c0.163-0.019,0.325-0.037,0.488-0.056c0-0.01-0.001-0.021-0.001-0.029
		c0.011-0.001,0.021-0.002,0.033-0.002c0.113-0.208,0.084-0.416,0-0.625c-0.012-0.003-0.022-0.006-0.033-0.009
		c0-0.009,0-0.018,0-0.027C7.303,9.987,7.09,9.996,6.878,10.004c-0.007,0.215-0.015,0.431-0.022,0.646
		C6.914,10.676,6.971,10.702,7.029,10.728z"/>
	<path fill="#E5E5E5" d="M6.858,10.004L6.858,10.004c0.006,0,0.013,0,0.02,0c0-0.006,0-0.013,0-0.019L6.858,10.004L6.858,10.004z"/>
	<path fill="#E5E5E5" d="M9.502,13.937c-0.005,0.006-0.007,0.013-0.011,0.018l0.02-0.019C9.507,13.936,9.506,13.937,9.502,13.937z"
		/>
	<path fill="#E5E5E5" d="M8.833,13.296c0.007,0,0.016,0,0.02,0c0-0.007,0-0.012,0-0.02L8.833,13.296z"/>
	<path fill="#E5E5E5" d="M9.522,13.3c-0.012,0-0.021,0-0.031,0c0-0.008,0-0.015,0.001-0.021c-0.213,0.005-0.426,0.011-0.64,0.017
		c-0.001,0.218-0.001,0.434-0.003,0.652c0.051,0.024,0.103,0.048,0.153,0.071c0.167-0.026,0.333-0.057,0.499-0.083
		C9.636,13.729,9.583,13.514,9.522,13.3z"/>
	<path fill="#E5E5E5" d="M4.328,6.734C4.33,6.735,4.332,6.737,4.332,6.737C4.325,6.73,4.321,6.722,4.315,6.715
		c-0.001,0-0.002-0.001-0.003-0.002C4.312,6.713,4.323,6.727,4.328,6.734z"/>
	<path fill="#E5E5E5" d="M4.917,6.056c-0.22-0.006-0.44-0.013-0.66-0.02c-0.01,0-0.021,0-0.032,0
		C4.224,6.042,4.223,6.049,4.222,6.056C4.194,6.285,4.15,6.517,4.315,6.715C4.5,6.844,4.687,6.832,4.872,6.73
		c0.01-0.006,0.021-0.011,0.031-0.018c0.001-0.012,0.003-0.023,0.005-0.035C4.939,6.479,4.97,6.278,5,6.08
		C4.972,6.071,4.945,6.064,4.917,6.056z"/>
	<path fill="#E5E5E5" d="M10.906,13.297c-0.245-0.007-0.49-0.014-0.734-0.022c0,0.009,0,0.016,0,0.024c-0.01,0-0.019,0-0.028,0
		c0.011,0.223-0.076,0.462,0.111,0.655l0,0l0,0l0,0c0.18,0.121,0.361,0.082,0.543,0.014c0.01-0.005,0.021-0.008,0.032-0.012
		c0.002-0.01,0.002-0.019,0.003-0.028c0.025-0.209,0.054-0.42,0.079-0.628L10.906,13.297z"/>
	<path fill="#E5E5E5" d="M9.495,12.621c-0.001,0.006-0.003,0.011-0.004,0.017l0.02-0.019C9.506,12.619,9.5,12.62,9.495,12.621z"/>
	<path fill="#E5E5E5" d="M9.533,11.981c-0.225-0.008-0.451-0.017-0.677-0.025c0,0.008-0.002,0.016-0.004,0.024
		c-0.011,0.006-0.021,0.011-0.033,0.018c-0.011,0.222-0.061,0.45,0.112,0.641c0.024,0.021,0.049,0.042,0.071,0.063
		c0.165-0.027,0.328-0.055,0.492-0.081c0.057-0.192,0.112-0.384,0.167-0.576C9.621,12.021,9.576,11.999,9.533,11.981z"/>
	<polygon fill="#E5E5E5" points="9.506,10 9.506,9.993 9.506,9.993 9.506,9.994 9.5,10 	"/>
	<path fill="#E5E5E5" d="M9.621,10.714c0.189,0.083,0.364,0.052,0.527-0.058c0.133-0.173,0.135-0.37,0.126-0.57
		c-0.079-0.029-0.16-0.056-0.243-0.083c-0.174,0-0.351-0.002-0.525-0.004c-0.006,0.216-0.012,0.433-0.017,0.648
		C9.536,10.666,9.581,10.688,9.621,10.714z"/>
	<path fill="#E5E5E5" d="M10.169,10.644L10.169,10.644c-0.007,0.005-0.013,0.008-0.021,0.013c0,0,0,0.001,0,0.002L10.169,10.644z"/>
	<polygon fill="#E5E5E5" points="8.364,10.733 8.345,10.727 8.365,10.735 8.358,10.729 8.353,10.729 	"/>
	<path fill="#E5E5E5" d="M8.173,10.016c-0.004,0.255-0.1,0.533,0.186,0.714c0.174,0.045,0.335,0.025,0.483-0.078
		c0.054-0.194,0.108-0.388,0.164-0.583c-0.048-0.025-0.096-0.047-0.146-0.065C8.644,9.995,8.425,9.986,8.208,9.977
		c-0.004,0.01-0.007,0.02-0.011,0.03C8.189,10.01,8.18,10.013,8.173,10.016z"/>
	<polygon fill="#E5E5E5" points="8.853,10.644 8.842,10.651 8.839,10.663 	"/>
	<path fill="#E5E5E5" d="M11.492,12.635c-0.218-0.008-0.438-0.017-0.656-0.025c-0.001,0.01-0.004,0.02-0.006,0.03
		c-0.01,0.004-0.019,0.006-0.026,0.012c-0.013,0.221-0.077,0.452,0.103,0.646l0.006,0.003c0.183,0.13,0.366,0.104,0.55,0.01
		c0.008-0.004,0.017-0.008,0.023-0.014c0.004-0.011,0.005-0.022,0.005-0.034c0.034-0.197,0.063-0.397,0.095-0.597
		C11.556,12.654,11.524,12.644,11.492,12.635z"/>
	<path fill="#E5E5E5" d="M4.295,19.899L4.295,19.899c-0.231-0.014-0.462-0.026-0.693-0.037c-0.012,0-0.024-0.001-0.035-0.001
		c-0.003,0.011-0.005,0.021-0.008,0.032c-0.046,0.223-0.049,0.444,0.059,0.655c0.041,0.015,0.081,0.033,0.119,0.054
		c0.179,0.063,0.341,0.028,0.494-0.075c0.054-0.194,0.108-0.389,0.162-0.584C4.363,19.926,4.33,19.911,4.295,19.899z"/>
	<polygon fill="#E5E5E5" points="4.231,20.527 4.229,20.536 4.244,20.52 	"/>
	<path fill="#E5E5E5" d="M4.432,21.273c0.001,0.001-0.037-0.016-0.037-0.016L4.432,21.273c-0.008-0.005-0.016-0.011-0.024-0.018
		c-0.002,0.001-0.005,0.001-0.008,0.002C4.411,21.263,4.421,21.268,4.432,21.273z"/>
	<path fill="#E5E5E5" d="M4.893,21.18c-0.002,0.005-0.003,0.01-0.005,0.016l0.015-0.018C4.899,21.178,4.896,21.179,4.893,21.18z"/>
	<path fill="#E5E5E5" d="M5.055,20.601c-0.262-0.147-0.537-0.111-0.813-0.066c-0.033,0.263-0.108,0.536,0.165,0.722
		c0.162-0.025,0.323-0.051,0.485-0.076C4.945,20.987,5,20.794,5.053,20.601C5.053,20.601,5.056,20.601,5.055,20.601z"/>
	<polygon fill="#E5E5E5" points="4.229,20.536 4.242,20.534 4.244,20.52 	"/>
	<path fill="#E5E5E5" d="M9.003,21.918c0,0-0.067-0.029-0.074-0.032H8.927c-0.245-0.011-0.487-0.021-0.732-0.031
		c0.003,0.22,0.009,0.439,0.013,0.66c0.048,0.016,0.093,0.036,0.137,0.063c0.167-0.027,0.332-0.055,0.497-0.083
		C8.896,22.303,8.95,22.111,9.003,21.918L9.003,21.918z"/>
	<path fill="#E5E5E5" d="M8.178,21.854c0.006,0,0.011,0.001,0.017,0.001c0-0.008,0-0.014,0-0.02L8.178,21.854z"/>
	<path fill="#E5E5E5" d="M8.842,22.495c-0.002,0.006-0.003,0.012-0.003,0.017l0.014-0.019C8.85,22.494,8.846,22.495,8.842,22.495z"
		/>
	<path fill="#E5E5E5" d="M4.888,21.195c0.005,0,0.01,0,0.016,0c0-0.007-0.001-0.012-0.001-0.018L4.888,21.195z"/>
	<path fill="#E5E5E5" d="M5.712,21.261c-0.044-0.024-0.09-0.047-0.138-0.063H5.573c-0.224-0.001-0.447-0.002-0.67-0.002
		c0.001,0.219,0.002,0.437,0.004,0.657c0.052,0.017,0.1,0.038,0.146,0.067c0.179,0.057,0.346,0.038,0.497-0.077
		C5.605,21.648,5.659,21.454,5.712,21.261L5.712,21.261z"/>
	<polygon fill="#E5E5E5" points="5.551,21.843 5.548,21.853 5.563,21.835 	"/>
	<path fill="#E5E5E5" d="M6.867,21.837c-0.002,0.006-0.003,0.01-0.005,0.017l0.016-0.018C6.874,21.836,6.871,21.836,6.867,21.837z"
		/>
	<path fill="#E5E5E5" d="M6.895,21.199L6.895,21.199c-0.221-0.008-0.442-0.015-0.664-0.021c-0.01,0-0.021,0-0.032-0.001
		c0,0.007,0,0.013,0,0.02c0.004,0.216,0.008,0.434,0.01,0.648c0.054,0.025,0.106,0.051,0.16,0.075
		c0.165-0.027,0.331-0.055,0.497-0.083c0.054-0.192,0.108-0.385,0.162-0.576C6.986,21.236,6.942,21.216,6.895,21.199z"/>
	<path fill="#E5E5E5" d="M7.575,21.867L7.575,21.867c-0.235-0.004-0.467-0.009-0.701-0.014c-0.047,0.238-0.09,0.478,0.08,0.69
		c0.007,0.004,0.075,0.033,0.075,0.033c0.178,0.054,0.343,0.024,0.496-0.076c0.054-0.192,0.108-0.388,0.163-0.583
		C7.651,21.899,7.613,21.884,7.575,21.867z"/>
	<polygon fill="#E5E5E5" points="7.524,22.501 7.521,22.512 7.536,22.493 	"/>
	<path fill="#E5E5E5" d="M6.862,21.854c0.005,0,0.008,0,0.012,0c0.001-0.007,0.002-0.012,0.004-0.018L6.862,21.854z"/>
	<path fill="#E5E5E5" d="M10.828,11.32c0-0.006,0-0.012,0-0.018l-0.016,0.018C10.816,11.32,10.821,11.32,10.828,11.32z"/>
	<path fill="#E5E5E5" d="M10.963,12.069c0.166-0.028,0.334-0.057,0.503-0.085c0.007-0.001,0.014-0.002,0.021-0.003
		c0.002-0.011,0.002-0.021,0.003-0.031c0.027-0.207,0.054-0.412,0.08-0.618c0,0-0.002,0.002-0.002,0.003
		c-0.002,0.004-0.004,0.007-0.004,0.007h-0.002c-0.244-0.007-0.49-0.014-0.734-0.021c-0.002,0.218-0.004,0.435-0.007,0.652
		C10.868,12.005,10.915,12.037,10.963,12.069z"/>
	<path fill="#E5E5E5" d="M9.491,11.332c0.015,0.216,0.026,0.432,0.042,0.649c0.043,0.018,0.088,0.04,0.129,0.063
		c0.175,0.069,0.333,0.02,0.486-0.056c0-0.01,0-0.02,0-0.03c0.012,0.001,0.021,0.001,0.032,0.001
		c0.045-0.192,0.094-0.382,0.14-0.573l0,0c-0.046-0.026-0.096-0.049-0.146-0.069c-0.221-0.009-0.439-0.019-0.659-0.028
		c-0.001,0.01-0.003,0.021-0.005,0.031C9.504,11.325,9.497,11.328,9.491,11.332z"/>
	<path fill="#E5E5E5" d="M7.518,12.639c0-0.006,0-0.013,0-0.02c-0.21,0-0.421-0.001-0.633-0.001c-0.008,0-0.018,0-0.027,0
		c0,0.009,0,0.02,0,0.029c0,0.207,0,0.416,0,0.622c0,0.011,0,0.02,0,0.03c0.014,0.005,0.029,0.009,0.042,0.014
		c0.203,0.067,0.405,0.052,0.607-0.005c0.01-0.003,0.021-0.006,0.032-0.009c0-0.01,0-0.02,0-0.029c0-0.211-0.001-0.42-0.001-0.631
		C7.531,12.639,7.524,12.639,7.518,12.639z"/>
	<path fill="#E5E5E5" d="M7.514,11.982c0.007,0,0.013,0,0.02,0c0.001-0.009,0.001-0.018,0.001-0.027L7.514,11.982z"/>
	<path fill="#E5E5E5" d="M7.534,11.982c-0.005,0.212-0.011,0.424-0.017,0.637c0,0.007,0,0.014,0,0.02c0.007,0,0.014,0,0.021,0
		c0.21,0.001,0.421,0.001,0.63,0.001c0.009,0,0.019,0,0.028,0c0-0.008,0-0.015,0-0.022c-0.005-0.212-0.011-0.424-0.016-0.636
		C7.965,11.982,7.749,11.982,7.534,11.982z"/>
	<path fill="#E5E5E5" d="M8.18,11.982c0.005,0,0.011,0,0.018,0L8.18,11.956C8.18,11.964,8.18,11.973,8.18,11.982z"/>
	<path fill="#E5E5E5" d="M10.808,15.25c0,0.008,0,0.016,0,0.024c0,0.209,0,0.418,0,0.629c0,0.01,0,0.019,0,0.029
		c0.013,0,0.025,0,0.04,0c0.204,0,0.41,0,0.616,0c0.007,0,0.016,0,0.025,0c0-0.01,0-0.02,0-0.029c0-0.206,0-0.412,0-0.616
		c0-0.012,0-0.024,0-0.037c-0.01,0-0.019,0-0.027,0c-0.208,0-0.417,0-0.626,0C10.828,15.25,10.816,15.25,10.808,15.25z"/>
	<path fill="#E5E5E5" d="M10.148,21.835c-0.207,0-0.417-0.001-0.626-0.001c-0.012,0-0.021,0-0.031,0c0,0.007,0,0.013-0.002,0.021
		c-0.003,0.229-0.062,0.467,0.096,0.676c0-0.001,0.009-0.01,0.009-0.01c0.021,0.012,0.04,0.022,0.061,0.029
		c0.189-0.048,0.375-0.104,0.56-0.169c0.039-0.172,0.011-0.346-0.035-0.517c-0.01-0.004-0.019-0.006-0.03-0.009
		C10.148,21.849,10.148,21.842,10.148,21.835z"/>
	<path fill="#E5E5E5" d="M10.84,21.825c0.068-0.202,0.075-0.404,0.004-0.607c-0.004-0.014-0.009-0.028-0.014-0.042
		c-0.01,0-0.019,0-0.029,0c-0.207,0-0.414,0.001-0.622,0.001c-0.01,0-0.021,0-0.03,0c0,0.011,0,0.022,0,0.035
		c0,0.209,0,0.416,0,0.623c0,0.007,0,0.014,0,0.021c0.012,0.003,0.021,0.005,0.03,0.009c0.208,0.053,0.415,0.08,0.621,0.001
		c0.01-0.003,0.021-0.006,0.03-0.01C10.833,21.846,10.836,21.836,10.84,21.825z"/>
	<path fill="#E5E5E5" d="M7.548,10.016c0.208,0.06,0.417,0.08,0.625,0c0.007-0.002,0.016-0.006,0.023-0.009
		c0.004-0.01,0.007-0.02,0.011-0.03c0.035-0.091,0.05-0.184,0.05-0.275C8.189,9.699,8.123,9.697,8.053,9.697H7.516
		c0,0.093,0,0.188,0,0.282c0,0.009,0,0.019,0,0.027C7.526,10.01,7.537,10.013,7.548,10.016z"/>
	<path fill="#E5E5E5" d="M8.18,11.312c0.055-0.196,0.11-0.391,0.165-0.585c0,0,0.021,0.008,0.02,0.007
		c-0.004-0.002-0.008-0.003-0.012-0.005c-0.255-0.147-0.533-0.104-0.804-0.088c-0.012,0-0.022,0.001-0.033,0.002
		c0,0.009,0.001,0.02,0.001,0.029c0.008,0.212,0.014,0.424,0.02,0.637C7.751,11.402,7.965,11.445,8.18,11.312z"/>
	<path fill="#E5E5E5" d="M8.195,11.303c-0.006,0.003-0.011,0.005-0.015,0.009c-0.002,0.002-0.004,0.006-0.004,0.009L8.195,11.303z"
		/>
	<path fill="#E5E5E5" d="M7.537,11.31C7.53,11.306,7.523,11.304,7.516,11.3l0.022,0.022C7.537,11.318,7.537,11.314,7.537,11.31z"/>
	<path fill="#E5E5E5" d="M7.516,11.3c0.004,0.008,0.006,0.015,0.009,0.022c0.004,0,0.009,0,0.014,0L7.516,11.3z"/>
	<path fill="#E5E5E5" d="M7.535,11.955c-0.004,0.001-0.008,0.003-0.011,0.006c-0.004,0.006-0.005,0.014-0.01,0.021L7.535,11.955z"/>
	<path fill="#E5E5E5" d="M6.858,11.982c0.009,0.002,0.019,0.004,0.029,0.006c0.215,0.049,0.429,0.089,0.637-0.027
		c0.103-0.212,0.081-0.425,0-0.638c-0.211-0.008-0.424-0.014-0.636-0.021c-0.01,0-0.021,0-0.031,0c0,0.009,0,0.019,0,0.029
		c0,0.209,0,0.418,0.001,0.626C6.858,11.965,6.858,11.973,6.858,11.982z"/>
	<path fill="#E5E5E5" d="M3.154,20.529c0.148,0.167,0.303,0.328,0.468,0.479c0.038-0.136,0.077-0.271,0.116-0.406
		c-0.039-0.021-0.078-0.039-0.119-0.054C3.463,20.542,3.309,20.536,3.154,20.529z"/>
	<path fill="#E5E5E5" d="M5.548,21.853c0.003,0,0.007,0,0.01,0c0.001-0.007,0.003-0.012,0.004-0.018L5.548,21.853z"/>
	<path fill="#E5E5E5" d="M5.559,21.853c-0.027,0.119-0.055,0.241-0.083,0.366c0.238,0.103,0.484,0.191,0.737,0.265
		c0.053-0.187,0.104-0.376,0.158-0.563c-0.054-0.024-0.106-0.05-0.16-0.075C5.993,21.847,5.775,21.85,5.559,21.853z"/>
	<path fill="#E5E5E5" d="M8.839,22.512c0.003,0,0.007,0,0.011,0c0-0.006,0.002-0.012,0.003-0.019L8.839,22.512z"/>
	<path fill="#E5E5E5" d="M9.585,22.531c-0.247-0.006-0.491-0.014-0.735-0.02c-0.019,0.064-0.031,0.13-0.039,0.194
		c0.265-0.031,0.523-0.077,0.777-0.139c0.002-0.016,0.004-0.031,0.006-0.046C9.594,22.521,9.585,22.53,9.585,22.531L9.585,22.531z"
		/>
	<path fill="#E5E5E5" d="M9.491,12.638c0.004,0,0.013,0,0.018,0c0.002-0.007,0.002-0.013,0.002-0.019L9.491,12.638z"/>
	<path fill="#E5E5E5" d="M10.172,13.274c0.002-0.208,0.002-0.419,0.003-0.628c-0.01-0.002-0.017-0.004-0.023-0.006
		c0-0.007,0-0.014,0-0.021c-0.213,0.006-0.427,0.012-0.643,0.019c-0.005,0.213-0.012,0.427-0.017,0.642
		c-0.001,0.006-0.001,0.013-0.001,0.021c0.011,0,0.02,0,0.031,0c0.207-0.001,0.416-0.001,0.621-0.001c0.01,0,0.019,0,0.028,0
		C10.172,13.29,10.172,13.283,10.172,13.274z"/>
	<path fill="#E5E5E5" d="M8.819,11.998c0.012-0.006,0.022-0.011,0.033-0.018c0.002-0.008,0.004-0.016,0.004-0.024
		c0.032-0.199,0.063-0.399,0.093-0.6c-0.033-0.018-0.07-0.033-0.107-0.043c-0.216,0.002-0.433,0.006-0.647,0.008
		c0,0.215,0.001,0.43,0.003,0.645C8.401,12.082,8.605,12.112,8.819,11.998z"/>
	<path fill="#E5E5E5" d="M8.195,11.321c0-0.006,0-0.012,0-0.018l-0.019,0.018C8.182,11.321,8.189,11.321,8.195,11.321z"/>
	<path fill="#E5E5E5" d="M8.198,11.982c0-0.006,0-0.011,0-0.016c-0.006-0.004-0.012-0.006-0.018-0.01L8.198,11.982z"/>
	<path fill="#E5E5E5" d="M8.949,11.356c0.188,0.118,0.366,0.084,0.542-0.024c0.006-0.004,0.013-0.007,0.02-0.012
		c0.002-0.01,0.004-0.021,0.005-0.031c0.036-0.192,0.071-0.383,0.105-0.576c-0.04-0.026-0.085-0.048-0.132-0.066
		c-0.212,0.004-0.423,0.01-0.637,0.014c-0.003,0.216-0.007,0.433-0.011,0.65C8.879,11.323,8.916,11.338,8.949,11.356z"/>
	<path fill="#E5E5E5" d="M8.853,10.662c0-0.006,0-0.012,0-0.019l-0.014,0.019C8.844,10.663,8.85,10.663,8.853,10.662z"/>
	<path fill="#E5E5E5" d="M10.148,11.989c0,0.21,0,0.42,0.003,0.63c0,0.007,0,0.014,0,0.021c0.007,0.002,0.014,0.004,0.023,0.006
		c0.21,0.051,0.419,0.094,0.629,0.005c0.008-0.005,0.017-0.007,0.026-0.012c0.002-0.01,0.005-0.02,0.006-0.03
		c0.043-0.181,0.083-0.36,0.127-0.54c-0.048-0.033-0.095-0.064-0.142-0.097c-0.212-0.005-0.428-0.008-0.641-0.013
		c-0.012,0-0.021,0-0.032-0.001C10.148,11.969,10.148,11.979,10.148,11.989z"/>
	<path fill="#E5E5E5" d="M4.399,21.258c-0.193-0.1-0.394-0.104-0.598-0.089c0.163,0.141,0.332,0.271,0.508,0.396
		c0.028-0.102,0.057-0.203,0.085-0.307c0,0,0.038,0.017,0.037,0.016C4.421,21.268,4.411,21.263,4.399,21.258z"/>
	<path fill="#E5E5E5" d="M7.536,22.512c-0.001,0.073-0.002,0.144-0.004,0.215c0.173,0.016,0.347,0.024,0.522,0.024
		c0.083,0,0.164-0.004,0.245-0.006c0.017-0.056,0.031-0.111,0.047-0.167c-0.044-0.027-0.089-0.048-0.137-0.063
		C7.983,22.514,7.759,22.513,7.536,22.512z"/>
	<path fill="#E5E5E5" d="M7.521,22.512c0.004,0,0.009,0,0.014,0c0-0.006,0-0.012,0-0.019L7.521,22.512z"/>
	<path fill="#E5E5E5" d="M4.756,21.854c0.091,0.052,0.184,0.104,0.277,0.153c0.007-0.029,0.014-0.059,0.021-0.087
		c-0.046-0.029-0.094-0.051-0.146-0.067C4.857,21.853,4.807,21.853,4.756,21.854z"/>
	<path fill="#E5E5E5" d="M6.951,22.544c-0.209-0.011-0.417-0.018-0.625-0.027c0.223,0.062,0.45,0.112,0.682,0.148
		c0.006-0.029,0.013-0.059,0.021-0.088c0,0-0.068-0.029-0.075-0.033H6.951z"/>
</g>
</svg>
