<?xml version="1.0" encoding="utf-8"?>
<!-- Generator: Adobe Illustrator 16.0.0, SVG Export Plug-In . SVG Version: 6.00 Build 0)  -->
<!DOCTYPE svg PUBLIC "-//W3C//DTD SVG 1.1//EN" "http://www.w3.org/Graphics/SVG/1.1/DTD/svg11.dtd">
<svg version="1.1" id="圖層_2" xmlns="http://www.w3.org/2000/svg" xmlns:xlink="http://www.w3.org/1999/xlink" x="0px" y="0px"
	 width="16px" height="24px" viewBox="0 0 16 24" enable-background="new 0 0 16 24" xml:space="preserve">
<g>
	<polygon fill="#E5E5E5" points="5.529,16.247 5.529,16.247 5.529,16.247 	"/>
	<path fill="#E5E5E5" d="M6.809,13.675c0.004-0.001,0.009-0.002,0.014-0.003c0.001-0.006,0.002-0.011,0.004-0.016L6.809,13.675z"/>
	<polygon fill="#E5E5E5" points="5.529,16.247 5.521,16.257 5.529,16.253 5.529,16.247 	"/>
	<path fill="#E5E5E5" d="M4.887,15.596c-0.005,0.004-0.009,0.007-0.014,0.01c-0.001,0.002-0.002,0.004-0.003,0.007L4.887,15.596z"/>
	<polygon fill="#E5E5E5" points="8.117,11.072 8.103,11.083 8.1,11.092 	"/>
	<path fill="#E5E5E5" d="M7.454,10.446c0.006-0.001,0.011-0.003,0.018-0.004c0-0.004,0.001-0.009,0.001-0.014L7.454,10.446z"/>
	<path fill="#E5E5E5" d="M9.392,12.384c0.005-0.001,0.01-0.002,0.016-0.003c0.002-0.006,0.003-0.011,0.004-0.018L9.392,12.384z"/>
	<path fill="#E5E5E5" d="M7.473,18.192c0-0.005,0-0.009,0-0.016l-0.02,0.021C7.459,18.196,7.465,18.195,7.473,18.192z"/>
	<polygon fill="#E5E5E5" points="6.825,17.531 6.811,17.541 6.808,17.55 	"/>
	<path fill="#E5E5E5" d="M7.491,18.189c-0.007,0.001-0.013,0.002-0.019,0.003c0,0.015,0,0.027,0,0.041L7.491,18.189z"/>
	<path fill="#E5E5E5" d="M13.936,1.373c-0.001,0.011-0.002,0.021-0.003,0.031c-0.009,0.004-0.019,0.008-0.027,0.012
		c-0.027,0.165-0.056,0.329-0.084,0.503c-0.188,0.034-0.359,0.065-0.53,0.097c-0.002,0.011-0.003,0.023-0.005,0.034
		c-0.009,0.004-0.016,0.008-0.024,0.012c-0.035,0.165-0.07,0.33-0.108,0.509c-0.173,0.04-0.344,0.081-0.516,0.122
		c-0.026,0.118-0.036,0.243-0.089,0.349c-0.037,0.075-0.131,0.165-0.203,0.167c-0.071,0.002-0.161-0.084-0.218-0.153
		c-0.044-0.054-0.05-0.14-0.071-0.212c-0.022-0.052-0.047-0.104-0.07-0.155c-0.151-0.043-0.303-0.087-0.476-0.138
		C11.5,2.454,11.49,2.354,11.479,2.251c0.179-0.077,0.339-0.146,0.499-0.215c0.056-0.19,0.108-0.38,0.164-0.57
		c-0.04-0.024-0.08-0.045-0.122-0.062l0,0c-0.233-0.037-0.466-0.074-0.698-0.11C11.31,1.297,11.3,1.301,11.288,1.304
		c-0.001,0.002-0.002,0.003-0.002,0.005c0,0.196,0,0.392,0,0.596c-0.128,0.021-0.207,0.057-0.273,0.04
		c-0.063-0.016-0.158-0.084-0.159-0.131c-0.003-0.091,0.024-0.229,0.087-0.267c0.122-0.072,0.317-0.026,0.346-0.237
		c0-0.007,0-0.015,0-0.022c0.012,0.002,0.022,0.004,0.035,0.006c0.184-0.066,0.14-0.201,0.103-0.333h-0.898
		C10.586,1,10.588,1.076,10.594,1.245c-0.35,0.055-0.366,0.057-0.375-0.284H9.366C9.354,1.014,9.34,1.066,9.316,1.116
		C9.28,1.194,9.189,1.288,9.111,1.301C8.947,1.328,8.892,1.2,8.89,1.056C8.889,1.024,8.893,0.993,8.896,0.961H7.917
		c0.048,0.051,0.086,0.096,0.1,0.146c0.015,0.048-0.091,0.167-0.165,0.196c-0.13,0.05-0.258-0.059-0.242-0.201
		c0.005-0.043,0.027-0.088,0.06-0.141H6.798c0,0.142,0.003,0.285,0.004,0.428C6.858,1.425,6.914,1.462,6.97,1.5
		c0.385,0.069,0.392,0.071,0.479,0.528c0.009,0,0.017,0,0.026,0c0,0.012,0,0.024,0,0.036C7.688,2.145,7.9,2.222,8.103,2.041
		c0.043-0.092,0.1-0.181,0.124-0.277c0.032-0.148,0.102-0.258,0.258-0.218c0.078,0.021,0.152,0.117,0.197,0.198
		C8.73,1.833,8.742,1.944,8.77,2.045c0.05,0.019,0.099,0.041,0.144,0.067c0.076,0.022,0.174,0.023,0.228,0.072
		c0.066,0.062,0.124,0.159,0.135,0.247c0.006,0.048-0.081,0.135-0.144,0.16c-0.117,0.049-0.245,0.07-0.371,0.101
		C8.729,2.81,8.713,2.937,8.653,3.039c-0.042,0.072-0.156,0.147-0.23,0.141C8.357,3.172,8.281,3.063,8.249,2.982
		C8.224,2.92,8.257,2.833,8.266,2.759l0,0C8.228,2.733,8.185,2.713,8.142,2.695C7.919,2.687,7.697,2.677,7.475,2.668
		c0,0.01,0,0.02,0,0.028c-0.009,0-0.017,0-0.025,0C7.446,2.738,7.445,2.782,7.438,2.822C7.406,2.969,7.417,3.154,7.212,3.181
		c-0.213,0.03-0.244-0.133-0.281-0.29c-0.017-0.068-0.055-0.13-0.086-0.195c-0.013,0-0.025,0-0.039,0c0-0.009,0-0.019,0-0.028
		c-0.038-0.014-0.079-0.03-0.119-0.032C6.407,2.62,6.272,2.464,6.243,2.197c-0.02-0.028-0.039-0.059-0.059-0.087
		c-0.041-0.029-0.079-0.078-0.12-0.082c-0.301-0.021-0.411-0.22-0.469-0.477C5.571,1.505,5.549,1.458,5.529,1.407
		C5.483,1.386,5.438,1.359,5.389,1.344C5.065,1.246,5.024,1.232,5.03,0.961H4.172c0,0.004,0,0.009,0,0.013
		C4.159,1.11,4.123,1.248,3.952,1.246c-0.063,0-0.163-0.054-0.181-0.106C3.744,1.066,3.749,1.007,3.78,0.961H3.035V5.11h0.738
		C3.748,5.074,3.731,5.026,3.732,4.972C3.734,4.865,3.771,4.76,3.903,4.779c0.084,0.013,0.161,0.07,0.298,0.135
		C4.131,4.995,4.088,5.063,4.043,5.11h1.038C5.048,5.068,5.03,5.008,5.034,4.939C5.043,4.792,5.153,4.76,5.256,4.778
		c0.085,0.016,0.159,0.091,0.305,0.183C5.483,5.02,5.43,5.072,5.38,5.11h0.795c0.071-0.106,0.141-0.212,0.212-0.321
		c0.284,0.027,0.307,0.03,0.309,0.321h1.004C7.665,5.078,7.632,5.034,7.633,5.006c0.002-0.077,0.064-0.152,0.146-0.322
		C7.879,4.843,7.975,4.928,7.96,4.985C7.947,5.034,7.894,5.077,7.836,5.11h0.721L8.404,5.464C8.477,5.471,8.553,5.514,8.655,5.55
		c-0.072,0.106-0.099,0.198-0.15,0.216C8.424,5.795,8.339,5.775,8.304,5.702L7.307,8.041c0.015,0.005,0.03,0.01,0.047,0.016
		c0.006,0.108,0.012,0.227,0.02,0.377C7.285,8.442,7.206,8.449,7.131,8.456L6.859,9.09c0.014,0.021,0.03,0.043,0.049,0.063
		C6.93,9.174,6.951,9.195,6.975,9.215c0.148,0.021,0.303,0.053,0.408-0.094c0-0.01-0.002-0.019-0.003-0.028c0.008,0,0.016,0,0.023,0
		c0.06-0.107,0.108-0.226,0.19-0.314c0.06-0.064,0.167-0.107,0.256-0.112c0.046-0.002,0.144,0.104,0.138,0.151
		C7.976,8.907,7.922,9.042,7.856,9.061c-0.143,0.041-0.3,0.029-0.453,0.032C7.401,9.096,7.398,9.1,7.397,9.103
		C7.393,9.11,7.389,9.114,7.383,9.121c0.024,0.221,0.049,0.444,0.074,0.668C7.51,9.822,7.564,9.855,7.616,9.888
		c0.148,0.004,0.31,0.055,0.413-0.096c0-0.011,0-0.023,0-0.035c0.01-0.001,0.017-0.002,0.026-0.003
		C8.143,9.61,8.23,9.466,8.319,9.318C8.628,9.331,8.628,9.331,8.628,9.68C8.441,9.705,8.249,9.73,8.056,9.754
		c-0.002,0.003-0.005,0.007-0.007,0.01c-0.006,0.011-0.013,0.019-0.02,0.028c-0.002,0.168-0.002,0.339-0.002,0.524
		c-0.212,0.047-0.385,0.086-0.556,0.125c-0.006,0.213-0.011,0.426-0.016,0.639c0.055,0.024,0.11,0.05,0.164,0.074
		c0.176,0.06,0.336,0.04,0.482-0.071c0.041-0.092,0.094-0.18,0.116-0.276c0.032-0.145,0.095-0.237,0.256-0.226
		c0.163,0.013,0.205,0.127,0.22,0.267C8.703,10.926,8.726,11,8.742,11.078c0.056,0.025,0.112,0.051,0.17,0.077
		c0.153,0.043,0.313,0.104,0.401-0.091c-0.001-0.007-0.002-0.016-0.003-0.024c0.006,0,0.011,0,0.018-0.001
		c0.063-0.068,0.166-0.132,0.178-0.209c0.033-0.191,0.123-0.297,0.308-0.241c0.2,0.061,0.168,0.223,0.08,0.417
		c-0.176,0.011-0.369,0.023-0.565,0.034c-0.002,0.001-0.003,0.002-0.004,0.003c-0.004,0.009-0.008,0.015-0.011,0.022
		c0.027,0.221,0.057,0.443,0.087,0.665c0.052,0.024,0.104,0.049,0.158,0.073c0.126,0.037,0.252,0.074,0.38,0.114
		c0,0.123,0,0.225,0,0.347c-0.185,0.042-0.358,0.081-0.531,0.119c-0.036,0.167-0.072,0.333-0.115,0.535c-0.185,0-0.369,0-0.551,0
		c-0.011,0.004-0.022,0.01-0.035,0.015c0,0.001,0,0.003-0.001,0.004c-0.011,0.194-0.02,0.389-0.028,0.562
		c-0.188,0.107-0.347,0.13-0.41-0.065c-0.058-0.181,0.042-0.29,0.239-0.304c0.049-0.003,0.104-0.029,0.137-0.061
		s0.043-0.084,0.063-0.132c0-0.006,0.001-0.013,0.001-0.019c0.011,0,0.023,0,0.035,0c0.198-0.098,0.104-0.318,0.171-0.469
		c-0.056-0.025-0.11-0.05-0.163-0.075c-0.209-0.007-0.417-0.013-0.625-0.02c-0.002,0.009-0.005,0.021-0.006,0.03
		c-0.009,0.006-0.018,0.009-0.026,0.014c-0.028,0.162-0.056,0.324-0.086,0.492c-0.187,0.039-0.358,0.073-0.529,0.106
		c-0.001,0.011-0.002,0.022-0.004,0.033c-0.009,0.007-0.017,0.01-0.025,0.015c-0.038,0.161-0.077,0.323-0.122,0.501
		c-0.165,0.043-0.334,0.084-0.503,0.128c-0.047,0.17-0.094,0.341-0.149,0.542c-0.177,0-0.347,0-0.516,0
		c-0.011,0.007-0.019,0.015-0.03,0.021c-0.002,0.01-0.007,0.019-0.01,0.026c-0.018,0.191-0.036,0.384-0.053,0.561
		c-0.167,0.058-0.306,0.104-0.372-0.064c-0.051-0.131-0.041-0.267,0.13-0.314c0.118-0.032,0.245-0.049,0.295-0.182
		c0.001-0.016,0.003-0.03,0.004-0.047c0.012,0,0.023,0,0.036,0c0.179-0.109,0.099-0.324,0.172-0.474
		c-0.046-0.027-0.094-0.05-0.145-0.069c-0.215-0.007-0.431-0.013-0.646-0.019c-0.001,0.008-0.002,0.016-0.003,0.023
		c-0.013,0.005-0.024,0.011-0.036,0.016c-0.015,0.144-0.03,0.292-0.048,0.474c-0.186,0.042-0.372,0.086-0.56,0.129
		C4.89,14.303,4.89,14.312,4.889,14.32c-0.013,0.008-0.027,0.015-0.039,0.022c-0.03,0.161-0.06,0.325-0.093,0.503
		c-0.135,0.025-0.258,0.048-0.381,0.07l-0.157,0.368c0.002,0.105,0.005,0.211,0.007,0.317c0.055,0.024,0.109,0.05,0.164,0.075
		c0.175,0.065,0.337,0.047,0.483-0.071c0.042-0.091,0.098-0.178,0.121-0.273c0.032-0.146,0.092-0.239,0.254-0.228
		c0.166,0.014,0.202,0.131,0.218,0.269c0.009,0.078,0.034,0.152,0.052,0.229c0.055,0.023,0.11,0.05,0.165,0.074
		c0.123,0.038,0.246,0.075,0.374,0.113c0,0.117,0,0.217,0,0.336C5.87,16.169,5.7,16.212,5.529,16.253
		c-0.002,0.215-0.004,0.428-0.006,0.643c0.053,0.023,0.106,0.048,0.159,0.072c0.155,0.047,0.314,0.108,0.401-0.095
		c-0.001-0.007-0.002-0.014-0.003-0.021c0.01-0.001,0.021-0.003,0.029-0.003c0.139-0.037,0.17-0.154,0.195-0.276
		c0.034-0.164,0.162-0.219,0.28-0.141c0.077,0.051,0.09,0.197,0.155,0.352c-0.249,0.026-0.44,0.046-0.631,0.065
		c-0.005,0.001-0.01,0.003-0.017,0.004c-0.003,0.01-0.007,0.014-0.01,0.021c0.034,0.225,0.07,0.451,0.107,0.676
		c0.048,0.018,0.093,0.04,0.138,0.066c0.177,0.066,0.334,0.029,0.481-0.074c0.069-0.158,0.14-0.317,0.218-0.494
		c0.095,0.008,0.193,0.014,0.299,0.022c0.043,0.168,0.078,0.315,0.113,0.464c0.058,0.04,0.117,0.082,0.176,0.121
		c0.036,0.008,0.066,0.014,0.094,0.021l0.663-1.555C8.318,16.074,8.27,16,8.265,15.941c-0.008-0.069,0.089-0.147,0.178-0.277
		c0.031,0.036,0.059,0.066,0.086,0.093l0.637-1.496c-0.023-0.008-0.048-0.019-0.071-0.031c-0.076-0.042-0.171-0.129-0.177-0.203
		c-0.006-0.07,0.074-0.174,0.145-0.221c0.101-0.066,0.224-0.1,0.339-0.146c0.022-0.037,0.049-0.072,0.068-0.109l0.019-0.045
		c0.004-0.01,0.008-0.02,0.009-0.03c0.017-0.127,0.048-0.23,0.13-0.293l0.688-1.612c-0.05-0.031-0.094-0.077-0.106-0.117
		c-0.021-0.063,0.054-0.157,0.117-0.307c0.045,0.048,0.086,0.082,0.121,0.114l0.72-1.691c-0.074,0.037-0.134,0.067-0.191,0.068
		c-0.037,0-0.104-0.106-0.106-0.167c-0.007-0.132,0.1-0.173,0.206-0.145c0.043,0.012,0.077,0.068,0.134,0.144l0.986-2.311
		c-0.084-0.001-0.165-0.016-0.245-0.041c-0.006,0.003-0.011,0.008-0.017,0.012s-0.01,0.006-0.014,0.009c0,0.198,0,0.395,0,0.58
		c-0.214,0.055-0.381,0.104-0.421-0.137c-0.023-0.145,0.015-0.253,0.187-0.293c0.086-0.02,0.156-0.095,0.234-0.15
		c0-0.01,0-0.02,0-0.03c0.01,0.003,0.02,0.006,0.03,0.009c0.234-0.16,0.043-0.366,0.048-0.547c-0.007,0-0.014,0-0.021,0
		c0-0.007,0-0.015,0-0.022c-0.23-0.029-0.461-0.058-0.691-0.088c-0.004,0.002-0.009,0.004-0.012,0.005
		c0,0.002-0.001,0.003-0.001,0.005c0.009,0.178,0.017,0.356,0.025,0.518c-0.081,0.043-0.134,0.096-0.167,0.085
		c-0.094-0.028-0.214-0.059-0.253-0.13c-0.05-0.088-0.021-0.209,0.117-0.245c0.128-0.033,0.259-0.063,0.277-0.228
		C11.27,6.468,11.27,6.463,11.27,6.459c0.004,0,0.01,0.001,0.014,0.001c0.043-0.021,0.108-0.036,0.111-0.06
		c0.043-0.348,0.325-0.388,0.578-0.468c0-0.011,0-0.021,0-0.032c0.009,0,0.018,0,0.027,0c0.027-0.065,0.065-0.129,0.071-0.197
		c0.02-0.226,0.144-0.317,0.36-0.336c0.067-0.006,0.129-0.063,0.194-0.102c0.043-0.087,0.098-0.172,0.119-0.265
		c0.034-0.14,0.09-0.239,0.251-0.225c0.089,0.008,0.138,0.049,0.167,0.104l0.263-0.617c0.005-0.027,0.017-0.054,0.034-0.078
		l0.704-1.651c-0.043-0.039-0.076-0.084-0.082-0.127c-0.007-0.071,0.072-0.179,0.142-0.227c0.036-0.024,0.077-0.044,0.117-0.062
		l0.296-0.695c-0.02-0.01-0.04-0.019-0.059-0.028C14.363,1.389,14.151,1.381,13.936,1.373z M3.257,1.439
		C3.36,1.601,3.455,1.688,3.44,1.744C3.421,1.816,3.316,1.875,3.236,1.912c-0.02,0.009-0.128-0.096-0.127-0.146
		C3.111,1.689,3.174,1.613,3.257,1.439z M3.28,2.746c0.093,0.135,0.173,0.201,0.19,0.282C3.5,3.165,3.361,3.291,3.237,3.235
		C3.166,3.203,3.095,3.091,3.094,3.014C3.092,2.945,3.186,2.874,3.28,2.746z M3.477,4.394C3.441,4.468,3.351,4.516,3.31,4.554
		C3.088,4.509,3.063,4.39,3.086,4.256c0.021-0.121,0.118-0.152,0.228-0.138C3.462,4.138,3.541,4.255,3.477,4.394z M3.928,3.853
		c-0.14,0.031-0.199-0.083-0.185-0.188c0.01-0.076,0.102-0.14,0.223-0.29c0.067,0.18,0.125,0.264,0.12,0.342
		C4.083,3.768,3.991,3.838,3.928,3.853z M3.901,2.537C3.758,2.543,3.738,2.421,3.766,2.325c0.014-0.046,0.125-0.099,0.18-0.087
		c0.051,0.011,0.086,0.102,0.146,0.18C4.015,2.469,3.96,2.534,3.901,2.537z M4.55,1.548C4.66,1.525,4.772,1.567,4.755,1.708
		c-0.007,0.063-0.078,0.118-0.16,0.235c-0.083-0.107-0.157-0.17-0.178-0.248C4.407,1.658,4.494,1.561,4.55,1.548z M4.574,2.897
		c0.055,0.018,0.099,0.081,0.171,0.143C4.676,3.104,4.629,3.177,4.58,3.18C4.526,3.182,4.442,3.132,4.418,3.082
		C4.374,2.995,4.484,2.867,4.574,2.897z M4.75,4.369c-0.032,0.066-0.16,0.1-0.249,0.112C4.474,4.485,4.39,4.355,4.404,4.308
		c0.022-0.076,0.105-0.134,0.138-0.173C4.75,4.162,4.795,4.277,4.75,4.369z M5.23,3.853C5.157,3.815,5.062,3.743,5.054,3.675
		c-0.007-0.059,0.093-0.13,0.206-0.273c0.064,0.171,0.119,0.25,0.115,0.326C5.37,3.776,5.254,3.865,5.23,3.853z M5.269,2.523
		c-0.064-0.001-0.181-0.07-0.18-0.105c0.002-0.082,0.063-0.164,0.11-0.274c0.114,0.079,0.214,0.11,0.227,0.164
		C5.455,2.419,5.398,2.524,5.269,2.523z M5.813,2.804c0.107,0.068,0.221,0.119,0.214,0.14c-0.02,0.083-0.065,0.168-0.128,0.224
		C5.881,3.184,5.729,3.114,5.728,3.078C5.723,3,5.773,2.917,5.813,2.804z M5.861,4.554C5.724,4.572,5.647,4.443,5.68,4.284
		C5.705,4.151,5.804,4.11,5.906,4.152c0.078,0.032,0.13,0.125,0.244,0.24C6.018,4.469,5.944,4.543,5.861,4.554z M6.547,3.827
		C6.44,3.858,6.348,3.803,6.354,3.681c0.004-0.06,0.066-0.166,0.099-0.164c0.077,0.004,0.151,0.06,0.262,0.11
		C6.633,3.729,6.6,3.812,6.547,3.827z M7.11,4.499C7.076,4.505,6.99,4.401,6.982,4.342c-0.014-0.119,0.056-0.21,0.189-0.176
		c0.06,0.016,0.105,0.088,0.208,0.181C7.266,4.416,7.192,4.484,7.11,4.499z M7.861,3.804c-0.078,0.052-0.226-0.062-0.2-0.16
		C7.676,3.586,7.742,3.51,7.798,3.501c0.053-0.008,0.119,0.057,0.2,0.101C7.943,3.688,7.918,3.769,7.861,3.804z M8.501,4.464
		C8.42,4.513,8.281,4.403,8.306,4.311C8.322,4.253,8.387,4.18,8.439,4.172c0.052-0.009,0.115,0.055,0.193,0.099
		C8.579,4.353,8.554,4.432,8.501,4.464z M7.875,7.727C7.677,7.748,7.616,7.659,7.618,7.55C7.62,7.489,7.707,7.376,7.735,7.382
		c0.086,0.02,0.199,0.069,0.226,0.136C7.983,7.574,7.9,7.673,7.875,7.727z M8.285,6.888c0.022-0.076,0.104-0.133,0.136-0.171
		c0.204,0.027,0.252,0.139,0.206,0.23C8.596,7.012,8.47,7.045,8.38,7.058C8.354,7.061,8.271,6.934,8.285,6.888z M8.495,8.352
		C8.388,8.381,8.284,8.334,8.29,8.205C8.294,8.145,8.36,8.04,8.398,8.04c0.08,0,0.158,0.057,0.281,0.109
		C8.588,8.254,8.551,8.337,8.495,8.352z M9.051,3.437c0.104,0.085,0.201,0.144,0.194,0.168C9.22,3.682,9.163,3.758,9.1,3.808
		C9.083,3.821,8.947,3.742,8.947,3.705C8.946,3.629,9.002,3.553,9.051,3.437z M9.236,4.972c0.015,0.096-0.132,0.2-0.204,0.144
		c-0.049-0.039-0.093-0.13-0.083-0.189C8.957,4.875,9.043,4.837,9.12,4.771C9.171,4.856,9.227,4.91,9.236,4.972z M9.072,6.075
		c0.107,0.001,0.211,0.02,0.231,0.219C9.26,6.333,9.2,6.424,9.122,6.448C9.01,6.483,8.918,6.42,8.912,6.288
		C8.906,6.175,8.93,6.073,9.072,6.075z M9.021,8.665c0.204-0.011,0.28,0.079,0.254,0.186C9.256,8.924,9.144,8.985,9.06,9.02
		C9.037,9.03,8.926,8.922,8.929,8.872C8.931,8.793,8.995,8.716,9.021,8.665z M8.943,7.612C8.938,7.532,8.988,7.447,9.027,7.33
		C9.14,7.4,9.236,7.425,9.254,7.479c0.035,0.1-0.003,0.214-0.128,0.225C9.063,7.708,8.947,7.649,8.943,7.612z M9.037,10.348
		c-0.126-0.04-0.163-0.146-0.128-0.249c0.028-0.077,0.119-0.131,0.233-0.249c0.08,0.144,0.153,0.22,0.166,0.305
		C9.328,10.301,9.181,10.395,9.037,10.348z M6.554,15.582c-0.112-0.112-0.198-0.163-0.23-0.238
		c-0.043-0.098-0.008-0.199,0.113-0.238c0.138-0.041,0.288,0.047,0.271,0.176C6.696,15.364,6.63,15.44,6.554,15.582z M6.97,14.588
		c0.035-0.067,0.146-0.12,0.229-0.131c0.12-0.017,0.176,0.075,0.181,0.192c0.008,0.145-0.093,0.229-0.244,0.212
		C7.001,14.846,6.906,14.711,6.97,14.588z M7.181,16.137c-0.081-0.008-0.155-0.078-0.298-0.151c0.115-0.11,0.172-0.213,0.238-0.219
		c0.078-0.006,0.195,0.05,0.238,0.115C7.432,15.994,7.319,16.15,7.181,16.137z M7.607,14.033c0.01-0.085,0.071-0.166,0.138-0.309
		c0.128,0.113,0.226,0.161,0.264,0.241c0.066,0.139-0.044,0.267-0.204,0.261C7.682,14.223,7.591,14.162,7.607,14.033z M7.87,15.521
		c-0.147,0.034-0.275-0.057-0.258-0.211c0.009-0.084,0.083-0.159,0.166-0.308c0.113,0.131,0.201,0.192,0.227,0.272
		C8.034,15.374,8.01,15.488,7.87,15.521z M7.876,16.79c-0.098,0.038-0.211,0.014-0.255-0.12c-0.045-0.146,0.04-0.292,0.181-0.275
		c0.087,0.01,0.169,0.073,0.317,0.143C8.006,16.66,7.955,16.759,7.876,16.79z M8.461,14.857c-0.146,0.021-0.235-0.112-0.205-0.263
		c0.031-0.146,0.146-0.161,0.247-0.129c0.079,0.026,0.14,0.112,0.272,0.225C8.623,14.775,8.546,14.846,8.461,14.857z M9.688,9.694
		C9.564,9.656,9.524,9.552,9.561,9.451c0.028-0.075,0.119-0.127,0.23-0.24c0.08,0.138,0.154,0.212,0.165,0.295
		C9.973,9.647,9.828,9.738,9.688,9.694z M9.724,5.451c0.124-0.029,0.2,0.063,0.186,0.169C9.897,5.695,9.813,5.76,9.703,5.906
		c-0.067-0.169-0.122-0.25-0.121-0.328C9.582,5.534,9.668,5.464,9.724,5.451z M9.594,4.307c0.016-0.058,0.082-0.13,0.133-0.139
		C9.78,4.16,9.843,4.223,9.924,4.266c-0.056,0.082-0.082,0.16-0.135,0.191C9.707,4.507,9.568,4.4,9.594,4.307z M9.763,7.059
		C9.701,7.064,9.585,7.004,9.582,6.966C9.575,6.886,9.626,6.8,9.664,6.683c0.112,0.07,0.207,0.097,0.226,0.15
		C9.924,6.934,9.89,7.048,9.763,7.059z M9.67,8.038c0.079-0.002,0.161,0.049,0.272,0.089C9.875,8.237,9.85,8.332,9.798,8.351
		C9.695,8.388,9.589,8.345,9.582,8.22C9.577,8.157,9.637,8.039,9.67,8.038z M9.666,3.173C9.63,3.17,9.57,3.052,9.576,2.992
		c0.01-0.126,0.123-0.159,0.223-0.124c0.052,0.019,0.078,0.111,0.148,0.219C9.83,3.127,9.746,3.178,9.666,3.173z M9.746,1.91
		C9.64,1.929,9.558,1.86,9.553,1.734c-0.005-0.127,0.069-0.2,0.178-0.189c0.081,0.008,0.153,0.082,0.299,0.165
		C9.892,1.811,9.825,1.895,9.746,1.91z M10.371,3.814c-0.06-0.017-0.107-0.081-0.186-0.143c0.073-0.068,0.123-0.147,0.175-0.151
		c0.059-0.003,0.146,0.049,0.176,0.103C10.586,3.715,10.476,3.843,10.371,3.814z M10.532,4.999C10.512,5.051,10.43,5.11,10.374,5.11
		c-0.052,0-0.103-0.075-0.176-0.135c0.069-0.068,0.11-0.135,0.167-0.156C10.466,4.783,10.572,4.896,10.532,4.999z M10.563,10.131
		c-0.012,0.079-0.094,0.146-0.191,0.286c-0.087-0.141-0.161-0.212-0.171-0.29c-0.014-0.108,0.055-0.187,0.181-0.184
		C10.507,9.946,10.581,10.023,10.563,10.131z M10.442,9.158c-0.121-0.133-0.207-0.188-0.233-0.267c-0.035-0.104,0-0.21,0.14-0.225
		c0.119-0.012,0.223,0.029,0.223,0.157C10.571,8.907,10.51,8.991,10.442,9.158z M10.431,7.695c-0.089,0.051-0.229-0.057-0.203-0.156
		c0.015-0.058,0.084-0.135,0.138-0.143c0.058-0.008,0.123,0.057,0.21,0.103C10.516,7.583,10.487,7.663,10.431,7.695z M10.584,6.274
		c-0.025,0.076-0.126,0.126-0.163,0.16c-0.212-0.028-0.229-0.146-0.201-0.244c0.014-0.051,0.119-0.108,0.183-0.108
		C10.51,6.083,10.63,6.14,10.584,6.274z M10.396,2.549c-0.111,0.018-0.208-0.06-0.18-0.189c0.012-0.061,0.085-0.15,0.132-0.152
		c0.083-0.002,0.167,0.055,0.349,0.124C10.544,2.448,10.477,2.537,10.396,2.549z M11.035,8.028c0.079,0.007,0.148,0.087,0.305,0.188
		c-0.172,0.082-0.249,0.142-0.331,0.148c-0.044,0.002-0.121-0.083-0.136-0.14C10.841,8.102,10.923,8.018,11.035,8.028z M11.119,5.84
		c-0.153,0.016-0.282-0.076-0.257-0.217c0.016-0.081,0.099-0.15,0.19-0.279c0.104,0.127,0.191,0.19,0.217,0.272
		C11.3,5.72,11.264,5.825,11.119,5.84z M10.888,4.3c0.02-0.06,0.084-0.106,0.146-0.182c0.068,0.071,0.15,0.119,0.152,0.171
		c0.004,0.057-0.05,0.145-0.104,0.172C10.989,4.51,10.857,4.397,10.888,4.3z M11.048,3.193c-0.11,0.019-0.208-0.056-0.181-0.187
		c0.011-0.061,0.081-0.151,0.128-0.153c0.083-0.004,0.167,0.052,0.347,0.116C11.192,3.089,11.127,3.179,11.048,3.193z M11.747,5.206
		c-0.163,0.015-0.245-0.067-0.239-0.213c0.002-0.08,0.067-0.156,0.145-0.317C11.777,4.832,11.871,4.905,11.901,5
		C11.932,5.095,11.883,5.194,11.747,5.206z M11.631,3.822c-0.036,0-0.103-0.107-0.105-0.167c-0.006-0.131,0.099-0.173,0.204-0.145
		c0.056,0.015,0.091,0.098,0.18,0.202C11.789,3.765,11.711,3.821,11.631,3.822z M12.514,4.383c-0.027,0.076-0.117,0.129-0.232,0.247
		c-0.069-0.145-0.13-0.222-0.139-0.306c-0.014-0.108,0.049-0.191,0.176-0.19C12.466,4.135,12.563,4.244,12.514,4.383z M13.829,3.082
		c-0.015,0.072-0.128,0.159-0.21,0.172c-0.114,0.019-0.236-0.009-0.355-0.022c-0.011,0.005-0.021,0.01-0.034,0.014
		c-0.001,0.009-0.004,0.017-0.005,0.025c-0.017,0.165-0.03,0.328-0.048,0.492c-0.003,0.022-0.026,0.042-0.068,0.11
		c-0.094-0.036-0.24-0.046-0.292-0.122c-0.078-0.117-0.025-0.249,0.138-0.285c0.122-0.027,0.237-0.057,0.271-0.195
		c0.001-0.014,0.002-0.028,0.003-0.043c0.013,0,0.024,0.002,0.036,0.004c0.123-0.056,0.105-0.205,0.175-0.29
		c0.051-0.063,0.187-0.113,0.257-0.088C13.764,2.877,13.843,3.013,13.829,3.082z"/>
	<path fill="#E5E5E5" d="M11.993,2.029c-0.005,0.003-0.01,0.005-0.016,0.007c-0.001,0.004-0.002,0.008-0.003,0.013L11.993,2.029z"/>
	<path fill="#E5E5E5" d="M12.621,2.696c0.005-0.001,0.011-0.003,0.017-0.004c0.001-0.006,0.002-0.011,0.003-0.016L12.621,2.696z"/>
	<polygon fill="#E5E5E5" points="9.411,13.655 9.4,13.659 9.39,13.675 	"/>
	<path fill="#E5E5E5" d="M8.117,2.028c-0.005,0.005-0.01,0.008-0.015,0.013C8.102,2.043,8.101,2.046,8.1,2.049L8.117,2.028z"/>
	<path fill="#E5E5E5" d="M8.746,2.696c0.005-0.001,0.011-0.002,0.015-0.003c0.002-0.006,0.003-0.012,0.005-0.017L8.746,2.696z"/>
	<polygon fill="#E5E5E5" points="12.64,5.259 12.626,5.267 12.62,5.278 	"/>
	<polygon fill="#E5E5E5" points="6.166,11.729 6.16,11.736 6.179,11.719 	"/>
	<path fill="#E5E5E5" d="M6.554,11.239c0.287,0.038,0.163,0.352,0.296,0.499c0.045,0.017,0.086,0.038,0.126,0.063
		c0.172,0.069,0.33,0.044,0.479-0.052c-0.001-0.011-0.002-0.021-0.002-0.031c0.011,0,0.021,0.001,0.031,0.001
		c0.045-0.188,0.091-0.377,0.136-0.565c-0.054-0.024-0.109-0.05-0.164-0.074c-0.311-0.019-0.533-0.142-0.566-0.485
		c-0.023-0.042-0.044-0.083-0.063-0.125c-0.046-0.027-0.09-0.077-0.136-0.076c-0.158,0.003-0.262-0.049-0.329-0.134l-0.66,1.546
		c0.17,0.068,0.324,0.042,0.465-0.078c0.014-0.018,0.025-0.04,0.042-0.054C6.352,11.548,6.221,11.194,6.554,11.239z"/>
	<path fill="#E5E5E5" d="M6.797,18.858c-0.032,0.162-0.066,0.325-0.106,0.516c-0.17,0.027-0.336,0.052-0.504,0.078
		c-0.002,0.011-0.004,0.024-0.006,0.036c-0.007,0.004-0.015,0.008-0.022,0.012c0.006,0.209,0.012,0.418,0.017,0.626
		c0.052,0.025,0.103,0.048,0.154,0.071c0.103,0.036,0.202,0.045,0.296,0.024l0.594-1.394c-0.13-0.005-0.259-0.011-0.389-0.018
		c-0.002,0.011-0.002,0.021-0.004,0.031C6.817,18.849,6.807,18.853,6.797,18.858z"/>
	<path fill="#E5E5E5" d="M6.181,1.403c0-0.006,0-0.013,0-0.02L6.16,1.403C6.168,1.403,6.175,1.403,6.181,1.403z"/>
	<path fill="#E5E5E5" d="M6.243,2.197C6.431,2.148,6.618,2.1,6.806,2.051c0-0.008,0-0.016,0-0.023c0.01,0,0.02,0,0.029,0
		C6.88,1.852,6.926,1.676,6.97,1.5C6.914,1.462,6.858,1.425,6.802,1.389C6.596,1.393,6.387,1.398,6.181,1.403
		c0.002,0.235,0.003,0.47,0.004,0.706C6.204,2.138,6.224,2.168,6.243,2.197z"/>
	<path fill="#E5E5E5" d="M6.23,0.961H5.534C5.533,1.109,5.532,1.259,5.529,1.407c0.02,0.051,0.042,0.098,0.066,0.144
		c0.189-0.054,0.379-0.109,0.567-0.163C6.187,1.246,6.208,1.103,6.23,0.961z"/>
	<path fill="#E5E5E5" d="M6.181,1.383C6.175,1.385,6.17,1.387,6.163,1.389C6.162,1.393,6.161,1.398,6.16,1.403L6.181,1.383z"/>
	<path fill="#E5E5E5" d="M6.811,9.785C6.81,9.79,6.809,9.795,6.807,9.8L6.827,9.78C6.822,9.781,6.817,9.783,6.811,9.785z"/>
	<path fill="#E5E5E5" d="M6.908,9.153c-0.025-0.001-0.05-0.002-0.075-0.002L6.528,9.867c0.095-0.027,0.189-0.056,0.282-0.082
		c0.055-0.19,0.108-0.379,0.164-0.57C6.951,9.195,6.93,9.174,6.908,9.153z"/>
	<path fill="#E5E5E5" d="M6.807,9.8c0.006,0,0.014,0,0.021,0c0-0.006,0-0.013,0-0.02L6.807,9.8z"/>
	<path fill="#E5E5E5" d="M7.473,10.428c-0.006,0.001-0.01,0.002-0.015,0.004c-0.001,0.004-0.003,0.009-0.004,0.014L7.473,10.428z"/>
	<path fill="#E5E5E5" d="M7.458,10.432c0.054-0.182,0.107-0.362,0.158-0.544C7.564,9.855,7.51,9.822,7.457,9.789
		c-0.21,0.004-0.42,0.007-0.63,0.011c-0.001,0.223-0.001,0.446-0.001,0.669c0,0.001,0,0.001,0,0.001
		c0.02,0.042,0.04,0.083,0.063,0.125C7.079,10.54,7.27,10.486,7.458,10.432z"/>
	<path fill="#E5E5E5" d="M11.993,2.049c0-0.006,0-0.013,0-0.02l-0.019,0.02C11.981,2.049,11.987,2.049,11.993,2.049z"/>
	<path fill="#E5E5E5" d="M12.641,2.676c-0.003,0.001-0.006,0.001-0.01,0.003c-0.004,0.005-0.006,0.011-0.01,0.017L12.641,2.676z"/>
	<path fill="#E5E5E5" d="M12.716,2.061c0,0-0.027,0-0.027,0c-0.231-0.004-0.463-0.007-0.695-0.012
		c-0.002,0.213-0.005,0.426-0.007,0.639c0.023,0.051,0.048,0.103,0.07,0.155c0.191-0.055,0.383-0.109,0.574-0.164
		C12.747,2.486,12.746,2.275,12.716,2.061z"/>
	<polygon fill="#E5E5E5" points="8.764,11.719 8.749,11.729 8.747,11.736 	"/>
	<path fill="#E5E5E5" d="M8.111,11.729c0.037,0.012,0.073,0.026,0.108,0.043c0.187,0.104,0.362,0.076,0.529-0.043
		c0.053-0.192,0.107-0.382,0.163-0.575c-0.058-0.026-0.114-0.052-0.17-0.077c-0.209,0.004-0.417,0.009-0.625,0.014
		C8.115,11.304,8.113,11.517,8.111,11.729z"/>
	<path fill="#E5E5E5" d="M8.1,11.092c0.006,0,0.012-0.001,0.018-0.001c0-0.006,0-0.013,0-0.02L8.1,11.092z"/>
	<path fill="#E5E5E5" d="M8.764,11.736c0-0.006,0-0.011,0-0.017l-0.017,0.017C8.752,11.736,8.759,11.736,8.764,11.736z"/>
	<path fill="#E5E5E5" d="M9.411,12.363c-0.007,0.005-0.012,0.009-0.017,0.014c-0.001,0.002-0.002,0.005-0.003,0.007L9.411,12.363z"
		/>
	<path fill="#E5E5E5" d="M8.749,12.373c0.053,0.024,0.107,0.049,0.163,0.075c0.175,0.063,0.336,0.043,0.482-0.07
		c0.054-0.192,0.108-0.385,0.164-0.576c-0.054-0.024-0.106-0.049-0.158-0.073c-0.213,0.003-0.425,0.005-0.637,0.008
		C8.759,11.948,8.754,12.161,8.749,12.373z"/>
	<path fill="#E5E5E5" d="M14.576,0.961c0,0.145,0.001,0.291,0.002,0.436c0.019,0.01,0.039,0.019,0.059,0.028l0.199-0.464H14.576z"/>
	<path fill="#E5E5E5" d="M8.1,2.049c0.006,0,0.012,0,0.019,0C8.117,2.042,8.117,2.035,8.117,2.028L8.1,2.049z"/>
	<path fill="#E5E5E5" d="M8.142,2.695c0.043,0.018,0.086,0.038,0.124,0.063l0,0c0.174,0.047,0.335,0.035,0.482-0.072
		c0.054-0.192,0.108-0.383,0.165-0.575C8.868,2.085,8.819,2.063,8.77,2.045C8.554,2.047,8.336,2.047,8.118,2.049
		C8.126,2.264,8.133,2.48,8.142,2.695z"/>
	<path fill="#E5E5E5" d="M8.766,2.675C8.76,2.68,8.754,2.683,8.748,2.687c0,0.003-0.001,0.006-0.002,0.009L8.766,2.675z"/>
	<path fill="#E5E5E5" d="M6.814,13.664c0.134-0.184,0.124-0.396,0.103-0.607c-0.026-0.013-0.054-0.021-0.082-0.031
		c-0.217-0.006-0.435-0.012-0.65-0.019c-0.001,0.008-0.002,0.015-0.004,0.021c-0.01,0.007-0.021,0.012-0.029,0.016
		c0.011,0.209,0.021,0.418,0.033,0.627c0.051,0.02,0.099,0.042,0.145,0.069C6.504,13.793,6.668,13.781,6.814,13.664z"/>
	<polygon fill="#E5E5E5" points="6.826,13.656 6.814,13.664 6.809,13.675 	"/>
	<path fill="#E5E5E5" d="M9.41,13.675c0.001-0.007,0.001-0.014,0.001-0.02l-0.021,0.02C9.397,13.675,9.403,13.675,9.41,13.675z"/>
	<polygon fill="#E5E5E5" points="9.416,13.675 9.41,13.675 9.41,13.69 	"/>
	<path fill="#E5E5E5" d="M4.255,16.241c0.045-0.189,0.091-0.376,0.135-0.564c-0.055-0.025-0.109-0.051-0.164-0.075
		c-0.048-0.002-0.094-0.003-0.14-0.005l-0.313,0.735c0.161,0.05,0.309,0.019,0.453-0.063c-0.001-0.008-0.001-0.019-0.002-0.028
		C4.233,16.24,4.244,16.24,4.255,16.241z"/>
	<path fill="#E5E5E5" d="M4.87,15.612c0.005-0.001,0.011-0.001,0.017-0.001c0-0.005,0-0.01,0-0.016L4.87,15.612z"/>
	<path fill="#E5E5E5" d="M4.894,16.258c0.031,0.007,0.063,0.016,0.092,0.027c0.187,0.111,0.366,0.085,0.536-0.033
		c0.054-0.192,0.107-0.385,0.161-0.576c-0.055-0.024-0.11-0.051-0.165-0.074c-0.21,0.003-0.42,0.007-0.631,0.01
		C4.89,15.826,4.892,16.042,4.894,16.258z"/>
	<polygon fill="#E5E5E5" points="5.529,16.247 5.521,16.252 5.521,16.257 	"/>
	<path fill="#E5E5E5" d="M5.534,17.531c-0.006,0.004-0.011,0.007-0.016,0.011c-0.001,0.003-0.002,0.007-0.003,0.009L5.534,17.531z"
		/>
	<path fill="#E5E5E5" d="M4.889,16.9c0-0.005,0-0.011,0-0.015L4.868,16.9C4.875,16.9,4.881,16.9,4.889,16.9z"/>
	<path fill="#E5E5E5" d="M4.896,17.549c0.049,0.018,0.095,0.04,0.14,0.066c0.175,0.059,0.334,0.027,0.482-0.073
		c0.055-0.192,0.109-0.383,0.164-0.574c-0.053-0.024-0.106-0.049-0.159-0.072C5.312,16.897,5.1,16.898,4.889,16.9
		C4.892,17.116,4.894,17.331,4.896,17.549z"/>
	<polygon fill="#E5E5E5" points="4.868,16.9 4.868,16.9 4.868,16.9 	"/>
	<path fill="#E5E5E5" d="M5.532,18.19c0.049,0.024,0.1,0.047,0.15,0.07c0.161-0.021,0.318-0.042,0.479-0.063
		c0-0.007,0-0.014,0-0.021c0.011,0,0.021,0,0.032,0.002c0.046-0.188,0.09-0.376,0.136-0.563c-0.045-0.026-0.09-0.049-0.138-0.066
		c-0.219,0-0.439,0.001-0.657,0.002C5.534,17.763,5.533,17.978,5.532,18.19z"/>
	<path fill="#E5E5E5" d="M5.534,17.551c0-0.007,0-0.013,0-0.02l-0.019,0.02C5.521,17.551,5.527,17.551,5.534,17.551z"/>
	<path fill="#E5E5E5" d="M6.826,17.55c0-0.006,0-0.013-0.001-0.019L6.808,17.55C6.813,17.55,6.82,17.55,6.826,17.55z"/>
	<path fill="#E5E5E5" d="M7.473,18.177c-0.006,0.004-0.011,0.006-0.016,0.008c-0.001,0.004-0.002,0.008-0.004,0.013L7.473,18.177z"
		/>
	<path fill="#E5E5E5" d="M6.826,17.55c0.006,0.217,0.015,0.435,0.021,0.651c0,0,0.074,0.018,0.072,0.018
		c0.188,0.098,0.365,0.051,0.538-0.034c0.053-0.177,0.107-0.353,0.159-0.53c-0.059-0.039-0.118-0.081-0.176-0.121
		C7.235,17.538,7.031,17.544,6.826,17.55z"/>
	<path fill="#E5E5E5" d="M12.642,5.904c0,0.01,0,0.021,0,0.031c0.021,0.005,0.045,0.012,0.065,0.019l0.291-0.68
		c-0.12,0.001-0.24,0.003-0.358,0.005c-0.006,0.209-0.012,0.418-0.017,0.626C12.629,5.904,12.636,5.904,12.642,5.904z"/>
	<path fill="#E5E5E5" d="M12.62,5.278L12.62,5.278c0.006,0,0.012,0,0.02,0c0-0.006,0-0.013,0-0.019L12.62,5.278z"/>
	<path fill="#E5E5E5" d="M12.142,1.466c0.162-0.026,0.326-0.052,0.487-0.078c0.088-0.141,0.091-0.284,0.064-0.427h-0.69
		c0.006,0.147,0.011,0.295,0.017,0.443l0,0C12.062,1.421,12.102,1.441,12.142,1.466z"/>
	<path fill="#E5E5E5" d="M12.64,1.387c-0.003,0-0.006,0.001-0.011,0.001c-0.003,0.004-0.004,0.009-0.008,0.015L12.64,1.387z"/>
	<polygon fill="#E5E5E5" points="5.521,12.373 5.52,12.383 5.534,12.364 	"/>
	<path fill="#E5E5E5" d="M5.44,12.419c0.027-0.014,0.056-0.029,0.081-0.046c0.04-0.142,0.08-0.285,0.121-0.426L5.44,12.419z"/>
	<polygon fill="#E5E5E5" points="6.826,12.365 6.813,12.372 6.811,12.383 	"/>
	<path fill="#E5E5E5" d="M6.16,11.736c0.008,0,0.014,0,0.02,0c0-0.005,0-0.011-0.001-0.017L6.16,11.736z"/>
	<path fill="#E5E5E5" d="M6.813,12.372c0.054-0.191,0.108-0.381,0.162-0.571c-0.04-0.025-0.081-0.046-0.126-0.063
		c-0.223,0-0.447-0.001-0.67-0.002c0.007,0.217,0.012,0.434,0.018,0.651l0.077,0.019C6.463,12.513,6.642,12.468,6.813,12.372z"/>
	<path fill="#E5E5E5" d="M6.18,20.776c0-0.005,0-0.01,0-0.015L6.16,20.78C6.168,20.779,6.174,20.777,6.18,20.776z"/>
	<path fill="#E5E5E5" d="M6.411,20.723c-0.077,0.019-0.155,0.036-0.231,0.054c-0.006,0.177-0.012,0.355-0.018,0.53L6.411,20.723z"/>
	<path fill="#E5E5E5" d="M6.18,20.762c-0.005,0.004-0.01,0.008-0.017,0.011c-0.001,0.002-0.002,0.005-0.003,0.008L6.18,20.762z"/>
	<path fill="#E5E5E5" d="M5.54,20.104c-0.002,0.009-0.004,0.019-0.006,0.029c-0.007,0.005-0.015,0.008-0.022,0.012
		c0.004,0.208,0.007,0.416,0.01,0.625c0.042,0.013,0.082,0.029,0.122,0.052c0.187,0.091,0.356,0.064,0.52-0.05
		c0.056-0.191,0.111-0.384,0.166-0.575c-0.052-0.023-0.103-0.046-0.154-0.071C5.964,20.12,5.751,20.111,5.54,20.104z"/>
	<path fill="#E5E5E5" d="M12.688,2.061c0,0,0.027,0,0.027,0l0,0c0.184,0.123,0.365,0.095,0.546,0
		c0.009-0.004,0.016-0.008,0.024-0.012c0.002-0.011,0.003-0.023,0.005-0.034c0.025-0.198,0.053-0.396,0.078-0.593l-0.056-0.014
		c-0.226-0.002-0.45-0.003-0.677-0.005C12.587,1.627,12.549,1.851,12.688,2.061z"/>
	<path fill="#E5E5E5" d="M12.637,1.403c0.002-0.006,0.002-0.011,0.003-0.016l-0.019,0.016C12.626,1.403,12.631,1.403,12.637,1.403z"
		/>
	<path fill="#E5E5E5" d="M8.111,11.729c-0.209-0.002-0.417-0.007-0.627-0.01c-0.01,0-0.021-0.001-0.031-0.001
		c0,0.01,0.001,0.02,0.002,0.031c0.009,0.211,0.018,0.423,0.027,0.634c0.029,0.007,0.059,0.016,0.087,0.027
		c0.179,0.109,0.352,0.074,0.522-0.013c0.009-0.005,0.018-0.008,0.026-0.014c0.001-0.009,0.004-0.021,0.006-0.03
		c0.031-0.194,0.063-0.387,0.096-0.581C8.185,11.755,8.148,11.741,8.111,11.729z"/>
	<path fill="#E5E5E5" d="M6.811,12.383c0.005,0,0.011,0,0.016,0c0-0.006,0-0.011,0-0.018L6.811,12.383z"/>
	<path fill="#E5E5E5" d="M7.482,12.383c-0.218,0-0.438,0-0.656,0c0.002,0.213,0.006,0.43,0.009,0.643
		c0.028,0.01,0.056,0.019,0.082,0.031c0.182,0.103,0.358,0.082,0.53-0.014c0.009-0.005,0.017-0.008,0.025-0.015
		c0.002-0.011,0.003-0.022,0.004-0.033c0.031-0.194,0.062-0.391,0.093-0.585C7.541,12.399,7.512,12.39,7.482,12.383z"/>
	<path fill="#E5E5E5" d="M3.61,16.887c0.031-0.131,0.063-0.263,0.094-0.395l-0.179,0.42c0.018-0.002,0.033-0.005,0.049-0.007
		c0.001-0.007,0.002-0.013,0.003-0.02C3.588,16.886,3.599,16.886,3.61,16.887z"/>
	<path fill="#E5E5E5" d="M4.87,16.896C5.002,16.711,5,16.5,4.986,16.285c-0.03-0.012-0.061-0.021-0.092-0.027
		c-0.213-0.006-0.425-0.012-0.639-0.017C4.244,16.24,4.233,16.24,4.223,16.24c0.001,0.01,0.001,0.021,0.002,0.028
		c0.007,0.212,0.014,0.423,0.021,0.634c0.033,0.008,0.064,0.018,0.095,0.031C4.527,17.041,4.702,17.001,4.87,16.896z"/>
	<path fill="#E5E5E5" d="M4.868,16.9l0.021-0.015c-0.006,0.004-0.012,0.008-0.019,0.011C4.869,16.898,4.869,16.898,4.868,16.9
		L4.868,16.9z"/>
	<polygon fill="#E5E5E5" points="4.877,18.186 4.875,18.195 4.889,18.177 	"/>
	<path fill="#E5E5E5" d="M4.223,17.546L4.223,17.546L4.223,17.546c0.004,0,0.01,0,0.016,0c0.001-0.005,0.002-0.01,0.004-0.015
		L4.223,17.546z"/>
	<path fill="#E5E5E5" d="M4.877,18.186c0.053-0.19,0.106-0.381,0.159-0.57c-0.044-0.026-0.09-0.049-0.14-0.066
		c-0.218-0.002-0.438-0.002-0.657-0.003c-0.061,0.225-0.084,0.445,0.055,0.655c0.034,0.017,0.066,0.036,0.096,0.058
		C4.566,18.317,4.73,18.296,4.877,18.186z"/>
	<polygon fill="#E5E5E5" points="5.534,18.824 5.523,18.832 5.521,18.84 	"/>
	<path fill="#E5E5E5" d="M4.87,18.83c0.056,0.024,0.11,0.05,0.166,0.077c0.178,0.065,0.341,0.042,0.487-0.075
		c0.053-0.191,0.106-0.382,0.159-0.571c-0.051-0.023-0.102-0.046-0.15-0.07c-0.215,0.001-0.43,0.003-0.644,0.005
		C4.883,18.406,4.876,18.618,4.87,18.83z"/>
	<path fill="#E5E5E5" d="M4.889,18.177L4.889,18.177l-0.014,0.019c0.005,0,0.01,0,0.014,0C4.889,18.188,4.889,18.184,4.889,18.177
		L4.889,18.177z"/>
	<path fill="#E5E5E5" d="M6.193,18.179c-0.011-0.002-0.021-0.002-0.032-0.002c0,0.007,0,0.014,0,0.021
		c0.005,0.212,0.009,0.424,0.012,0.638c0.037,0.01,0.074,0.025,0.108,0.042c0.18,0.1,0.351,0.079,0.516-0.019
		c0.01-0.006,0.021-0.01,0.029-0.017c0.002-0.01,0.002-0.021,0.004-0.031c0.029-0.196,0.061-0.396,0.089-0.592
		c0.002,0-0.072-0.018-0.072-0.018C6.63,18.193,6.411,18.186,6.193,18.179z"/>
	<path fill="#E5E5E5" d="M12.623,5.904C12.415,5.903,12.208,5.903,12,5.902c-0.01,0-0.019,0-0.027,0c0,0.011,0,0.021,0,0.032
		c0,0.205,0.001,0.41,0.002,0.615c0,0.008,0,0.016,0,0.022c0.008,0,0.015,0,0.021,0c0.149,0,0.298,0,0.447,0.001l0.198-0.466
		c0-0.057,0-0.115,0-0.171c0-0.01,0-0.021,0-0.031C12.636,5.904,12.629,5.904,12.623,5.904z"/>
	<path fill="#E5E5E5" d="M6.806,2.028c0,0.008,0,0.016,0,0.023c0,0.205,0,0.411,0,0.617c0,0.009,0,0.019,0,0.028
		c0.014,0,0.026,0,0.039,0c0.202,0,0.403,0,0.604,0c0.009,0,0.017,0,0.025,0c0-0.009,0-0.019,0-0.028c0-0.201,0-0.403,0-0.604
		c0-0.012,0-0.023,0-0.036c-0.01,0-0.018,0-0.026,0c-0.205,0-0.407,0-0.613,0C6.825,2.028,6.815,2.028,6.806,2.028z"/>
	<path fill="#E5E5E5" d="M4.893,14.294c0.03-0.195,0.061-0.392,0.091-0.587c-0.025-0.013-0.051-0.023-0.078-0.032l-0.318,0.747
		c0.087-0.001,0.175-0.029,0.262-0.079c0.012-0.008,0.026-0.015,0.039-0.022C4.89,14.312,4.89,14.303,4.893,14.294z"/>
	<path fill="#E5E5E5" d="M5.5,13.691c0.012-0.005,0.023-0.011,0.036-0.016c0.001-0.008,0.002-0.016,0.003-0.023
		c0.026-0.202,0.053-0.407,0.081-0.609l-0.041-0.009c-0.132,0-0.266-0.001-0.4-0.002l-0.273,0.643
		c0.027,0.009,0.053,0.02,0.078,0.032C5.161,13.799,5.332,13.757,5.5,13.691z"/>
	<path fill="#E5E5E5" d="M6.151,13.044c0.009-0.004,0.02-0.009,0.029-0.016c0.002-0.007,0.003-0.014,0.004-0.021
		c0.029-0.2,0.06-0.4,0.09-0.601l-0.077-0.019c-0.222-0.002-0.445-0.003-0.668-0.004c-0.058,0.222-0.081,0.441,0.05,0.651
		l0.041,0.009C5.8,13.17,5.976,13.127,6.151,13.044z"/>
	<path fill="#E5E5E5" d="M5.52,12.383c0.003,0,0.007,0,0.01,0c0.003-0.006,0.004-0.012,0.005-0.019L5.52,12.383z"/>
	<path fill="#E5E5E5" d="M13.905,1.416c0.009-0.004,0.019-0.008,0.027-0.012c0.001-0.011,0.002-0.021,0.003-0.031
		c0.017-0.137,0.033-0.274,0.049-0.412h-0.703c0.011,0.148,0.022,0.298,0.032,0.447l0.056,0.014
		C13.551,1.528,13.728,1.489,13.905,1.416z"/>
	<path fill="#E5E5E5" d="M5.637,22.108L5.637,22.108c0.054,0.033,0.106,0.051,0.158,0.058l0.322-0.753
		c-0.197,0.002-0.394,0.004-0.59,0.005c-0.002,0.216-0.004,0.43-0.006,0.645C5.561,22.076,5.599,22.093,5.637,22.108z"/>
	<polygon fill="#E5E5E5" points="5.527,21.418 5.527,21.417 5.525,21.418 	"/>
	<path fill="#E5E5E5" d="M4.894,20.75c-0.001,0.011-0.003,0.021-0.005,0.029c-0.007,0.005-0.014,0.008-0.021,0.012
		C4.87,21,4.873,21.208,4.875,21.416c0.041,0.013,0.081,0.027,0.119,0.047c0.188,0.106,0.364,0.079,0.531-0.045
		c0.04-0.198,0.077-0.397,0.118-0.596c-0.04-0.022-0.08-0.039-0.122-0.052C5.312,20.764,5.103,20.758,4.894,20.75z"/>
	<polygon fill="#E5E5E5" points="5.527,21.417 5.525,21.418 5.525,21.418 	"/>
	<path fill="#E5E5E5" d="M5.534,18.839c0-0.004,0-0.009,0-0.015c0,0-0.013,0.015-0.013,0.016C5.525,18.84,5.529,18.84,5.534,18.839z
		"/>
	<path fill="#E5E5E5" d="M5.521,19.478c0.04,0.013,0.079,0.031,0.117,0.052c0.181,0.099,0.352,0.06,0.52-0.029
		c0.008-0.004,0.016-0.008,0.022-0.012c0.002-0.012,0.004-0.025,0.006-0.036c0.032-0.19,0.063-0.384,0.095-0.575
		c-0.034-0.017-0.071-0.032-0.108-0.042c-0.212,0.001-0.427,0.003-0.639,0.004C5.529,19.054,5.524,19.266,5.521,19.478z"/>
	<path fill="#E5E5E5" d="M5.521,19.478c-0.214,0.001-0.428,0.001-0.64,0.003c0,0.217,0,0.432-0.001,0.646
		c0.039,0.012,0.074,0.025,0.108,0.043c0.182,0.11,0.354,0.071,0.523-0.023c0.008-0.004,0.016-0.007,0.022-0.012
		c0.002-0.011,0.004-0.021,0.006-0.029c0.033-0.192,0.066-0.385,0.099-0.575C5.601,19.509,5.562,19.49,5.521,19.478z"/>
	<polygon fill="#E5E5E5" points="4.88,19.48 4.881,19.48 4.881,19.479 	"/>
	<path fill="#E5E5E5" d="M3.679,17.56l-0.001,0.005C3.679,17.563,3.679,17.56,3.679,17.56c0.189,0.134,0.37,0.096,0.546-0.018
		c0.14-0.183,0.13-0.396,0.116-0.608C4.311,16.92,4.28,16.91,4.247,16.902c-0.212-0.005-0.425-0.01-0.637-0.016
		c-0.011-0.001-0.022-0.001-0.033-0.001c-0.001,0.007-0.002,0.013-0.003,0.02c-0.034,0.231-0.079,0.465,0.103,0.666
		c0,0,0-0.003,0.001-0.005C3.679,17.563,3.679,17.56,3.679,17.56z"/>
	<polygon fill="#E5E5E5" points="3.678,17.566 3.677,17.571 3.678,17.564 3.679,17.56 	"/>
	<path fill="#E5E5E5" d="M4.243,17.531c-0.006,0.004-0.012,0.007-0.018,0.011c-0.001,0.002-0.001,0.003-0.002,0.004l0,0
		L4.243,17.531z"/>
	<path fill="#E5E5E5" d="M3.575,18.191c0.007,0,0.014,0,0.021,0.001c0-0.005,0.001-0.01,0.001-0.016L3.575,18.191z"/>
	<path fill="#E5E5E5" d="M3.608,18.857c0.21,0.062,0.421,0.12,0.623-0.026c0.054-0.19,0.106-0.382,0.159-0.572
		c-0.03-0.021-0.062-0.041-0.096-0.058c-0.232-0.003-0.465-0.005-0.697-0.009c-0.007,0.21-0.013,0.421-0.018,0.631
		c0.006,0,0.013,0,0.02-0.001C3.603,18.834,3.605,18.845,3.608,18.857z"/>
	<polygon fill="#E5E5E5" points="4.242,18.824 4.231,18.831 4.228,18.841 	"/>
	<polygon fill="#E5E5E5" points="4.881,19.479 4.88,19.479 4.88,19.48 	"/>
	<path fill="#E5E5E5" d="M4.88,19.479c0.052-0.19,0.103-0.382,0.156-0.571C4.98,18.88,4.926,18.854,4.87,18.83
		c-0.208,0.003-0.418,0.007-0.628,0.011c-0.006,0.213-0.011,0.424-0.017,0.635c0.051,0.036,0.1,0.073,0.152,0.11
		C4.544,19.551,4.712,19.515,4.88,19.479z"/>
	<path fill="#E5E5E5" d="M4.228,18.841c0.005,0,0.009,0,0.015,0c0-0.005,0-0.011,0-0.017L4.228,18.841z"/>
	<path fill="#E5E5E5" d="M5.521,22.063c-0.211,0.001-0.422,0.003-0.633,0.005c0,0.142,0.001,0.284,0.001,0.425h0.683
		c0.021-0.128,0.042-0.256,0.064-0.384l0,0C5.599,22.093,5.561,22.076,5.521,22.063z"/>
	<polygon fill="#E5E5E5" points="4.889,22.053 4.889,22.053 4.889,22.053 	"/>
	<path fill="#E5E5E5" d="M4.869,22.067L4.869,22.067L4.869,22.067c0.006,0,0.012,0,0.02,0c0-0.005,0-0.009,0-0.015L4.869,22.067z"/>
	<path fill="#E5E5E5" d="M4.994,21.463c-0.038-0.02-0.078-0.034-0.119-0.047c-0.209-0.006-0.417-0.012-0.626-0.02
		c-0.002,0.011-0.004,0.021-0.005,0.031c-0.008,0.003-0.017,0.005-0.023,0.008c0.003,0.21,0.006,0.418,0.009,0.627
		c0.049,0.033,0.099,0.066,0.147,0.102c0.167-0.036,0.333-0.071,0.5-0.107C5.011,21.877,5.001,21.67,4.994,21.463z"/>
	<polygon fill="#E5E5E5" points="4.889,22.053 4.889,22.053 4.876,22.057 4.869,22.067 4.869,22.067 	"/>
	<path fill="#E5E5E5" d="M4.88,20.126c-0.214,0.001-0.426,0.003-0.641,0.003c-0.048,0.225-0.095,0.449,0.059,0.655l0.039,0.01
		c0.181,0.128,0.356,0.087,0.531-0.003c0.007-0.004,0.014-0.007,0.021-0.012c0.001-0.009,0.004-0.019,0.005-0.029
		c0.033-0.194,0.064-0.387,0.095-0.581C4.954,20.151,4.919,20.138,4.88,20.126z"/>
	<path fill="#E5E5E5" d="M4.223,20.13c0.004,0,0.01,0,0.016-0.001c0.001-0.004,0.002-0.009,0.003-0.014L4.223,20.13z"/>
	<path fill="#E5E5E5" d="M3.576,18.189c0,0.001,0,0.002-0.001,0.002l0.022-0.015C3.59,18.183,3.583,18.186,3.576,18.189z"/>
	<path fill="#E5E5E5" d="M3.678,17.566c-0.001,0.002-0.001,0.005-0.001,0.005l0,0c-0.14-0.007-0.282-0.016-0.423-0.022l-0.281,0.659
		c0.202,0.063,0.406,0.108,0.604-0.019c0.034-0.206,0.067-0.412,0.101-0.618C3.677,17.569,3.678,17.567,3.678,17.566z"/>
	<path fill="#E5E5E5" d="M4.242,20.115c-0.006,0.005-0.013,0.007-0.018,0.011c-0.001,0.001-0.001,0.003-0.001,0.004L4.242,20.115z"
		/>
	<path fill="#E5E5E5" d="M3.607,20.146c0.208,0.051,0.416,0.104,0.617-0.021c0.051-0.18,0.101-0.36,0.153-0.54
		c-0.052-0.037-0.101-0.074-0.152-0.11c-0.208,0.003-0.417,0.008-0.627,0.011c-0.007,0.21-0.013,0.419-0.019,0.628
		c0.006,0,0.013,0,0.02-0.001C3.603,20.125,3.604,20.136,3.607,20.146z"/>
	<path fill="#E5E5E5" d="M3.573,19.487c0.008-0.001,0.017-0.001,0.024-0.001c0.001-0.008,0.001-0.013,0.001-0.019L3.573,19.487z"/>
	<path fill="#E5E5E5" d="M3.603,22.044c-0.001,0.01-0.003,0.02-0.004,0.03c-0.008,0.002-0.015,0.005-0.021,0.007
		c0.015,0.138,0.032,0.274,0.047,0.411h0.659c0.031-0.109,0.063-0.219,0.094-0.328c-0.049-0.035-0.098-0.068-0.147-0.102
		C4.021,22.057,3.813,22.05,3.603,22.044z"/>
	<path fill="#E5E5E5" d="M4.298,20.784c-0.229-0.01-0.459-0.02-0.689-0.029c-0.004,0.009-0.006,0.019-0.01,0.026
		c-0.009,0.005-0.017,0.006-0.025,0.009c-0.004,0.218-0.072,0.444,0.101,0.638l0.011,0.003c0.179,0.124,0.357,0.074,0.536,0.005
		c0.007-0.003,0.015-0.005,0.023-0.008c0.001-0.011,0.002-0.021,0.005-0.031c0.029-0.201,0.057-0.401,0.087-0.603L4.298,20.784z"/>
	<path fill="#E5E5E5" d="M2.938,18.827c-0.003,0.006-0.004,0.011-0.007,0.016l0.023-0.021C2.947,18.824,2.942,18.825,2.938,18.827z"
		/>
	<path fill="#E5E5E5" d="M2.965,18.227l-0.286,0.67c0.087-0.005,0.172-0.025,0.259-0.069C3.041,18.632,3.011,18.429,2.965,18.227z"
		/>
	<path fill="#E5E5E5" d="M2.93,18.843c0.007,0,0.015,0,0.022-0.001c0-0.006,0-0.015,0.001-0.021L2.93,18.843z"/>
	<path fill="#E5E5E5" d="M3.599,19.468c-0.008,0.004-0.014,0.006-0.021,0.01c-0.001,0.003-0.002,0.006-0.004,0.01L3.599,19.468z"/>
	<path fill="#E5E5E5" d="M2.951,19.495c0.211,0.042,0.422,0.092,0.626-0.018c0.116-0.203,0.08-0.412,0.031-0.62
		c-0.003-0.013-0.005-0.023-0.009-0.035c-0.007,0.001-0.014,0.001-0.02,0.001c-0.21,0.007-0.417,0.013-0.626,0.019
		c-0.006,0.209-0.013,0.42-0.019,0.628c0.006,0,0.013,0,0.019-0.001C2.952,19.478,2.952,19.487,2.951,19.495z"/>
	<path fill="#E5E5E5" d="M3.603,22.044c0.027-0.205,0.055-0.409,0.083-0.613l-0.011-0.003c-0.237-0.011-0.472-0.021-0.708-0.03
		c-0.004,0.01-0.008,0.02-0.014,0.03c-0.008,0.003-0.018,0.005-0.027,0.01c-0.007,0.218-0.064,0.442,0.101,0.637l0.013,0.002
		c0.18,0.131,0.359,0.063,0.539,0.005c0.006-0.002,0.014-0.005,0.021-0.007C3.6,22.063,3.602,22.054,3.603,22.044z"/>
	<path fill="#E5E5E5" d="M3.607,20.146c-0.003-0.011-0.004-0.021-0.008-0.033c-0.007,0.001-0.014,0.001-0.02,0.001
		c-0.209,0.007-0.417,0.014-0.625,0.021c0,0.213,0,0.425,0,0.639c0.204,0.076,0.412,0.092,0.62,0.017
		c0.008-0.003,0.017-0.004,0.025-0.009c0.004-0.008,0.006-0.018,0.01-0.026C3.683,20.552,3.657,20.351,3.607,20.146z"/>
	<path fill="#E5E5E5" d="M2.928,20.136c0.008-0.001,0.017-0.001,0.025-0.001c0-0.008,0-0.015,0-0.022L2.928,20.136z"/>
	<path fill="#E5E5E5" d="M2.954,20.781c0-0.002,0-0.005,0-0.008c-0.009-0.003-0.017-0.006-0.025-0.009L2.954,20.781z"/>
	<path fill="#E5E5E5" d="M2.954,20.112c-0.008,0.001-0.016,0.001-0.024,0.001c-0.001,0.007-0.001,0.015-0.001,0.022L2.954,20.112z"
		/>
	<path fill="#E5E5E5" d="M2.313,20.139c0.206-0.009,0.411-0.017,0.616-0.025c0.007-0.206,0.015-0.412,0.022-0.618
		c0.001-0.008,0.001-0.018,0.001-0.026C2.946,19.47,2.939,19.47,2.933,19.47c-0.168,0.005-0.336,0.009-0.504,0.015l-0.133,0.312
		c-0.003,0.106-0.006,0.214-0.011,0.319c0.008-0.001,0.015-0.001,0.021-0.001C2.309,20.123,2.311,20.131,2.313,20.139z"/>
	<path fill="#E5E5E5" d="M2.31,22.042c-0.001,0.009-0.002,0.02-0.005,0.031c-0.008,0.001-0.018,0.003-0.027,0.005
		c-0.011,0.14-0.033,0.28-0.005,0.414h0.71c0.019-0.138,0.036-0.276,0.056-0.416l-0.013-0.002
		C2.787,22.063,2.548,22.052,2.31,22.042z"/>
	<path fill="#E5E5E5" d="M2.925,21.438c0.009-0.005,0.02-0.007,0.027-0.01c0.005-0.011,0.01-0.021,0.014-0.03
		c0.097-0.21,0.078-0.414-0.029-0.616c-0.206-0.009-0.412-0.019-0.617-0.028c-0.005,0.01-0.007,0.02-0.013,0.028
		c-0.008,0.003-0.015,0.005-0.024,0.008c0.01,0.211,0.019,0.422,0.026,0.635c0.034,0.008,0.065,0.019,0.097,0.034
		C2.584,21.554,2.756,21.501,2.925,21.438z"/>
	<path fill="#E5E5E5" d="M2.928,20.765c0.003,0.006,0.005,0.011,0.008,0.017c0.005,0,0.012,0,0.017,0L2.928,20.765z"/>
	<path fill="#E5E5E5" d="M2.31,22.042c0.032-0.196,0.063-0.391,0.096-0.584c-0.032-0.016-0.063-0.026-0.097-0.034
		c-0.215-0.01-0.431-0.019-0.646-0.027c-0.001,0.011-0.003,0.021-0.003,0.031c-0.008,0.003-0.016,0.005-0.023,0.008
		c0.001,0.21,0.002,0.417,0.004,0.625c0.05,0.035,0.1,0.072,0.151,0.11c0.162-0.032,0.323-0.063,0.485-0.093
		c0.009-0.002,0.019-0.004,0.027-0.005C2.308,22.062,2.309,22.051,2.31,22.042z"/>
	<path fill="#E5E5E5" d="M2.319,20.753c0.092-0.205,0.052-0.409-0.006-0.614c-0.002-0.008-0.004-0.016-0.006-0.024
		c-0.007,0-0.014,0-0.021,0.001c-0.042,0-0.084,0.002-0.127,0.003l-0.306,0.718c0.144,0.045,0.288,0,0.431-0.047
		c0.009-0.003,0.016-0.005,0.024-0.008C2.312,20.772,2.314,20.763,2.319,20.753z"/>
	<path fill="#E5E5E5" d="M1.329,22.063l-0.183,0.429h0.568c0.025-0.106,0.052-0.215,0.078-0.321
		c-0.051-0.038-0.101-0.075-0.151-0.11C1.537,22.062,1.433,22.063,1.329,22.063z"/>
	<path fill="#E5E5E5" d="M1.664,21.396c0.006-0.054,0.013-0.108,0.02-0.162l-0.095,0.221c0.016-0.006,0.032-0.013,0.049-0.02
		c0.008-0.003,0.015-0.005,0.023-0.008C1.661,21.417,1.663,21.407,1.664,21.396z"/>
</g>
</svg>
