<?xml version="1.0" encoding="utf-8"?>
<!-- Generator: Adobe Illustrator 16.0.0, SVG Export Plug-In . SVG Version: 6.00 Build 0)  -->
<!DOCTYPE svg PUBLIC "-//W3C//DTD SVG 1.1//EN" "http://www.w3.org/Graphics/SVG/1.1/DTD/svg11.dtd">
<svg version="1.1" id="圖層_3" xmlns="http://www.w3.org/2000/svg" xmlns:xlink="http://www.w3.org/1999/xlink" x="0px" y="0px"
	 width="16px" height="24px" viewBox="0 0 16 24" enable-background="new 0 0 16 24" xml:space="preserve">
<g>
	<path fill="#E5E5E5" d="M13.931,14.237c0.013-0.115,0.073-0.16,0.146-0.184c-0.268-0.812-0.693-1.554-1.241-2.188
		c-0.069-0.007-0.155-0.045-0.187-0.091c-0.074-0.115-0.043-0.303-0.232-0.337c-0.012-0.001-0.023-0.001-0.034-0.001
		c0.001-0.005,0.001-0.01,0.001-0.015c-0.074-0.055-0.146-0.114-0.219-0.167c-0.041-0.031-0.116-0.04-0.131-0.078
		c-0.026-0.069-0.057-0.179-0.022-0.223c0.055-0.069,0.157-0.122,0.246-0.134c0.045-0.006,0.149,0.085,0.153,0.139
		c0.01,0.153-0.015,0.309-0.027,0.463c0.005,0.004,0.01,0.009,0.016,0.012c0.008,0.001,0.012,0.003,0.018,0.004
		c0.169,0.008,0.336,0.016,0.494,0.022c0.117-0.144,0.233-0.293,0.341-0.447c-0.021-0.098-0.051-0.188-0.155-0.232
		c-0.019-0.002-0.036-0.003-0.056-0.006c0.002-0.01,0.003-0.02,0.004-0.03c-0.029-0.037-0.055-0.082-0.083-0.085
		c-0.249-0.024-0.376-0.151-0.396-0.401c-0.003-0.033-0.05-0.062-0.087-0.092c-0.008,0-0.017,0.001-0.026,0
		c-0.001-0.012-0.002-0.025-0.002-0.037c-0.074-0.16-0.258-0.123-0.371-0.199c-0.061-0.041-0.079-0.177-0.072-0.267
		c0.004-0.045,0.117-0.127,0.159-0.116c0.085,0.023,0.198,0.086,0.222,0.159c0.047,0.131,0.048,0.279,0.063,0.423
		c0.002,0.007,0.007,0.012,0.01,0.02c0.005,0.005,0.013,0.01,0.019,0.016c0.068-0.002,0.14-0.012,0.207-0.004
		c0.33,0.036,0.344,0.05,0.373,0.379c0.006,0.067-0.007,0.135-0.015,0.204c0.008,0.008,0.015,0.017,0.021,0.024
		c0.012,0.003,0.021,0.008,0.03,0.012c0.097,0.01,0.194,0.014,0.287,0.033c0.309-0.478,0.552-0.998,0.723-1.55
		c-0.016,0.002-0.031,0.005-0.048,0.004c-0.036-0.003-0.095-0.119-0.09-0.179c0.012-0.125,0.123-0.161,0.222-0.125
		c0.002,0,0.002,0.001,0.004,0.001c0.131-0.508,0.202-1.042,0.202-1.592c0-0.695-0.113-1.364-0.318-1.991
		c-0.083-0.02-0.152-0.129-0.107-0.199c0.009-0.01,0.019-0.02,0.029-0.03c-0.625-1.686-1.94-3.038-3.599-3.715
		c-0.043,0.046-0.102,0.084-0.15,0.091c-0.068,0.011-0.153-0.074-0.295-0.152c0.029-0.027,0.055-0.052,0.078-0.076
		C9.39,1.083,8.703,0.964,7.987,0.964c-0.576,0-1.135,0.077-1.667,0.221C6.532,1.189,6.56,1.276,6.654,1.675c0.009,0,0.02,0,0.028,0
		c0,0.011,0,0.022,0,0.033c0.176,0.029,0.353,0.057,0.559,0.09c0.021,0.18,0.041,0.351,0.061,0.522c0.01,0,0.019,0,0.027,0
		c0,0.009,0,0.018,0,0.028c0.217-0.008,0.432-0.015,0.649-0.022c0.05-0.019,0.097-0.041,0.143-0.067
		C8.115,2.234,8.107,2.21,8.105,2.185c-0.016-0.149-0.054-0.311,0.14-0.38C8.4,1.75,8.495,1.846,8.558,2.125
		c0.016,0.068,0.039,0.135,0.057,0.202c0.173,0.043,0.344,0.085,0.51,0.128c0.02,0.319,0.02,0.319-0.357,0.453
		C8.711,2.933,8.655,2.957,8.6,2.982C8.505,3.147,8.613,3.456,8.286,3.456c-0.279,0-0.158-0.301-0.288-0.42
		C7.982,3.021,7.97,3,7.959,2.979c-0.204-0.176-0.418-0.094-0.63-0.022c0,0.011,0,0.022,0,0.033c-0.007,0-0.016,0-0.024,0
		C7.275,3.209,7.246,3.428,7.216,3.647c0.003,0.01,0.005,0.019,0.01,0.03c0.005,0.001,0.01,0.003,0.017,0.004
		c0.173,0.013,0.346,0.027,0.502,0.039c0.087,0.153,0.124,0.285-0.037,0.358c-0.106,0.049-0.21,0.003-0.247-0.122
		c-0.037-0.124-0.065-0.25-0.218-0.276C7.233,3.681,7.222,3.68,7.212,3.679c0-0.011,0.002-0.021,0.004-0.032
		c-0.07-0.221-0.238-0.13-0.388-0.095C6.795,3.577,6.76,3.596,6.721,3.613C6.695,3.659,6.648,3.705,6.646,3.751
		C6.634,4.053,6.445,4.164,6.182,4.2C6.151,4.222,6.118,4.241,6.084,4.258c-0.16,0.207-0.125,0.43-0.055,0.654
		c0.045,0.016,0.092,0.033,0.139,0.045c0.175,0.039,0.408,0.012,0.383,0.297c-0.02,0.223-0.236,0.173-0.37,0.238
		C6.154,5.516,6.124,5.535,6.09,5.551C5.933,5.756,5.971,5.978,6.028,6.202c0.011,0,0.022,0,0.033,0
		c0.319-0.525,0.846-0.91,1.465-1.04c0.02-0.04,0.045-0.074,0.064-0.075C7.64,5.085,7.689,5.105,7.746,5.129
		c0.08-0.008,0.16-0.014,0.241-0.014c0.292,0,0.568,0.057,0.824,0.158C8.801,5.247,8.796,5.22,8.796,5.199
		c0.01-0.124,0.122-0.16,0.218-0.126C9.065,5.091,9.09,5.184,9.158,5.292C9.096,5.313,9.041,5.338,8.994,5.355
		C9.194,5.456,9.378,5.585,9.54,5.738c0.029-0.012,0.061-0.02,0.084-0.018c0.127,0.009,0.165,0.124,0.133,0.225
		C9.755,5.95,9.749,5.955,9.745,5.96c0.133,0.166,0.245,0.352,0.328,0.553c0.023-0.071,0.088-0.15,0.145-0.165
		c0.065-0.018,0.156,0.063,0.313,0.135c-0.128,0.107-0.186,0.188-0.262,0.213c-0.047,0.015-0.095,0.011-0.132-0.007
		c0.068,0.215,0.105,0.444,0.105,0.682c0,0.077-0.003,0.152-0.012,0.227c0.113-0.02,0.227,0.087,0.199,0.21
		c-0.018,0.076-0.107,0.171-0.182,0.187c-0.025,0.005-0.055-0.004-0.089-0.022c-0.15,0.543-0.5,1.005-0.964,1.302
		c0.012,0.045,0.022,0.09,0.035,0.135C9.251,9.43,9.27,9.448,9.29,9.468c0.048,0.015,0.097,0.035,0.147,0.044
		c0.147,0.03,0.335,0.014,0.355,0.221c0.029,0.285-0.243,0.201-0.38,0.284c-0.051,0.023-0.102,0.045-0.152,0.069
		c-0.008,0.025-0.021,0.049-0.023,0.074c-0.018,0.298-0.165,0.473-0.469,0.503c-0.031,0.022-0.064,0.042-0.099,0.059
		c-0.037,0.067-0.094,0.131-0.105,0.202c-0.027,0.207-0.12,0.319-0.339,0.339c-0.081,0.007-0.159,0.056-0.238,0.096
		c-0.004,0.011-0.008,0.022-0.014,0.034c-0.01,0-0.019,0-0.03-0.001c0,0.203-0.001,0.404-0.002,0.607l0.052,0.05
		c0.05,0.017,0.098,0.036,0.148,0.046c0.147,0.031,0.336,0.011,0.36,0.22c0.029,0.286-0.246,0.201-0.38,0.288
		c-0.056,0.026-0.11,0.05-0.165,0.074c-0.007,0.026-0.02,0.05-0.021,0.075c-0.01,0.299-0.163,0.465-0.46,0.498
		c-0.039,0.023-0.08,0.045-0.124,0.061c-0.042,0.127-0.06,0.271-0.137,0.373c-0.064,0.084-0.199,0.115-0.339,0.189
		c-0.085-0.221-0.148-0.387-0.212-0.551c-0.205-0.121-0.417-0.059-0.628-0.016c0,0.008-0.001,0.016-0.002,0.023
		c-0.006,0-0.012,0-0.019,0c-0.021,0.148-0.041,0.297-0.06,0.426c-0.234,0.1-0.388,0.094-0.45-0.16
		c-0.024-0.092-0.073-0.174-0.115-0.262c-0.008,0-0.018,0-0.025,0.002c0-0.014,0-0.025,0-0.035
		c-0.202-0.139-0.403-0.131-0.607-0.018c-0.005,0.018-0.009,0.033-0.016,0.049c-0.009,0-0.018,0-0.026,0
		c-0.037,0.145-0.074,0.289-0.111,0.434c-0.167,0.059-0.332,0.115-0.496,0.172c-0.004,0.012-0.008,0.026-0.015,0.042
		c-0.008,0-0.017,0-0.026,0c-0.023,0.094-0.051,0.188-0.062,0.281c-0.026,0.236-0.193,0.203-0.364,0.215
		c-0.068-0.176-0.129-0.336-0.19-0.496c-0.008,0-0.017,0-0.026,0c0.001-0.012,0.002-0.024,0.002-0.034
		c-0.068-0.029-0.136-0.072-0.205-0.078c-0.229-0.012-0.31-0.141-0.331-0.35c-0.006-0.064-0.05-0.123-0.082-0.186
		c-0.011,0-0.021,0-0.029,0c0-0.012,0-0.023,0-0.035c-0.067-0.031-0.133-0.078-0.202-0.08c-0.136-0.008-0.22-0.055-0.271-0.135
		c-0.095,0.18-0.182,0.367-0.261,0.557c0,0.115,0,0.229,0,0.341c0.006,0.012,0.013,0.02,0.02,0.033
		c0.003,0.004,0.005,0.006,0.008,0.01c0.202,0.018,0.402,0.031,0.589,0.047c0.059,0.168,0.103,0.311-0.063,0.375
		c-0.176,0.07-0.302,0.016-0.354-0.195c-0.021-0.084-0.108-0.152-0.173-0.227c-0.009,0-0.019-0.002-0.028-0.002
		c0-0.014,0-0.029,0-0.041c-0.027-0.046-0.06-0.075-0.094-0.091c-0.089,0.247-0.163,0.501-0.221,0.763
		c0.076,0.014,0.15,0.027,0.226,0.041c0.116,0.35,0.116,0.35-0.301,0.496c-0.007,0.004-0.015,0.006-0.022,0.01
		c-0.035,0.256-0.053,0.514-0.055,0.777c0.145,0.016,0.299,0.031,0.484,0.053c-0.06,0.154-0.074,0.301-0.149,0.352
		c-0.12,0.076-0.25,0.021-0.284-0.143c-0.013-0.061-0.026-0.117-0.051-0.166c0.002,0.4,0.042,0.793,0.114,1.174
		c0.113,0.029,0.227,0.061,0.349,0.094c0,0.182,0,0.348,0,0.516c0.005,0.012,0.011,0.027,0.015,0.043
		c0.007,0,0.014,0.002,0.02,0.004c0.196,0.014,0.392,0.029,0.574,0.043c0.058,0.166,0.102,0.303-0.061,0.373
		c-0.135,0.057-0.266,0.037-0.309-0.135c-0.031-0.123-0.056-0.248-0.204-0.281c-0.012,0-0.022-0.002-0.035-0.002
		c0-0.016,0-0.031,0-0.045c-0.051-0.129-0.138-0.137-0.233-0.117c0.15,0.545,0.371,1.063,0.651,1.539
		c0.051-0.006,0.122-0.008,0.22-0.008c0.02,0.145,0.039,0.293,0.06,0.441c0.034,0.049,0.068,0.098,0.104,0.148
		c0.195-0.02,0.39-0.035,0.585-0.053c0-0.012,0-0.021-0.001-0.029c0.01-0.006,0.018-0.008,0.027-0.01
		c0.056-0.158,0.112-0.316,0.174-0.492c0.061-0.014,0.131-0.039,0.204-0.041c0.046-0.004,0.094,0.027,0.178,0.059
		c0.018,0.146,0.037,0.309,0.058,0.473c0.009,0.004,0.019,0.006,0.028,0.01c0.005,0.012,0.008,0.023,0.012,0.035
		c0.17,0.018,0.341,0.037,0.539,0.059c0.027,0.207,0.048,0.381,0.07,0.553c0.009,0,0.017,0,0.026-0.002
		c0,0.012-0.001,0.023-0.001,0.033c0.167,0.023,0.335,0.045,0.525,0.07c0.032,0.197,0.059,0.365,0.085,0.529
		c0.012,0.006,0.024,0.01,0.037,0.016c0.003,0.008,0.006,0.02,0.009,0.029c0.16,0.033,0.32,0.063,0.496,0.098
		c0.035,0.18,0.067,0.34,0.098,0.496c0.013,0.01,0.027,0.016,0.04,0.025c0.004,0.008,0.008,0.016,0.013,0.021
		c0.205,0,0.41-0.002,0.616-0.002c0-0.006,0-0.014,0-0.021c0.015-0.006,0.03-0.01,0.046-0.016c0.091-0.207,0.146-0.412-0.025-0.615
		l-0.016-0.016l0,0c-0.067-0.033-0.131-0.086-0.203-0.1c-0.154-0.033-0.311-0.053-0.289-0.266c0.02-0.213,0.202-0.188,0.342-0.225
		c0.049-0.016,0.098-0.029,0.146-0.043c0.055-0.025,0.111-0.051,0.166-0.076c-0.054-0.189-0.108-0.381-0.162-0.57
		c-0.088-0.043-0.173-0.098-0.265-0.119c-0.143-0.033-0.246-0.086-0.23-0.25c0.015-0.168,0.145-0.191,0.277-0.215
		c0.076-0.014,0.15-0.043,0.226-0.066c0.022-0.051,0.047-0.104,0.07-0.156c0.043-0.125,0.085-0.246,0.131-0.379
		c0.109,0,0.21,0,0.329,0c0.043,0.188,0.082,0.357,0.123,0.531c0.172,0.039,0.344,0.08,0.53,0.125c0,0.117,0,0.219,0,0.334
		c-0.13,0.041-0.255,0.082-0.379,0.121c-0.05,0.023-0.101,0.045-0.151,0.068c-0.082,0.215-0.083,0.43-0.002,0.643
		c0.165,0.045,0.331,0.09,0.529,0.143c0.029,0.162,0.058,0.324,0.087,0.486c0.013,0.004,0.025,0.008,0.037,0.014
		c0.004,0.008,0.007,0.02,0.011,0.029c0.167,0.031,0.336,0.063,0.539,0.102c0.021,0.168,0.04,0.334,0.061,0.5
		c0.011,0.006,0.023,0.01,0.035,0.016c0.002,0.008,0.002,0.016,0.004,0.023c0.206-0.002,0.413-0.006,0.619-0.008
		c0.058-0.025,0.113-0.051,0.17-0.078c-0.061-0.162,0.016-0.377-0.172-0.492c-0.008,0-0.016,0.002-0.025,0.004
		c-0.001-0.014-0.003-0.029-0.005-0.043c-0.053-0.125-0.172-0.148-0.292-0.176c-0.167-0.037-0.21-0.176-0.135-0.291
		c0.05-0.078,0.195-0.096,0.346-0.162c0.032,0.246,0.057,0.438,0.081,0.629c0.004,0.01,0.008,0.016,0.011,0.025
		c0.008,0.004,0.012,0.01,0.02,0.014c0.217-0.023,0.437-0.051,0.654-0.078c0.055-0.027,0.109-0.051,0.164-0.076
		c-0.011-0.447-0.011-0.447,0.387-0.445c0.036,0.168,0.071,0.34,0.107,0.51c0.211,0.006,0.422,0.012,0.632,0.016
		c-0.001-0.006-0.001-0.012-0.002-0.02c0.012,0.002,0.021,0.002,0.03,0.002c0.028-0.086,0.062-0.174,0.077-0.262
		c0.02-0.117,0.007-0.23-0.116-0.287c-0.01,0-0.019,0.002-0.028,0.004c-0.001-0.014-0.001-0.027-0.003-0.039
		c-0.063-0.209-0.329-0.113-0.43-0.262c0.031-0.313,0.031-0.313,0.396-0.314c0.011,0.189,0.022,0.381,0.033,0.576
		c0.003,0.008,0.006,0.016,0.008,0.025c0.009,0.002,0.016,0.006,0.023,0.01c0.218-0.021,0.438-0.047,0.657-0.07
		c0-0.01-0.001-0.02-0.001-0.029c0.008,0,0.016,0,0.022,0c0.054-0.189,0.202-0.383-0.018-0.559c-0.01,0.002-0.019,0.002-0.028,0.004
		c-0.001-0.016-0.003-0.031-0.004-0.043c-0.076-0.152-0.254-0.117-0.366-0.195c-0.06-0.041-0.078-0.176-0.07-0.264
		c0.004-0.047,0.117-0.129,0.157-0.115c0.083,0.023,0.193,0.088,0.218,0.16c0.046,0.129,0.049,0.271,0.062,0.414
		c0.004,0.008,0.009,0.012,0.013,0.023c0.007,0.004,0.013,0.01,0.02,0.016c0.219-0.031,0.439-0.064,0.659-0.098
		c0.019-0.045,0.039-0.092,0.066-0.135c0.024-0.35,0.251-0.463,0.56-0.484c0.055-0.025,0.113-0.051,0.17-0.076
		c-0.061-0.16,0.024-0.381-0.177-0.482c-0.009,0-0.018,0-0.026,0.002c0-0.008,0-0.018-0.001-0.023
		c-0.031-0.15-0.151-0.182-0.28-0.199c-0.178-0.023-0.21-0.158-0.164-0.283c0.027-0.068,0.149-0.107,0.236-0.141
		c0.037-0.014,0.093,0.025,0.184,0.057c0.008,0.178,0.017,0.369,0.024,0.566c0.001,0.002,0.003,0.004,0.003,0.008
		c0.008,0.006,0.017,0.01,0.024,0.014c0.171-0.006,0.346-0.014,0.528-0.021c0.03,0.121,0.056,0.229,0.08,0.328
		c0.094-0.189,0.181-0.383,0.258-0.584c-0.067-0.127-0.133-0.26-0.2-0.393c-0.008-0.002-0.017-0.002-0.023-0.002
		c-0.001-0.01-0.003-0.02-0.005-0.029c-0.147-0.082-0.297-0.166-0.489-0.273c0.049-0.098,0.076-0.256,0.155-0.287
		c0.14-0.057,0.242,0.055,0.275,0.201c0.024,0.119,0.04,0.24,0.059,0.359c0.006,0.004,0.011,0.008,0.018,0.01
		c0.003,0.008,0.007,0.016,0.011,0.021c0.11,0.006,0.222,0.012,0.329,0.018c0.188-0.598,0.287-1.234,0.287-1.895
		c0-0.529-0.065-1.043-0.188-1.535C14.062,14.468,13.906,14.448,13.931,14.237z M13.978,6.478c0.023-0.054,0.107-0.114,0.165-0.113
		c0.052,0.001,0.102,0.079,0.176,0.143c-0.072,0.067-0.114,0.137-0.173,0.156C14.045,6.697,13.935,6.578,13.978,6.478z
		 M13.974,7.778c0.024-0.052,0.107-0.109,0.165-0.109c0.05,0.001,0.101,0.077,0.175,0.139c-0.072,0.066-0.114,0.133-0.171,0.151
		C14.041,7.992,13.931,7.874,13.974,7.778z M13.456,9.925c-0.066-0.017-0.15-0.125-0.155-0.197c-0.008-0.118,0.102-0.18,0.211-0.143
		c0.077,0.028,0.137,0.109,0.266,0.218C13.616,9.87,13.524,9.943,13.456,9.925z M13.515,7.354c-0.083-0.056-0.161-0.082-0.195-0.136
		c-0.051-0.083,0.053-0.221,0.15-0.197c0.059,0.014,0.134,0.079,0.142,0.131C13.62,7.205,13.558,7.271,13.515,7.354z M13.667,8.458
		c-0.07,0.065-0.117,0.145-0.168,0.146c-0.057,0.002-0.141-0.052-0.169-0.105c-0.047-0.092,0.063-0.215,0.161-0.185
		C13.55,8.331,13.594,8.395,13.667,8.458z M13.508,6.015c-0.125,0.021-0.194-0.065-0.168-0.18c0.013-0.048,0.108-0.106,0.163-0.104
		c0.053,0.001,0.102,0.075,0.178,0.138C13.607,5.933,13.563,6.006,13.508,6.015z M13.447,4.435c0.056-0.003,0.144,0.051,0.17,0.103
		c0.05,0.092-0.061,0.222-0.159,0.192c-0.06-0.019-0.104-0.082-0.183-0.146C13.348,4.518,13.395,4.438,13.447,4.435z M12.827,9.271
		c-0.059-0.003-0.163-0.069-0.162-0.104c0.002-0.079,0.058-0.156,0.108-0.272c0.103,0.087,0.185,0.123,0.2,0.177
		C13.004,9.179,12.954,9.277,12.827,9.271z M12.828,7.953c-0.094,0.023-0.202-0.117-0.15-0.199c0.032-0.052,0.121-0.101,0.179-0.095
		c0.052,0.005,0.094,0.09,0.16,0.16C12.938,7.878,12.889,7.939,12.828,7.953z M12.847,5.363c-0.097,0.033-0.206-0.084-0.164-0.181
		c0.023-0.051,0.106-0.107,0.161-0.106c0.051,0,0.101,0.074,0.174,0.135C12.946,5.278,12.906,5.344,12.847,5.363z M12.674,3.92
		c0.019-0.06,0.084-0.104,0.149-0.181c0.066,0.073,0.146,0.122,0.148,0.174c0.003,0.058-0.053,0.145-0.106,0.173
		C12.771,4.133,12.643,4.021,12.674,3.92z M12.833,6.383c0.059,0.019,0.104,0.081,0.182,0.145c-0.073,0.065-0.122,0.142-0.175,0.145
		c-0.058,0.003-0.144-0.05-0.17-0.103C12.622,6.479,12.733,6.353,12.833,6.383z M12.123,8.692c-0.05-0.119-0.104-0.196-0.103-0.272
		c0.001-0.039,0.138-0.119,0.151-0.107c0.063,0.054,0.122,0.128,0.146,0.206C12.327,8.544,12.226,8.604,12.123,8.692z M12.187,7.314
		c-0.059-0.002-0.162-0.069-0.161-0.107c0-0.078,0.056-0.155,0.107-0.272c0.103,0.088,0.186,0.124,0.201,0.179
		C12.36,7.218,12.314,7.321,12.187,7.314z M12.128,3.132c0.075,0.002,0.151,0.057,0.266,0.109c-0.087,0.101-0.122,0.181-0.176,0.195
		c-0.104,0.029-0.203-0.019-0.196-0.145C12.026,3.234,12.093,3.131,12.128,3.132z M12.197,4.427
		c0.061,0.019,0.105,0.083,0.184,0.147c-0.074,0.068-0.123,0.149-0.176,0.151c-0.058,0.002-0.146-0.055-0.173-0.108
		C11.984,4.521,12.096,4.396,12.197,4.427z M12.176,5.728c0.057,0.016,0.13,0.082,0.139,0.136c0.008,0.054-0.054,0.12-0.097,0.205
		c-0.08-0.057-0.16-0.085-0.189-0.14C11.978,5.843,12.082,5.703,12.176,5.728z M7.817,1.428C7.8,1.481,7.701,1.508,7.585,1.579
		c-0.04-0.118-0.093-0.204-0.088-0.286c0.002-0.038,0.122-0.1,0.185-0.095C7.812,1.208,7.851,1.325,7.817,1.428z M6.903,4.719
		C6.86,4.705,6.826,4.592,6.827,4.524C6.831,4.382,6.955,4.341,7.05,4.385c0.072,0.034,0.104,0.152,0.2,0.306
		C7.078,4.709,6.981,4.744,6.903,4.719z M8.356,4.771C8.272,4.715,8.192,4.69,8.158,4.635C8.106,4.552,8.21,4.412,8.31,4.436
		c0.058,0.014,0.134,0.08,0.143,0.133C8.462,4.622,8.399,4.688,8.356,4.771z M9.013,1.634C8.893,1.517,8.784,1.458,8.777,1.39
		C8.77,1.309,8.829,1.188,8.898,1.142c0.115-0.075,0.28,0.041,0.265,0.184C9.157,1.409,9.088,1.488,9.013,1.634z M8.97,4.104
		C8.857,4.13,8.757,4.048,8.781,3.93c0.015-0.08,0.098-0.189,0.168-0.204C9.014,3.713,9.1,3.809,9.241,3.895
		C9.112,3.998,9.049,4.085,8.97,4.104z M9.574,1.775c0.076,0.001,0.185,0.078,0.22,0.149C9.86,2.066,9.776,2.176,9.556,2.203
		C9.521,2.169,9.425,2.118,9.401,2.044C9.362,1.912,9.407,1.772,9.574,1.775z M9.663,4.728C9.585,4.732,9.502,4.681,9.389,4.643
		C9.456,4.533,9.48,4.438,9.532,4.42C9.63,4.385,9.741,4.423,9.751,4.547C9.756,4.608,9.698,4.726,9.663,4.728z M9.569,3.457
		C9.446,3.469,9.382,3.363,9.413,3.262c0.024-0.073,0.125-0.166,0.189-0.166c0.066,0,0.133,0.103,0.255,0.211
		C9.722,3.381,9.647,3.448,9.569,3.457z M10.056,2.634c-0.002-0.108,0.061-0.218,0.192-0.177c0.077,0.023,0.134,0.113,0.173,0.149
		c-0.027,0.21-0.148,0.22-0.243,0.197C10.124,2.792,10.058,2.695,10.056,2.634z M10.267,5.381c-0.061,0.005-0.174-0.056-0.176-0.09
		c-0.004-0.081,0.045-0.163,0.085-0.278c0.107,0.07,0.2,0.098,0.218,0.15C10.427,5.262,10.39,5.373,10.267,5.381z M10.281,4.089
		c-0.104,0.027-0.206-0.017-0.198-0.144c0.004-0.059,0.07-0.161,0.107-0.16c0.077,0.001,0.154,0.057,0.271,0.109
		C10.372,3.995,10.337,4.074,10.281,4.089z M2.463,17.046c-0.069-0.023-0.153-0.131-0.154-0.201c0-0.066,0.098-0.135,0.203-0.26
		c0.078,0.146,0.147,0.223,0.153,0.305C2.675,17.015,2.563,17.079,2.463,17.046z M2.537,15.751
		c-0.137,0.059-0.262-0.055-0.255-0.203c0.006-0.121,0.068-0.211,0.19-0.197c0.085,0.01,0.164,0.076,0.308,0.15
		C2.666,15.622,2.615,15.718,2.537,15.751z M2.943,14.89c0.017-0.084,0.093-0.156,0.184-0.299c0.104,0.135,0.19,0.201,0.21,0.281
		c0.039,0.148-0.075,0.246-0.231,0.236C2.961,15.099,2.923,14.995,2.943,14.89z M3.171,18.989c-0.079-0.002-0.189-0.068-0.223-0.139
		c-0.061-0.125,0.034-0.258,0.224-0.289c0.037,0.035,0.13,0.084,0.164,0.158C3.397,18.856,3.315,18.991,3.171,18.989z M3.198,17.696
		c-0.152,0.059-0.279-0.021-0.265-0.168c0.009-0.08,0.078-0.186,0.149-0.221c0.13-0.063,0.254,0.031,0.282,0.236
		C3.328,17.579,3.273,17.669,3.198,17.696z M3.129,16.401c-0.138,0.018-0.246-0.141-0.171-0.262
		c0.041-0.066,0.166-0.129,0.242-0.117c0.07,0.01,0.129,0.119,0.243,0.236C3.294,16.329,3.215,16.392,3.129,16.401z M3.775,18.337
		c-0.114,0.021-0.186-0.051-0.195-0.172c-0.011-0.148,0.101-0.268,0.225-0.217c0.077,0.029,0.133,0.113,0.25,0.221
		C3.926,18.249,3.856,18.321,3.775,18.337z M3.502,16.892c0.12-0.115,0.173-0.205,0.25-0.236c0.131-0.049,0.272,0.08,0.232,0.215
		c-0.023,0.074-0.122,0.164-0.199,0.176C3.719,17.056,3.636,16.968,3.502,16.892z M3.848,15.747c-0.1,0.047-0.206,0.014-0.249-0.107
		c-0.048-0.133,0.042-0.289,0.176-0.279c0.085,0.006,0.165,0.07,0.315,0.141C3.974,15.622,3.924,15.712,3.848,15.747z
		 M11.595,10.574c-0.103,0.036-0.211,0.005-0.239-0.132c-0.033-0.153,0.058-0.285,0.206-0.265c0.085,0.01,0.16,0.084,0.306,0.17
		C11.737,10.46,11.677,10.546,11.595,10.574z M11.77,11.629c-0.015,0.237-0.128,0.266-0.269,0.255
		c-0.129-0.01-0.167-0.096-0.16-0.211c0.008-0.17,0.121-0.223,0.26-0.186C11.675,11.508,11.732,11.597,11.77,11.629z M11.359,2.664
		c0.013-0.083,0.077-0.199,0.146-0.223c0.061-0.022,0.16,0.061,0.315,0.129c-0.122,0.123-0.175,0.217-0.253,0.243
		C11.466,2.847,11.343,2.803,11.359,2.664z M11.595,6.68c-0.099,0.035-0.213,0.001-0.223-0.125
		c-0.004-0.062,0.056-0.178,0.095-0.181c0.08-0.004,0.164,0.047,0.282,0.09C11.677,6.57,11.649,6.661,11.595,6.68z M11.516,7.986
		c-0.06-0.012-0.146-0.086-0.147-0.134c-0.002-0.083,0.053-0.166,0.121-0.347c0.112,0.154,0.2,0.222,0.212,0.3
		C11.719,7.914,11.646,8.014,11.516,7.986z M11.55,5.076c0.057,0.018,0.104,0.082,0.18,0.146c-0.072,0.067-0.122,0.147-0.174,0.15
		c-0.057,0.002-0.145-0.054-0.172-0.108C11.336,5.169,11.445,5.045,11.55,5.076z M11.386,3.954
		c-0.004-0.061,0.054-0.174,0.087-0.176c0.078-0.003,0.158,0.047,0.268,0.087c-0.066,0.106-0.091,0.199-0.143,0.217
		C11.501,4.115,11.393,4.076,11.386,3.954z M11.574,8.888c0.129,0.01,0.175,0.089,0.181,0.204c0.007,0.146-0.088,0.229-0.317,0.208
		c-0.023-0.042-0.091-0.115-0.102-0.196C11.315,8.954,11.419,8.875,11.574,8.888z M10.931,10.025
		c-0.107-0.121-0.195-0.179-0.219-0.257c-0.033-0.103,0.008-0.206,0.135-0.242c0.146-0.04,0.286,0.056,0.261,0.2
		C11.094,9.811,11.018,9.885,10.931,10.025z M11.064,11.042c0.01,0.063-0.082,0.144-0.169,0.279
		c-0.095-0.131-0.188-0.205-0.182-0.268c0.007-0.07,0.106-0.131,0.167-0.196C10.945,10.918,11.054,10.972,11.064,11.042z
		 M10.909,12.129c0.083,0.021,0.15,0.1,0.279,0.193c-0.126,0.094-0.188,0.173-0.27,0.194c-0.101,0.027-0.198-0.01-0.217-0.146
		C10.683,12.222,10.776,12.095,10.909,12.129z M10.87,8.644c-0.115,0.008-0.18-0.074-0.168-0.199
		c0.013-0.124,0.094-0.192,0.203-0.164c0.078,0.02,0.141,0.104,0.273,0.21C11.026,8.57,10.95,8.638,10.87,8.644z M10.929,4.433
		c0.053,0.01,0.091,0.101,0.154,0.182c-0.085,0.052-0.142,0.109-0.205,0.118c-0.098,0.015-0.203-0.142-0.146-0.214
		C10.774,4.466,10.868,4.422,10.929,4.433z M10.741,3.238c-0.001-0.036,0.102-0.103,0.16-0.106c0.127-0.007,0.171,0.095,0.146,0.198
		c-0.014,0.054-0.096,0.089-0.196,0.175C10.799,3.391,10.743,3.314,10.741,3.238z M10.946,5.723
		c0.053,0.019,0.077,0.113,0.144,0.221c-0.113,0.041-0.194,0.09-0.274,0.087c-0.033-0.001-0.09-0.118-0.087-0.18
		C10.738,5.728,10.847,5.688,10.946,5.723z M10.708,1.965c0.016-0.082,0.092-0.152,0.181-0.286c0.103,0.126,0.188,0.188,0.21,0.267
		c0.039,0.141-0.076,0.235-0.23,0.228C10.728,2.167,10.685,2.069,10.708,1.965z M10.698,7.132c0.008-0.133,0.102-0.202,0.209-0.157
		c0.078,0.033,0.163,0.143,0.166,0.221c0.003,0.062-0.116,0.128-0.148,0.159C10.714,7.344,10.691,7.245,10.698,7.132z M10.276,8.888
		c0.083,0.018,0.152,0.098,0.289,0.191c-0.133,0.099-0.199,0.181-0.281,0.203c-0.102,0.028-0.206-0.008-0.225-0.147
		C10.038,8.982,10.132,8.858,10.276,8.888z M10.058,10.378c0.023-0.076,0.104-0.137,0.207-0.263
		c0.078,0.152,0.162,0.241,0.147,0.306c-0.017,0.067-0.124,0.147-0.201,0.157C10.092,10.594,10.024,10.489,10.058,10.378z
		 M10.251,11.47c0.082,0.015,0.154,0.091,0.29,0.176c-0.12,0.106-0.178,0.191-0.257,0.219c-0.102,0.036-0.205,0-0.23-0.133
		C10.025,11.581,10.114,11.446,10.251,11.47z M10.425,12.979c-0.011,0.08-0.086,0.148-0.174,0.285
		c-0.096-0.133-0.19-0.205-0.184-0.271c0.008-0.07,0.1-0.17,0.17-0.188C10.341,12.779,10.44,12.863,10.425,12.979z M9.647,10.826
		c0.078,0.027,0.137,0.108,0.178,0.143c-0.017,0.219-0.118,0.294-0.258,0.254c-0.07-0.019-0.15-0.123-0.162-0.199
		C9.384,10.885,9.515,10.78,9.647,10.826z M9.869,12.385c-0.145,0.065-0.222,0.128-0.302,0.13c-0.122,0.004-0.185-0.103-0.143-0.205
		c0.027-0.07,0.132-0.158,0.199-0.154C9.689,12.16,9.749,12.267,9.869,12.385z M9.651,13.42c0.077,0.033,0.131,0.125,0.252,0.244
		c-0.146,0.074-0.225,0.137-0.312,0.148c-0.12,0.02-0.19-0.061-0.194-0.186C9.394,13.477,9.519,13.365,9.651,13.42z M8.962,11.462
		c0.132-0.004,0.201,0.062,0.205,0.188c0.004,0.158-0.097,0.254-0.248,0.231c-0.13-0.021-0.167-0.111-0.162-0.229
		C8.762,11.523,8.839,11.466,8.962,11.462z M9.001,12.781c0.078,0.022,0.14,0.105,0.176,0.136c-0.004,0.238-0.114,0.273-0.258,0.267
		c-0.129-0.008-0.172-0.09-0.17-0.205C8.751,12.826,8.848,12.738,9.001,12.781z M5.371,16.87c-0.146,0.09-0.219,0.166-0.304,0.18
		c-0.121,0.021-0.195-0.066-0.191-0.189c0.003-0.119,0.07-0.219,0.193-0.195C5.154,16.681,5.225,16.767,5.371,16.87z M5.236,18.106
		c0.005,0.078-0.053,0.162-0.075,0.219c-0.199,0.023-0.27-0.053-0.269-0.17c0.001-0.109,0.052-0.223,0.191-0.189
		C5.145,17.979,5.233,18.054,5.236,18.106z M4.898,14.241c0.031-0.068,0.14-0.15,0.206-0.145s0.123,0.117,0.24,0.242
		c-0.15,0.059-0.232,0.117-0.311,0.115C4.916,14.45,4.851,14.343,4.898,14.241z M4.88,15.524c0.025-0.074,0.102-0.137,0.202-0.262
		c0.087,0.139,0.16,0.207,0.176,0.289c0.026,0.133-0.104,0.229-0.246,0.199C4.885,15.724,4.846,15.628,4.88,15.524z M4.478,14.712
		c0.078,0.021,0.136,0.109,0.171,0.137c0,0.238-0.108,0.281-0.254,0.273c-0.13-0.008-0.169-0.094-0.167-0.209
		C4.231,14.757,4.327,14.669,4.478,14.712z M4.234,16.128c0.034-0.117,0.126-0.186,0.224-0.135c0.09,0.045,0.144,0.158,0.257,0.295
		c-0.153,0.059-0.235,0.117-0.321,0.119C4.257,16.411,4.19,16.276,4.234,16.128z M4.366,17.306c0.115-0.07,0.277,0.041,0.266,0.178
		c-0.008,0.08-0.078,0.154-0.153,0.291c-0.117-0.107-0.226-0.164-0.232-0.23C4.237,17.468,4.298,17.347,4.366,17.306z M5.786,20.271
		c-0.046,0.031-0.177,0.014-0.213-0.029c-0.091-0.111-0.151-0.246-0.223-0.373c-0.003,0-0.008,0-0.011,0
		c-0.002-0.01-0.003-0.021-0.003-0.035c-0.008-0.02-0.014-0.041-0.027-0.049C4.905,19.536,4.895,19.53,4.73,19.21
		c-0.008-0.002-0.015-0.004-0.024-0.004c-0.002-0.01-0.003-0.018-0.005-0.027C4.57,19.11,4.433,19.05,4.315,18.964
		c-0.048-0.033-0.073-0.145-0.056-0.207c0.015-0.055,0.103-0.121,0.16-0.123c0.063-0.002,0.162,0.055,0.18,0.109
		c0.051,0.139,0.071,0.287,0.102,0.436c0.006,0.002,0.011,0.006,0.018,0.01c0.003,0.006,0.007,0.014,0.011,0.021
		c0.169,0.012,0.34,0.023,0.549,0.035c0.02,0.209,0.037,0.398,0.056,0.588c0.001,0.008,0.004,0.016,0.007,0.021
		s0.005,0.01,0.007,0.014c0.151,0.004,0.306-0.012,0.456,0.008c0.05,0.008,0.134,0.115,0.126,0.164
		C5.916,20.124,5.857,20.222,5.786,20.271z M5.724,17.325c0.062,0.016,0.151,0.088,0.154,0.137C5.881,17.54,5.824,17.62,5.752,17.8
		c-0.116-0.15-0.207-0.217-0.215-0.289C5.525,17.405,5.588,17.294,5.724,17.325z M5.921,18.847c-0.03,0.076-0.123,0.127-0.238,0.234
		c-0.073-0.129-0.157-0.213-0.146-0.279c0.013-0.072,0.104-0.166,0.18-0.186C5.849,18.581,5.971,18.722,5.921,18.847z M6.363,18.337
		c-0.061-0.004-0.157-0.072-0.168-0.127c-0.021-0.098-0.005-0.215,0.206-0.24c0.035,0.041,0.126,0.1,0.148,0.18
		C6.587,18.284,6.47,18.341,6.363,18.337z M8.24,20.284c-0.121-0.021-0.152-0.117-0.135-0.229c0.021-0.15,0.139-0.23,0.274-0.166
		c0.074,0.035,0.122,0.129,0.156,0.168C8.495,20.28,8.375,20.31,8.24,20.284z M8.316,18.991c-0.084-0.006-0.163-0.074-0.324-0.154
		c0.155-0.123,0.232-0.219,0.33-0.25c0.104-0.035,0.195,0.035,0.214,0.16C8.558,18.897,8.473,19.007,8.316,18.991z M8.903,19.63
		c-0.069-0.031-0.135-0.145-0.141-0.223c-0.01-0.145,0.124-0.238,0.26-0.184c0.076,0.029,0.125,0.125,0.155,0.16
		C9.157,19.591,9.034,19.69,8.903,19.63z M9.802,20.093c-0.014,0.082-0.095,0.154-0.188,0.295c-0.105-0.131-0.205-0.199-0.205-0.271
		c0-0.08,0.072-0.199,0.145-0.234C9.685,19.821,9.825,19.942,9.802,20.093z M9.626,18.985c-0.1,0.031-0.219-0.002-0.219-0.131
		c0-0.082,0.074-0.238,0.104-0.236c0.104,0.01,0.205,0.074,0.39,0.152C9.761,18.884,9.702,18.96,9.626,18.985z M9.905,17.544
		c-0.147,0.074-0.227,0.137-0.313,0.15C9.565,17.698,9.54,17.696,9.52,17.69c-0.122,0.115-0.259,0.215-0.404,0.301
		c0.05,0.059,0.067,0.156,0.029,0.281c-0.051,0.02-0.135,0.076-0.221,0.078c-0.109,0.004-0.175-0.08-0.175-0.191
		c-0.238,0.086-0.494,0.137-0.761,0.137c-0.068,0-0.136-0.004-0.202-0.012c-0.037,0.031-0.068,0.055-0.103,0.063
		c-0.095,0.023-0.19-0.008-0.211-0.113c-0.891-0.211-1.576-0.947-1.713-1.861c0,0,0,0-0.001,0c-0.106,0.029-0.209-0.02-0.201-0.146
		c0.004-0.061,0.071-0.166,0.107-0.164c0.023,0,0.046,0.006,0.069,0.016c0-0.014-0.001-0.025-0.001-0.039
		c0-0.379,0.095-0.734,0.26-1.047c-0.13,0.055-0.206,0.102-0.284,0.111c-0.116,0.014-0.184-0.063-0.183-0.184
		c0-0.141,0.127-0.24,0.255-0.186c0.071,0.031,0.122,0.115,0.226,0.227c0.101-0.184,0.228-0.354,0.375-0.504
		c-0.001,0.002-0.002,0.002-0.003,0.002c-0.103,0.035-0.196-0.043-0.203-0.178c-0.008-0.154,0.038-0.266,0.212-0.266
		c0.11,0,0.207,0.037,0.214,0.248c0.383-0.3,0.864-0.481,1.387-0.481c0.067,0,0.134,0.004,0.199,0.012
		c-0.041-0.07-0.07-0.123-0.076-0.176c-0.014-0.143,0.113-0.25,0.241-0.199c0.075,0.029,0.179,0.148,0.166,0.197
		c-0.02,0.066-0.078,0.123-0.153,0.199c0.859,0.146,1.553,0.774,1.791,1.599c0.025-0.023,0.051-0.045,0.078-0.053
		c0.139-0.045,0.265,0.086,0.223,0.229c-0.023,0.078-0.113,0.137-0.219,0.256c0.005,0.064,0.008,0.127,0.008,0.193
		c0,0.236-0.035,0.463-0.104,0.676c0.029-0.027,0.06-0.051,0.09-0.061c0.14-0.045,0.267,0.086,0.225,0.23
		c-0.024,0.078-0.117,0.139-0.229,0.262c-0.064-0.102-0.133-0.174-0.158-0.232c-0.074,0.176-0.174,0.342-0.288,0.492
		C9.813,17.444,9.853,17.489,9.905,17.544z M10.231,17.942c0.139-0.045,0.265,0.086,0.222,0.227
		c-0.024,0.08-0.114,0.139-0.226,0.266c-0.084-0.133-0.174-0.215-0.167-0.283C10.071,18.073,10.156,17.968,10.231,17.942z
		 M10.169,19.618c-0.063-0.033-0.113-0.17-0.102-0.248c0.018-0.121,0.137-0.172,0.241-0.1c0.073,0.049,0.112,0.15,0.209,0.289
		C10.35,19.591,10.235,19.651,10.169,19.618z M10.258,14.458c-0.052,0.014-0.175-0.088-0.194-0.158
		c-0.039-0.143,0.047-0.252,0.201-0.24c0.081,0.006,0.156,0.076,0.313,0.158C10.427,14.337,10.352,14.437,10.258,14.458z
		 M11.097,18.804c-0.024,0.076-0.124,0.166-0.201,0.178c-0.068,0.01-0.152-0.076-0.286-0.154c0.12-0.117,0.175-0.207,0.255-0.236
		C10.997,18.542,11.14,18.669,11.097,18.804z M10.896,17.692c-0.051,0.014-0.17-0.09-0.191-0.162
		c-0.045-0.141,0.061-0.264,0.198-0.244c0.082,0.012,0.156,0.08,0.308,0.164C11.063,17.569,10.99,17.669,10.896,17.692z
		 M10.889,15.999c0.085,0.01,0.162,0.08,0.309,0.156c-0.121,0.121-0.176,0.209-0.253,0.242c-0.104,0.045-0.21,0.006-0.244-0.123
		C10.659,16.128,10.751,15.981,10.889,15.999z M11.537,16.636c0.118,0.002,0.19,0.055,0.205,0.178
		c0.018,0.156-0.055,0.248-0.273,0.25c-0.029-0.037-0.112-0.1-0.128-0.178C11.312,16.749,11.366,16.636,11.537,16.636z
		 M11.594,18.437c-0.12-0.117-0.233-0.176-0.238-0.244c-0.009-0.08,0.053-0.205,0.124-0.248c0.119-0.076,0.286,0.039,0.271,0.182
		C11.741,18.21,11.671,18.29,11.594,18.437z M12.402,18.774c-0.012,0.084-0.08,0.162-0.156,0.307
		c-0.122-0.115-0.221-0.166-0.248-0.242c-0.051-0.146,0.059-0.271,0.207-0.262C12.327,18.585,12.418,18.651,12.402,18.774z
		 M12.125,17.696c-0.119-0.006-0.205-0.207-0.116-0.293c0.058-0.057,0.189-0.096,0.261-0.068c0.067,0.025,0.1,0.146,0.179,0.277
		C12.301,17.653,12.212,17.698,12.125,17.696z M12.048,16.001c0.15-0.025,0.327-0.098,0.349,0.154
		c0.015,0.15-0.047,0.252-0.217,0.25C12.009,16.405,11.986,16.331,12.048,16.001z M12.868,17.054
		c-0.212-0.012-0.234-0.111-0.228-0.225c0.007-0.133,0.1-0.203,0.209-0.158c0.077,0.033,0.163,0.145,0.167,0.223
		C13.019,16.956,12.9,17.022,12.868,17.054z M12.79,15.749c-0.259-0.031-0.158-0.348-0.301-0.486
		c-0.177-0.111-0.355-0.166-0.544-0.023l-0.006,0.002l-0.029,0.006c-0.184,0.131-0.026,0.551-0.4,0.506
		c-0.265-0.031-0.158-0.348-0.305-0.482c0,0,0,0,0,0.002c-0.069-0.041-0.135-0.096-0.208-0.115
		c-0.158-0.037-0.324-0.059-0.299-0.281c0.02-0.168,0.152-0.191,0.286-0.213c0.078-0.012,0.155-0.037,0.231-0.057
		c0.028-0.008,0.054-0.018,0.082-0.029c-0.03-0.199-0.058-0.398-0.086-0.598c-0.01,0-0.019,0-0.028,0c0-0.008,0-0.017,0-0.026
		c-0.162-0.059-0.325-0.121-0.533-0.203c0.065-0.125,0.095-0.266,0.181-0.324c0.094-0.064,0.23-0.068,0.353-0.092
		c0-0.008,0-0.016,0-0.025c0.013,0.002,0.024,0.002,0.035,0.002c0.057-0.156,0.113-0.316,0.171-0.481
		c0.152-0.066,0.31-0.136,0.464-0.205c0.018-0.039,0.038-0.074,0.061-0.109c0.031-0.1,0.046-0.209,0.098-0.296
		c0.031-0.054,0.124-0.101,0.187-0.099c0.065,0.002,0.163,0.053,0.185,0.107c0.055,0.14,0.078,0.292,0.111,0.441
		c0.167,0.043,0.333,0.086,0.492,0.129c0.055,0.184,0.105,0.352,0.153,0.516c0.172,0.051,0.344,0.102,0.515,0.15
		c0.024,0.307,0.024,0.307-0.361,0.43c-0.043,0.027-0.088,0.049-0.136,0.064c-0.109,0.216-0.093,0.431-0.02,0.647
		c0.124,0.027,0.255,0.041,0.364,0.094c0.079,0.035,0.175,0.133,0.177,0.205c0.002,0.07-0.092,0.16-0.163,0.215
		c-0.06,0.045-0.148,0.047-0.223,0.068c-0.037,0.023-0.077,0.045-0.12,0.061C13.012,15.394,13.156,15.794,12.79,15.749z
		 M13.681,16.222c-0.022,0.074-0.123,0.164-0.201,0.174c-0.066,0.012-0.151-0.076-0.284-0.152c0.118-0.117,0.173-0.209,0.252-0.236
		C13.58,15.956,13.722,16.085,13.681,16.222z M14.201,17.048c-0.145,0.043-0.29-0.039-0.273-0.18c0.012-0.088,0.073-0.17,0.141-0.32
		c0.122,0.115,0.218,0.168,0.25,0.244C14.357,16.89,14.336,17.005,14.201,17.048z M14.367,15.581
		c-0.031,0.035-0.077,0.131-0.152,0.166c-0.14,0.063-0.289-0.02-0.278-0.148c0.007-0.086,0.067-0.195,0.136-0.234
		C14.196,15.294,14.336,15.384,14.367,15.581z"/>
	<path fill="#E5E5E5" d="M2.688,8.932c0.029,0.171,0.058,0.331,0.085,0.489c0.01,0.003,0.019,0.007,0.028,0.013
		C2.804,9.446,2.806,9.458,2.808,9.47c0.168,0.026,0.336,0.052,0.525,0.082c0.027,0.182,0.052,0.345,0.077,0.507
		c0.013,0.007,0.025,0.014,0.038,0.021c0.002,0.007,0.003,0.015,0.004,0.022c0.208-0.004,0.417-0.007,0.627-0.011
		c0.055-0.025,0.109-0.05,0.164-0.075c-0.064-0.161,0.019-0.38-0.177-0.49C4.056,9.528,4.049,9.53,4.041,9.53
		C4.04,9.523,4.039,9.517,4.039,9.509C3.964,9.446,3.896,9.354,3.813,9.334C3.616,9.289,3.53,9.187,3.601,8.999
		C3.664,8.832,3.809,8.876,3.979,8.92c0.019,0.186,0.04,0.386,0.059,0.589C4.041,9.51,4.042,9.513,4.045,9.516
		c0.008,0.003,0.013,0.008,0.019,0.012c0.22-0.026,0.441-0.054,0.663-0.083C4.78,9.42,4.834,9.395,4.889,9.371
		C4.878,9.291,4.856,9.21,4.86,9.132C4.875,8.855,5.039,8.845,5.27,8.93c0.037,0.163,0.075,0.333,0.113,0.504
		c0.21,0.006,0.421,0.011,0.63,0.017c0-0.006,0-0.013-0.001-0.02c0.011,0,0.021,0,0.033,0c0.047-0.189,0.198-0.387-0.029-0.556
		C6.007,8.877,5.998,8.878,5.99,8.879C5.987,8.86,5.985,8.842,5.983,8.824C5.906,8.634,5.663,8.725,5.55,8.6
		c0.007-0.318,0.007-0.318,0.365-0.319C5.937,8.458,5.96,8.639,5.983,8.824C5.987,8.835,5.992,8.848,5.996,8.86
		c0.008,0.005,0.013,0.011,0.021,0.016c0.089-0.009,0.178-0.019,0.268-0.028C5.939,8.452,5.73,7.936,5.73,7.372
		c0-0.008,0.001-0.014,0.001-0.022C5.54,7.357,5.517,7.203,5.479,7.054c-0.017-0.07-0.068-0.132-0.107-0.197
		C5.227,6.738,5.067,6.711,4.89,6.786l0,0C4.843,6.811,4.794,6.833,4.745,6.853C4.721,6.926,4.688,6.999,4.675,7.075
		c-0.023,0.132-0.046,0.262-0.21,0.279C4.244,7.377,4.229,7.213,4.193,7.058c-0.017-0.071-0.07-0.134-0.107-0.2
		c-0.09-0.042-0.176-0.101-0.272-0.122c-0.14-0.032-0.238-0.087-0.225-0.247c0.015-0.16,0.131-0.196,0.265-0.216
		C3.93,6.261,4.002,6.234,4.075,6.213c0.056-0.025,0.111-0.05,0.167-0.075C4.193,5.951,4.143,5.764,4.095,5.577
		c-0.007,0-0.015,0-0.021,0c0-0.011,0-0.021,0-0.032C3.93,5.493,3.786,5.441,3.606,5.376C3.531,5.133,3.467,4.833,3.1,4.788
		C3.037,4.78,2.945,4.708,2.934,4.651C2.876,4.372,2.72,4.212,2.455,4.141C2.179,4.615,1.959,5.126,1.811,5.666
		c0.012-0.002,0.025-0.004,0.038-0.005C1.997,5.659,2.11,5.778,2.056,5.91C2.025,5.987,1.929,6.037,1.807,6.152
		C1.778,6.093,1.75,6.048,1.726,6.007C1.63,6.447,1.578,6.903,1.578,7.372c0,0.333,0.027,0.66,0.077,0.979
		c0.05-0.152,0.194-0.124,0.351-0.107c0.042,0.181,0.081,0.353,0.12,0.525l0.048,0.046C2.343,8.854,2.512,8.893,2.688,8.932z
		 M5.135,7.579c0.03,0.034,0.117,0.093,0.137,0.169c0.038,0.141-0.021,0.25-0.189,0.257C4.966,8.011,4.885,7.969,4.875,7.842
		C4.864,7.701,4.895,7.586,5.135,7.579z M4.456,8.238c0.118,0.013,0.187,0.074,0.19,0.198C4.651,8.59,4.563,8.675,4.339,8.658
		C4.313,8.616,4.239,8.545,4.227,8.465C4.202,8.308,4.306,8.22,4.456,8.238z M3.082,8.66C3.05,8.619,2.966,8.554,2.947,8.475
		C2.917,8.331,2.981,8.218,3.15,8.217c0.111,0,0.198,0.042,0.208,0.177C3.37,8.544,3.289,8.651,3.082,8.66z M3.184,5.644
		c0.073,0.027,0.176,0.149,0.161,0.2c-0.027,0.095-0.128,0.17-0.257,0.322c-0.076-0.159-0.14-0.236-0.147-0.318
		C2.929,5.698,3.049,5.594,3.184,5.644z M2.794,6.896C2.797,6.903,2.8,6.911,2.804,6.918C2.97,6.937,3.139,6.952,3.337,6.971
		c0.02,0.232,0.038,0.434,0.053,0.635c0.152,0,0.313-0.027,0.458,0.004C3.91,7.623,3.965,7.759,3.98,7.847
		c0.006,0.043-0.079,0.129-0.136,0.148C3.78,8.015,3.67,8.004,3.63,7.961C3.534,7.856,3.467,7.725,3.388,7.604
		C3.37,7.558,3.355,7.472,3.332,7.469c-0.337-0.036-0.433-0.292-0.528-0.55c-0.008,0-0.017-0.001-0.025-0.002
		C2.776,6.905,2.774,6.895,2.772,6.883C2.623,6.807,2.473,6.73,2.323,6.653c0.002-0.312,0.002-0.312,0.336-0.326
		c0.037,0.182,0.075,0.37,0.113,0.556C2.78,6.888,2.788,6.892,2.794,6.896z M2.518,4.985c0.112,0,0.206,0.038,0.208,0.254
		C2.677,5.279,2.602,5.382,2.504,5.412c-0.099,0.03-0.202-0.032-0.207-0.171C2.291,5.084,2.351,4.985,2.518,4.985z M2.107,7.596
		c-0.002,0-0.006,0-0.007,0c0-0.004,0-0.009,0-0.013C2.071,7.424,1.95,7.392,1.816,7.375C1.638,7.354,1.604,7.217,1.65,7.093
		C1.676,7.024,1.8,6.983,1.888,6.951c0.038-0.014,0.095,0.025,0.186,0.054C2.081,7.188,2.09,7.386,2.1,7.583
		c0,0.001,0,0.002,0,0.003C2.101,7.59,2.105,7.592,2.107,7.596C2.302,7.591,2.5,7.582,2.688,7.572
		c0.047,0.209,0.085,0.375-0.131,0.425c-0.138,0.031-0.241-0.02-0.289-0.178C2.242,7.735,2.165,7.669,2.107,7.596z"/>
	<path fill="#E5E5E5" d="M13.145,14.624c-0.003-0.006-0.004-0.012-0.007-0.018c-0.004,0-0.009-0.002-0.013-0.002L13.145,14.624z"/>
	<polygon fill="#E5E5E5" points="12.498,12.684 12.494,12.669 12.479,12.665 	"/>
	<path fill="#E5E5E5" d="M13.145,13.328c-0.002-0.004-0.004-0.008-0.005-0.014c-0.005,0-0.009-0.002-0.014-0.004L13.145,13.328z"/>
	<path fill="#E5E5E5" d="M6.033,6.22C6.031,6.214,6.03,6.208,6.028,6.202c-0.004,0-0.009,0-0.013,0L6.033,6.22z"/>
	<path fill="#E5E5E5" d="M6.033,4.928c-0.001-0.005-0.001-0.01-0.003-0.016C6.024,4.912,6.02,4.91,6.014,4.908L6.033,4.928z"/>
	<path fill="#E5E5E5" d="M6.66,13.311c0.001,0.004,0.002,0.008,0.003,0.012c0.005,0.002,0.011,0.004,0.017,0.008L6.66,13.311z"/>
	<polygon fill="#E5E5E5" points="5.367,6.848 5.373,6.857 5.386,6.869 	"/>
	<path fill="#E5E5E5" d="M5.368,9.434l0.02,0.019C5.386,9.447,5.384,9.441,5.383,9.435C5.379,9.435,5.374,9.434,5.368,9.434
		L5.368,9.434z"/>
	<polygon fill="#E5E5E5" points="4.083,6.854 4.085,6.858 4.088,6.859 	"/>
	<polygon fill="#E5E5E5" points="7.954,2.97 7.959,2.979 7.972,2.99 	"/>
	<polygon fill="#E5E5E5" points="12.479,15.251 12.489,15.263 12.495,15.267 	"/>
	<path fill="#E5E5E5" d="M10.559,21.089c-0.001-0.008-0.003-0.014-0.005-0.02c-0.004,0-0.009,0-0.015,0L10.559,21.089z"/>
	<path fill="#E5E5E5" d="M7.326,20.44c-0.002-0.004-0.003-0.01-0.004-0.016c-0.006-0.002-0.01-0.002-0.015-0.004L7.326,20.44z"/>
	<path fill="#E5E5E5" d="M8.62,2.342C8.619,2.337,8.617,2.332,8.615,2.326C8.61,2.325,8.605,2.323,8.6,2.322L8.62,2.342z"/>
	<polygon fill="#E5E5E5" points="6.681,19.796 6.681,19.796 6.681,19.796 	"/>
	<path fill="#E5E5E5" d="M6.673,19.788c-0.006-0.006-0.012-0.012-0.012-0.012c0.001,0.004,0.002,0.008,0.003,0.012
		c0.004,0.004,0.01,0.004,0.016,0.008C6.681,19.796,6.677,19.792,6.673,19.788z"/>
	<path fill="#E5E5E5" d="M7.327,19.149c-0.001-0.008-0.001-0.012-0.003-0.016c-0.005-0.002-0.011-0.004-0.016-0.004L7.327,19.149z"
		/>
	<path fill="#E5E5E5" d="M9.413,21.651c-0.057,0.027-0.112,0.053-0.17,0.078c-0.004,0.199-0.006,0.398-0.01,0.596
		c0.279-0.055,0.551-0.131,0.815-0.219c-0.026-0.051-0.042-0.111-0.05-0.184c-0.006-0.068-0.063-0.133-0.102-0.197
		C9.751,21.61,9.59,21.583,9.413,21.651z"/>
	<polygon fill="#E5E5E5" points="9.897,21.726 9.911,21.735 9.892,21.716 	"/>
	<path fill="#E5E5E5" d="M13.129,19.79c0.005,0.002,0.009,0.002,0.015,0.004l-0.019-0.018C13.127,19.78,13.128,19.786,13.129,19.79z
		"/>
	<path fill="#E5E5E5" d="M12.495,19.763c-0.007,0.221-0.014,0.439-0.02,0.658c0.007,0,0.016,0,0.023,0c0,0.008,0,0.014-0.001,0.021
		c0.048-0.002,0.096-0.004,0.144-0.006c0.179-0.188,0.347-0.387,0.502-0.598c-0.006-0.016-0.01-0.033-0.015-0.049
		c-0.189-0.053-0.379-0.109-0.567-0.162C12.534,19.671,12.514,19.718,12.495,19.763z"/>
	<path fill="#E5E5E5" d="M6.673,19.788c0.003,0.004,0.007,0.008,0.007,0.008l0,0c0-0.006,0-0.014,0-0.02c-0.007,0-0.014,0-0.02,0
		C6.661,19.776,6.667,19.782,6.673,19.788z"/>
	<path fill="#E5E5E5" d="M7.308,19.13c0.001,0.004,0.002,0.01,0.004,0.014c0.005,0.002,0.01,0.004,0.015,0.006L7.308,19.13z"/>
	<path fill="#E5E5E5" d="M7.324,19.782c0.05-0.023,0.101-0.045,0.151-0.068c-0.055-0.189-0.109-0.379-0.163-0.57
		c-0.19-0.053-0.38-0.107-0.57-0.162c-0.023,0.053-0.047,0.105-0.07,0.156c0.002,0.213,0.005,0.428,0.009,0.639
		C6.894,19.778,7.109,19.78,7.324,19.782z"/>
	<path fill="#E5E5E5" d="M5.389,1.696c0.208,0,0.417,0,0.624,0c0-0.007,0-0.014,0-0.021c0.01,0,0.018,0,0.027,0
		c0.018-0.142,0.034-0.283,0.05-0.424C5.843,1.327,5.603,1.419,5.371,1.524C5.369,1.575,5.367,1.625,5.365,1.676
		c0.008,0,0.016,0,0.024,0C5.389,1.682,5.389,1.689,5.389,1.696z"/>
	<path fill="#E5E5E5" d="M12.479,12.665c0.001,0.005,0.003,0.01,0.005,0.015c0.004,0,0.008,0.002,0.014,0.003L12.479,12.665z"/>
	<path fill="#E5E5E5" d="M11.852,13.334L11.852,13.334c0-0.008,0-0.016,0-0.025c-0.006,0-0.014,0-0.021,0L11.852,13.334
		L11.852,13.334z"/>
	<path fill="#E5E5E5" d="M12.58,13.313c0.021-0.02,0.043-0.041,0.063-0.061c-0.054-0.191-0.107-0.381-0.159-0.572
		c-0.19-0.055-0.38-0.109-0.57-0.164c-0.022,0.035-0.043,0.07-0.061,0.109c0,0.229-0.002,0.457-0.002,0.684
		C12.095,13.311,12.337,13.311,12.58,13.313z"/>
	<path fill="#E5E5E5" d="M6.659,2.991c0-0.009,0-0.019,0-0.027c-0.207-0.1-0.415-0.062-0.624-0.002c0,0.009,0,0.018,0,0.028
		c-0.006,0-0.011,0-0.018,0c0.005,0.208,0.01,0.417,0.016,0.626c0.23-0.001,0.459-0.002,0.688-0.003
		c0.039-0.017,0.074-0.036,0.107-0.06C6.782,3.366,6.734,3.178,6.688,2.991C6.679,2.991,6.668,2.991,6.659,2.991z"/>
	<path fill="#E5E5E5" d="M6.033,3.616c-0.006,0-0.012,0-0.019,0l0.02,0.021C6.033,3.629,6.033,3.623,6.033,3.616z"/>
	<path fill="#E5E5E5" d="M7.973,10.077c0.001,0.007,0.001,0.015,0.001,0.023c-0.007-0.001-0.014-0.002-0.021-0.002
		c-0.001,0.206-0.002,0.412-0.002,0.618c0.008,0.004,0.016,0.006,0.024,0.009c0.003,0.009,0.005,0.019,0.008,0.028
		c0.228-0.01,0.457-0.02,0.687-0.03c0.035-0.017,0.068-0.037,0.099-0.059c-0.055-0.191-0.11-0.383-0.165-0.573
		C8.397,9.957,8.185,10.022,7.973,10.077z"/>
	<path fill="#E5E5E5" d="M8.6,10.081c0.001,0.002,0.002,0.006,0.003,0.01c0.005,0.003,0.01,0.005,0.016,0.009L8.6,10.081z"/>
	<path fill="#E5E5E5" d="M4.889,10.663c-0.056-0.192-0.11-0.384-0.166-0.576c-0.145-0.112-0.306-0.135-0.481-0.07
		c-0.055,0.025-0.109,0.049-0.164,0.075c-0.005,0.206-0.009,0.413-0.015,0.619c0.011,0.005,0.021,0.01,0.03,0.016
		c0.001,0.008,0.003,0.015,0.004,0.022c0.216-0.005,0.433-0.012,0.65-0.018C4.796,10.711,4.843,10.689,4.889,10.663z"/>
	<path fill="#E5E5E5" d="M4.722,10.081c0,0.002,0.001,0.004,0.001,0.007c0.006,0.004,0.012,0.008,0.018,0.013L4.722,10.081z"/>
	<path fill="#E5E5E5" d="M5.366,3.639C5.375,3.636,5.382,3.633,5.39,3.63c0-0.004,0-0.009,0-0.013L5.366,3.639z"/>
	<path fill="#E5E5E5" d="M6.014,3.616c0.001,0.003,0.002,0.008,0.003,0.011c0.006,0.003,0.011,0.005,0.017,0.01L6.014,3.616z"/>
	<path fill="#E5E5E5" d="M5.388,4.281c0.231-0.007,0.463-0.015,0.695-0.023C6.118,4.241,6.151,4.222,6.182,4.2
		c-0.055-0.191-0.11-0.382-0.165-0.573C5.807,3.5,5.599,3.545,5.39,3.63C5.382,3.838,5.374,4.049,5.365,4.258
		c0.007,0.001,0.016,0.003,0.024,0.003C5.388,4.268,5.388,4.274,5.388,4.281z"/>
	<path fill="#E5E5E5" d="M5.39,4.921C5.383,5.132,5.375,5.343,5.368,5.554c0.006,0,0.014,0,0.021,0c0,0.008,0,0.016,0,0.023
		C5.623,5.568,5.855,5.56,6.09,5.551c0.034-0.016,0.064-0.035,0.092-0.058C6.127,5.301,6.073,5.109,6.017,4.918
		C5.807,4.77,5.599,4.841,5.39,4.921z"/>
	<path fill="#E5E5E5" d="M6.014,4.908c0.002,0.003,0.003,0.006,0.003,0.01c0.006,0.004,0.011,0.006,0.016,0.01L6.014,4.908z"/>
	<path fill="#E5E5E5" d="M5.365,4.931c0.009-0.003,0.017-0.006,0.025-0.01c0-0.005,0-0.009,0.001-0.015L5.365,4.931z"/>
	<path fill="#E5E5E5" d="M8.627,9.537c-0.089,0.168-0.045,0.356-0.011,0.544c0.215,0.002,0.43,0.003,0.645,0.006
		c0.051-0.023,0.102-0.046,0.152-0.069C9.372,9.834,9.33,9.651,9.29,9.468C9.27,9.448,9.251,9.43,9.231,9.411
		C9.177,9.384,9.123,9.364,9.069,9.352C8.931,9.428,8.782,9.49,8.627,9.537z"/>
	<path fill="#E5E5E5" d="M8.616,10.081c-0.005,0-0.011,0-0.016,0l0.019,0.019C8.618,10.093,8.617,10.086,8.616,10.081z"/>
	<path fill="#E5E5E5" d="M4.741,10.1C4.74,10.093,4.74,10.086,4.74,10.081c-0.006,0-0.013,0-0.018,0L4.741,10.1z"/>
	<path fill="#E5E5E5" d="M5.429,10.069c0,0,0.004,0,0.01-0.001c0.006-0.001,0.014-0.002,0.02-0.002c0.002,0,0.005,0,0.005,0
		c0.045-0.219,0.045-0.43-0.089-0.622C5.227,9.329,5.064,9.311,4.889,9.371C4.834,9.395,4.78,9.42,4.727,9.445
		C4.73,9.657,4.735,9.869,4.74,10.081C4.97,10.076,5.199,10.073,5.429,10.069z"/>
	<polygon fill="#E5E5E5" points="5.368,9.434 5.375,9.443 5.388,9.453 	"/>
	<path fill="#E5E5E5" d="M13.144,19.776c0.015,0,0.029,0,0.044,0c0.166-0.229,0.316-0.469,0.451-0.719
		c-0.109-0.041-0.225-0.035-0.348,0.01c-0.057,0.025-0.115,0.051-0.17,0.076C13.128,19.354,13.135,19.565,13.144,19.776z"/>
	<path fill="#E5E5E5" d="M13.144,19.794c0-0.006,0-0.012,0-0.018c-0.007,0-0.012,0-0.019,0L13.144,19.794z"/>
	<polygon fill="#E5E5E5" points="4.088,6.859 4.088,6.854 4.083,6.854 	"/>
	<path fill="#E5E5E5" d="M4.72,6.224c0-0.006,0-0.013,0-0.02C4.559,6.182,4.401,6.16,4.242,6.138
		c-0.056,0.025-0.111,0.05-0.167,0.075C4.08,6.428,4.083,6.641,4.088,6.854c0.22,0,0.437-0.001,0.657-0.002
		c0.05-0.019,0.098-0.042,0.145-0.067l0,0C4.842,6.598,4.795,6.411,4.748,6.224C4.738,6.224,4.728,6.224,4.72,6.224z"/>
	<path fill="#E5E5E5" d="M5.386,6.869c0-0.007,0-0.014,0-0.021c-0.006,0-0.014,0-0.019,0L5.386,6.869z"/>
	<path fill="#E5E5E5" d="M5.37,6.222c0.006,0.209,0.011,0.417,0.017,0.626c0.136,0,0.273,0,0.408,0
		c0.051-0.211,0.13-0.41,0.235-0.593C6.026,6.24,6.021,6.226,6.017,6.211C5.813,6.068,5.601,6.136,5.389,6.193
		c0,0.01,0,0.019,0,0.029C5.383,6.222,5.376,6.222,5.37,6.222z"/>
	<path fill="#E5E5E5" d="M6.015,6.202c0.001,0.003,0.002,0.006,0.002,0.009c0.006,0.003,0.01,0.005,0.016,0.009L6.015,6.202z"/>
	<path fill="#E5E5E5" d="M2.125,8.77c-0.134-0.013-0.266-0.025-0.4-0.039c0.053,0.239,0.117,0.475,0.196,0.704
		c0.08,0,0.158,0,0.238,0c0.029-0.007,0.057-0.017,0.083-0.03C2.22,9.209,2.196,9.013,2.173,8.816L2.125,8.77z"/>
	<path fill="#E5E5E5" d="M13.125,14.604c0,0.002,0.002,0.006,0.003,0.01c0.006,0.004,0.01,0.006,0.017,0.01L13.125,14.604z"/>
	<path fill="#E5E5E5" d="M12.497,14.604c0,0.006,0,0.014,0.001,0.02c-0.006-0.002-0.012-0.002-0.018-0.004
		c0.005,0.211,0.01,0.422,0.014,0.631c0.229,0,0.453-0.002,0.679-0.002c0.043-0.016,0.083-0.037,0.12-0.061
		c-0.055-0.191-0.11-0.383-0.165-0.574C12.922,14.466,12.709,14.552,12.497,14.604z"/>
	<path fill="#E5E5E5" d="M12.495,15.267c0-0.004-0.001-0.01-0.001-0.016c-0.005,0-0.01,0-0.015,0L12.495,15.267z"/>
	<path fill="#E5E5E5" d="M11.298,14.577c-0.028,0.012-0.054,0.021-0.082,0.029c-0.004,0.217-0.007,0.43-0.01,0.645
		c0.234-0.002,0.469-0.002,0.704-0.004c0,0,0.021-0.004,0.029-0.006l0.006-0.002C11.892,14.579,11.856,14.542,11.298,14.577z"/>
	<path fill="#E5E5E5" d="M11.185,15.251l0.021,0.021c0-0.002,0-0.002,0-0.002c0-0.006,0.001-0.014,0.001-0.02
		C11.198,15.251,11.191,15.251,11.185,15.251z"/>
	<path fill="#E5E5E5" d="M1.642,15.136c-0.002,0.021-0.004,0.043-0.007,0.063c0.007-0.004,0.015-0.006,0.022-0.01
		C1.653,15.171,1.647,15.153,1.642,15.136z"/>
	<path fill="#E5E5E5" d="M12.503,13.979c0-0.01-0.002-0.019-0.003-0.028c-0.008,0-0.016-0.002-0.023-0.002L12.503,13.979z"/>
	<path fill="#E5E5E5" d="M13.126,13.311c0.002,0.006,0.003,0.012,0.005,0.018c0.004,0,0.009,0,0.014,0L13.126,13.311z"/>
	<path fill="#E5E5E5" d="M12.644,13.252c-0.021,0.02-0.042,0.041-0.063,0.061c-0.187,0.193-0.104,0.42-0.08,0.639
		c0.22,0.002,0.438,0.006,0.657,0.008c0.048-0.016,0.093-0.037,0.136-0.064c-0.054-0.188-0.108-0.379-0.162-0.566
		C12.97,13.303,12.807,13.275,12.644,13.252z"/>
	<path fill="#E5E5E5" d="M6.687,12.679c-0.002,0.211-0.004,0.42-0.006,0.631c0.223,0,0.447,0,0.67,0
		c0.044-0.016,0.085-0.037,0.124-0.061c-0.055-0.191-0.109-0.383-0.164-0.575C7.102,12.537,6.894,12.597,6.687,12.679z"/>
	<polygon fill="#E5E5E5" points="7.311,12.675 7.326,12.683 7.309,12.666 	"/>
	<path fill="#E5E5E5" d="M6.66,12.689c0.008-0.003,0.018-0.007,0.027-0.01c0-0.003,0-0.007,0-0.01L6.66,12.689z"/>
	<path fill="#E5E5E5" d="M6.681,13.33c0-0.006,0-0.012,0-0.02c-0.007,0-0.015,0-0.021,0L6.681,13.33z"/>
	<path fill="#E5E5E5" d="M8.6,2.982c0.056-0.025,0.111-0.05,0.168-0.075C8.712,2.715,8.657,2.522,8.602,2.33
		C8.455,2.221,8.294,2.206,8.121,2.26C8.075,2.286,8.027,2.309,7.978,2.327C7.976,2.541,7.974,2.756,7.972,2.97
		C8.182,2.974,8.391,2.978,8.6,2.982z"/>
	<path fill="#E5E5E5" d="M8.6,2.322c0,0.002,0.001,0.005,0.002,0.008C8.608,2.335,8.614,2.338,8.62,2.342L8.6,2.322z"/>
	<path fill="#E5E5E5" d="M7.972,2.97c-0.006,0-0.012,0-0.019,0L7.972,2.99C7.972,2.984,7.972,2.977,7.972,2.97z"/>
	<path fill="#E5E5E5" d="M7.327,12.009c0,0.01,0.001,0.021,0.001,0.031c-0.006-0.001-0.013-0.001-0.02-0.001
		c0.006,0.209,0.011,0.419,0.017,0.627c0.209,0.003,0.419,0.007,0.63,0.011c0.055-0.024,0.109-0.048,0.165-0.074
		c-0.042-0.184-0.085-0.368-0.128-0.554L7.941,12C7.733,11.85,7.53,11.948,7.327,12.009z"/>
	<path fill="#E5E5E5" d="M7.326,12.683c0-0.005,0-0.011,0-0.017c-0.005,0-0.012,0-0.017-0.001L7.326,12.683z"/>
	<path fill="#E5E5E5" d="M7.307,21.065c0.012-0.002,0.023-0.004,0.035-0.008c0.063-0.211,0.145-0.422-0.027-0.625
		c-0.149-0.113-0.313-0.127-0.488-0.074c-0.055,0.025-0.111,0.051-0.166,0.076c0.001,0.213,0.002,0.422,0.003,0.633l0,0l0.016,0.016
		c0.209,0.002,0.417,0.004,0.626,0.006C7.307,21.081,7.307,21.073,7.307,21.065z"/>
	<polygon fill="#E5E5E5" points="7.307,20.421 7.315,20.433 7.326,20.44 	"/>
	<path fill="#E5E5E5" d="M10.551,21.087c0.003,0,0.005,0,0.008,0.002l-0.02-0.02C10.544,21.075,10.547,21.081,10.551,21.087z"/>
	<path fill="#E5E5E5" d="M9.911,21.735c0-0.006,0-0.012-0.001-0.02c-0.005,0-0.013,0-0.019,0L9.911,21.735z"/>
	<path fill="#E5E5E5" d="M9.896,21.081c0.006,0.213,0.01,0.422,0.015,0.635c0.21,0.006,0.419,0.012,0.627,0.018
		c0-0.006,0-0.014,0-0.02c0.014-0.004,0.024-0.006,0.036-0.01c0.065-0.207,0.121-0.416-0.022-0.617
		c-0.163-0.027-0.328-0.055-0.491-0.082C10.005,21.03,9.95,21.054,9.896,21.081z"/>
	<path fill="#E5E5E5" d="M2.811,12.657c0.039-0.147,0.066-0.294,0.046-0.441c-0.113,0.15-0.22,0.305-0.319,0.465
		c0.081,0.002,0.163,0.005,0.244,0.008c0-0.008,0-0.017,0-0.025C2.791,12.661,2.801,12.659,2.811,12.657z"/>
	<path fill="#E5E5E5" d="M5.366,21.731c0.006-0.002,0.015-0.006,0.022-0.01c0-0.004,0.001-0.004,0.001-0.006L5.366,21.731z"/>
	<path fill="#E5E5E5" d="M5.992,21.69c-0.205-0.125-0.405-0.068-0.604,0.031c-0.009,0.055-0.017,0.107-0.025,0.16
		c0.302,0.137,0.616,0.25,0.941,0.342c-0.107-0.047-0.174-0.131-0.179-0.291c-0.002-0.066-0.049-0.131-0.081-0.195
		c-0.004-0.006-0.009-0.014-0.013-0.021C6.019,21.706,6.005,21.7,5.992,21.69z"/>
	<path fill="#E5E5E5" d="M6.443,22.259c0.024,0.006,0.05,0.012,0.076,0.018c-0.015-0.006-0.03-0.012-0.044-0.012
		C6.464,22.263,6.453,22.261,6.443,22.259z"/>
	<path fill="#E5E5E5" d="M5.366,4.906C5.365,4.915,5.365,4.923,5.365,4.931l0.026-0.024C5.383,4.906,5.375,4.906,5.366,4.906z"/>
	<path fill="#E5E5E5" d="M5.388,4.281c0-0.007,0-0.013,0.001-0.02c-0.008,0-0.017-0.002-0.024-0.003
		C5.322,4.252,5.279,4.244,5.236,4.245c-0.44,0.006-0.487,0.05-0.502,0.461c-0.002,0.066,0.004,0.133,0.009,0.2
		c0.207,0,0.416,0,0.624,0C5.373,4.698,5.381,4.49,5.388,4.281z"/>
	<path fill="#E5E5E5" d="M4.743,4.906c-0.008,0-0.017,0-0.025,0l0.027,0.029C4.744,4.925,4.743,4.916,4.743,4.906z"/>
	<path fill="#E5E5E5" d="M4.095,5.577c0.21-0.001,0.418-0.002,0.627-0.002c0-0.006,0-0.013,0-0.02c0.005,0,0.012,0,0.017,0
		C4.732,5.348,4.726,5.141,4.719,4.934C4.509,4.926,4.303,4.918,4.094,4.911c0,0.005,0,0.009,0,0.015
		c-0.006-0.001-0.01-0.003-0.016-0.004C4.077,5.129,4.075,5.337,4.073,5.544c0,0.011,0,0.021,0,0.032
		C4.08,5.577,4.088,5.577,4.095,5.577z"/>
	<path fill="#E5E5E5" d="M4.718,4.906c0,0.009,0.001,0.018,0.001,0.028c0.009,0,0.017,0,0.026,0.001L4.718,4.906z"/>
	<path fill="#E5E5E5" d="M5.366,3.616c0,0.008,0,0.016,0,0.023L5.39,3.617C5.383,3.616,5.375,3.616,5.366,3.616z"/>
	<path fill="#E5E5E5" d="M4.755,3.627c0-0.009,0-0.019,0-0.028c-0.009,0-0.019,0-0.028-0.001L4.755,3.627z"/>
	<path fill="#E5E5E5" d="M5.369,2.988c0-0.004,0-0.011,0-0.015C5.162,2.979,4.956,2.986,4.75,2.992
		C4.752,3.195,4.753,3.397,4.755,3.6C4.96,3.605,5.163,3.611,5.366,3.616c0.006-0.209,0.013-0.419,0.019-0.627
		C5.381,2.988,5.375,2.988,5.369,2.988z"/>
	<path fill="#E5E5E5" d="M4.719,2.993c0.01,0,0.021,0,0.031,0c0-0.008,0-0.016,0-0.023L4.719,2.993z"/>
	<path fill="#E5E5E5" d="M4.094,4.911C4.096,4.838,4.1,4.766,4.097,4.692c-0.015-0.38-0.073-0.431-0.472-0.417
		C3.572,4.277,3.522,4.291,3.47,4.299C3.467,4.86,3.467,4.86,4.017,4.908c0.021,0.001,0.042,0.008,0.062,0.014
		c0.005,0.001,0.01,0.003,0.016,0.004C4.094,4.92,4.094,4.916,4.094,4.911z"/>
	<path fill="#E5E5E5" d="M3.403,4.233C3.413,4.18,3.429,4.127,3.431,4.075C3.442,3.667,3.4,3.626,2.982,3.633
		c-0.053,0-0.107,0.012-0.16,0.018C2.825,4.236,2.833,4.244,3.403,4.233z"/>
	<path fill="#E5E5E5" d="M4.101,2.345C4.098,2.414,4.09,2.484,4.095,2.552C4.123,2.876,4.186,2.939,4.519,2.97
		c0.066,0.006,0.133,0.002,0.2,0c0-0.207-0.001-0.413-0.001-0.62C4.512,2.349,4.308,2.347,4.101,2.345z"/>
	<path fill="#E5E5E5" d="M4.719,2.97c0,0.007,0,0.016,0,0.023L4.75,2.969C4.739,2.97,4.728,2.97,4.719,2.97z"/>
	<path fill="#E5E5E5" d="M4.718,2.319c0,0.01,0,0.02,0,0.03c0.008,0,0.017,0,0.025,0L4.718,2.319z"/>
	<path fill="#E5E5E5" d="M4.072,2.345c0.01,0,0.02,0,0.029,0C4.102,2.337,4.103,2.329,4.103,2.32L4.072,2.345z"/>
	<path fill="#E5E5E5" d="M4.046,2.323c0.009,0,0.018-0.001,0.026-0.001c0-0.006,0-0.013,0-0.019
		C4.063,2.311,4.055,2.317,4.046,2.323z"/>
	<path fill="#E5E5E5" d="M4.072,2.322c0,0.007,0,0.015,0,0.022L4.103,2.32C4.093,2.321,4.083,2.322,4.072,2.322z"/>
	<path fill="#E5E5E5" d="M4.136,3.974c0.017,0.098,0.15,0.23,0.25,0.246C4.48,4.235,4.65,4.144,4.688,4.056
		c0.054-0.124,0.034-0.281,0.039-0.427C4.581,3.634,4.422,3.615,4.299,3.67C4.212,3.709,4.12,3.88,4.136,3.974z"/>
	<path fill="#E5E5E5" d="M4.755,3.627L4.728,3.599c0,0.01,0,0.021,0,0.03C4.736,3.628,4.747,3.628,4.755,3.627z"/>
	<path fill="#E5E5E5" d="M3.762,3.579c0.146,0.016,0.33-0.127,0.3-0.274C4.039,3.179,3.926,3.073,3.812,2.892
		c-0.145,0.163-0.27,0.253-0.319,0.374C3.441,3.394,3.611,3.563,3.762,3.579z"/>
	<path fill="#E5E5E5" d="M6.016,12.01c-0.002,0.011-0.004,0.021-0.006,0.032l0.023-0.032C6.027,12.01,6.021,12.01,6.016,12.01z"/>
	<path fill="#E5E5E5" d="M5.389,11.388c0-0.006,0-0.012,0-0.019l-0.024,0.024C5.373,11.392,5.381,11.39,5.389,11.388z"/>
	<path fill="#E5E5E5" d="M5.598,11.354c-0.069,0.001-0.139,0.02-0.208,0.034c0,0.21,0,0.418,0,0.627
		c0.209-0.002,0.417-0.003,0.626-0.005c0.013-0.067,0.03-0.134,0.033-0.201C6.058,11.427,5.983,11.352,5.598,11.354z"/>
	<path fill="#E5E5E5" d="M5.39,12.042c0-0.009,0-0.019,0-0.027c-0.009,0-0.019,0-0.028,0L5.39,12.042z"/>
	<path fill="#E5E5E5" d="M5.6,12.657c-0.071-0.002-0.143,0.005-0.215,0.009c0.001,0.005,0.001,0.011,0.001,0.016
		c-0.004,0-0.01,0-0.016,0c-0.001,0.207-0.003,0.413-0.005,0.62c0,0.01,0,0.021,0,0.035c0.008-0.002,0.017-0.002,0.025-0.002
		c0.208,0,0.417-0.002,0.625-0.004c0.006,0,0.012,0,0.019,0c0.001-0.008,0.002-0.016,0.002-0.023
		c0.004-0.066,0.011-0.137,0.01-0.205C6.028,12.707,5.991,12.669,5.6,12.657z"/>
	<path fill="#E5E5E5" d="M4.742,12.038c-0.008,0-0.015,0-0.023,0c0.008,0.209,0.015,0.419,0.023,0.629
		c0.21,0.004,0.419,0.01,0.628,0.014c0.006,0,0.011,0,0.016,0c0-0.005,0-0.01-0.001-0.016c-0.007-0.207-0.015-0.416-0.022-0.624
		c-0.204-0.01-0.408-0.021-0.611-0.029C4.749,12.021,4.745,12.03,4.742,12.038z"/>
	<path fill="#E5E5E5" d="M5.362,12.042c0.009,0,0.019,0,0.027,0l-0.028-0.027C5.361,12.023,5.361,12.032,5.362,12.042z"/>
	<path fill="#E5E5E5" d="M4.743,12.688c0-0.008-0.001-0.014-0.001-0.021c-0.009,0-0.018,0-0.027,0L4.743,12.688z"/>
	<path fill="#E5E5E5" d="M6.654,12.042c0.01,0,0.02,0,0.031,0l-0.031-0.025C6.654,12.025,6.654,12.034,6.654,12.042z"/>
	<path fill="#E5E5E5" d="M6.033,12.042c0,0.066-0.001,0.133,0.005,0.199c0.032,0.333,0.087,0.389,0.417,0.425
		c0.067,0.007,0.136,0.004,0.204,0.004c-0.002-0.209-0.003-0.418-0.005-0.627C6.447,12.042,6.24,12.042,6.033,12.042z"/>
	<path fill="#E5E5E5" d="M6.01,12.042c0.008,0,0.016,0,0.023,0c0-0.011,0-0.021,0-0.032L6.01,12.042z"/>
	<path fill="#E5E5E5" d="M6.659,12.669c0,0.007,0,0.014,0.001,0.021l0.027-0.021C6.678,12.668,6.668,12.669,6.659,12.669z"/>
	<path fill="#E5E5E5" d="M11.836,13.949c-0.004,0.01-0.006,0.021-0.009,0.03l0.021-0.03C11.845,13.949,11.84,13.949,11.836,13.949z"
		/>
	<path fill="#E5E5E5" d="M11.839,13.334c-0.206-0.008-0.413-0.016-0.62-0.023c-0.011,0-0.022,0-0.035-0.002c0,0.01,0,0.018,0,0.025
		c0,0.207,0,0.414,0,0.619c0,0.01,0,0.019,0,0.026c0.01,0,0.019,0,0.028,0c0.207-0.012,0.416-0.021,0.624-0.03
		C11.889,13.746,11.92,13.541,11.839,13.334z"/>
	<path fill="#E5E5E5" d="M11.852,13.334l-0.021-0.025c0.003,0.01,0.005,0.016,0.008,0.025
		C11.844,13.334,11.848,13.334,11.852,13.334L11.852,13.334z"/>
	<path fill="#E5E5E5" d="M12.478,13.979c0.008,0,0.017,0,0.025,0l-0.026-0.03C12.478,13.961,12.478,13.97,12.478,13.979z"/>
	<path fill="#E5E5E5" d="M11.827,13.979c0.009,0,0.018,0,0.025,0c-0.001-0.01-0.002-0.021-0.004-0.03L11.827,13.979z"/>
	<path fill="#E5E5E5" d="M12.497,14.604c-0.006-0.207-0.013-0.416-0.02-0.625c-0.208,0-0.417,0-0.625,0
		c0.006,0.041,0.012,0.08,0.015,0.121c0.028,0.447,0.028,0.447,0.479,0.496c0.045,0.004,0.09,0.014,0.134,0.023
		c0.006,0.002,0.012,0.002,0.018,0.004C12.497,14.618,12.497,14.61,12.497,14.604z"/>
	<path fill="#E5E5E5" d="M5.377,10.744c-0.163-0.027-0.326-0.054-0.488-0.081c-0.046,0.026-0.092,0.048-0.141,0.067
		c-0.013,0.209-0.024,0.419-0.036,0.629c0.01,0.005,0.02,0.008,0.03,0.013c0.005,0.008,0.008,0.015,0.012,0.023
		c0.207-0.009,0.414-0.017,0.621-0.026C5.469,11.162,5.512,10.952,5.377,10.744z"/>
	<path fill="#E5E5E5" d="M5.389,11.369c-0.005,0-0.009,0-0.015,0c-0.003,0.008-0.006,0.016-0.01,0.024L5.389,11.369z"/>
	<path fill="#E5E5E5" d="M5.367,10.727c0.004,0.006,0.006,0.012,0.01,0.017c0.004,0,0.006,0.001,0.01,0.001L5.367,10.727z"/>
	<path fill="#E5E5E5" d="M6.012,10.079c0.004,0.005,0.005,0.011,0.009,0.018c0.003,0.001,0.008,0.003,0.011,0.005L6.012,10.079z"/>
	<path fill="#E5E5E5" d="M5.388,10.728c-0.007,0-0.014-0.001-0.021-0.001l0.02,0.019C5.387,10.739,5.388,10.733,5.388,10.728z"/>
	<path fill="#E5E5E5" d="M6.014,10.725c0.007,0,0.015-0.001,0.022-0.002c0.053-0.21,0.105-0.421-0.015-0.626
		c-0.182-0.078-0.365-0.134-0.558-0.031c0,0-0.002,0-0.005,0c-0.006,0-0.013,0.001-0.02,0.002c-0.006,0.001-0.01,0.001-0.01,0.001
		c-0.014,0.219-0.028,0.439-0.041,0.658c0.208,0.006,0.418,0.012,0.628,0.018C6.015,10.739,6.015,10.732,6.014,10.725z"/>
	<path fill="#E5E5E5" d="M2.808,9.47C2.806,9.458,2.804,9.446,2.802,9.434C2.792,9.428,2.784,9.424,2.774,9.421
		c-0.173-0.083-0.348-0.118-0.53-0.015C2.217,9.419,2.189,9.429,2.16,9.437c-0.002,0.195-0.003,0.39-0.005,0.585
		c0.009,0.02,0.02,0.038,0.029,0.058c0.206,0.001,0.414,0.003,0.621,0.003c0.028-0.007,0.056-0.017,0.083-0.028
		C2.861,9.86,2.833,9.665,2.808,9.47z"/>
	<path fill="#E5E5E5" d="M5.398,21.097c-0.003-0.01-0.006-0.021-0.009-0.029c-0.013-0.006-0.025-0.01-0.037-0.016
		c-0.207-0.074-0.407-0.033-0.608,0.031c-0.005,0.156-0.011,0.313-0.016,0.471c0.102,0.061,0.205,0.117,0.311,0.172
		c0.111-0.004,0.223-0.008,0.334-0.01C5.46,21.511,5.472,21.306,5.398,21.097z"/>
	<path fill="#E5E5E5" d="M4.718,21.091c0.009-0.002,0.017-0.004,0.026-0.008c0.001-0.008,0.001-0.012,0.001-0.02L4.718,21.091z"/>
	<path fill="#E5E5E5" d="M5.389,21.716L5.389,21.716c-0.006,0-0.01,0-0.017,0c-0.003,0.004-0.004,0.012-0.006,0.016L5.389,21.716
		L5.389,21.716z"/>
	<path fill="#E5E5E5" d="M4.07,20.444c0.009,0,0.018,0,0.027-0.002c0.001-0.008,0.001-0.016,0.001-0.023L4.07,20.444z"/>
	<path fill="#E5E5E5" d="M4.743,20.419c-0.009,0.002-0.017,0.002-0.026,0.002c-0.208,0.008-0.413,0.016-0.62,0.021
		c-0.007,0.211-0.015,0.416-0.022,0.625c0.007,0,0.014,0,0.021,0c0,0.008,0,0.016,0,0.021c0.208-0.008,0.416-0.016,0.624-0.023
		c0.007-0.205,0.015-0.408,0.023-0.613C4.742,20.442,4.743,20.431,4.743,20.419z"/>
	<path fill="#E5E5E5" d="M4.719,21.065c-0.001,0.01-0.001,0.018-0.001,0.025l0.027-0.027C4.735,21.065,4.728,21.065,4.719,21.065z"
		/>
	<path fill="#E5E5E5" d="M4.079,20.419c-0.004,0.008-0.006,0.016-0.009,0.025l0.028-0.025C4.091,20.419,4.085,20.419,4.079,20.419z"
		/>
	<path fill="#E5E5E5" d="M4.107,19.81c-0.003-0.012-0.006-0.023-0.012-0.035c-0.009-0.004-0.019-0.006-0.028-0.01
		c-0.204-0.066-0.409-0.066-0.614,0.002c-0.009,0.002-0.017,0.004-0.027,0.01c0.001,0.008,0.001,0.018,0.001,0.029
		c0.007,0.205,0.015,0.41,0.022,0.613c0.209,0,0.419,0,0.629,0C4.152,20.218,4.183,20.017,4.107,19.81z"/>
	<path fill="#E5E5E5" d="M3.45,20.446c0-0.01,0-0.018,0-0.027c-0.008,0-0.017,0-0.025,0L3.45,20.446z"/>
	<path fill="#E5E5E5" d="M6.681,2.341c-0.007,0-0.014,0-0.02,0C6.66,2.549,6.66,2.756,6.659,2.964c0,0.009,0,0.018,0,0.027
		c0.009,0,0.02,0,0.029,0c0.205,0,0.412,0,0.617,0c0.009,0,0.017,0,0.024,0c0-0.011,0-0.022,0-0.033c0-0.203,0-0.406,0-0.608
		c0-0.01,0-0.019,0-0.028c-0.008,0-0.018,0-0.027,0c-0.206,0-0.414,0.001-0.62,0.001C6.681,2.329,6.681,2.335,6.681,2.341z"/>
	<path fill="#E5E5E5" d="M6.681,9.452c0.13-0.005,0.264-0.01,0.396-0.016C6.929,9.371,6.79,9.289,6.66,9.194
		c0,0.08,0,0.159,0.001,0.24c0.005,0,0.013,0,0.02,0C6.681,9.44,6.681,9.446,6.681,9.452z"/>
	<path fill="#E5E5E5" d="M3.43,20.54c-0.001-0.031-0.001-0.064-0.003-0.094c-0.029-0.002-0.059-0.004-0.089-0.004
		C3.368,20.476,3.398,20.509,3.43,20.54z"/>
	<path fill="#E5E5E5" d="M3.426,20.446c0.008,0,0.017,0,0.024,0l-0.025-0.027C3.426,20.429,3.426,20.437,3.426,20.446z"/>
	<path fill="#E5E5E5" d="M4.72,6.224c0.008,0,0.019,0,0.028,0c0.207,0,0.415-0.001,0.622-0.002c0.007,0,0.013,0,0.02,0
		c0-0.01,0-0.019,0-0.029c0-0.205,0-0.41,0-0.616c0-0.007,0-0.015,0-0.023c-0.007,0-0.015,0-0.021,0c-0.21,0-0.419,0-0.629,0.001
		c-0.005,0-0.012,0-0.017,0c0,0.007,0,0.014,0,0.02c0,0.21-0.001,0.42-0.002,0.629C4.72,6.21,4.72,6.217,4.72,6.224z"/>
	<path fill="#E5E5E5" d="M6.013,1.696c0.001,0.209,0.001,0.418,0.001,0.627c0.007,0,0.013,0,0.02,0c0,0.006,0,0.013,0,0.019
		c0.209,0,0.418,0,0.627,0c0.006,0,0.013,0,0.02,0c0-0.006,0-0.012,0-0.019c0-0.204,0.001-0.409,0.001-0.614
		c0-0.011,0-0.022,0-0.033c-0.009,0-0.019,0-0.028,0c-0.205,0-0.408,0-0.614,0c-0.009,0-0.017,0-0.027,0
		C6.013,1.682,6.013,1.688,6.013,1.696z"/>
	<path fill="#E5E5E5" d="M6.032,10.079c-0.006,0-0.013,0-0.02,0l0.021,0.023C6.033,10.094,6.032,10.086,6.032,10.079z"/>
	<path fill="#E5E5E5" d="M6.654,10.075C6.662,9.868,6.671,9.66,6.681,9.452c0-0.006,0-0.012,0-0.018c-0.007,0-0.014,0-0.02,0
		c-0.206,0-0.411-0.001-0.616-0.002c-0.012,0-0.022,0-0.033,0c0.001,0.006,0.001,0.013,0.001,0.02
		C6.02,9.661,6.026,9.87,6.032,10.079C6.239,10.078,6.447,10.076,6.654,10.075z"/>
	<path fill="#E5E5E5" d="M6.685,10.075c-0.011,0-0.021,0-0.031,0c0,0.009,0,0.019-0.001,0.028L6.685,10.075z"/>
	<path fill="#E5E5E5" d="M4.742,2.32c-0.008,0-0.016-0.001-0.024-0.001l0.025,0.03C4.742,2.339,4.742,2.33,4.742,2.32z"/>
	<path fill="#E5E5E5" d="M5.37,2.324c0.007,0,0.012,0,0.018,0c0.001-0.208,0.001-0.418,0.002-0.627c0-0.007,0-0.014,0-0.021
		c-0.008,0-0.016,0-0.024,0c-0.102,0-0.206,0-0.309,0C4.946,1.733,4.834,1.794,4.728,1.857C4.732,2.012,4.736,2.166,4.742,2.32
		C4.952,2.327,5.16,2.333,5.37,2.339C5.37,2.335,5.37,2.329,5.37,2.324z"/>
	<path fill="#E5E5E5" d="M11.828,21.093c0.009,0,0.017,0,0.023,0.002l-0.023-0.031C11.828,21.075,11.828,21.083,11.828,21.093z"/>
	<path fill="#E5E5E5" d="M11.184,21.065c0.001,0.008,0.001,0.014,0.002,0.02c0.005,0.164,0.011,0.33,0.016,0.496
		c0.216-0.127,0.427-0.264,0.627-0.416c0-0.023,0-0.049,0-0.072c-0.205-0.01-0.409-0.018-0.614-0.025
		C11.204,21.067,11.195,21.067,11.184,21.065z"/>
	<path fill="#E5E5E5" d="M12.476,20.421c-0.208,0-0.415,0-0.622-0.002c-0.007,0-0.015,0-0.022,0c0,0.01,0.001,0.02,0.001,0.029
		c0.006,0.205,0.014,0.41,0.019,0.615c0.035,0.002,0.069,0.002,0.104,0.002c0.188-0.148,0.368-0.307,0.538-0.475
		c0.002-0.049,0.003-0.1,0.005-0.148c0.001-0.008,0.001-0.014,0.001-0.021C12.491,20.421,12.482,20.421,12.476,20.421z"/>
	<path fill="#E5E5E5" d="M11.852,21.095c0-0.012,0-0.02-0.001-0.031c-0.007,0-0.015,0-0.022,0L11.852,21.095z"/>
	<polygon fill="#E5E5E5" points="2.782,10.727 2.782,10.727 2.782,10.727 	"/>
	<polygon fill="#E5E5E5" points="2.79,10.739 2.802,10.746 2.782,10.727 	"/>
	<path fill="#E5E5E5" d="M2.858,11.2c0.047-0.154,0.046-0.308-0.069-0.461c-0.097-0.068-0.199-0.101-0.307-0.101
		C2.599,10.832,2.723,11.019,2.858,11.2z"/>
	<path fill="#E5E5E5" d="M7.342,21.058c-0.012,0.004-0.023,0.006-0.035,0.008c0,0.008,0,0.016,0,0.023
		c0.006,0.207,0.012,0.416,0.017,0.625c0.213,0,0.426,0,0.639-0.002c0.065-0.203,0.101-0.408,0.022-0.615
		c-0.003-0.01-0.006-0.021-0.011-0.029c-0.011-0.006-0.024-0.01-0.037-0.014C7.738,20.981,7.54,21.011,7.342,21.058z"/>
	<path fill="#E5E5E5" d="M7.975,21.712c-0.004,0-0.008,0-0.012,0c-0.003,0.01-0.006,0.02-0.008,0.027L7.975,21.712z"/>
	<path fill="#E5E5E5" d="M7.324,21.714c-0.005,0-0.013,0-0.018,0l0.018,0.025C7.324,21.731,7.324,21.722,7.324,21.714z"/>
	<path fill="#E5E5E5" d="M7.33,22.36c0.044-0.209,0.097-0.42-0.014-0.625c-0.2-0.102-0.404-0.104-0.61-0.037
		c-0.016,0.006-0.031,0.01-0.046,0.016c0,0.008,0,0.016,0,0.021c0.004,0.193,0.01,0.385,0.016,0.578
		c0.11,0.02,0.22,0.043,0.333,0.061c0.1,0.002,0.199,0.004,0.298,0.008c0.001-0.008,0.001-0.014,0.001-0.021
		C7.315,22.36,7.323,22.36,7.33,22.36z"/>
	<path fill="#E5E5E5" d="M7.306,21.714c0.004,0.008,0.006,0.014,0.01,0.021c0.003,0.002,0.006,0.002,0.008,0.004L7.306,21.714z"/>
	<polygon fill="#E5E5E5" points="7.325,21.739 7.324,21.739 7.324,21.739 	"/>
	<path fill="#E5E5E5" d="M10.537,21.733c0,0.061,0,0.121,0,0.184c0.167-0.074,0.331-0.15,0.488-0.236
		c-0.149-0.031-0.3-0.008-0.452,0.023c-0.012,0.004-0.022,0.006-0.036,0.01C10.537,21.72,10.537,21.728,10.537,21.733z"/>
	<path fill="#E5E5E5" d="M4.071,12.688c0.009-0.004,0.019-0.006,0.028-0.009c0-0.006,0-0.012,0-0.017L4.071,12.688z"/>
	<polygon fill="#E5E5E5" points="4.071,12.688 4.071,12.688 4.071,12.688 	"/>
	<path fill="#E5E5E5" d="M4.72,12.678c0.008,0.003,0.015,0.005,0.023,0.01l-0.028-0.022C4.716,12.67,4.718,12.674,4.72,12.678z"/>
	<path fill="#E5E5E5" d="M4.096,13.314c-0.008,0-0.017,0-0.025,0l0.025,0.02C4.096,13.326,4.096,13.32,4.096,13.314z"/>
	<path fill="#E5E5E5" d="M4.72,12.678c-0.208-0.101-0.414-0.069-0.621,0.001c-0.001,0.212-0.002,0.424-0.003,0.635
		c0.207,0.006,0.414,0.012,0.62,0.018c0.008,0,0.017,0,0.026,0c0.007-0.016,0.011-0.031,0.016-0.049
		C4.827,13.078,4.81,12.877,4.72,12.678z"/>
	<path fill="#E5E5E5" d="M7.33,11.394c0-0.007,0-0.014,0-0.022c-0.008,0-0.018-0.001-0.027-0.001L7.33,11.394z"/>
	<path fill="#E5E5E5" d="M7.982,10.753c-0.003-0.009-0.005-0.019-0.008-0.028c-0.008-0.003-0.016-0.005-0.024-0.009
		c-0.21-0.082-0.416-0.048-0.62,0.027c0,0.209-0.001,0.418-0.001,0.629c0.205,0.007,0.41,0.014,0.614,0.021
		c0.011,0,0.02,0,0.03,0.001c0.005-0.012,0.009-0.023,0.014-0.034C8.073,11.157,8.042,10.955,7.982,10.753z"/>
	<path fill="#E5E5E5" d="M7.331,10.743c0-0.007,0-0.014,0-0.02l-0.026,0.029C7.314,10.749,7.323,10.746,7.331,10.743z"/>
	<path fill="#E5E5E5" d="M7.304,11.394c0.009,0,0.017,0,0.025,0l-0.027-0.023C7.302,11.379,7.303,11.386,7.304,11.394z"/>
	<path fill="#E5E5E5" d="M6.681,11.39c-0.007,0-0.013-0.001-0.019-0.001c0.007,0.21,0.015,0.419,0.021,0.629
		c0.208,0.006,0.417,0.014,0.626,0.021c0.006,0,0.013,0,0.02,0.001c0-0.011-0.001-0.021-0.001-0.031
		c-0.008-0.206-0.015-0.41-0.023-0.615c-0.208-0.006-0.417-0.012-0.623-0.018C6.681,11.381,6.681,11.386,6.681,11.39z"/>
	<path fill="#E5E5E5" d="M6.685,12.042c0-0.008,0-0.016-0.002-0.024c-0.009,0-0.02-0.001-0.029-0.001L6.685,12.042z"/>
	<path fill="#E5E5E5" d="M7.955,21.739c0.007-0.004,0.013-0.006,0.021-0.008c0-0.008,0-0.014,0-0.02L7.955,21.739z"/>
	<path fill="#E5E5E5" d="M8.585,21.698c-0.207-0.088-0.41-0.059-0.61,0.033c-0.008,0.209-0.016,0.42-0.023,0.629
		c0.007,0,0.014,0,0.022,0c0,0.008,0,0.014,0,0.02c0.238-0.006,0.477-0.014,0.715-0.021l0.014-0.004
		c-0.027-0.205-0.053-0.412-0.08-0.617c-0.002-0.008-0.002-0.016-0.004-0.023C8.608,21.708,8.596,21.704,8.585,21.698z"/>
	<path fill="#E5E5E5" d="M8.649,22.415c0.188-0.021,0.373-0.049,0.555-0.086c-0.165-0.082-0.333-0.104-0.5,0.025l-0.014,0.004
		C8.673,22.378,8.662,22.396,8.649,22.415z"/>
	<path fill="#E5E5E5" d="M3.451,10.103c-0.001-0.007-0.002-0.015-0.004-0.022c-0.013-0.007-0.025-0.014-0.038-0.021
		C3.24,9.964,3.067,9.938,2.889,10.056c-0.027,0.011-0.055,0.021-0.083,0.028c-0.086,0.214-0.083,0.429-0.01,0.643
		c0.212,0.004,0.423,0.008,0.634,0.012c0.041-0.014,0.079-0.033,0.115-0.056C3.514,10.489,3.482,10.295,3.451,10.103z"/>
	<path fill="#E5E5E5" d="M2.782,10.727L2.782,10.727l0.02,0.019c-0.003-0.006-0.005-0.013-0.006-0.019
		C2.791,10.727,2.787,10.727,2.782,10.727L2.782,10.727z"/>
	<path fill="#E5E5E5" d="M2.811,13.332c0.207-0.008,0.416-0.014,0.624-0.021c0.079-0.209,0.111-0.42-0.001-0.63
		c-0.204-0.113-0.414-0.079-0.623-0.024c-0.01,0.002-0.02,0.004-0.028,0.007c0,0.009,0,0.017,0,0.025
		c-0.001,0.203-0.001,0.407-0.001,0.608c0,0.012,0,0.023,0,0.035C2.79,13.332,2.8,13.332,2.811,13.332z"/>
	<path fill="#E5E5E5" d="M3.425,12.664c0.003,0.005,0.005,0.011,0.008,0.017c0.005,0.002,0.01,0.003,0.014,0.006L3.425,12.664z"/>
	<path fill="#E5E5E5" d="M3.45,13.311c-0.005,0-0.011,0-0.016,0c-0.004,0.008-0.005,0.016-0.008,0.023L3.45,13.311z"/>
	<path fill="#E5E5E5" d="M4.075,13.324c-0.209-0.102-0.418-0.078-0.626,0c-0.007,0.209-0.014,0.414-0.021,0.621
		c0,0.01-0.001,0.022-0.002,0.034c0.009,0,0.019,0,0.026,0c0.206,0,0.411,0,0.616,0c0.009,0,0.018,0,0.026,0
		c0.006-0.016,0.01-0.03,0.015-0.042C4.181,13.73,4.172,13.525,4.075,13.324z"/>
	<path fill="#E5E5E5" d="M4.071,13.314c0.001,0.002,0.002,0.006,0.004,0.01c0.007,0.002,0.014,0.004,0.021,0.01L4.071,13.314z"/>
	<path fill="#E5E5E5" d="M3.449,13.324c0-0.004,0.001-0.01,0.001-0.014l-0.024,0.023C3.435,13.33,3.442,13.328,3.449,13.324z"/>
	<path fill="#E5E5E5" d="M3.429,11.373l0.021,0.019c0-0.006,0-0.012-0.001-0.019C3.442,11.373,3.436,11.373,3.429,11.373z"/>
	<path fill="#E5E5E5" d="M4.183,11.346c-0.028-0.199-0.057-0.398-0.085-0.597c-0.001-0.007-0.003-0.014-0.004-0.022
		c-0.009-0.006-0.02-0.011-0.03-0.016c-0.167-0.087-0.339-0.116-0.519-0.028c-0.036,0.023-0.074,0.042-0.115,0.056
		c0.007,0.211,0.012,0.423,0.019,0.634c0.217,0.001,0.434,0.002,0.651,0.004C4.128,11.368,4.155,11.358,4.183,11.346z"/>
	<path fill="#E5E5E5" d="M3.433,12.018c-0.002,0.008-0.005,0.016-0.008,0.024l0.024-0.024C3.445,12.017,3.439,12.018,3.433,12.018z"
		/>
	<polygon fill="#E5E5E5" points="3.429,11.373 3.436,11.386 3.449,11.392 	"/>
	<path fill="#E5E5E5" d="M3.436,11.386c-0.158-0.084-0.316-0.09-0.473-0.053c0.1,0.128,0.206,0.252,0.317,0.373
		c-0.099,0.105-0.19,0.216-0.28,0.327c0.145-0.005,0.29-0.01,0.434-0.015C3.505,11.807,3.554,11.597,3.436,11.386z"/>
	<path fill="#E5E5E5" d="M6.035,2.962c-0.001-0.207-0.001-0.414-0.001-0.62c0-0.006,0-0.013,0-0.019c-0.006,0-0.012,0-0.02,0
		c-0.208,0-0.417,0-0.627,0.001c-0.005,0-0.011,0-0.018,0c0,0.005,0,0.011,0,0.016c0,0.212,0,0.423,0,0.634c0,0.004,0,0.01,0,0.015
		c0.005,0,0.012,0,0.016,0c0.21,0,0.421,0,0.632,0.001c0.006,0,0.011,0,0.018,0C6.035,2.98,6.035,2.971,6.035,2.962z"/>
	<path fill="#E5E5E5" d="M6.685,10.075l-0.032,0.028c0.011,0,0.019-0.001,0.029-0.002C6.683,10.092,6.685,10.083,6.685,10.075z"/>
	<path fill="#E5E5E5" d="M6.675,10.308c0.027,0.332,0.091,0.396,0.423,0.424c0.069,0.007,0.14-0.002,0.209-0.007
		c0.052-0.651,0.026-0.677-0.625-0.624C6.678,10.17,6.669,10.24,6.675,10.308z"/>
	<path fill="#E5E5E5" d="M7.331,10.723c-0.007,0-0.016,0.001-0.024,0.001c0,0.01-0.001,0.019-0.002,0.027L7.331,10.723z"/>
	<path fill="#E5E5E5" d="M7.973,10.077c-0.006-0.15-0.01-0.299-0.017-0.449C7.738,9.625,7.527,9.592,7.33,9.531
		c0,0.018,0,0.034,0,0.052c0.019,0.441,0.037,0.461,0.489,0.501c0.045,0.005,0.09,0.009,0.134,0.014
		c0.007,0,0.014,0.001,0.021,0.002C7.974,10.092,7.974,10.084,7.973,10.077z"/>
	<path fill="#E5E5E5" d="M4.097,12.02c-0.008,0-0.015,0-0.023,0l0.023,0.02C4.097,12.032,4.097,12.026,4.097,12.02z"/>
	<path fill="#E5E5E5" d="M4.742,12.038c0.003-0.008,0.007-0.017,0.009-0.025c0.074-0.207,0.119-0.412,0.002-0.618
		c-0.004-0.008-0.007-0.015-0.012-0.023c-0.01-0.005-0.02-0.008-0.03-0.013c-0.173-0.074-0.347-0.126-0.528-0.014
		c-0.028,0.012-0.055,0.022-0.083,0.031c-0.001,0.214-0.002,0.428-0.003,0.643c0.208,0.006,0.414,0.012,0.622,0.019
		C4.727,12.038,4.734,12.038,4.742,12.038z"/>
	<path fill="#E5E5E5" d="M4.073,12.019c0.002,0.004,0.004,0.009,0.006,0.014c0.005,0.002,0.011,0.004,0.018,0.006L4.073,12.019z"/>
	<path fill="#E5E5E5" d="M3.447,12.664c-0.006,0-0.014,0-0.022,0l0.022,0.022C3.447,12.679,3.447,12.672,3.447,12.664z"/>
	<path fill="#E5E5E5" d="M4.079,12.033c-0.211-0.082-0.42-0.055-0.63,0.002c0,0.209-0.001,0.419-0.002,0.629
		c0.21-0.001,0.421-0.001,0.631-0.002C4.134,12.453,4.163,12.243,4.079,12.033z"/>
	<path fill="#E5E5E5" d="M3.425,12.042c0.008-0.002,0.017-0.005,0.024-0.006c0-0.007,0-0.013,0-0.018L3.425,12.042z"/>
	<path fill="#E5E5E5" d="M4.078,12.662c-0.003,0.009-0.005,0.017-0.007,0.026c0,0,0,0,0,0l0.028-0.026
		C4.091,12.662,4.084,12.662,4.078,12.662z"/>
	<path fill="#E5E5E5" d="M4.074,21.067c-0.017,0-0.034,0-0.052,0c0.024,0.02,0.049,0.039,0.072,0.059
		c0-0.012,0.001-0.025,0.001-0.037c0-0.006,0-0.014,0-0.021C4.088,21.067,4.082,21.067,4.074,21.067z"/>
	<path fill="#E5E5E5" d="M7.952,22.36c-0.207,0-0.415,0-0.622,0c-0.007,0-0.015,0-0.022,0c0,0.008,0,0.014-0.001,0.021
		c0,0.01,0,0.02,0,0.029c0.22,0.023,0.442,0.035,0.667,0.037c0-0.023,0-0.045,0-0.068c0-0.006,0-0.012,0-0.02
		C7.966,22.36,7.959,22.36,7.952,22.36z"/>
	<path fill="#E5E5E5" d="M6.016,10.746c0.003,0.045,0.008,0.09,0.011,0.135c0.038,0.449,0.05,0.462,0.497,0.496
		c0.046,0.003,0.092,0.008,0.138,0.012c0.006,0,0.012,0.001,0.019,0.001c0-0.004,0-0.009,0-0.014
		c0.006-0.072,0.016-0.146,0.015-0.218c-0.009-0.39-0.057-0.438-0.451-0.45c-0.069-0.002-0.14,0.008-0.209,0.015
		c-0.007,0.001-0.015,0.001-0.022,0.002C6.015,10.732,6.015,10.739,6.016,10.746z"/>
</g>
</svg>
