<?xml version="1.0" encoding="utf-8"?>
<!-- Generator: Adobe Illustrator 16.0.0, SVG Export Plug-In . SVG Version: 6.00 Build 0)  -->
<!DOCTYPE svg PUBLIC "-//W3C//DTD SVG 1.1//EN" "http://www.w3.org/Graphics/SVG/1.1/DTD/svg11.dtd">
<svg version="1.1" id="圖層_2" xmlns="http://www.w3.org/2000/svg" xmlns:xlink="http://www.w3.org/1999/xlink" x="0px" y="0px"
	 width="16px" height="24px" viewBox="0 0 16 24" enable-background="new 0 0 16 24" xml:space="preserve">
<g>
	<path fill="#E5E5E5" d="M14.337,7.332V7.319c0-1.276-0.379-2.464-1.025-3.463c-0.028-0.018-0.059-0.032-0.089-0.035
		c-0.219-0.02-0.327-0.121-0.346-0.344c-0.006-0.066-0.063-0.129-0.104-0.192c-0.087-0.043-0.171-0.098-0.264-0.122
		c-0.135-0.033-0.242-0.076-0.231-0.239c0.007-0.1,0.053-0.153,0.118-0.186c-0.131-0.124-0.263-0.245-0.403-0.36
		c-0.033,0.055-0.08,0.118-0.138,0.212c-0.105-0.137-0.193-0.201-0.209-0.278c-0.012-0.065,0.005-0.125,0.05-0.163
		c-0.173-0.124-0.351-0.241-0.534-0.347c-0.008,0.001-0.019,0.005-0.029,0.005c-0.021,0-0.047-0.027-0.067-0.063
		C10.543,1.45,9.975,1.228,9.373,1.092C9.342,1.132,9.316,1.161,9.285,1.17C9.18,1.197,9.079,1.155,9.08,1.03
		C8.773,0.975,8.458,0.943,8.138,0.933c0.018,0.03,0.027,0.055,0.023,0.078c-0.014,0.07-0.123,0.156-0.203,0.171
		C7.843,1.206,7.756,1.111,7.785,0.994c0.003-0.021,0.014-0.043,0.028-0.063C7.472,0.938,7.136,0.972,6.811,1.03
		C6.795,1.078,6.75,1.133,6.716,1.199c-0.07-0.047-0.135-0.075-0.177-0.114c-0.56,0.126-1.094,0.326-1.588,0.589
		c0.005,0.006,0.008,0.01,0.012,0.016c-0.09,0.04-0.158,0.082-0.218,0.1c-0.197,0.115-0.387,0.239-0.57,0.372
		c0.036,0.036,0.072,0.099,0.136,0.175c-0.117,0.051-0.193,0.107-0.27,0.109c-0.026,0-0.07-0.056-0.092-0.109
		C3.766,2.483,3.592,2.638,3.427,2.802c0.071,0.015,0.145,0.064,0.249,0.112C3.585,3.02,3.549,3.105,3.493,3.122
		C3.383,3.151,3.28,3.099,3.289,2.967C3.29,2.96,3.291,2.952,3.292,2.944C3.154,3.09,3.022,3.245,2.898,3.405
		c0.001,0,0.003,0,0.004,0.001c0.026,0.003,0.051,0.012,0.132,0.032c0.002,0.178,0.006,0.371,0.007,0.564
		C3.043,4.007,3.045,4.01,3.045,4.014C3.054,4.015,3.061,4.018,3.068,4.02c0.224-0.028,0.448-0.056,0.673-0.085
		c0-0.008,0-0.014,0-0.022c0.007,0,0.013,0,0.021,0c0.051-0.167,0.102-0.335,0.155-0.51c0.13,0,0.233,0,0.375,0
		c0.032,0.174,0.062,0.342,0.092,0.509c0.008,0,0.016,0,0.023,0c0,0.008,0,0.015,0,0.023c0.208,0,0.416,0,0.623,0
		c0-0.007,0-0.015,0-0.023c0.006,0,0.014,0,0.02,0.001C5.092,3.723,5.237,3.53,5.054,3.345c-0.013,0-0.024,0-0.038,0
		C5.014,3.334,5.012,3.323,5.009,3.312C4.881,3.248,4.745,3.191,4.629,3.109C4.583,3.076,4.557,2.966,4.574,2.905
		c0.015-0.054,0.1-0.121,0.155-0.123C4.79,2.781,4.888,2.835,4.907,2.889c0.05,0.135,0.072,0.279,0.102,0.423
		C5.017,3.315,5.024,3.32,5.032,3.323C5.04,3.331,5.047,3.338,5.054,3.345c0.219,0,0.449,0.065,0.641-0.106
		C5.711,3.198,5.73,3.158,5.755,3.12C5.891,2.756,5.891,2.756,6.21,2.774c0.041,0.163,0.083,0.331,0.125,0.5
		c0.218,0.067,0.436,0.092,0.648-0.025l0,0c0.018-0.044,0.04-0.086,0.062-0.127C7.063,3.072,7.068,3.013,7.1,2.975
		c0.059-0.071,0.134-0.182,0.201-0.182c0.071,0,0.147,0.107,0.207,0.179c0.03,0.037,0.028,0.1,0.041,0.151
		c0.046,0.103,0.095,0.206,0.141,0.31c0.428-0.031,0.437-0.03,0.557,0.479c0.008,0,0.019,0,0.028,0c0,0.011,0,0.023,0,0.035
		C8.45,3.974,8.625,4.002,8.832,4.035c0.021,0.18,0.041,0.35,0.061,0.521c0.009,0,0.018,0,0.026,0c0,0.01,0,0.019,0,0.028
		c0.214-0.006,0.432-0.014,0.647-0.021c0.05-0.019,0.098-0.041,0.143-0.068C9.704,4.47,9.695,4.446,9.693,4.421
		c-0.016-0.149-0.055-0.31,0.139-0.38c0.156-0.054,0.248,0.042,0.313,0.319c0.016,0.068,0.037,0.134,0.057,0.202
		c0.172,0.042,0.343,0.086,0.509,0.128c0.018,0.318,0.018,0.318-0.357,0.452c-0.056,0.025-0.112,0.049-0.168,0.074
		C10.091,5.381,10.2,5.688,9.875,5.688c-0.279,0-0.158-0.301-0.288-0.419c-0.016-0.015-0.028-0.035-0.04-0.055
		C9.346,5.038,9.132,5.119,8.918,5.191c0,0.011,0,0.021,0,0.032c-0.007,0-0.016,0-0.023,0C8.892,5.242,8.89,5.26,8.889,5.278
		c0.77,0.358,1.307,1.137,1.307,2.041c0,0.249-0.042,0.488-0.116,0.711c0.009,0.004,0.017,0.007,0.026,0.011
		c-0.034,0.051-0.059,0.1-0.082,0.138C9.811,8.694,9.409,9.111,8.908,9.351C8.91,9.474,8.914,9.597,8.915,9.72
		C9.082,9.765,9.248,9.81,9.438,9.86c0.032,0.165,0.063,0.326,0.096,0.487c0.01,0.003,0.02,0.006,0.029,0.01
		c0.007,0.013,0.011,0.026,0.014,0.038c0.16,0.029,0.32,0.059,0.503,0.091c0.031,0.183,0.062,0.342,0.091,0.5
		c0.013,0.006,0.025,0.01,0.037,0.016c0.002,0.01,0.002,0.019,0.004,0.028c0.145,0.029,0.291,0.058,0.475,0.094
		c0.041,0.156,0.084,0.33,0.131,0.501c0.018,0.019,0.037,0.037,0.057,0.056c0.05,0.015,0.098,0.035,0.148,0.044
		c0.146,0.03,0.333,0.014,0.355,0.22c0.028,0.285-0.244,0.2-0.38,0.284c-0.049,0.023-0.101,0.047-0.15,0.069
		c-0.009,0.025-0.022,0.05-0.022,0.076c-0.021,0.296-0.168,0.47-0.469,0.5c-0.033,0.023-0.065,0.043-0.101,0.06
		c-0.035,0.067-0.094,0.13-0.104,0.202c-0.011,0.078-0.031,0.144-0.063,0.196c0.035-0.014,0.071-0.025,0.107-0.038v2.666
		c0,0.34-0.079,0.662-0.214,0.952c0.19,0.057,0.134,0.263,0.178,0.406c0.015,0.045,0.028,0.09,0.041,0.134
		c0.172,0.041,0.345,0.082,0.532,0.128c0,0.117,0,0.217,0,0.327c-0.131,0.043-0.255,0.083-0.377,0.124
		c-0.047,0.024-0.095,0.048-0.145,0.068c-0.025,0.072-0.061,0.146-0.074,0.222c-0.026,0.131-0.047,0.266-0.214,0.283
		c-0.223,0.022-0.233-0.15-0.272-0.301c-0.019-0.07-0.063-0.132-0.101-0.195c-0.091-0.042-0.179-0.096-0.272-0.118
		c-0.082-0.017-0.147-0.048-0.186-0.098c-0.336,0.2-0.728,0.318-1.147,0.318c-0.416,0-0.803-0.115-1.139-0.312
		c-0.046,0.043-0.12,0.065-0.198,0.049c-0.126-0.024-0.165-0.123-0.13-0.227c0.005-0.013,0.013-0.026,0.021-0.04
		c-0.134-0.112-0.253-0.242-0.358-0.383c-0.041,0.02-0.09,0.025-0.147,0.022c-0.129-0.01-0.168-0.095-0.167-0.208
		c0.001-0.09,0.034-0.155,0.088-0.188c-0.114-0.238-0.188-0.498-0.211-0.773c-0.003,0.01-0.005,0.02-0.009,0.029
		c-0.009,0-0.017,0-0.026,0c-0.022,0.093-0.051,0.185-0.061,0.278c-0.027,0.238-0.193,0.203-0.364,0.216
		c-0.067-0.174-0.128-0.334-0.189-0.494c-0.008,0-0.018,0-0.025,0c0-0.01,0.001-0.022,0.001-0.034
		c-0.068-0.029-0.135-0.072-0.205-0.078c-0.12-0.005-0.198-0.044-0.25-0.109H3.653c0,0.074,0,0.148,0,0.222
		c0.007,0.011,0.013,0.019,0.02,0.034c0.003,0.002,0.005,0.005,0.008,0.008c0.201,0.016,0.401,0.033,0.587,0.047
		c0.059,0.168,0.104,0.311-0.063,0.376c-0.175,0.068-0.301,0.015-0.352-0.196c-0.021-0.084-0.107-0.153-0.172-0.227
		c-0.009,0-0.017-0.001-0.027-0.001c0-0.014,0-0.028,0-0.041c-0.093-0.164-0.246-0.106-0.39-0.084
		c-0.037,0.023-0.075,0.046-0.117,0.06c-0.111,0.213-0.087,0.432-0.035,0.652c0.151,0.026,0.302,0.054,0.453,0.083
		c0.116,0.348,0.116,0.348-0.3,0.494c-0.042,0.025-0.084,0.046-0.128,0.063c-0.043,0.225-0.084,0.45-0.126,0.673
		c0.003,0.011,0.007,0.016,0.011,0.026c0.009,0.002,0.016,0.006,0.024,0.009c0.187,0.02,0.376,0.041,0.625,0.067
		c-0.061,0.153-0.073,0.302-0.15,0.35c-0.119,0.078-0.25,0.024-0.284-0.141c-0.025-0.124-0.053-0.239-0.191-0.276
		c-0.013,0-0.028-0.003-0.041-0.005c0.001-0.011,0.004-0.02,0.006-0.03c-0.081-0.201-0.242-0.124-0.391-0.093
		c-0.042,0.026-0.087,0.047-0.131,0.066c-0.016,0.21-0.032,0.418-0.047,0.627c0.01,0.006,0.02,0.011,0.029,0.018
		c0.005,0.009,0.01,0.019,0.015,0.027c0.161,0.029,0.322,0.057,0.487,0.086c0.05,0.192,0.095,0.363,0.139,0.534
		c0.172,0.047,0.346,0.092,0.535,0.143c0,0.182,0,0.348,0,0.513c0.005,0.014,0.011,0.029,0.015,0.045
		c0.008,0.002,0.014,0.003,0.02,0.005c0.196,0.014,0.391,0.029,0.572,0.043c0.059,0.163,0.102,0.301-0.06,0.371
		c-0.134,0.057-0.265,0.037-0.308-0.134c-0.032-0.124-0.056-0.248-0.204-0.28c-0.012-0.002-0.023-0.002-0.035-0.002
		c0-0.016,0-0.032,0-0.048c-0.078-0.191-0.237-0.11-0.384-0.078c-0.025,0.023-0.05,0.041-0.076,0.063
		c-0.013,0.048-0.026,0.098-0.039,0.149c0.556,0.63,1.232,1.151,1.996,1.526c0.027-0.078,0.056-0.159,0.085-0.242
		c0.061-0.015,0.131-0.04,0.204-0.042c0.046-0.002,0.094,0.03,0.178,0.06c0.017,0.139,0.036,0.295,0.055,0.45
		c0.082,0.031,0.164,0.061,0.249,0.089c0.104,0.011,0.213,0.023,0.331,0.035c0.003,0.025,0.006,0.047,0.009,0.07
		c0.268,0.071,0.542,0.129,0.823,0.168c-0.046-0.078-0.085-0.158-0.129-0.238c-0.003,0-0.009,0-0.013,0
		C6.932,22.042,6.932,22.03,6.93,22.02c-0.005-0.021-0.012-0.041-0.025-0.048c-0.403-0.249-0.413-0.256-0.579-0.575
		c-0.007-0.001-0.015-0.001-0.022-0.001c-0.003-0.012-0.004-0.02-0.006-0.03c-0.13-0.068-0.267-0.125-0.384-0.212
		c-0.047-0.035-0.073-0.145-0.056-0.207c0.015-0.056,0.103-0.123,0.16-0.123c0.061-0.002,0.161,0.054,0.18,0.106
		c0.051,0.141,0.071,0.29,0.101,0.436c0.006,0.004,0.012,0.007,0.018,0.009c0.004,0.009,0.007,0.017,0.011,0.022
		c0.169,0.013,0.34,0.022,0.549,0.036c0.02,0.209,0.037,0.398,0.055,0.587c0.002,0.007,0.005,0.014,0.007,0.021
		c0.003,0.003,0.005,0.009,0.009,0.012c0.149,0.004,0.304-0.011,0.453,0.009c0.051,0.008,0.135,0.115,0.126,0.164
		c-0.007,0.035-0.021,0.073-0.041,0.106c0.153,0.013,0.306,0.018,0.46,0.018c0.138,0,0.277-0.005,0.414-0.014
		c-0.034-0.121-0.068-0.24-0.101-0.363c-0.089-0.04-0.175-0.095-0.267-0.116c-0.142-0.035-0.243-0.088-0.229-0.252
		c0.017-0.165,0.145-0.189,0.277-0.212c0.077-0.013,0.149-0.043,0.224-0.066c0.022-0.052,0.047-0.105,0.071-0.156
		c0.042-0.124,0.085-0.247,0.13-0.379c0.108,0,0.21,0,0.327,0c0.045,0.187,0.083,0.357,0.125,0.527
		c0.171,0.041,0.342,0.083,0.528,0.125c0,0.119,0,0.221,0,0.337c-0.13,0.04-0.255,0.079-0.379,0.119
		c-0.05,0.021-0.1,0.046-0.149,0.068c-0.041,0.107-0.062,0.211-0.062,0.318c0.319-0.046,0.629-0.116,0.931-0.207
		c0.026-0.018,0.056-0.026,0.088-0.026c0.214-0.068,0.42-0.145,0.623-0.234c-0.002-0.001-0.004-0.001-0.005-0.001
		c-0.07-0.033-0.135-0.145-0.144-0.226c-0.01-0.142,0.124-0.235,0.262-0.181c0.074,0.028,0.122,0.126,0.153,0.159
		c-0.006,0.056-0.021,0.104-0.037,0.144c1.34-0.649,2.42-1.756,3.038-3.113c-0.001,0-0.003,0-0.005,0
		c-0.171,0-0.195-0.074-0.132-0.402c0.109-0.02,0.233-0.063,0.3,0.013c0.079-0.208,0.146-0.421,0.203-0.638
		c-0.014-0.043-0.032-0.083-0.063-0.112c-0.177-0.11-0.355-0.164-0.544-0.022l-0.006,0.001l-0.028,0.006
		c-0.183,0.131-0.026,0.549-0.398,0.505c-0.264-0.031-0.16-0.346-0.306-0.484c0,0.003,0,0.004,0,0.004
		c-0.067-0.038-0.133-0.095-0.205-0.114c-0.159-0.039-0.324-0.057-0.3-0.279c0.021-0.17,0.152-0.192,0.284-0.214
		c0.081-0.012,0.155-0.036,0.233-0.055c0.027-0.009,0.054-0.019,0.081-0.029c-0.029-0.2-0.059-0.399-0.085-0.598
		c-0.011,0.001-0.019,0.001-0.029,0.001c0-0.008,0-0.017,0-0.024c-0.16-0.062-0.324-0.123-0.532-0.203
		c0.066-0.127,0.097-0.266,0.18-0.323c0.097-0.064,0.231-0.069,0.354-0.092c0-0.008,0-0.017,0-0.025
		c0.012,0,0.024,0.001,0.035,0.003c0.056-0.158,0.111-0.317,0.169-0.481c0.152-0.066,0.309-0.135,0.464-0.205
		c0.018-0.037,0.036-0.072,0.06-0.106c0.032-0.101,0.046-0.209,0.098-0.297c0.032-0.053,0.124-0.1,0.186-0.098
		c0.064,0.001,0.165,0.052,0.184,0.106c0.056,0.141,0.078,0.292,0.111,0.439c0.089,0.023,0.179,0.047,0.268,0.069v-0.888
		c-0.049-0.017-0.093-0.044-0.112-0.074c-0.074-0.115-0.042-0.302-0.232-0.336c-0.011,0-0.021-0.001-0.032-0.001
		c0-0.005,0-0.01,0.002-0.015c-0.076-0.055-0.146-0.113-0.221-0.166c-0.041-0.031-0.115-0.042-0.13-0.078
		c-0.026-0.07-0.057-0.178-0.022-0.223c0.056-0.069,0.156-0.121,0.245-0.134c0.046-0.006,0.149,0.086,0.152,0.139
		c0.009,0.152-0.014,0.307-0.024,0.462c0.004,0.005,0.009,0.008,0.015,0.012c0.005,0.001,0.01,0.003,0.016,0.004
		c0.116,0.006,0.232,0.011,0.345,0.017v-0.848c-0.117-0.063-0.182-0.175-0.195-0.344c-0.004-0.032-0.05-0.063-0.086-0.091
		c-0.009,0-0.017,0-0.025,0c0-0.011-0.002-0.024-0.004-0.037c-0.072-0.159-0.254-0.122-0.369-0.199
		c-0.06-0.041-0.079-0.176-0.072-0.265c0.004-0.046,0.117-0.128,0.159-0.116c0.085,0.023,0.197,0.085,0.222,0.158
		c0.044,0.132,0.046,0.279,0.061,0.421c0.004,0.008,0.008,0.013,0.01,0.021c0.006,0.006,0.014,0.01,0.02,0.017
		c0.07-0.003,0.139-0.011,0.208-0.004c0.026,0.002,0.05,0.005,0.073,0.008v-0.917c-0.05-0.022-0.098-0.06-0.096-0.084
		c0.001-0.072,0.047-0.145,0.096-0.247v-0.972c-0.069-0.033-0.123-0.128-0.086-0.19c0.019-0.027,0.05-0.053,0.086-0.071v-1.03
		c-0.038-0.02-0.076-0.049-0.093-0.08c-0.034-0.068,0.02-0.157,0.093-0.183V7.583c-0.063-0.03-0.108-0.106-0.077-0.172
		C14.271,7.381,14.301,7.353,14.337,7.332z M5.378,2.473c-0.06-0.002-0.17-0.092-0.164-0.121c0.02-0.083,0.071-0.198,0.139-0.223
		c0.058-0.02,0.155,0.065,0.206,0.091C5.577,2.419,5.485,2.476,5.378,2.473z M5.969,1.806C5.934,1.808,5.867,1.704,5.865,1.645
		C5.858,1.52,5.958,1.471,6.063,1.5c0.054,0.014,0.09,0.096,0.176,0.198C6.123,1.749,6.046,1.804,5.969,1.806z M6.814,2.354
		c-0.012,0.054-0.096,0.09-0.201,0.18C6.564,2.415,6.509,2.337,6.51,2.26c0-0.039,0.102-0.107,0.159-0.11
		C6.799,2.144,6.841,2.251,6.814,2.354z M7.309,1.8C7.21,1.813,7.106,1.657,7.163,1.587C7.204,1.536,7.298,1.492,7.36,1.503
		c0.051,0.01,0.087,0.102,0.15,0.181C7.426,1.735,7.371,1.792,7.309,1.8z M8.025,2.448C7.926,2.48,7.815,2.444,7.808,2.321
		c-0.003-0.061,0.055-0.174,0.09-0.176c0.079-0.003,0.16,0.048,0.274,0.089C8.103,2.339,8.074,2.431,8.025,2.448z M8.609,3.102
		C8.551,3.1,8.448,3.032,8.448,2.993c0-0.08,0.055-0.159,0.106-0.284c0.103,0.094,0.183,0.132,0.199,0.187
		C8.78,3.001,8.739,3.108,8.609,3.102z M8.666,1.822c-0.098,0.045-0.199,0.012-0.24-0.107C8.382,1.583,8.469,1.43,8.595,1.442
		c0.082,0.007,0.16,0.069,0.302,0.137C8.787,1.698,8.739,1.786,8.666,1.822z M9.407,3.665C9.39,3.719,9.29,3.745,9.175,3.816
		C9.133,3.699,9.082,3.614,9.088,3.531C9.09,3.493,9.209,3.432,9.271,3.437C9.4,3.447,9.439,3.562,9.407,3.665z M9.246,2.473
		c-0.119,0.018-0.19-0.064-0.188-0.186c0.004-0.114,0.061-0.218,0.184-0.191c0.086,0.018,0.154,0.107,0.293,0.213
		C9.4,2.389,9.328,2.46,9.246,2.473z M9.888,9.571c-0.066,0-0.17-0.1-0.186-0.171c-0.016-0.069,0.059-0.158,0.13-0.325
		c0.126,0.162,0.213,0.244,0.251,0.342C10.093,9.444,9.956,9.572,9.888,9.571z M10.582,2.146c0.056,0.015,0.094,0.098,0.185,0.204
		c-0.123,0.052-0.202,0.109-0.283,0.109c-0.038,0-0.105-0.104-0.109-0.165C10.369,2.162,10.473,2.116,10.582,2.146z M9.817,1.442
		c0.11,0.07,0.205,0.097,0.225,0.15c0.035,0.102-0.006,0.212-0.132,0.22c-0.06,0.004-0.18-0.054-0.182-0.089
		C9.727,1.641,9.776,1.557,9.817,1.442z M9.919,3.124C9.776,3.153,9.652,3.01,9.717,2.884c0.035-0.071,0.149-0.143,0.228-0.143
		c0.069,0.001,0.139,0.1,0.269,0.203C10.071,3.033,10.001,3.108,9.919,3.124z M10.599,3.872c-0.119-0.117-0.229-0.176-0.235-0.244
		c-0.007-0.081,0.052-0.202,0.12-0.246c0.115-0.076,0.28,0.038,0.266,0.182C10.741,3.646,10.673,3.725,10.599,3.872z M10.367,6.162
		c0.016-0.082,0.098-0.189,0.168-0.203c0.063-0.014,0.15,0.082,0.29,0.168c-0.127,0.103-0.189,0.189-0.27,0.208
		C10.442,6.36,10.344,6.279,10.367,6.162z M10.743,7.519c-0.111,0.039-0.193,0.089-0.272,0.084
		c-0.035-0.002-0.091-0.118-0.088-0.177c0.01-0.122,0.119-0.159,0.217-0.125C10.651,7.319,10.676,7.412,10.743,7.519z
		 M10.569,10.215c-0.101,0.033-0.219-0.001-0.216-0.129c0-0.084,0.074-0.242,0.101-0.239c0.104,0.012,0.204,0.075,0.388,0.155
		C10.704,10.114,10.646,10.191,10.569,10.215z M10.578,8.927c-0.101,0.033-0.2-0.002-0.229-0.128
		c-0.031-0.14,0.064-0.27,0.203-0.246c0.082,0.013,0.152,0.085,0.295,0.171C10.717,8.826,10.656,8.902,10.578,8.927z M4.546,17.089
		c0.017-0.085,0.092-0.155,0.182-0.298c0.105,0.135,0.19,0.2,0.21,0.28c0.037,0.148-0.074,0.244-0.231,0.235
		C4.563,17.299,4.525,17.193,4.546,17.089z M4.067,19.24c-0.069-0.023-0.152-0.132-0.154-0.203c-0.001-0.065,0.1-0.134,0.202-0.26
		c0.078,0.147,0.146,0.224,0.154,0.308C4.278,19.207,4.166,19.271,4.067,19.24z M4.141,17.948c-0.137,0.058-0.262-0.054-0.255-0.202
		c0.006-0.122,0.068-0.212,0.19-0.198c0.085,0.009,0.163,0.076,0.307,0.149C4.269,17.82,4.218,17.914,4.141,17.948z M4.773,21.178
		c-0.078-0.005-0.188-0.07-0.222-0.139c-0.062-0.125,0.033-0.258,0.223-0.286c0.037,0.033,0.13,0.081,0.163,0.156
		C4.999,21.046,4.917,21.181,4.773,21.178z M4.799,19.889c-0.151,0.057-0.279-0.023-0.263-0.167
		c0.008-0.079,0.077-0.187,0.148-0.221c0.13-0.064,0.253,0.029,0.281,0.236C4.929,19.771,4.875,19.859,4.799,19.889z M4.73,18.599
		c-0.138,0.017-0.245-0.143-0.172-0.263c0.041-0.067,0.166-0.128,0.242-0.117c0.072,0.01,0.128,0.118,0.244,0.235
		C4.896,18.523,4.815,18.587,4.73,18.599z M5.104,19.085c0.118-0.115,0.172-0.206,0.25-0.234c0.129-0.05,0.272,0.078,0.232,0.212
		c-0.023,0.077-0.123,0.165-0.199,0.178C5.319,19.248,5.236,19.161,5.104,19.085z M5.375,20.528
		c-0.112,0.021-0.184-0.053-0.193-0.172c-0.011-0.147,0.101-0.267,0.224-0.219c0.078,0.029,0.133,0.115,0.25,0.222
		C5.525,20.438,5.455,20.511,5.375,20.528z M5.449,17.944c-0.1,0.046-0.205,0.014-0.249-0.107c-0.048-0.134,0.043-0.289,0.176-0.278
		c0.084,0.007,0.164,0.07,0.313,0.139C5.574,17.82,5.524,17.908,5.449,17.944z M6.077,19.967c-0.116-0.108-0.225-0.166-0.232-0.231
		c-0.007-0.076,0.053-0.195,0.12-0.237c0.114-0.07,0.277,0.041,0.264,0.177C6.222,19.756,6.151,19.83,6.077,19.967z M5.992,18.603
		c-0.135,0.002-0.203-0.131-0.159-0.278c0.033-0.115,0.127-0.187,0.224-0.135c0.089,0.044,0.143,0.158,0.256,0.295
		C6.16,18.541,6.077,18.601,5.992,18.603z M6.757,20.516c-0.198,0.023-0.269-0.054-0.268-0.172c0.001-0.106,0.05-0.221,0.19-0.188
		c0.063,0.015,0.149,0.09,0.153,0.141C6.838,20.375,6.779,20.459,6.757,20.516z M6.663,19.244c-0.121,0.021-0.196-0.064-0.191-0.19
		c0.004-0.117,0.07-0.218,0.194-0.193c0.084,0.015,0.156,0.101,0.3,0.202C6.82,19.153,6.748,19.229,6.663,19.244z M7.319,19.52
		c0.061,0.014,0.149,0.084,0.153,0.136c0.004,0.076-0.055,0.159-0.126,0.336C7.23,19.843,7.142,19.777,7.133,19.7
		C7.12,19.598,7.183,19.487,7.319,19.52z M7.515,21.037c-0.029,0.074-0.123,0.124-0.237,0.23c-0.073-0.127-0.156-0.209-0.146-0.276
		c0.013-0.071,0.105-0.168,0.178-0.186C7.442,20.77,7.564,20.91,7.515,21.037z M7.351,18.567c-0.106,0.028-0.208-0.02-0.2-0.146
		c0.005-0.06,0.071-0.163,0.108-0.163c0.079,0.001,0.155,0.059,0.271,0.111C7.442,18.471,7.406,18.554,7.351,18.567z M7.964,18.903
		c0.128-0.006,0.174,0.097,0.146,0.2c-0.013,0.053-0.096,0.09-0.199,0.176c-0.052-0.115-0.108-0.192-0.108-0.269
		C7.803,18.974,7.906,18.908,7.964,18.903z M7.956,20.525c-0.061-0.001-0.157-0.069-0.169-0.126
		c-0.021-0.097-0.003-0.214,0.206-0.238c0.036,0.042,0.126,0.101,0.148,0.179C8.179,20.475,8.062,20.53,7.956,20.525z M9.075,18.99
		c0.032-0.078,0.118-0.134,0.238-0.262c0.076,0.148,0.146,0.228,0.152,0.311c0.013,0.146-0.12,0.233-0.271,0.195
		C9.064,19.203,9.033,19.096,9.075,18.99z M8.563,19.867c-0.045,0-0.118-0.088-0.132-0.148c-0.028-0.128,0.064-0.208,0.174-0.192
		c0.078,0.009,0.146,0.1,0.295,0.213C8.727,19.81,8.645,19.867,8.563,19.867z M8.631,18.587c-0.107,0.018-0.201-0.034-0.206-0.17
		c-0.006-0.153,0.094-0.26,0.238-0.222c0.079,0.021,0.137,0.11,0.26,0.215C8.785,18.497,8.713,18.571,8.631,18.587z M9.271,20.535
		c-0.109,0.028-0.219-0.016-0.216-0.16c0.003-0.108,0.015-0.237,0.161-0.222c0.088,0.011,0.17,0.085,0.328,0.172
		C9.412,20.431,9.348,20.516,9.271,20.535z M9.713,19.643c0.033-0.079,0.121-0.137,0.238-0.261c0.078,0.147,0.148,0.225,0.158,0.308
		c0.018,0.145-0.119,0.231-0.27,0.194C9.706,19.852,9.67,19.746,9.713,19.643z M9.903,21.181c-0.083-0.009-0.162-0.075-0.323-0.156
		c0.154-0.121,0.233-0.219,0.328-0.249c0.104-0.033,0.195,0.035,0.214,0.161C10.146,21.087,10.06,21.196,9.903,21.181z
		 M10.548,13.672c0.13-0.004,0.201,0.062,0.205,0.188c0.003,0.158-0.099,0.253-0.247,0.23c-0.132-0.019-0.168-0.11-0.162-0.228
		C10.349,13.731,10.425,13.676,10.548,13.672z M10.587,14.986c0.076,0.022,0.14,0.106,0.177,0.135
		c-0.007,0.239-0.118,0.274-0.258,0.267c-0.128-0.007-0.173-0.088-0.171-0.205C10.337,15.031,10.434,14.943,10.587,14.986z
		 M10.496,16.685c-0.035-0.034-0.127-0.085-0.155-0.159c-0.054-0.145,0.033-0.266,0.174-0.279c0.117-0.011,0.199,0.033,0.229,0.155
		C10.783,16.556,10.717,16.659,10.496,16.685z M10.729,20.462c-0.049,0.019-0.134,0.077-0.22,0.079
		c-0.139,0.003-0.206-0.132-0.163-0.281c0.036-0.118,0.116-0.161,0.232-0.145C10.714,20.134,10.79,20.266,10.729,20.462z
		 M10.566,19.244c-0.105,0.027-0.209-0.012-0.226-0.15c-0.022-0.156,0.074-0.285,0.217-0.252c0.083,0.02,0.153,0.102,0.289,0.197
		C10.715,19.14,10.65,19.22,10.566,19.244z M13.115,18.829c0.118,0.003,0.19,0.056,0.205,0.178c0.019,0.157-0.055,0.248-0.273,0.249
		c-0.027-0.037-0.112-0.1-0.129-0.176C12.891,18.943,12.945,18.829,13.115,18.829z M12.789,19.644
		c-0.146,0.118-0.22,0.216-0.313,0.241c-0.049,0.013-0.171-0.09-0.19-0.162c-0.046-0.142,0.062-0.264,0.196-0.245
		C12.563,19.492,12.638,19.559,12.789,19.644z M12.469,18.195c0.086,0.011,0.162,0.079,0.308,0.158
		c-0.12,0.117-0.174,0.208-0.253,0.239c-0.104,0.045-0.208,0.006-0.242-0.122C12.239,18.324,12.332,18.177,12.469,18.195z
		 M11.867,11.499c-0.104,0.028-0.206-0.007-0.227-0.147c-0.019-0.152,0.074-0.275,0.219-0.246c0.082,0.017,0.15,0.097,0.287,0.19
		C12.015,11.396,11.948,11.476,11.867,11.499z M11.993,12.633c-0.016,0.068-0.125,0.148-0.199,0.158
		c-0.119,0.015-0.187-0.089-0.153-0.199c0.023-0.077,0.104-0.137,0.205-0.263C11.923,12.48,12.008,12.568,11.993,12.633z
		 M11.864,6.319c-0.104,0.027-0.205-0.017-0.199-0.144c0.005-0.058,0.07-0.16,0.107-0.16c0.076,0.001,0.153,0.058,0.272,0.11
		C11.954,6.226,11.918,6.305,11.864,6.319z M11.849,7.609c-0.061,0.004-0.174-0.056-0.175-0.091
		c-0.006-0.08,0.046-0.163,0.085-0.276c0.106,0.07,0.198,0.097,0.217,0.149C12.008,7.489,11.971,7.6,11.849,7.609z M11.76,5.039
		c-0.053-0.013-0.119-0.109-0.121-0.169c-0.003-0.108,0.062-0.218,0.19-0.178c0.078,0.024,0.136,0.114,0.175,0.151
		C11.976,5.051,11.855,5.061,11.76,5.039z M11.799,8.572c0.066-0.018,0.157,0.062,0.313,0.135c-0.127,0.106-0.185,0.188-0.261,0.212
		c-0.107,0.035-0.217-0.023-0.205-0.145C11.653,8.7,11.731,8.589,11.799,8.572z M11.195,2.744c0.082,0.02,0.15,0.097,0.286,0.188
		c-0.128,0.096-0.191,0.173-0.271,0.196c-0.103,0.03-0.201-0.008-0.225-0.139C10.964,2.844,11.062,2.713,11.195,2.744z
		 M11.158,4.012c0.076,0.002,0.184,0.078,0.219,0.149c0.066,0.141-0.019,0.25-0.237,0.277c-0.033-0.034-0.131-0.085-0.154-0.159
		C10.946,4.149,10.99,4.008,11.158,4.012z M11.442,5.541c-0.138,0.074-0.21,0.141-0.29,0.148c-0.122,0.013-0.187-0.094-0.153-0.195
		c0.023-0.072,0.123-0.166,0.188-0.166C11.252,5.329,11.319,5.432,11.442,5.541z M11.117,6.649c0.098-0.035,0.208,0.003,0.219,0.126
		c0.004,0.061-0.054,0.179-0.088,0.18c-0.08,0.005-0.162-0.046-0.275-0.085C11.041,6.762,11.065,6.668,11.117,6.649z M11.34,8.17
		c-0.017,0.052-0.113,0.079-0.228,0.149c-0.039-0.115-0.091-0.199-0.087-0.28c0.005-0.038,0.122-0.098,0.182-0.094
		C11.333,7.956,11.373,8.07,11.34,8.17z M11.167,9.171c0.085,0.008,0.164,0.073,0.311,0.143c-0.111,0.123-0.161,0.213-0.236,0.25
		c-0.102,0.047-0.207,0.012-0.246-0.11C10.949,9.317,11.036,9.16,11.167,9.171z M11.111,10.938c-0.055-0.138-0.129-0.231-0.11-0.295
		c0.023-0.075,0.121-0.162,0.2-0.175c0.139-0.024,0.25,0.135,0.182,0.258C11.344,10.8,11.243,10.84,11.111,10.938z M11.23,13.037
		c0.078,0.026,0.138,0.109,0.18,0.143c-0.018,0.219-0.119,0.293-0.258,0.254c-0.07-0.021-0.151-0.123-0.164-0.199
		C10.969,13.097,11.099,12.992,11.23,13.037z M11.453,14.591c-0.145,0.066-0.223,0.13-0.301,0.131
		c-0.122,0.004-0.184-0.101-0.144-0.204c0.027-0.071,0.133-0.158,0.198-0.153C11.272,14.367,11.333,14.474,11.453,14.591z
		 M11.234,15.624c0.078,0.032,0.132,0.123,0.252,0.243c-0.146,0.073-0.223,0.137-0.309,0.149c-0.121,0.016-0.192-0.062-0.195-0.187
		C10.98,15.682,11.103,15.57,11.234,15.624z M11.251,16.905c0.037,0.061,0.126,0.145,0.138,0.239
		c0.005,0.05-0.123,0.158-0.193,0.162c-0.071,0.004-0.182-0.078-0.21-0.149C10.934,17.03,11.045,16.908,11.251,16.905z
		 M11.168,18.198c0.08,0.011,0.187,0.076,0.22,0.148c0.06,0.131-0.034,0.246-0.244,0.27c-0.033-0.032-0.126-0.082-0.153-0.156
		C10.938,18.321,11.034,18.183,11.168,18.198z M11.211,21.173c-0.101,0.032-0.221-0.001-0.221-0.129
		c0-0.083,0.075-0.238,0.105-0.237c0.103,0.01,0.205,0.073,0.389,0.152C11.344,21.072,11.285,21.148,11.211,21.173z M11.178,19.885
		c-0.121,0.019-0.192-0.063-0.195-0.188c-0.005-0.148,0.12-0.26,0.252-0.206c0.08,0.032,0.133,0.123,0.256,0.245
		C11.341,19.808,11.264,19.872,11.178,19.885z M11.801,3.381c0.138-0.048,0.281,0.078,0.236,0.21
		c-0.022,0.076-0.126,0.163-0.204,0.175c-0.069,0.01-0.152-0.075-0.293-0.152C11.664,3.498,11.722,3.408,11.801,3.381z
		 M11.776,9.831c0.122-0.057,0.269,0.062,0.236,0.199c-0.019,0.076-0.108,0.17-0.182,0.186c-0.063,0.014-0.15-0.068-0.279-0.136
		C11.655,9.959,11.701,9.865,11.776,9.831z M11.833,13.68c0.082,0.015,0.155,0.09,0.29,0.175c-0.119,0.107-0.179,0.191-0.258,0.219
		c-0.102,0.037-0.203,0-0.229-0.133C11.607,13.79,11.698,13.655,11.833,13.68z M12.007,15.185c-0.011,0.078-0.087,0.147-0.174,0.283
		c-0.095-0.131-0.188-0.205-0.184-0.269c0.008-0.072,0.099-0.172,0.169-0.189C11.923,14.984,12.021,15.069,12.007,15.185z
		 M12.036,20.361c-0.026,0.077-0.116,0.138-0.227,0.261c-0.084-0.131-0.174-0.213-0.164-0.279c0.008-0.079,0.093-0.184,0.169-0.209
		C11.952,20.088,12.078,20.218,12.036,20.361z M12.036,19.076c-0.023,0.08-0.118,0.141-0.227,0.264
		c-0.085-0.134-0.177-0.213-0.171-0.283c0.01-0.079,0.097-0.184,0.173-0.208C11.952,18.805,12.078,18.935,12.036,19.076z
		 M12.036,17.785c-0.023,0.081-0.116,0.141-0.227,0.263c-0.084-0.134-0.174-0.211-0.166-0.281c0.008-0.078,0.095-0.183,0.171-0.208
		C11.952,17.515,12.078,17.645,12.036,17.785z M11.841,16.659c-0.053,0.013-0.176-0.089-0.194-0.157
		c-0.039-0.145,0.047-0.252,0.2-0.241c0.081,0.007,0.157,0.078,0.313,0.159C12.008,16.539,11.934,16.637,11.841,16.659z
		 M12.51,6.662c0.051,0.01,0.089,0.102,0.153,0.181c-0.085,0.052-0.141,0.109-0.205,0.118c-0.097,0.015-0.201-0.142-0.145-0.214
		C12.355,6.695,12.449,6.652,12.51,6.662z M12.322,5.47c0-0.036,0.101-0.102,0.159-0.105c0.127-0.008,0.173,0.094,0.146,0.197
		c-0.015,0.053-0.096,0.089-0.197,0.176C12.38,5.622,12.323,5.547,12.322,5.47z M12.525,7.949c0.055,0.019,0.077,0.113,0.145,0.22
		c-0.112,0.04-0.194,0.089-0.273,0.087c-0.034-0.001-0.092-0.119-0.087-0.179C12.318,7.954,12.427,7.914,12.525,7.949z M12.288,4.2
		c0.015-0.082,0.092-0.15,0.181-0.284c0.102,0.126,0.188,0.188,0.21,0.268c0.037,0.139-0.076,0.233-0.231,0.225
		C12.308,4.403,12.266,4.304,12.288,4.2z M12.757,10.71c-0.15,0.078-0.225,0.146-0.306,0.151c-0.117,0.009-0.179-0.073-0.168-0.198
		c0.012-0.123,0.094-0.191,0.201-0.165C12.563,10.52,12.626,10.604,12.757,10.71z M12.278,9.353c0.008-0.131,0.102-0.201,0.21-0.156
		c0.077,0.032,0.162,0.142,0.166,0.221c0.002,0.061-0.115,0.127-0.149,0.159C12.295,9.566,12.272,9.466,12.278,9.353z
		 M12.429,11.741c0.143-0.04,0.284,0.056,0.259,0.2c-0.015,0.085-0.091,0.157-0.176,0.297c-0.107-0.12-0.196-0.178-0.221-0.255
		C12.26,11.879,12.301,11.777,12.429,11.741z M12.646,13.252c0.009,0.064-0.085,0.146-0.171,0.28
		c-0.093-0.132-0.187-0.205-0.18-0.268c0.007-0.071,0.106-0.13,0.165-0.195C12.525,13.129,12.633,13.184,12.646,13.252z
		 M12.499,14.724c-0.1,0.026-0.198-0.012-0.214-0.146c-0.021-0.148,0.074-0.275,0.206-0.24c0.08,0.021,0.146,0.099,0.276,0.192
		C12.644,14.623,12.58,14.701,12.499,14.724z M12.94,4.898c0.011-0.083,0.076-0.199,0.144-0.223c0.061-0.022,0.16,0.06,0.315,0.128
		c-0.123,0.123-0.177,0.217-0.253,0.242C13.045,5.081,12.921,5.037,12.94,4.898z M13.174,8.903
		c-0.101,0.035-0.214,0.001-0.223-0.125c-0.004-0.061,0.057-0.177,0.094-0.18c0.079-0.004,0.164,0.047,0.282,0.09
		C13.255,8.793,13.229,8.885,13.174,8.903z M13.096,10.205c-0.06-0.012-0.146-0.086-0.148-0.132C12.945,9.99,13,9.906,13.068,9.725
		c0.113,0.154,0.199,0.221,0.211,0.3C13.297,10.134,13.224,10.233,13.096,10.205z M13.126,7.303
		c0.061,0.018,0.105,0.082,0.182,0.146c-0.072,0.066-0.121,0.147-0.174,0.15c-0.058,0.001-0.143-0.054-0.171-0.108
		C12.915,7.397,13.025,7.272,13.126,7.303z M12.963,6.184c-0.003-0.06,0.057-0.174,0.089-0.175c0.077-0.003,0.157,0.046,0.267,0.087
		c-0.065,0.105-0.093,0.198-0.143,0.215C13.078,6.345,12.972,6.305,12.963,6.184z M13.153,11.104c0.13,0.011,0.174,0.089,0.18,0.204
		c0.007,0.147-0.089,0.229-0.316,0.208c-0.022-0.042-0.091-0.115-0.102-0.195C12.894,11.17,12.997,11.092,13.153,11.104z
		 M13.081,14.094c-0.13-0.011-0.167-0.098-0.163-0.211c0.01-0.169,0.123-0.223,0.261-0.187c0.076,0.021,0.133,0.109,0.168,0.143
		C13.334,14.075,13.22,14.104,13.081,14.094z M13.174,12.785c-0.104,0.037-0.211,0.006-0.24-0.13
		c-0.032-0.152,0.058-0.284,0.208-0.266c0.082,0.012,0.157,0.087,0.303,0.172C13.315,12.673,13.255,12.758,13.174,12.785z
		 M13.698,10.911c-0.048-0.119-0.103-0.196-0.101-0.272c0.002-0.039,0.138-0.118,0.151-0.107c0.063,0.054,0.122,0.127,0.146,0.205
		C13.903,10.763,13.802,10.822,13.698,10.911z M13.752,7.954c0.058,0.016,0.13,0.083,0.139,0.136
		c0.007,0.054-0.053,0.119-0.096,0.205c-0.082-0.057-0.16-0.085-0.19-0.14C13.555,8.068,13.659,7.93,13.752,7.954z M13.763,9.536
		c-0.059-0.003-0.161-0.07-0.161-0.107c0.001-0.078,0.058-0.154,0.108-0.272c0.103,0.089,0.185,0.125,0.198,0.179
		C13.937,9.44,13.891,9.542,13.763,9.536z M13.783,6.953c-0.06,0.003-0.146-0.054-0.173-0.107c-0.05-0.095,0.062-0.221,0.164-0.19
		c0.06,0.019,0.105,0.083,0.182,0.147C13.884,6.871,13.834,6.951,13.783,6.953z M13.795,5.67c-0.105,0.028-0.203-0.02-0.195-0.145
		c0.003-0.058,0.069-0.16,0.104-0.159c0.077,0.001,0.151,0.057,0.267,0.108C13.884,5.574,13.849,5.654,13.795,5.67z"/>
	<path fill="#E5E5E5" d="M2.424,4.607c0.224-0.01,0.447-0.021,0.669-0.03c0-0.007,0-0.015,0-0.022c0.013,0,0.024-0.003,0.036-0.005
		c0.03-0.085,0.068-0.171,0.08-0.26C3.226,4.172,3.216,4.05,3.068,4.02C3.06,4.021,3.051,4.021,3.043,4.022
		c0-0.006,0-0.013-0.001-0.02C3.015,3.854,2.888,3.837,2.773,3.785C2.74,3.769,2.706,3.74,2.677,3.705
		C2.572,3.858,2.473,4.018,2.381,4.181c0,0.136,0,0.259,0,0.38C2.39,4.57,2.399,4.58,2.409,4.593
		C2.414,4.597,2.419,4.602,2.424,4.607z"/>
	<path fill="#E5E5E5" d="M9.708,17.353c-0.013,0.019-0.025,0.034-0.039,0.051c0.012-0.006,0.026-0.012,0.039-0.017
		C9.708,17.375,9.708,17.364,9.708,17.353z"/>
	<path fill="#E5E5E5" d="M3.246,10.635c0.027-0.226,0.189-0.19,0.365-0.172c0.041,0.181,0.08,0.354,0.119,0.524l0.047,0.046
		c0.169,0.038,0.339,0.076,0.515,0.116c0.03,0.17,0.057,0.328,0.084,0.486c0.009,0.005,0.019,0.009,0.027,0.013
		c0.002,0.012,0.004,0.024,0.005,0.036c0.168,0.027,0.336,0.053,0.524,0.082c0.027,0.181,0.052,0.344,0.076,0.507
		c0.013,0.006,0.025,0.013,0.038,0.021c0.001,0.006,0.002,0.014,0.004,0.021c0.208-0.003,0.416-0.006,0.625-0.01
		c0.053-0.025,0.109-0.049,0.164-0.074c-0.064-0.16,0.018-0.379-0.176-0.489c-0.009,0.001-0.017,0.003-0.024,0.003
		c0-0.007-0.001-0.014-0.002-0.021c-0.074-0.063-0.141-0.154-0.224-0.173c-0.199-0.046-0.284-0.148-0.213-0.335
		c0.063-0.166,0.208-0.122,0.379-0.079c0.019,0.187,0.039,0.386,0.058,0.587c0.003,0.001,0.004,0.004,0.007,0.006
		c0.007,0.003,0.012,0.008,0.02,0.012c0.219-0.026,0.438-0.054,0.659-0.082c0.054-0.025,0.107-0.05,0.162-0.074
		c-0.01-0.078-0.032-0.159-0.027-0.238c0.013-0.276,0.178-0.285,0.408-0.201c0.036,0.162,0.074,0.333,0.112,0.502
		c0.212,0.006,0.419,0.011,0.629,0.017c0-0.006,0-0.013,0-0.02c0.011,0,0.021,0,0.031,0c0.049-0.189,0.199-0.385-0.026-0.554
		c-0.01,0.001-0.018,0.001-0.027,0.003c-0.002-0.019-0.005-0.037-0.007-0.056c-0.076-0.188-0.318-0.098-0.432-0.224
		C7.152,10.5,7.152,10.5,7.51,10.499c0.021,0.177,0.044,0.358,0.067,0.542c0.005,0.012,0.009,0.024,0.012,0.038
		c0.007,0.004,0.014,0.01,0.022,0.015c0.211-0.021,0.426-0.046,0.639-0.069c0-0.008,0-0.015,0-0.022c0.013,0,0.023,0,0.034,0
		c0.089-0.212,0.171-0.425-0.018-0.633l-0.005-0.004c-0.065-0.035-0.13-0.088-0.2-0.105c-0.153-0.033-0.31-0.051-0.29-0.265
		C7.788,9.783,7.97,9.805,8.11,9.768c0.048-0.012,0.098-0.027,0.146-0.042c0.055-0.025,0.108-0.05,0.163-0.075
		C8.407,9.61,8.396,9.567,8.384,9.526C8.241,9.554,8.096,9.569,7.945,9.569c-0.162,0-0.318-0.018-0.471-0.051
		C7.446,9.545,7.408,9.564,7.355,9.571C7.196,9.589,7.143,9.51,7.11,9.407C6.875,9.313,6.659,9.179,6.471,9.016
		C6.428,9.037,6.386,9.058,6.342,9.075C6.318,9.149,6.287,9.223,6.273,9.297C6.25,9.429,6.227,9.558,6.063,9.576
		C5.843,9.6,5.829,9.435,5.792,9.28c-0.017-0.071-0.07-0.134-0.107-0.2C5.594,9.039,5.508,8.98,5.414,8.96
		C5.273,8.927,5.177,8.872,5.191,8.713C5.205,8.552,5.32,8.517,5.454,8.497c0.074-0.011,0.147-0.038,0.221-0.058
		C5.73,8.413,5.785,8.388,5.84,8.363c-0.049-0.186-0.097-0.374-0.146-0.56c-0.008,0-0.015,0-0.022,0
		c0.001-0.011,0.001-0.021,0.001-0.032C5.53,7.719,5.385,7.667,5.208,7.603c-0.076-0.242-0.14-0.542-0.506-0.586
		C4.64,7.009,4.547,6.937,4.536,6.88c-0.061-0.295-0.23-0.458-0.521-0.521C3.959,6.347,3.893,6.253,3.882,6.188
		C3.825,5.836,3.566,5.731,3.29,5.702C3.225,5.515,3.175,5.369,3.125,5.224c-0.011,0-0.021,0.001-0.032,0.001
		c0-0.01,0-0.019,0-0.028C3.03,5.167,2.966,5.126,2.899,5.12C2.678,5.1,2.575,4.99,2.552,4.77C2.547,4.712,2.476,4.66,2.424,4.607
		c-0.015,0-0.029,0.001-0.043,0.001c0-0.016,0-0.032,0-0.048C2.33,4.507,2.279,4.479,2.228,4.467
		C1.973,4.976,1.785,5.52,1.673,6.093C1.69,6.102,1.708,6.11,1.728,6.119C1.696,6.155,1.672,6.186,1.651,6.213
		c-0.063,0.36-0.098,0.729-0.098,1.105c0,0.006,0.001,0.012,0.001,0.018C1.604,7.36,1.66,7.393,1.732,7.426
		c-0.084,0.099-0.12,0.177-0.171,0.199c0.015,0.296,0.05,0.586,0.103,0.871c0.007,0,0.013,0.001,0.02,0.002
		c0.045,0.188,0.092,0.382,0.14,0.577C1.985,9.113,2.151,9.15,2.358,9.198c0,0.178,0,0.354,0,0.53
		C2.364,9.743,2.37,9.757,2.375,9.773c0.006,0.001,0.012,0.004,0.018,0.005c0.191,0.012,0.381,0.022,0.547,0.034
		c0.125,0.19,0.125,0.331-0.064,0.402c-0.139,0.051-0.252-0.005-0.283-0.165c-0.024-0.125-0.057-0.24-0.2-0.271
		C2.381,9.778,2.37,9.777,2.358,9.776c0-0.016,0-0.031,0-0.047C2.284,9.547,2.134,9.611,1.995,9.647
		c0.199,0.508,0.461,0.985,0.778,1.42c0.105-0.016,0.21-0.032,0.315-0.046c0.058-0.026,0.116-0.053,0.173-0.079
		C3.255,10.84,3.234,10.735,3.246,10.635z M6.732,9.799c0.029,0.034,0.116,0.092,0.136,0.169c0.037,0.14-0.02,0.249-0.188,0.258
		c-0.117,0.005-0.198-0.037-0.208-0.165C6.46,9.92,6.492,9.808,6.732,9.799z M6.054,10.457c0.118,0.015,0.186,0.073,0.19,0.197
		c0.005,0.154-0.083,0.239-0.306,0.223c-0.026-0.042-0.1-0.113-0.113-0.193C5.801,10.525,5.904,10.439,6.054,10.457z M2.185,8.269
		C2.079,8.296,1.966,8.258,1.973,8.122c0.004-0.062,0.074-0.17,0.113-0.17c0.082,0.001,0.163,0.06,0.291,0.115
		C2.282,8.171,2.242,8.252,2.185,8.269z M2.004,6.805c0.015-0.058,0.083-0.133,0.135-0.142c0.056-0.008,0.122,0.056,0.207,0.099
		C2.289,6.847,2.261,6.927,2.205,6.961C2.121,7.011,1.979,6.903,2.004,6.805z M2.387,5.479C2.356,5.574,2.255,5.647,2.13,5.795
		C2.052,5.643,1.982,5.566,1.979,5.487c-0.007-0.152,0.09-0.22,0.247-0.208C2.36,5.289,2.417,5.384,2.387,5.479z M2.871,5.936
		c0.06,0.014,0.134,0.079,0.152,0.136C3.07,6.213,2.97,6.35,2.828,6.334c-0.082-0.009-0.156-0.084-0.2-0.111
		C2.62,6.002,2.721,5.901,2.871,5.936z M2.824,8.928C2.718,8.962,2.608,8.907,2.619,8.785c0.005-0.074,0.086-0.183,0.152-0.2
		c0.066-0.016,0.157,0.061,0.316,0.134C2.958,8.826,2.9,8.904,2.824,8.928z M2.765,7.609c-0.045,0-0.114-0.086-0.127-0.144
		C2.609,7.338,2.704,7.27,2.81,7.285c0.075,0.012,0.14,0.096,0.287,0.206C2.924,7.558,2.844,7.611,2.765,7.609z M4.685,10.878
		c-0.032-0.042-0.117-0.105-0.133-0.184c-0.032-0.145,0.032-0.258,0.201-0.258c0.111-0.001,0.197,0.041,0.207,0.176
		C4.972,10.763,4.891,10.869,4.685,10.878z M4.786,7.87c0.073,0.026,0.175,0.149,0.161,0.199C4.919,8.164,4.819,8.238,4.69,8.389
		C4.615,8.23,4.551,8.154,4.544,8.072C4.531,7.924,4.652,7.82,4.786,7.87z M4.374,9.106C4.382,9.11,4.39,9.113,4.396,9.118
		C4.4,9.125,4.404,9.134,4.406,9.141c0.167,0.018,0.335,0.033,0.533,0.052c0.019,0.233,0.037,0.433,0.053,0.632
		C5.144,9.827,5.303,9.798,5.448,9.83c0.061,0.014,0.117,0.149,0.132,0.238c0.007,0.042-0.079,0.128-0.137,0.147
		c-0.063,0.019-0.172,0.009-0.212-0.034c-0.096-0.104-0.164-0.235-0.243-0.357C4.971,9.778,4.956,9.693,4.933,9.69
		C4.597,9.653,4.5,9.399,4.406,9.141C4.398,9.14,4.39,9.14,4.381,9.14C4.379,9.127,4.377,9.117,4.374,9.106
		C4.226,9.031,4.077,8.954,3.927,8.877c0.002-0.312,0.002-0.312,0.335-0.326C4.299,8.734,4.337,8.919,4.374,9.106z M4.121,7.212
		c0.111,0,0.207,0.038,0.207,0.254C4.28,7.506,4.205,7.609,4.107,7.638C4.008,7.668,3.906,7.606,3.9,7.468
		C3.895,7.312,3.955,7.212,4.121,7.212z M3.471,6.473C3.578,6.61,3.658,6.67,3.678,6.747c0.039,0.152-0.051,0.256-0.202,0.241
		C3.403,6.981,3.278,6.876,3.283,6.827C3.292,6.729,3.377,6.638,3.471,6.473z M3.454,7.888c0.147-0.003,0.261,0.116,0.207,0.247
		C3.63,8.212,3.534,8.262,3.413,8.376C3.342,8.239,3.278,8.165,3.269,8.083C3.256,7.968,3.325,7.891,3.454,7.888z M3.256,9.314
		c0.026-0.068,0.15-0.109,0.237-0.141c0.038-0.014,0.094,0.025,0.186,0.054c0.008,0.182,0.017,0.379,0.024,0.576
		c0,0.001,0.001,0.001,0.001,0.003c0.003,0.004,0.004,0.006,0.008,0.01c0.195-0.005,0.392-0.015,0.58-0.023
		c0.047,0.209,0.085,0.374-0.13,0.422c-0.139,0.032-0.241-0.019-0.289-0.177C3.848,9.956,3.77,9.889,3.712,9.816
		c-0.003,0-0.005,0-0.008,0C3.703,9.812,3.703,9.808,3.703,9.804c-0.026-0.159-0.149-0.19-0.282-0.207
		C3.243,9.575,3.21,9.438,3.256,9.314z"/>
	<path fill="#E5E5E5" d="M10.2,17.452c-0.004-0.001-0.01-0.001-0.013-0.003l0.02,0.02C10.204,17.463,10.203,17.458,10.2,17.452z"/>
	<polygon fill="#E5E5E5" points="3.114,16.823 3.111,16.81 3.097,16.806 	"/>
	<polygon fill="#E5E5E5" points="3.112,19.388 3.097,19.385 3.115,19.401 	"/>
	<path fill="#E5E5E5" d="M1.826,9.09C1.824,9.084,1.823,9.08,1.823,9.074c-0.005,0-0.011-0.002-0.016-0.004L1.826,9.09z"/>
	<path fill="#E5E5E5" d="M14.074,14.892c0-0.007-0.003-0.012-0.005-0.017c-0.004-0.001-0.009-0.002-0.015-0.004L14.074,14.892z"/>
	<path fill="#E5E5E5" d="M8.917,9.734c0-0.005-0.002-0.01-0.002-0.014C8.91,9.719,8.903,9.716,8.897,9.715L8.917,9.734z"/>
	<polygon fill="#E5E5E5" points="12.766,3.271 12.773,3.284 12.783,3.289 	"/>
	<path fill="#E5E5E5" d="M6.964,11.649l0.02,0.019c-0.002-0.006-0.002-0.013-0.005-0.019C6.975,11.649,6.969,11.649,6.964,11.649
		L6.964,11.649z"/>
	<path fill="#E5E5E5" d="M6.338,3.287C6.337,3.283,6.336,3.278,6.335,3.274C6.33,3.272,6.325,3.271,6.32,3.27L6.338,3.287z"/>
	<polygon fill="#E5E5E5" points="5.682,9.077 5.685,9.081 5.688,9.082 	"/>
	<path fill="#E5E5E5" d="M9.543,5.203c0.002,0.003,0.003,0.006,0.004,0.011c0.006,0.003,0.01,0.005,0.013,0.009L9.543,5.203z"/>
	<polygon fill="#E5E5E5" points="14.065,17.461 14.071,17.465 14.055,17.451 	"/>
	<path fill="#E5E5E5" d="M10.207,4.578c-0.003-0.006-0.004-0.011-0.005-0.017c-0.006-0.001-0.012-0.002-0.017-0.003L10.207,4.578z"
		/>
	<polygon fill="#E5E5E5" points="9.543,18.096 9.55,18.108 9.56,18.113 	"/>
	<polygon fill="#E5E5E5" points="8.272,21.982 8.272,21.982 8.272,21.982 	"/>
	<path fill="#E5E5E5" d="M8.254,21.962c0,0.004,0.002,0.008,0.004,0.011c0.003,0.004,0.008,0.008,0.014,0.01
		c0,0-0.003-0.004-0.007-0.009C8.259,21.97,8.254,21.962,8.254,21.962z"/>
	<path fill="#E5E5E5" d="M8.917,21.336c0-0.004-0.002-0.01-0.002-0.018c-0.007,0-0.012-0.001-0.018-0.001L8.917,21.336z"/>
	<path fill="#E5E5E5" d="M8.265,21.974c0.004,0.005,0.007,0.009,0.007,0.009l0,0c0-0.009,0-0.013,0-0.018
		c-0.006,0-0.013,0-0.018-0.003C8.254,21.962,8.259,21.97,8.265,21.974z"/>
	<path fill="#E5E5E5" d="M8.917,21.336l-0.02-0.019c0.002,0.003,0.003,0.009,0.005,0.015C8.908,21.333,8.912,21.334,8.917,21.336z"
		/>
	<path fill="#E5E5E5" d="M8.334,21.17c-0.023,0.051-0.048,0.104-0.071,0.156c0.003,0.211,0.005,0.425,0.009,0.639
		c0.213,0,0.428,0.001,0.643,0.003c0.05-0.022,0.1-0.047,0.149-0.068c-0.053-0.189-0.108-0.38-0.162-0.567
		C8.713,21.278,8.522,21.223,8.334,21.17z"/>
	<polygon fill="#E5E5E5" points="3.097,19.385 3.102,19.398 3.115,19.401 	"/>
	<path fill="#E5E5E5" d="M2.502,19.306c0.156,0.253,0.328,0.492,0.516,0.722c0.056,0,0.112,0,0.168,0
		c0.026-0.021,0.051-0.039,0.076-0.063c-0.053-0.186-0.106-0.376-0.161-0.566C2.902,19.368,2.702,19.338,2.502,19.306z"/>
	<path fill="#E5E5E5" d="M6.985,3.912c0,0.008,0,0.015,0,0.022c0.206,0,0.414,0,0.622,0c0-0.007,0-0.015,0-0.021
		c0.009,0,0.019,0,0.029,0c0.018-0.159,0.035-0.319,0.053-0.479c-0.046-0.104-0.094-0.207-0.141-0.31
		C7.38,3.123,7.213,3.123,7.045,3.122C7.023,3.162,7.001,3.205,6.983,3.249l0,0C6.976,3.469,6.969,3.691,6.962,3.912
		C6.969,3.912,6.976,3.912,6.985,3.912z"/>
	<path fill="#E5E5E5" d="M14.06,14.885c0.006,0.002,0.01,0.005,0.015,0.007l-0.02-0.021C14.056,14.876,14.058,14.88,14.06,14.885z"
		/>
	<path fill="#E5E5E5" d="M13.43,15.539L13.43,15.539L13.43,15.539c0-0.008,0-0.017,0-0.025c-0.006,0-0.015,0-0.022,0L13.43,15.539z"
		/>
	<path fill="#E5E5E5" d="M13.432,14.83c-0.002,0.228-0.002,0.456-0.002,0.684c0.241,0.001,0.482,0.003,0.726,0.003
		c0.021-0.021,0.043-0.042,0.067-0.061c-0.057-0.191-0.109-0.381-0.163-0.571c-0.19-0.053-0.378-0.108-0.568-0.161
		C13.468,14.758,13.449,14.793,13.432,14.83z"/>
	<path fill="#E5E5E5" d="M9.563,12.291c0,0.007,0,0.014,0,0.022C9.556,12.311,9.55,12.311,9.54,12.31
		c0,0.206-0.001,0.412-0.003,0.618c0.009,0.003,0.019,0.005,0.025,0.009c0.003,0.009,0.005,0.018,0.009,0.026
		c0.227-0.009,0.456-0.019,0.684-0.029c0.035-0.016,0.067-0.036,0.101-0.06c-0.056-0.19-0.111-0.38-0.165-0.572
		C9.983,12.17,9.771,12.235,9.563,12.291z"/>
	<polygon fill="#E5E5E5" points="10.19,12.303 10.204,12.311 10.188,12.293 	"/>
	<path fill="#E5E5E5" d="M6.321,12.299c-0.146-0.11-0.305-0.133-0.48-0.069c-0.055,0.025-0.11,0.049-0.164,0.074
		c-0.005,0.206-0.01,0.411-0.015,0.618c0.01,0.005,0.021,0.01,0.031,0.017c0.001,0.007,0.002,0.014,0.003,0.021
		c0.216-0.007,0.431-0.013,0.647-0.019c0.049-0.019,0.096-0.041,0.141-0.067C6.43,12.683,6.376,12.492,6.321,12.299z"/>
	<path fill="#E5E5E5" d="M6.319,12.293c0,0.003,0,0.005,0.001,0.006c0.005,0.005,0.011,0.009,0.017,0.014L6.319,12.293z"/>
	<path fill="#E5E5E5" d="M10.283,11.652l0.023-0.029L10.283,11.652c0-0.001,0-0.001,0-0.002c-0.18,0.192-0.122,0.419-0.081,0.644
		c0.215,0.002,0.43,0.005,0.645,0.006c0.05-0.022,0.102-0.045,0.15-0.069c-0.039-0.183-0.081-0.365-0.124-0.548
		c-0.02-0.02-0.039-0.038-0.057-0.056C10.634,11.536,10.456,11.518,10.283,11.652z"/>
	<path fill="#E5E5E5" d="M10.204,12.311c0-0.005-0.001-0.012-0.002-0.018c-0.006,0-0.009,0-0.015,0L10.204,12.311z"/>
	<path fill="#E5E5E5" d="M6.338,12.313c0-0.006,0-0.014,0-0.021c-0.006,0-0.013,0-0.019,0L6.338,12.313z"/>
	<path fill="#E5E5E5" d="M6.971,11.659c-0.148-0.115-0.311-0.132-0.486-0.073c-0.054,0.024-0.107,0.049-0.162,0.074
		c0.004,0.21,0.008,0.422,0.014,0.633c0.228-0.003,0.457-0.007,0.686-0.01c0,0,0.006-0.001,0.011-0.001s0.013-0.002,0.018-0.002
		c0.003,0,0.005,0,0.005,0C7.104,12.061,7.103,11.85,6.971,11.659z"/>
	<path fill="#E5E5E5" d="M6.971,11.659c0.003,0.003,0.007,0.006,0.012,0.009l-0.02-0.019C6.966,11.653,6.967,11.655,6.971,11.659z"
		/>
	<polygon fill="#E5E5E5" points="5.688,9.082 5.688,9.077 5.682,9.077 	"/>
	<path fill="#E5E5E5" d="M5.961,8.379C5.92,8.374,5.88,8.368,5.84,8.363c-0.055,0.025-0.11,0.05-0.166,0.076
		c0.004,0.212,0.008,0.425,0.013,0.638c0.218,0,0.436-0.001,0.654-0.001c0.044-0.018,0.086-0.038,0.129-0.059
		C6.265,8.836,6.091,8.621,5.961,8.379z"/>
	<path fill="#E5E5E5" d="M3.73,10.987c-0.157-0.016-0.313-0.03-0.469-0.045c-0.058,0.026-0.116,0.053-0.173,0.079
		c0.005,0.155,0.013,0.312,0.019,0.468c0.047,0.055,0.095,0.109,0.143,0.161c0.171,0.001,0.343,0.001,0.515,0.002
		c0.029-0.007,0.057-0.017,0.083-0.031c-0.024-0.195-0.047-0.391-0.071-0.587L3.73,10.987z"/>
	<polygon fill="#E5E5E5" points="9.56,18.096 9.543,18.096 9.56,18.113 	"/>
	<path fill="#E5E5E5" d="M10.355,18.031c-0.056-0.188-0.109-0.376-0.162-0.565c-0.162-0.026-0.323-0.053-0.485-0.079
		c-0.013,0.005-0.027,0.011-0.039,0.017c-0.037,0.046-0.078,0.09-0.117,0.131c0.001,0.187,0.005,0.374,0.008,0.562
		c0.217,0,0.435,0.002,0.651,0.004C10.261,18.079,10.309,18.056,10.355,18.031z"/>
	<polygon fill="#E5E5E5" points="10.207,17.469 10.188,17.449 10.193,17.466 10.207,17.47 	"/>
	<path fill="#E5E5E5" d="M2.457,17.466c-0.162-0.026-0.323-0.053-0.484-0.079c-0.053,0.023-0.105,0.048-0.158,0.071
		c-0.002,0.097-0.003,0.192-0.005,0.288c0.037,0.128,0.075,0.252,0.121,0.374c0.185-0.009,0.37-0.018,0.556-0.024h0.001
		c0.044-0.02,0.089-0.04,0.131-0.066C2.564,17.843,2.51,17.655,2.457,17.466z"/>
	<polygon fill="#E5E5E5" points="2.453,17.451 2.457,17.466 2.469,17.469 	"/>
	<path fill="#E5E5E5" d="M12.778,3.143c0.002,0.043,0.003,0.085,0.003,0.126c0.036,0,0.07,0,0.104,0
		C12.85,3.227,12.814,3.186,12.778,3.143z"/>
	<path fill="#E5E5E5" d="M12.781,3.27c-0.005,0-0.009,0-0.018,0.001h0.002l0.018,0.018C12.783,3.282,12.783,3.276,12.781,3.27z"/>
	<path fill="#E5E5E5" d="M14.058,16.821c0.003,0.209,0.01,0.419,0.012,0.63c0.031,0,0.06,0,0.089,0
		c0.056-0.229,0.097-0.463,0.128-0.699c-0.072,0.014-0.141,0.035-0.212,0.054c0,0.006,0,0.013,0,0.018
		C14.068,16.823,14.063,16.821,14.058,16.821z"/>
	<polygon fill="#E5E5E5" points="14.071,17.465 14.069,17.451 14.055,17.451 	"/>
	<path fill="#E5E5E5" d="M12.877,16.778c-0.027,0.011-0.054,0.021-0.081,0.029c-0.004,0.214-0.008,0.428-0.013,0.644
		c0.236-0.002,0.47-0.004,0.704-0.006c0,0,0.019-0.005,0.028-0.006l0.006-0.001C13.469,16.778,13.434,16.744,12.877,16.778z"/>
	<path fill="#E5E5E5" d="M12.764,17.451l0.02,0.019c0,0,0-0.001,0-0.004c0-0.005,0-0.011,0-0.015
		C12.778,17.451,12.772,17.451,12.764,17.451z"/>
	<path fill="#E5E5E5" d="M2.568,16.783L2.491,16.8c-0.006,0.219-0.014,0.434-0.021,0.651c0.222,0,0.444-0.002,0.666-0.002
		c0.044-0.017,0.087-0.037,0.128-0.063c-0.055-0.191-0.11-0.381-0.164-0.571C2.929,16.724,2.753,16.681,2.568,16.783z"/>
	<path fill="#E5E5E5" d="M2.47,17.451c-0.006,0-0.013,0-0.017,0l0.016,0.018C2.469,17.463,2.47,17.455,2.47,17.451z"/>
	<polygon fill="#E5E5E5" points="3.097,16.806 3.1,16.815 3.114,16.823 	"/>
	<path fill="#E5E5E5" d="M5.698,3.911C5.689,3.91,5.68,3.91,5.672,3.91l0.026,0.028C5.698,3.928,5.698,3.92,5.698,3.911z"/>
	<path fill="#E5E5E5" d="M6.32,3.27c0.003,0.006,0.005,0.01,0.008,0.015c0.004,0.001,0.007,0.003,0.01,0.003L6.32,3.27z"/>
	<path fill="#E5E5E5" d="M6.319,3.931c0-0.006,0-0.012,0-0.019c0.007,0,0.016,0,0.025,0c0.043-0.21,0.117-0.421-0.016-0.627
		C6.137,3.229,5.947,3.175,5.755,3.12C5.73,3.158,5.711,3.198,5.694,3.239c0.001,0.223,0.002,0.448,0.004,0.672
		C5.905,3.917,6.113,3.924,6.319,3.931z"/>
	<path fill="#E5E5E5" d="M1.895,9.373C1.866,9.275,1.837,9.178,1.81,9.08C1.806,9.078,1.804,9.077,1.801,9.075
		C1.83,9.174,1.861,9.274,1.895,9.373z"/>
	<path fill="#E5E5E5" d="M1.81,9.08c0.005,0.004,0.011,0.006,0.016,0.01L1.807,9.07C1.809,9.074,1.809,9.077,1.81,9.08z"/>
	<path fill="#E5E5E5" d="M14.079,16.184c-0.001-0.012-0.001-0.021-0.003-0.031c-0.008,0-0.017,0-0.023,0L14.079,16.184z"/>
	<path fill="#E5E5E5" d="M14.076,16.152c0.085,0,0.171,0.003,0.256,0.005c0.002-0.066,0.005-0.132,0.005-0.197v-0.486
		c-0.038-0.006-0.077-0.013-0.114-0.018c-0.024,0.019-0.046,0.04-0.067,0.061C13.971,15.711,14.051,15.935,14.076,16.152z"/>
	<path fill="#E5E5E5" d="M3.263,16.098c-0.013-0.046-0.027-0.093-0.04-0.138H2.477c-0.002,0.068-0.004,0.136-0.005,0.205
		c0.224-0.003,0.45-0.005,0.674-0.008C3.188,16.144,3.226,16.121,3.263,16.098z"/>
	<path fill="#E5E5E5" d="M2.472,16.165c-0.008,0-0.015,0-0.022,0l0.021,0.016C2.47,16.174,2.472,16.172,2.472,16.165z"/>
	<path fill="#E5E5E5" d="M10.186,5.215c0.056-0.025,0.112-0.049,0.168-0.074c-0.056-0.192-0.112-0.385-0.164-0.576
		c-0.146-0.109-0.308-0.124-0.481-0.071C9.663,4.522,9.615,4.543,9.565,4.563C9.564,4.776,9.563,4.99,9.56,5.204
		C9.771,5.208,9.978,5.211,10.186,5.215z"/>
	<path fill="#E5E5E5" d="M10.186,4.558c0.002,0.002,0.002,0.004,0.004,0.007c0.006,0.005,0.011,0.008,0.018,0.013L10.186,4.558z"/>
	<path fill="#E5E5E5" d="M9.56,5.204C9.556,5.203,9.547,5.203,9.543,5.203l0.017,0.02C9.56,5.217,9.56,5.21,9.56,5.204z"/>
	<path fill="#E5E5E5" d="M8.896,10.358c0.01-0.002,0.02-0.005,0.03-0.007c0.073-0.21,0.147-0.419-0.021-0.625
		C8.757,9.615,8.594,9.599,8.419,9.652c-0.055,0.025-0.108,0.05-0.163,0.075c0.002,0.213,0.003,0.426,0.005,0.639l0.005,0.004
		c0.21,0.005,0.422,0.011,0.631,0.015C8.897,10.376,8.897,10.368,8.896,10.358z"/>
	<polygon fill="#E5E5E5" points="8.897,9.715 8.904,9.726 8.917,9.734 	"/>
	<path fill="#E5E5E5" d="M5.694,7.319c0-0.061,0.004-0.12,0.009-0.179c-0.004,0-0.007,0-0.01,0c0,0.005-0.001,0.01-0.001,0.015
		C5.688,7.153,5.682,7.151,5.678,7.15C5.676,7.357,5.674,7.564,5.673,7.771c0,0.01,0,0.021-0.001,0.032c0.007,0,0.015,0,0.022,0
		c0.018,0,0.036,0,0.054,0C5.714,7.647,5.694,7.485,5.694,7.319z"/>
	<path fill="#E5E5E5" d="M6.964,5.207C6.758,5.213,6.553,5.219,6.348,5.225c0.001,0.169,0.003,0.337,0.004,0.506
		c0.181-0.182,0.395-0.33,0.626-0.442C6.98,5.267,6.98,5.244,6.981,5.222c-0.005,0-0.012,0-0.018,0
		C6.964,5.217,6.964,5.212,6.964,5.207z"/>
	<path fill="#E5E5E5" d="M6.317,5.227c0.009,0,0.02,0,0.031-0.001c0-0.007,0-0.015-0.001-0.022L6.317,5.227z"/>
	<path fill="#E5E5E5" d="M3.743,5.204c0.006-0.001,0.013-0.001,0.019-0.001c0.01-0.072,0.023-0.145,0.023-0.217
		C3.782,4.603,3.717,4.537,3.329,4.526C3.263,4.524,3.196,4.54,3.13,4.55C3.118,4.553,3.106,4.555,3.094,4.556
		c0,0.007,0,0.015,0,0.022c0,0.207,0,0.413-0.001,0.62c0,0.009,0,0.018,0,0.028c0.011,0,0.021-0.001,0.032-0.001
		C3.331,5.223,3.537,5.222,3.743,5.22C3.743,5.214,3.743,5.209,3.743,5.204z"/>
	<path fill="#E5E5E5" d="M5.693,7.139c0.002-0.073,0.005-0.145,0.003-0.217C5.68,6.542,5.624,6.491,5.225,6.506
		C5.174,6.508,5.122,6.521,5.071,6.529c-0.004,0.56-0.004,0.56,0.544,0.606c0.02,0.002,0.042,0.009,0.063,0.015
		c0.004,0.001,0.009,0.003,0.014,0.004C5.692,7.149,5.693,7.144,5.693,7.139z"/>
	<path fill="#E5E5E5" d="M5.004,6.463C5.014,6.41,5.03,6.359,5.032,6.305c0.011-0.407-0.031-0.447-0.448-0.441
		c-0.054,0.001-0.107,0.013-0.16,0.018C4.428,6.466,4.435,6.473,5.004,6.463z"/>
	<path fill="#E5E5E5" d="M3.743,5.22c0.003,0.071,0.002,0.143,0.009,0.213C3.787,5.78,3.829,5.824,4.158,5.854
		C4.234,5.861,4.311,5.85,4.388,5.848c0.009-0.076,0.027-0.151,0.026-0.226C4.41,5.253,4.357,5.202,3.968,5.191
		C3.899,5.189,3.831,5.197,3.761,5.203c-0.006,0-0.012,0-0.019,0.001C3.743,5.209,3.743,5.214,3.743,5.22z"/>
	<path fill="#E5E5E5" d="M5.701,4.581C5.697,4.65,5.688,4.719,5.694,4.786c0.027,0.325,0.09,0.385,0.422,0.417
		c0.067,0.006,0.132,0.002,0.2,0.001c-0.001-0.207-0.001-0.413-0.002-0.62C6.11,4.583,5.905,4.583,5.701,4.581z"/>
	<path fill="#E5E5E5" d="M6.317,5.204c0,0.007,0,0.015,0,0.022l0.03-0.024C6.336,5.203,6.326,5.203,6.317,5.204z"/>
	<path fill="#E5E5E5" d="M6.314,4.584c0.008,0,0.018,0.001,0.025,0.001l-0.025-0.03C6.314,4.565,6.314,4.575,6.314,4.584z"/>
	<path fill="#E5E5E5" d="M5.671,4.58c0.01,0,0.021,0,0.03,0.001c0-0.009,0.001-0.018,0.001-0.025L5.671,4.58z"/>
	<path fill="#E5E5E5" d="M5.672,3.91c0,0.008,0,0.018,0,0.026c0.008,0,0.018,0,0.026,0.002L5.672,3.91z"/>
	<path fill="#E5E5E5" d="M5.47,4.563c0.067,0.005,0.134-0.001,0.201-0.006c0.001-0.206,0.001-0.413,0.001-0.621
		C5.464,3.928,5.257,3.921,5.049,3.913c-0.006-0.001-0.014-0.001-0.02-0.001c0,0.008,0,0.016,0,0.023c0.001,0.07,0,0.141,0.01,0.21
		C5.083,4.482,5.139,4.537,5.47,4.563z"/>
	<path fill="#E5E5E5" d="M5.671,4.557c0,0.009,0,0.017,0,0.023l0.031-0.024C5.692,4.556,5.681,4.557,5.671,4.557z"/>
	<path fill="#E5E5E5" d="M4.127,4.546c0.106-0.028,0.228-0.138,0.271-0.242c0.043-0.106,0.014-0.244,0.008-0.37
		c0-0.008,0-0.015,0-0.023c-0.007,0-0.016,0-0.023,0c-0.208,0-0.414,0.001-0.621,0.001c-0.007,0-0.014,0-0.021,0
		c0,0.008,0,0.014,0,0.022c0.008,0.125,0.003,0.252,0.031,0.372C3.815,4.482,3.957,4.588,4.127,4.546z"/>
	<path fill="#E5E5E5" d="M4.757,5.177C4.917,5.167,5.043,5.02,5.036,4.851C5.031,4.684,4.886,4.558,4.64,4.578
		C4.588,4.655,4.469,4.765,4.442,4.893C4.412,5.043,4.602,5.187,4.757,5.177z"/>
	<path fill="#E5E5E5" d="M5.889,6.407c0.089-0.199,0.206-0.383,0.345-0.546c-0.119,0-0.237-0.004-0.337,0.04
		C5.81,5.94,5.719,6.111,5.736,6.205C5.747,6.273,5.815,6.357,5.889,6.407z"/>
	<path fill="#E5E5E5" d="M5.362,5.811c0.145,0.016,0.329-0.126,0.3-0.274C5.638,5.413,5.525,5.305,5.411,5.125
		C5.267,5.288,5.142,5.377,5.093,5.498C5.042,5.626,5.211,5.795,5.362,5.811z"/>
	<path fill="#E5E5E5" d="M6.985,13.598c0-0.006,0-0.013,0-0.019L6.96,13.603C6.969,13.602,6.976,13.599,6.985,13.598z"/>
	<path fill="#E5E5E5" d="M7.602,13.701c-0.055-0.11-0.174-0.141-0.409-0.138c-0.069,0.001-0.138,0.021-0.208,0.034
		c0,0.013,0,0.025,0,0.038C7.188,13.668,7.394,13.688,7.602,13.701z"/>
	<path fill="#E5E5E5" d="M13.428,16.151c-0.007,0-0.01,0-0.015,0c-0.004,0.011-0.006,0.021-0.008,0.03L13.428,16.151z"/>
	<path fill="#E5E5E5" d="M13.416,15.537c-0.205-0.006-0.412-0.015-0.617-0.021c-0.011-0.002-0.023-0.003-0.035-0.003
		c0,0.009,0,0.018,0,0.025c-0.001,0.206-0.001,0.412-0.001,0.618c0,0.008,0,0.017,0,0.024c0.011,0,0.019,0,0.029-0.001
		c0.207-0.009,0.413-0.019,0.621-0.029C13.467,15.947,13.498,15.742,13.416,15.537z"/>
	<path fill="#E5E5E5" d="M13.407,15.514c0.004,0.008,0.008,0.018,0.009,0.023c0.005,0.002,0.01,0.002,0.013,0.002h0.001
		L13.407,15.514z"/>
	<path fill="#E5E5E5" d="M14.053,16.184c0.008,0,0.017,0,0.026,0l-0.026-0.031C14.053,16.162,14.053,16.172,14.053,16.184z"/>
	<path fill="#E5E5E5" d="M13.43,16.182c-0.001-0.01-0.001-0.02-0.002-0.03l-0.022,0.03C13.415,16.182,13.421,16.182,13.43,16.182z"
		/>
	<path fill="#E5E5E5" d="M13.444,16.303c0.031,0.444,0.031,0.444,0.48,0.494c0.044,0.003,0.087,0.015,0.133,0.024
		c0.006,0,0.011,0.002,0.017,0.002c0-0.005,0-0.012,0-0.018c-0.007-0.208-0.015-0.416-0.021-0.622
		c-0.206-0.002-0.414-0.002-0.623-0.002C13.438,16.223,13.442,16.261,13.444,16.303z"/>
	<path fill="#E5E5E5" d="M2.441,18.723c-0.097-0.054-0.195-0.085-0.296-0.081c0.103,0.22,0.216,0.435,0.342,0.64
		c0.123-0.171,0.09-0.344-0.001-0.514c-0.005-0.009-0.01-0.019-0.015-0.027C2.46,18.733,2.451,18.729,2.441,18.723z"/>
	<path fill="#E5E5E5" d="M6.344,12.941c-0.011,0.186-0.021,0.371-0.032,0.557c0.133,0.035,0.268,0.065,0.404,0.092
		c0.083-0.005,0.169-0.007,0.255-0.01c0.094-0.209,0.137-0.417,0.001-0.626c-0.164-0.025-0.325-0.053-0.487-0.08
		C6.44,12.901,6.393,12.922,6.344,12.941z"/>
	<path fill="#E5E5E5" d="M6.985,13.579c-0.005,0-0.011,0.001-0.014,0.001c-0.004,0.008-0.007,0.016-0.011,0.022L6.985,13.579z"/>
	<path fill="#E5E5E5" d="M6.973,12.954c0.003,0.001,0.005,0.002,0.009,0.003l-0.018-0.018C6.967,12.943,6.969,12.949,6.973,12.954z"
		/>
	<polygon fill="#E5E5E5" points="9.537,11.024 9.539,11.024 9.539,11.023 	"/>
	<path fill="#E5E5E5" d="M9.539,11.024c0.008-0.003,0.017-0.006,0.025-0.009c0-0.003,0-0.009,0-0.013l-0.006,0.004
		C9.552,11.013,9.539,11.023,9.539,11.024z"/>
	<path fill="#E5E5E5" d="M9.565,11.671c0-0.01,0-0.019,0-0.027c-0.009,0-0.019,0-0.028,0.001L9.565,11.671z"/>
	<path fill="#E5E5E5" d="M9.564,11.015c0,0.21,0.001,0.419,0.001,0.629c0.237-0.007,0.477-0.013,0.716-0.02
		c-0.024-0.197-0.048-0.396-0.07-0.593c-0.002-0.009-0.002-0.018-0.004-0.028c-0.012-0.006-0.024-0.01-0.037-0.016
		C9.966,10.9,9.765,10.943,9.564,11.015z"/>
	<path fill="#E5E5E5" d="M10.283,11.652l0.023-0.029c-0.009,0-0.017,0.001-0.025,0.001c0,0.009,0.002,0.017,0.002,0.025
		C10.283,11.651,10.283,11.651,10.283,11.652z"/>
	<path fill="#E5E5E5" d="M7.614,12.309c0.005,0.002,0.009,0.004,0.012,0.005l-0.021-0.021C7.609,12.298,7.613,12.304,7.614,12.309z"
		/>
	<path fill="#E5E5E5" d="M6.981,12.957c0.002-0.006,0.002-0.011,0.002-0.018c-0.007,0-0.014,0-0.02,0L6.981,12.957z"/>
	<path fill="#E5E5E5" d="M7.632,12.934c0.051-0.209,0.103-0.419-0.018-0.625c-0.181-0.077-0.362-0.132-0.557-0.03
		c0,0-0.001,0-0.005,0c-0.005,0-0.012,0.002-0.018,0.002s-0.011,0.001-0.011,0.001c-0.014,0.218-0.028,0.438-0.041,0.656
		c0.208,0.007,0.417,0.013,0.628,0.02c-0.002-0.008-0.002-0.015-0.004-0.021C7.616,12.936,7.624,12.935,7.632,12.934z"/>
	<path fill="#E5E5E5" d="M4.41,11.684c-0.001-0.012-0.003-0.024-0.005-0.036c-0.009-0.004-0.018-0.008-0.027-0.013
		c-0.172-0.082-0.348-0.118-0.528-0.015c-0.027,0.015-0.055,0.024-0.083,0.031c-0.001,0.164-0.003,0.328-0.004,0.492
		c0.059,0.051,0.119,0.101,0.18,0.15c0.155,0.001,0.312,0.002,0.467,0.004c0.029-0.008,0.056-0.019,0.082-0.03
		C4.464,12.074,4.437,11.879,4.41,11.684z"/>
	<path fill="#E5E5E5" d="M1.815,16.813c-0.068-0.056-0.141-0.09-0.216-0.104c0.029,0.256,0.075,0.506,0.134,0.751
		c0.028,0,0.054-0.001,0.082-0.003c0.052-0.023,0.105-0.048,0.158-0.071C1.92,17.194,1.868,17.004,1.815,16.813z"/>
	<polygon fill="#E5E5E5" points="1.813,16.81 1.815,16.813 1.822,16.82 	"/>
	<polygon fill="#E5E5E5" points="1.813,16.81 1.822,16.82 1.819,16.81 	"/>
	<path fill="#E5E5E5" d="M2.568,16.783c0.016-0.216,0.021-0.43-0.116-0.615c-0.173-0.107-0.35-0.15-0.536-0.021L1.89,16.145
		c-0.154,0.208-0.133,0.434-0.071,0.665c0.224-0.004,0.448-0.007,0.672-0.01L2.568,16.783z"/>
	<path fill="#E5E5E5" d="M2.45,16.165c0.001,0,0.001,0.003,0.002,0.003c0.005,0.004,0.012,0.006,0.019,0.013L2.45,16.165z"/>
	<path fill="#E5E5E5" d="M8.273,4.577c-0.007,0-0.014,0-0.02,0C8.252,4.749,8.252,4.92,8.252,5.093
		c0.176,0.024,0.346,0.068,0.508,0.131c0.044,0,0.088,0,0.135,0c0.007,0,0.016,0,0.023,0c0-0.011,0-0.021,0-0.032
		c0-0.202,0-0.405,0-0.608c0-0.009,0-0.018,0-0.028c-0.009,0-0.018,0-0.026,0C8.686,4.557,8.479,4.557,8.273,4.558
		C8.273,4.564,8.273,4.57,8.273,4.577z"/>
	<polygon fill="#E5E5E5" points="8.92,11.028 8.92,11.028 8.92,11.028 	"/>
	<path fill="#E5E5E5" d="M8.926,10.351c-0.011,0.002-0.02,0.005-0.03,0.007c0.002,0.01,0.002,0.018,0.002,0.026
		c0.007,0.206,0.014,0.412,0.021,0.618c0.21,0,0.419,0,0.627,0c0.076-0.199,0.106-0.4,0.03-0.606
		c-0.003-0.012-0.007-0.025-0.014-0.038c-0.01-0.004-0.02-0.007-0.029-0.01C9.331,10.27,9.129,10.3,8.926,10.351z"/>
	<path fill="#E5E5E5" d="M8.92,11.028c0-0.009-0.002-0.018-0.002-0.026c-0.007,0-0.016,0-0.025,0L8.92,11.028z"/>
	<path fill="#E5E5E5" d="M9.539,11.024L9.539,11.024L9.539,11.024c0-0.001,0.013-0.012,0.02-0.018l0.006-0.004
		c-0.006,0-0.012,0-0.019,0c-0.001,0.007-0.006,0.014-0.007,0.021V11.024z"/>
	<path fill="#E5E5E5" d="M8.272,11.649c0,0.005,0,0.012,0,0.018c0.206-0.008,0.414-0.017,0.622-0.025c0-0.205,0-0.411,0-0.615
		c-0.203-0.008-0.407-0.016-0.609-0.024c-0.011,0-0.021,0-0.034,0c0,0.007,0,0.014,0,0.022c0.002,0.208,0.002,0.416,0.002,0.625
		C8.259,11.649,8.266,11.649,8.272,11.649z"/>
	<path fill="#E5E5E5" d="M8.894,11.643c0,0.009,0,0.019,0,0.029l0.025-0.03C8.91,11.642,8.901,11.642,8.894,11.643z"/>
	<path fill="#E5E5E5" d="M8.92,11.028l-0.027-0.026c0,0.007,0,0.017,0,0.025C8.903,11.028,8.912,11.028,8.92,11.028L8.92,11.028z"/>
	<path fill="#E5E5E5" d="M7.607,3.912c0,0.007,0,0.014,0,0.021c0,0.208,0.002,0.417,0.002,0.625c0.005,0,0.012,0,0.02,0
		c0,0.006,0,0.013,0,0.02c0.208,0,0.416,0,0.625,0c0.005,0,0.012,0,0.02,0c0-0.007,0-0.013,0-0.019c0-0.205,0-0.408,0-0.611
		c0-0.012,0-0.024,0-0.035c-0.009,0-0.02,0-0.028,0c-0.203,0-0.407,0-0.61,0C7.625,3.912,7.616,3.912,7.607,3.912z"/>
	<path fill="#E5E5E5" d="M7.626,12.314c0-0.006,0-0.015,0-0.022c-0.007,0-0.014,0-0.021,0.001L7.626,12.314z"/>
	<path fill="#E5E5E5" d="M8.272,11.649c-0.006,0-0.013,0-0.02,0c-0.205-0.001-0.409-0.001-0.615-0.002c-0.009,0-0.02,0-0.031,0
		c0,0.006,0,0.013,0,0.02c0.007,0.208,0.013,0.417,0.02,0.625c0.207,0,0.413-0.002,0.62-0.004c0.007-0.206,0.017-0.414,0.025-0.62
		C8.272,11.661,8.272,11.655,8.272,11.649z"/>
	<path fill="#E5E5E5" d="M8.247,12.288c0,0.011-0.001,0.02-0.001,0.029l0.032-0.029C8.266,12.288,8.256,12.288,8.247,12.288z"/>
	<path fill="#E5E5E5" d="M6.339,4.585c0-0.011,0-0.02-0.001-0.03c-0.007,0-0.016,0-0.024,0L6.339,4.585z"/>
	<path fill="#E5E5E5" d="M6.966,4.575c0-0.004,0-0.01,0-0.015c0.005,0,0.01,0,0.017,0c0-0.209,0-0.417,0.002-0.626
		c0-0.007,0-0.014,0-0.022c-0.009,0-0.016,0-0.023,0c-0.207,0-0.412,0-0.618,0c-0.009,0-0.018,0-0.025,0c0,0.007,0,0.013,0,0.019
		c0.007,0.208,0.013,0.416,0.019,0.625C6.547,4.562,6.756,4.568,6.966,4.575z"/>
	<path fill="#E5E5E5" d="M8.918,13.605c0-0.009,0.002-0.017,0.002-0.024c-0.009,0-0.018,0-0.027-0.001L8.918,13.605z"/>
	<path fill="#E5E5E5" d="M9.537,12.928c-0.209-0.081-0.412-0.049-0.615,0.025c-0.002,0.21-0.002,0.419-0.002,0.628
		c0.079,0.003,0.159,0.004,0.238,0.009c0.15-0.03,0.299-0.066,0.446-0.106c0.048-0.172,0.017-0.346-0.033-0.52
		c-0.004-0.008-0.006-0.018-0.009-0.026C9.556,12.933,9.546,12.931,9.537,12.928z"/>
	<path fill="#E5E5E5" d="M8.896,12.963c0.009-0.003,0.018-0.005,0.027-0.01c0-0.005,0-0.012,0-0.019L8.896,12.963z"/>
	<path fill="#E5E5E5" d="M8.894,13.604c0.009,0.001,0.018,0.001,0.025,0.002L8.894,13.58C8.894,13.588,8.894,13.597,8.894,13.604z"
		/>
	<path fill="#E5E5E5" d="M8.272,13.599c-0.006,0-0.011,0-0.018-0.001c0.002,0.035,0.004,0.069,0.004,0.104
		c0.217-0.011,0.428-0.033,0.638-0.065c0-0.013,0-0.021-0.002-0.032c-0.206-0.006-0.414-0.012-0.62-0.019
		C8.273,13.591,8.272,13.596,8.272,13.599z"/>
	<path fill="#E5E5E5" d="M5.052,12.314c-0.001-0.006-0.003-0.014-0.004-0.021c-0.013-0.008-0.025-0.015-0.038-0.021
		c-0.17-0.094-0.341-0.122-0.52-0.004c-0.026,0.011-0.053,0.021-0.082,0.03c-0.041,0.099-0.06,0.198-0.062,0.297
		c0.186,0.127,0.377,0.245,0.577,0.353c0.036,0.001,0.071,0.001,0.108,0.002c0.041-0.014,0.079-0.032,0.115-0.056
		C5.114,12.702,5.083,12.508,5.052,12.314z"/>
	<path fill="#E5E5E5" d="M5.054,16.182c0.205,0,0.41,0,0.614,0c0.009,0,0.018,0,0.026,0c0.004-0.01,0.006-0.02,0.009-0.029
		c-0.005-0.063-0.009-0.127-0.009-0.192H5.035c-0.001,0.062-0.003,0.126-0.006,0.188c0,0.012-0.001,0.024-0.001,0.034
		C5.036,16.182,5.045,16.182,5.054,16.182z"/>
	<path fill="#E5E5E5" d="M5.663,12.922c-0.166-0.087-0.337-0.117-0.517-0.029c-0.036,0.024-0.074,0.042-0.115,0.056
		c0.001,0.018,0.001,0.036,0.002,0.055c0.23,0.119,0.469,0.225,0.715,0.315c-0.018-0.12-0.034-0.24-0.051-0.36
		c-0.001-0.007-0.002-0.015-0.003-0.021C5.683,12.933,5.673,12.928,5.663,12.922z"/>
	<path fill="#E5E5E5" d="M7.609,4.558c-0.209,0-0.418,0.001-0.625,0.001c-0.007,0-0.012,0-0.017,0c0,0.005,0,0.011,0,0.015
		c0,0.211,0,0.421-0.002,0.632c0,0.005,0,0.01,0,0.015c0.005,0,0.012,0,0.018,0c0.052,0,0.104,0,0.153,0
		c0.158-0.061,0.324-0.104,0.494-0.129c0-0.171,0-0.344,0-0.516c0-0.007,0-0.013,0-0.02C7.621,4.558,7.614,4.558,7.609,4.558z"/>
	<path fill="#E5E5E5" d="M8.246,12.316c0.01-0.001,0.019-0.002,0.028-0.002c0.002-0.01,0.002-0.018,0.004-0.027L8.246,12.316z"/>
	<path fill="#E5E5E5" d="M8.273,12.314c-0.003,0.069-0.013,0.138-0.007,0.207c0.027,0.33,0.091,0.395,0.423,0.422
		c0.068,0.005,0.139-0.003,0.208-0.007C8.949,12.287,8.922,12.26,8.273,12.314z"/>
	<path fill="#E5E5E5" d="M8.897,12.936c-0.002,0.01-0.002,0.017-0.002,0.027l0.027-0.029C8.914,12.934,8.904,12.935,8.897,12.936z"
		/>
	<path fill="#E5E5E5" d="M9.539,11.671c0.008,0,0.018,0,0.026,0l-0.028-0.026C9.537,11.653,9.539,11.663,9.539,11.671z"/>
	<path fill="#E5E5E5" d="M8.918,11.671c0,0.042,0,0.084,0.002,0.125c0.018,0.441,0.037,0.46,0.487,0.501
		c0.045,0.003,0.089,0.009,0.133,0.012c0.01,0.001,0.016,0.001,0.022,0.003c0-0.009,0-0.015,0-0.022
		c-0.007-0.207-0.017-0.413-0.023-0.62C9.333,11.671,9.125,11.671,8.918,11.671z"/>
	<path fill="#E5E5E5" d="M8.894,11.671c0.009,0,0.016,0,0.025,0c0-0.01,0-0.021,0-0.03L8.894,11.671z"/>
	<path fill="#E5E5E5" d="M1.883,15.96h-0.33c0,0.063,0.003,0.127,0.005,0.191c0.11-0.002,0.221-0.005,0.331-0.007l0.026,0.002
		C1.905,16.084,1.895,16.021,1.883,15.96z"/>
	<path fill="#E5E5E5" d="M8.273,13.585c0.005-0.072,0.016-0.144,0.015-0.216c-0.01-0.389-0.057-0.437-0.448-0.449
		c-0.069-0.002-0.14,0.009-0.208,0.014c-0.008,0.001-0.016,0.002-0.025,0.003c0.002,0.006,0.002,0.014,0.004,0.021
		c0.003,0.043,0.007,0.089,0.01,0.132c0.037,0.448,0.05,0.462,0.496,0.494c0.046,0.006,0.092,0.01,0.137,0.013
		c0.007,0.001,0.012,0.001,0.018,0.001C8.272,13.596,8.273,13.591,8.273,13.585z"/>
</g>
</svg>
